<svg xmlns="http://www.w3.org/2000/svg" viewBox="0 0 276 250.8"><defs><style>.a{fill:#00549b;}.b{fill:#385624;}.c{fill:#dfdd00;}</style></defs><title>ViPer</title><path class="a" d="M0,0H128c65.1,0,129.6,15.2,129.6,78.4,0,37.9-32.1,66.2-66.7,67.4l7.5,9.3c4.5,6.1,5.8,6.9,11.5,14.2L276,250.8H163.4L98.1,158.6h-4l.2,92.2H0ZM95.4,111.1l28.6.2c15,.2,32.8-11.3,30.8-29.8-2-19.2-16.9-26.9-51.7-26.1h-8Z"/><path class="b" d="M223.9,242.1H168l-50.9-116a29.72,29.72,0,0,1,0-7.3,29.09,29.09,0,0,1,3.2-9.4c5.6-11.2,4.6-10.7,7.4-15.6a87.69,87.69,0,0,1,20-23.3c24.9-19.6,71.4-18.9,96.4,0,5.6,4.3,15.4,13.4,21.3,24.2a114.8,114.8,0,0,1,5.6,12.4c2.4,5.6,3.3,8.3,3.7,11.7a29.72,29.72,0,0,1,0,7.3Z"/><path class="c" d="M270.8,91.4,244.2,70.5l-46.5,34.3-.2,50.2a33.9,33.9,0,0,1,2.3,2.5c.1.2,1.3,1.4,2,2.3l16.5-8.7c7-3.8,14.1-7.7,21.2-11.7,12.1-6.8,23.9-13.7,35.4-20.6Zm-65.5,63.5,2.4-7.7,5.3,2.2Zm31.3-39.6H217l14.3-5.5,10.2-10.1,5.2,5.4Z"/><path class="c" d="M220.5,154.1l11-5.6L229.9,170,210,194.1l12.3-24.3Z"/><polygon class="c" points="274.8 126.1 250 141.6 246.3 163.1 234.2 172 213.5 223.3 197.4 225.9 197.4 242.1 223.9 242.1 274.8 126.1"/><path class="c" d="M117.2,118.8c11.4,6.9,23.2,13.7,35.4,20.6,7.1,4,14.2,7.9,21.2,11.7l16.5,8.7c.7-.9,1.9-2.2,2-2.3s1.5-1.7,2.3-2.5c-.1-16.7-.1-33.5-.2-50.2L147.9,70.5,121.3,91.4ZM179,149.5l5.3-2.2,2.4,7.7Zm-33.7-44.6,5.2-5.4,10.2,10.2,14.3,5.6H155.4Z"/><path class="c" d="M171.4,154.1l-11-5.6L162,170l19.9,24.1-12.3-24.3Z"/><polygon class="c" points="117.2 126.1 142 141.6 145.6 163.1 157.8 172 178.5 223.3 194.5 225.9 194.5 242.1 168.1 242.1 117.2 126.1"/></svg>