<?xml version="1.0" encoding="UTF-8" standalone="no"?>
<svg
   xmlns:dc="http://purl.org/dc/elements/1.1/"
   xmlns:cc="http://creativecommons.org/ns#"
   xmlns:rdf="http://www.w3.org/1999/02/22-rdf-syntax-ns#"
   xmlns:svg="http://www.w3.org/2000/svg"
   xmlns="http://www.w3.org/2000/svg"
   xmlns:sodipodi="http://sodipodi.sourceforge.net/DTD/sodipodi-0.dtd"
   xmlns:inkscape="http://www.inkscape.org/namespaces/inkscape"
   width="136.08855"
   height="60.036457"
   viewBox="0 0 36.006763 15.884646"
   version="1.1"
   id="svg8"
   inkscape:version="1.0.1 (c497b03c, 2020-09-10)"
   sodipodi:docname="aarhus.svg">
  <defs
     id="defs2">
    <clipPath
       id="clip1">
      <path
         d="M 4,23 H 458.87109 V 80 H 4 Z m 0,0"
         id="path823" />
    </clipPath>
    <clipPath
       id="clip2">
      <path
         d="m 4,84 h 311 v 18.23047 H 4 Z m 0,0"
         id="path826" />
    </clipPath>
    <clipPath
       id="clip1-6">
      <path
         d="m 29,36 h 6 v 8.28125 h -6 z m 0,0"
         id="path1487" />
    </clipPath>
    <clipPath
       id="clip2-0">
      <path
         d="m 36,36 h 6 v 8.28125 h -6 z m 0,0"
         id="path1490" />
    </clipPath>
    <clipPath
       id="clip3">
      <path
         d="m 44,36 h 7 v 8.28125 h -7 z m 0,0"
         id="path1493" />
    </clipPath>
    <clipPath
       id="clip4">
      <path
         d="m 51,35 h 8 v 9.28125 h -8 z m 0,0"
         id="path1496" />
    </clipPath>
    <clipPath
       id="clip5">
      <path
         d="m 61,36 h 8 v 8.28125 h -8 z m 0,0"
         id="path1499" />
    </clipPath>
    <clipPath
       id="clip6">
      <path
         d="m 81,36 h 6 v 8.28125 h -6 z m 0,0"
         id="path1502" />
    </clipPath>
    <clipPath
       id="clip7">
      <path
         d="m 95,36 h 6.32031 v 8 H 95 Z m 0,0"
         id="path1505" />
    </clipPath>
  </defs>
  <sodipodi:namedview
     id="base"
     pagecolor="#00ffff"
     bordercolor="#666666"
     borderopacity="1.0"
     inkscape:pageopacity="0"
     inkscape:pageshadow="2"
     inkscape:zoom="0.91112335"
     inkscape:cx="-398.7985"
     inkscape:cy="-255.74248"
     inkscape:document-units="px"
     inkscape:current-layer="layer1"
     inkscape:document-rotation="0"
     showgrid="false"
     units="px"
     lock-margins="true"
     fit-margin-top="0.5"
     fit-margin-left="0.5"
     fit-margin-right="0.5"
     fit-margin-bottom="0.5"
     inkscape:window-width="1440"
     inkscape:window-height="900"
     inkscape:window-x="0"
     inkscape:window-y="0"
     inkscape:window-maximized="0" />
  <metadata
     id="metadata5">
    <rdf:RDF>
      <cc:Work
         rdf:about="">
        <dc:format>image/svg+xml</dc:format>
        <dc:type
           rdf:resource="http://purl.org/dc/dcmitype/StillImage" />
        <dc:title></dc:title>
      </cc:Work>
    </rdf:RDF>
  </metadata>
  <g
     inkscape:label="Layer 1"
     inkscape:groupmode="layer"
     id="layer1"
     transform="translate(-279.30145,-194.52862)">
    <g
       id="surface73380"
       transform="matrix(0.35277779,0,0,0.35277779,279.43374,194.65953)">
      <path
         style="fill:#1e3d8c;fill-opacity:1;fill-rule:nonzero;stroke:none"
         d="M 8.429688,23.878906 H 0 L 23.878906,0.00390625 V 8.457031 L 8.429688,23.878906"
         id="path1510" />
      <path
         style="fill:#1e3d8c;fill-opacity:1;fill-rule:nonzero;stroke:none"
         d="m 47.753906,11.941406 c 0,1.65625 -0.308594,3.207032 -0.929687,4.65625 -0.621094,1.449219 -1.472657,2.710938 -2.554688,3.785156 -1.082031,1.074219 -2.347656,1.925782 -3.796875,2.554688 -1.449218,0.628906 -3,0.941406 -4.65625,0.941406 -1.097656,0 -2.15625,-0.140625 -3.175781,-0.429687 -1.019531,-0.285157 -1.96875,-0.6875 -2.855469,-1.203125 -0.882812,-0.519532 -1.6875,-1.140625 -2.410156,-1.863282 -0.722656,-0.722656 -1.34375,-1.527343 -1.863281,-2.410156 -0.515625,-0.886718 -0.917969,-1.835937 -1.203125,-2.855468 -0.289063,-1.019532 -0.429688,-2.078126 -0.429688,-3.175782 h 5.96875 c 0,0.8125 0.160156,1.578125 0.476563,2.304688 0.320312,0.722656 0.75,1.355468 1.289062,1.898437 0.542969,0.539063 1.175781,0.972657 1.898438,1.289063 0.726562,0.320312 1.492187,0.476562 2.304687,0.476562 0.828125,0 1.601563,-0.15625 2.328125,-0.476562 0.722657,-0.316406 1.355469,-0.75 1.898438,-1.289063 0.542969,-0.542969 0.96875,-1.175781 1.277343,-1.898437 0.3125,-0.726563 0.464844,-1.492188 0.464844,-2.304688 h 5.96875"
         id="path1512" />
      <path
         style="fill:#1e3d8c;fill-opacity:1;fill-rule:nonzero;stroke:none"
         d="M 5.261719,41.078125 3.65625,37.636719 2.167969,41.078125 Z M 3.644531,35.78125 7.449219,43.894531 H 6.554688 L 5.609375,41.851562 H 1.84375 L 0.949219,43.894531 H 0.0546875 L 3.644531,35.78125"
         id="path1514" />
      <path
         style="fill:#1e3d8c;fill-opacity:1;fill-rule:nonzero;stroke:none"
         d="M 12.605469,41.078125 11,37.636719 9.507812,41.078125 Z m -1.617188,-5.296875 3.800781,8.113281 H 13.894531 L 12.949219,41.851562 H 9.1875 L 8.289062,43.894531 H 7.394531 l 3.59375,-8.113281"
         id="path1516" />
      <path
         style="fill:#1e3d8c;fill-opacity:1;fill-rule:nonzero;stroke:none"
         d="m 18.101562,39.863281 c 0.273438,0 0.515626,-0.03516 0.730469,-0.113281 0.210938,-0.07813 0.390625,-0.183594 0.53125,-0.316406 0.136719,-0.132813 0.246094,-0.285156 0.320313,-0.460938 0.07031,-0.175781 0.109375,-0.367187 0.109375,-0.5625 0,-0.199218 -0.03906,-0.390625 -0.109375,-0.570312 C 19.609375,37.660156 19.5,37.503906 19.363281,37.371094 19.222656,37.238281 19.042969,37.132812 18.832031,37.054688 18.617188,36.980469 18.375,36.941406 18.101562,36.941406 h -1.796874 v 2.921875 z m -2.625,-3.695312 h 2.683594 c 0.382813,0 0.726563,0.05859 1.03125,0.175781 0.304688,0.117188 0.5625,0.277344 0.773438,0.480469 0.207031,0.203125 0.371094,0.441406 0.484375,0.710937 0.113281,0.273438 0.171875,0.5625 0.171875,0.875 0,0.285156 -0.05078,0.554688 -0.144532,0.808594 -0.09375,0.253906 -0.234374,0.480469 -0.417968,0.675781 C 19.875,40.085938 19.652344,40.25 19.390625,40.378906 19.128906,40.507812 18.832031,40.589844 18.503906,40.625 l 2.226563,3.269531 h -1.003907 l -2.207031,-3.257812 h -1.214843 v 3.257812 h -0.828126 v -7.726562"
         id="path1518" />
      <path
         style="fill:#1e3d8c;fill-opacity:1;fill-rule:nonzero;stroke:none"
         d="m 22.03125,36.167969 h 0.824219 v 3.3125 h 4.085937 v -3.3125 h 0.828125 v 7.726562 H 26.941406 V 40.25 h -4.085937 v 3.644531 H 22.03125 v -7.726562"
         id="path1520" />
      <g
         clip-path="url(#clip1-6)"
         clip-rule="nonzero"
         id="g1524">
        <path
           style="fill:#1e3d8c;fill-opacity:1;fill-rule:nonzero;stroke:none"
           d="m 29.308594,36.167969 h 0.839844 v 4.933593 c 0,0.410157 0.05859,0.757813 0.175781,1.039063 0.117187,0.277344 0.269531,0.503906 0.457031,0.671875 0.1875,0.167969 0.402344,0.289062 0.640625,0.363281 0.238281,0.07422 0.480469,0.109375 0.722656,0.109375 0.242188,0 0.484375,-0.03516 0.722657,-0.109375 0.238281,-0.07422 0.453124,-0.195312 0.640624,-0.363281 0.1875,-0.167969 0.339844,-0.394531 0.457032,-0.671875 0.117187,-0.28125 0.175781,-0.628906 0.175781,-1.039063 v -4.933593 h 0.839844 v 5.054687 c 0,0.472656 -0.08203,0.882813 -0.242188,1.234375 -0.164062,0.355469 -0.378906,0.652344 -0.644531,0.890625 -0.269531,0.238282 -0.574219,0.417969 -0.914062,0.535156 C 32.84375,44 32.496094,44.058594 32.144531,44.058594 31.789062,44.058594 31.445312,44 31.105469,43.882812 30.769531,43.765625 30.464844,43.585938 30.195312,43.347656 29.925781,43.109375 29.710938,42.8125 29.550781,42.457031 29.390625,42.105469 29.308594,41.695312 29.308594,41.222656 v -5.054687"
           id="path1522" />
      </g>
      <g
         clip-path="url(#clip2-0)"
         clip-rule="nonzero"
         id="g1528">
        <path
           style="fill:#1e3d8c;fill-opacity:1;fill-rule:nonzero;stroke:none"
           d="m 36.933594,41.632812 c 0,0.234376 0.03906,0.453126 0.117187,0.65625 0.07813,0.199219 0.1875,0.375 0.328125,0.523438 0.136719,0.148438 0.304688,0.261719 0.5,0.347656 0.195313,0.08594 0.414063,0.125 0.65625,0.125 0.242188,0 0.464844,-0.03906 0.667969,-0.113281 0.203125,-0.07813 0.378906,-0.1875 0.523437,-0.328125 0.148438,-0.136719 0.261719,-0.300781 0.34375,-0.488281 0.08203,-0.1875 0.121094,-0.394531 0.121094,-0.613281 0,-0.207032 -0.04297,-0.386719 -0.132812,-0.542969 -0.08984,-0.152344 -0.207032,-0.289063 -0.351563,-0.402344 -0.148437,-0.113281 -0.320312,-0.214844 -0.515625,-0.308594 -0.195312,-0.08984 -0.394531,-0.179687 -0.601562,-0.257812 -0.285156,-0.113281 -0.5625,-0.222657 -0.828125,-0.335938 C 37.496094,39.777344 37.265625,39.640625 37.0625,39.480469 36.859375,39.316406 36.695312,39.125 36.570312,38.898438 c -0.125,-0.222657 -0.1875,-0.507813 -0.1875,-0.855469 0,-0.285157 0.05469,-0.554688 0.160157,-0.804688 0.109375,-0.25 0.253906,-0.46875 0.441406,-0.652343 0.1875,-0.183594 0.414063,-0.324219 0.679687,-0.429688 0.265626,-0.101562 0.554688,-0.152344 0.871094,-0.152344 0.324219,0 0.621094,0.05469 0.886719,0.164063 0.269531,0.109375 0.5,0.261719 0.691406,0.453125 0.191407,0.191406 0.339844,0.417968 0.441407,0.679687 0.105468,0.261719 0.15625,0.542969 0.15625,0.855469 h -0.851563 c 0,-0.421875 -0.121094,-0.753906 -0.371094,-1.007812 -0.246093,-0.25 -0.5625,-0.375 -0.953125,-0.375 -0.390625,0 -0.707031,0.117187 -0.953125,0.347656 -0.246093,0.234375 -0.371093,0.539062 -0.371093,0.921875 0,0.207031 0.04687,0.382812 0.144531,0.527343 0.09375,0.140626 0.21875,0.265626 0.375,0.375 0.152343,0.105469 0.332031,0.199219 0.535156,0.285157 0.203125,0.08594 0.414063,0.171875 0.632813,0.257812 0.28125,0.113281 0.546874,0.226563 0.800781,0.34375 0.253906,0.117188 0.480469,0.257813 0.671875,0.425781 0.195312,0.164063 0.351562,0.367188 0.472656,0.601563 0.117188,0.234375 0.175781,0.527344 0.175781,0.882813 0,0.34375 -0.06641,0.660156 -0.195312,0.941406 -0.128907,0.285156 -0.304688,0.53125 -0.527344,0.734375 -0.226563,0.207031 -0.488281,0.363281 -0.789063,0.476562 -0.300781,0.109375 -0.625,0.164063 -0.972656,0.164063 -0.34375,0 -0.664062,-0.05859 -0.960937,-0.183594 -0.292969,-0.121094 -0.546875,-0.289062 -0.765625,-0.503906 -0.21875,-0.21875 -0.386719,-0.472656 -0.511719,-0.769532 -0.125,-0.292968 -0.191406,-0.617187 -0.191406,-0.96875 h 0.828125"
           id="path1526" />
      </g>
      <g
         clip-path="url(#clip3)"
         clip-rule="nonzero"
         id="g1532">
        <path
           style="fill:#1e3d8c;fill-opacity:1;fill-rule:nonzero;stroke:none"
           d="m 44.757812,36.167969 h 0.839844 v 4.933593 c 0,0.410157 0.05859,0.757813 0.175782,1.039063 0.117187,0.277344 0.273437,0.503906 0.457031,0.671875 0.191406,0.167969 0.402343,0.289062 0.640625,0.363281 0.242187,0.07422 0.480468,0.109375 0.722656,0.109375 0.246094,0 0.484375,-0.03516 0.726562,-0.109375 0.238282,-0.07422 0.449219,-0.195312 0.636719,-0.363281 0.191407,-0.167969 0.339844,-0.394531 0.460938,-0.671875 0.117187,-0.28125 0.175781,-0.628906 0.175781,-1.039063 v -4.933593 h 0.839844 v 5.054687 c 0,0.472656 -0.08203,0.882813 -0.246094,1.234375 -0.160156,0.355469 -0.375,0.652344 -0.644531,0.890625 -0.269531,0.238282 -0.570313,0.417969 -0.910157,0.535156 C 48.292969,44 47.949219,44.058594 47.59375,44.058594 47.242188,44.058594 46.898438,44 46.558594,43.882812 46.21875,43.765625 45.917969,43.585938 45.648438,43.347656 45.378906,43.109375 45.164062,42.8125 45.003906,42.457031 44.839844,42.105469 44.757812,41.695312 44.757812,41.222656 v -5.054687"
           id="path1530" />
      </g>
      <g
         clip-path="url(#clip4)"
         clip-rule="nonzero"
         id="g1536">
        <path
           style="fill:#1e3d8c;fill-opacity:1;fill-rule:nonzero;stroke:none"
           d="m 51.945312,35.890625 5.398438,6.191406 v -5.914062 h 0.828125 v 8 L 52.773438,38 v 5.894531 h -0.828126 v -8.003906"
           id="path1534" />
      </g>
      <path
         style="fill:#1e3d8c;fill-opacity:1;fill-rule:nonzero;stroke:none"
         d="m 59.894531,36.167969 h 0.824219 v 7.726562 h -0.824219 v -7.726562"
         id="path1538" />
      <g
         clip-path="url(#clip5)"
         clip-rule="nonzero"
         id="g1542">
        <path
           style="fill:#1e3d8c;fill-opacity:1;fill-rule:nonzero;stroke:none"
           d="m 61.636719,36.167969 h 0.90625 l 2.5625,6.082031 2.390625,-6.082031 h 0.882812 l -3.261718,8.113281 -3.480469,-8.113281"
           id="path1540" />
      </g>
      <path
         style="fill:#1e3d8c;fill-opacity:1;fill-rule:nonzero;stroke:none"
         d="m 69.265625,36.167969 h 4.632813 v 0.773437 h -3.808594 v 2.539063 h 3.476562 V 40.25 h -3.476562 v 2.871094 h 3.808594 v 0.773437 h -4.632813 v -7.726562"
         id="path1544" />
      <path
         style="fill:#1e3d8c;fill-opacity:1;fill-rule:nonzero;stroke:none"
         d="m 77.855469,39.863281 c 0.273437,0 0.515625,-0.03516 0.730469,-0.113281 0.210937,-0.07813 0.390624,-0.183594 0.527343,-0.316406 0.140625,-0.132813 0.25,-0.285156 0.320313,-0.460938 0.07422,-0.175781 0.113281,-0.367187 0.113281,-0.5625 0,-0.199218 -0.03906,-0.390625 -0.113281,-0.570312 -0.07031,-0.179688 -0.179688,-0.335938 -0.320313,-0.46875 -0.136719,-0.132813 -0.316406,-0.238282 -0.527343,-0.316406 -0.214844,-0.07422 -0.457032,-0.113282 -0.730469,-0.113282 h -1.796875 v 2.921875 z m -2.625,-3.695312 h 2.683593 c 0.378907,0 0.726563,0.05859 1.03125,0.175781 0.304688,0.117188 0.5625,0.277344 0.769532,0.480469 0.210937,0.203125 0.375,0.441406 0.488281,0.710937 0.113281,0.273438 0.171875,0.5625 0.171875,0.875 0,0.285156 -0.05078,0.554688 -0.144531,0.808594 -0.09766,0.253906 -0.238281,0.480469 -0.421875,0.675781 -0.179688,0.191407 -0.40625,0.355469 -0.664063,0.484375 -0.261719,0.128906 -0.558593,0.210938 -0.890625,0.246094 l 2.230469,3.269531 h -1.003906 l -2.207031,-3.257812 h -1.214844 v 3.257812 h -0.828125 v -7.726562"
         id="path1546" />
      <g
         clip-path="url(#clip6)"
         clip-rule="nonzero"
         id="g1550">
        <path
           style="fill:#1e3d8c;fill-opacity:1;fill-rule:nonzero;stroke:none"
           d="m 82.078125,41.632812 c 0,0.234376 0.03906,0.453126 0.117187,0.65625 0.07813,0.199219 0.1875,0.375 0.324219,0.523438 0.140625,0.148438 0.308594,0.261719 0.503907,0.347656 0.195312,0.08594 0.414062,0.125 0.65625,0.125 0.242187,0 0.464843,-0.03906 0.667968,-0.113281 0.203125,-0.07813 0.375,-0.1875 0.523438,-0.328125 0.148437,-0.136719 0.261718,-0.300781 0.34375,-0.488281 0.07813,-0.1875 0.121094,-0.394531 0.121094,-0.613281 0,-0.207032 -0.04688,-0.386719 -0.132813,-0.542969 -0.08984,-0.152344 -0.207031,-0.289063 -0.355469,-0.402344 -0.144531,-0.113281 -0.316406,-0.214844 -0.511718,-0.308594 -0.195313,-0.08984 -0.394532,-0.179687 -0.601563,-0.257812 -0.285156,-0.113281 -0.5625,-0.222657 -0.828125,-0.335938 -0.265625,-0.117187 -0.496094,-0.253906 -0.699219,-0.414062 -0.203125,-0.164063 -0.367187,-0.355469 -0.492187,-0.582031 -0.125,-0.222657 -0.1875,-0.507813 -0.1875,-0.855469 0,-0.285157 0.05469,-0.554688 0.160156,-0.804688 0.105469,-0.25 0.253906,-0.46875 0.441406,-0.652343 0.1875,-0.183594 0.414063,-0.324219 0.679688,-0.429688 0.265625,-0.101562 0.554687,-0.152344 0.871094,-0.152344 0.324218,0 0.621093,0.05469 0.886718,0.164063 0.269532,0.109375 0.5,0.261719 0.691406,0.453125 0.191407,0.191406 0.339844,0.417968 0.441407,0.679687 0.101562,0.261719 0.152343,0.542969 0.152343,0.855469 h -0.847656 c 0,-0.421875 -0.125,-0.753906 -0.371094,-1.007812 -0.246093,-0.25 -0.5625,-0.375 -0.953124,-0.375 -0.390626,0 -0.707032,0.117187 -0.953126,0.347656 -0.25,0.234375 -0.371093,0.539062 -0.371093,0.921875 0,0.207031 0.04687,0.382812 0.144531,0.527343 0.09375,0.140626 0.21875,0.265626 0.375,0.375 0.152344,0.105469 0.332031,0.199219 0.535156,0.285157 0.199219,0.08594 0.414063,0.171875 0.632813,0.257812 0.28125,0.113281 0.546875,0.226563 0.800781,0.34375 0.253906,0.117188 0.480469,0.257813 0.671875,0.425781 0.195313,0.164063 0.351563,0.367188 0.46875,0.601563 0.117187,0.234375 0.179687,0.527344 0.179687,0.882813 0,0.34375 -0.06641,0.660156 -0.195312,0.941406 -0.128906,0.285156 -0.304688,0.53125 -0.527344,0.734375 -0.226562,0.207031 -0.488281,0.363281 -0.789062,0.476562 -0.304688,0.109375 -0.625,0.164063 -0.972656,0.164063 C 83.332031,44.058594 83.015625,44 82.71875,43.875 82.425781,43.753906 82.167969,43.585938 81.953125,43.371094 81.734375,43.152344 81.566406,42.898438 81.4375,42.601562 81.3125,42.308594 81.25,41.984375 81.25,41.632812 h 0.828125"
           id="path1548" />
      </g>
      <path
         style="fill:#1e3d8c;fill-opacity:1;fill-rule:nonzero;stroke:none"
         d="m 87.441406,36.167969 h 0.828125 v 7.726562 h -0.828125 v -7.726562"
         id="path1552" />
      <path
         style="fill:#1e3d8c;fill-opacity:1;fill-rule:nonzero;stroke:none"
         d="m 89.1875,36.167969 h 5.351562 v 0.773437 h -2.261718 v 6.953125 H 91.449219 V 36.941406 H 89.1875 v -0.773437"
         id="path1554" />
      <g
         clip-path="url(#clip7)"
         clip-rule="nonzero"
         id="g1558">
        <path
           style="fill:#1e3d8c;fill-opacity:1;fill-rule:nonzero;stroke:none"
           d="m 98.648438,43.894531 h -0.828126 v -3.609375 l -2.648437,-4.117187 h 0.96875 l 2.101563,3.355469 2.105472,-3.355469 h 0.96875 l -2.667972,4.140625 v 3.585937"
           id="path1556" />
      </g>
    </g>
  </g>
  <style
     type="text/css"
     id="style167">
	.st0{fill:#97999B;}
	.st1{fill:#00A3E0;}
</style>
</svg>
