<?xml version="1.0" encoding="UTF-8"?>
<svg xmlns="http://www.w3.org/2000/svg" version="1.1" viewBox="0 0 128.203 35.629">
  <defs>
    <style>
      .cls-1 {
        fill: #04b5d0;
      }
    </style>
  </defs>
  <!-- Generator: Adobe Illustrator 28.6.0, SVG Export Plug-In . SVG Version: 1.2.0 Build 709)  -->
  <g>
    <g id="Layer_1">
      <g id="Layer_1-2" data-name="Layer_1">
        <g>
          <path d="M75.871,25.399v-2.664h10.586c.683,0,1.025-.342,1.025-1.025v-1.086c0-.66-.285-1.036-.854-1.127l-6.659-1.366c-2.732-.546-4.098-2.379-4.098-5.498v-.54c0-3.825,1.912-5.737,5.737-5.737h7.82l2.288,1.776v2.664h-9.903c-.683,0-1.025.342-1.025,1.025v.847c0,.638.284,1.013.854,1.127l6.659,1.332c2.732.546,4.098,2.379,4.098,5.498v.813c0,3.825-1.912,5.737-5.737,5.737h-8.503s-2.288-1.776-2.288-1.776Z"/>
          <path d="M94.707,27.175V9.144h4.712v18.03h-4.712Z"/>
          <path d="M102.114,27.175V9.144h20.557c3.688,0,5.532,1.844,5.532,5.532v12.498h-4.712v-12.84c0-.728-.365-1.093-1.093-1.093h-4.883v13.932h-4.712v-13.932h-5.976v13.932h-4.712v.002Z"/>
          <path d="M55.641,27.174c-3.683,0-5.525-1.808-5.525-5.423s1.842-5.423,5.525-5.423h5.309v-1.978c0-.727-.364-1.091-1.091-1.091h-7.833v-2.558l2.046-1.535h6.06c3.684,0,5.525,1.842,5.525,5.525v12.483h-10.016ZM54.822,21.99c0,.728.363,1.091,1.091,1.091h5.037v-3.138h-5.037c-.728,0-1.091.364-1.091,1.091v.955h0Z"/>
          <path d="M68.242,27.174V9.166h4.707v18.009h-4.707Z"/>
          <path class="cls-1" d="M38.573,3.311c-5.226,1.535-11.782,2.416-18.29,2.416S7.217,4.846,1.992,3.311c-.996-.293-1.992.459-1.992,1.497v25.844c0,1.038.996,1.789,1.992,1.497,5.225-1.534,11.782-2.415,18.29-2.415s13.065.881,18.29,2.415c.996.293,1.992-.459,1.992-1.497V4.808c0-1.038-.996-1.789-1.992-1.497h0ZM24.638,23.312h-14.053c-.448,0-.728-.485-.504-.873l2.551-4.419c.104-.18.296-.291.504-.291h1.846c.448,0,.728.485.504.873l-.604,1.046c-.224.388.056.873.504.873h4.431c.448,0,.728-.485.504-.873l-3.827-6.628c-.224-.388.056-.873.504-.873h1.867c.209,0,.401.111.506.292l5.772,9.998c.224.389-.056.874-.505.874h0ZM29.953,23.312h-1.822c-.208,0-.401-.111-.505-.292l-5.773-9.999c-.224-.388.056-.874.505-.874h1.851c.217,0,.418.116.526.304l5.744,9.949c.234.405-.059.912-.526.912Z"/>
        </g>
      </g>
    </g>
  </g>
</svg>