<?xml version="1.0" encoding="utf-8"?>
<!-- Generator: Adobe Illustrator 24.3.0, SVG Export Plug-In . SVG Version: 6.00 Build 0)  -->
<svg version="1.1" xmlns="http://www.w3.org/2000/svg" xmlns:xlink="http://www.w3.org/1999/xlink" x="0px" y="0px"
	 viewBox="0 0 352.7 104.83" style="enable-background:new 0 0 352.7 104.83;" xml:space="preserve">
<style type="text/css">
	.st0{fill:#FFB81C;}
	.st1{fill:#001F33;}
</style>
<g id="Logo">
	<g>
		<g>
			<g>
				<polygon class="st0" points="165.05,35.11 151.56,35.11 120.6,57.64 112.8,50.49 133.76,35.11 120.27,35.11 95.6,53.06 
					95.6,35.11 86.7,35.11 86.7,69.72 95.6,69.72 95.6,63.09 106.23,55.33 121.46,69.72 133.76,69.72 126.7,63.23 137.52,55.33 
					152.74,69.72 165.05,69.72 144.09,50.49 				"/>
				<path class="st1" d="M164.19,52.37c0-11.47,6.53-17.75,21.75-17.75c15.18,0,21.75,6.33,21.75,17.75
					c0,11.47-6.57,17.85-21.75,17.85C170.71,70.21,164.19,63.89,164.19,52.37z M198.79,52.37c0-7.02-3.56-10.28-12.85-10.28
					c-9.29,0-12.85,3.21-12.85,10.28c0,7.12,3.61,10.38,12.85,10.38C195.18,62.75,198.79,59.44,198.79,52.37z"/>
				<path class="st0" d="M268.63,42.58h-8.9v-7.46h8.9V42.58z"/>
				<path class="st1" d="M268.63,69.72h-8.9V46.96h8.9V69.72z"/>
				<g>
					<path class="st1" d="M295.99,48.86c-10.09-0.59-12.16-1.09-12.16-3.76c0-2.57,2.08-3.41,10.83-3.41
						c7.89,0,11.82,0.69,12.8,3.26h9.06c-0.89-7.44-8.61-10.33-20.87-10.33c-12.95,0-20.71,2.42-20.71,10.04
						c0,7.76,5.98,10.13,21.06,10.83c11.22,0.54,13.2,1.04,13.2,3.91c0,2.72-2.82,3.76-12.16,3.76c-9.52,0-13.11-1.2-14-3.78h-9.05
						c0.86,8.68,9.15,10.85,22.56,10.85c12.8,0,21.55-1.88,21.55-11.12C318.08,50.34,309.63,49.6,295.99,48.86z"/>
				</g>
				<path class="st1" d="M234.5,62.25c6.72,0,11.27-1.43,11.27-9.84s-4.55-9.84-11.27-9.84h-12.85v15.29h-8.9V35.11h25.11
					c8.95,0,16.81,5.54,16.81,17.3s-7.86,17.3-16.81,17.3h-25.11v-7.46H234.5z"/>
			</g>
		</g>
		<g>
			<path class="st1" d="M46.15,69.72L34.62,69.7l31.23-34.6l14.65,0.02v34.6h-8.91V41.69L46.15,69.72z"/>
		</g>
	</g>
</g>
<g id="Guides">
	<g>
	</g>
	<g>
	</g>
	<g>
	</g>
	<g>
	</g>
</g>
</svg>
