<?xml version="1.0" encoding="UTF-8" standalone="no"?>
<svg
   xmlns:dc="http://purl.org/dc/elements/1.1/"
   xmlns:cc="http://creativecommons.org/ns#"
   xmlns:rdf="http://www.w3.org/1999/02/22-rdf-syntax-ns#"
   xmlns:svg="http://www.w3.org/2000/svg"
   xmlns="http://www.w3.org/2000/svg"
   xmlns:sodipodi="http://sodipodi.sourceforge.net/DTD/sodipodi-0.dtd"
   xmlns:inkscape="http://www.inkscape.org/namespaces/inkscape"
   width="55.166298cm"
   height="60cm"
   id="svg3837"
   version="1.1"
   inkscape:version="1.0 (4035a4f, 2020-05-01)"
   inkscape:export-filename="C:\work\astc-logo-white.png"
   inkscape:export-xdpi="96"
   inkscape:export-ydpi="96"
   sodipodi:docname="astc-logo-white.svg">
  <defs
     id="defs3839" />
  <sodipodi:namedview
     id="base"
     pagecolor="#ffffff"
     bordercolor="#666666"
     borderopacity="1.0"
     inkscape:pageopacity="0.0"
     inkscape:pageshadow="2"
     inkscape:zoom="0.28361477"
     inkscape:cx="888.13573"
     inkscape:cy="802.14441"
     inkscape:document-units="px"
     inkscape:current-layer="layer1"
     showgrid="false"
     fit-margin-top="0"
     fit-margin-left="0"
     fit-margin-right="0"
     fit-margin-bottom="0"
     inkscape:window-width="1252"
     inkscape:window-height="819"
     inkscape:window-x="0"
     inkscape:window-y="25"
     inkscape:window-maximized="0"
     inkscape:document-rotation="0"
     units="cm"
     showborder="false" />
  <metadata
     id="metadata3842">
    <rdf:RDF>
      <cc:Work
         rdf:about="">
        <dc:format>image/svg+xml</dc:format>
        <dc:type
           rdf:resource="http://purl.org/dc/dcmitype/StillImage" />
        <dc:title />
      </cc:Work>
    </rdf:RDF>
  </metadata>
  <g
     inkscape:label="Layer 1"
     inkscape:groupmode="layer"
     id="layer1"
     transform="translate(-103.3985,-237.6152)">
    <path
       transform="translate(103.3985,237.6152)"
       d="M 0 539.38672 L 0 2267.7168 L 1767.127 2267.7168 L 1767.127 539.38672 L 0 539.38672 z M 956.48828 608.50977 L 1141.9668 608.50977 L 1141.9668 784.20703 L 956.48828 784.20703 L 956.48828 608.50977 z M 1327.2656 1147.6641 L 1505.6914 1147.6641 L 1505.6914 1332.3984 L 1327.2656 1332.3984 L 1327.2656 1147.6641 z "
       style="color:#000000;display:inline;overflow:visible;visibility:visible;fill:#800000;fill-opacity:1;fill-rule:nonzero;stroke:none;stroke-width:3.84281;marker:none;enable-background:accumulate"
       id="path3994" />
    <path
       inkscape:connector-curvature="0"
       id="path24"
       style="fill:#fabd14;fill-opacity:1;fill-rule:nonzero;stroke:none;stroke-width:3.84281"
       d="m 1789.9964,692.58496 h 149.4132 l 49.803,-135.4015 49.8028,135.4015 h 149.4086 l -121.7643,81.62134 38.7548,124.85298 -115.5342,-71.93746 -116.8793,71.93746 41.1375,-124.85298 -124.1421,-81.62134"
       inkscape:export-filename="/home/golafsen/Desktop/astc-logo-white.png"
       inkscape:export-xdpi="13.601442"
       inkscape:export-ydpi="13.601442" />
    <path
       inkscape:connector-curvature="0"
       id="path28"
       style="color:#000000;display:inline;overflow:visible;visibility:visible;fill:#800000;fill-opacity:1;fill-rule:nonzero;stroke:none;stroke-width:3.84281;marker:none;enable-background:accumulate"
       d="m 1694.882,617.8711 h 185.3478 V 432.5044 H 1694.882 Z"
       inkscape:export-filename="/home/golafsen/Desktop/astc-logo-white.png"
       inkscape:export-xdpi="13.601442"
       inkscape:export-ydpi="13.601442" />
    <path
       inkscape:connector-curvature="0"
       id="path30"
       style="color:#000000;display:inline;overflow:visible;visibility:visible;fill:#800000;fill-opacity:1;fill-rule:nonzero;stroke:none;stroke-width:3.84281;marker:none;enable-background:accumulate"
       d="m 2175.8388,1124.1904 -121.308,121.3032 -121.284,-121.3032 121.284,-121.2983 121.308,121.2983"
       inkscape:export-filename="/home/golafsen/Desktop/astc-logo-white.png"
       inkscape:export-xdpi="13.601442"
       inkscape:export-ydpi="13.601442" />
    <path
       inkscape:connector-curvature="0"
       id="path32"
       style="fill:#fabd14;fill-opacity:1;fill-rule:nonzero;stroke:none;stroke-width:3.84281"
       d="m 440.54138,2262.8878 -22.92381,4.4335 c -77.26889,14.5307 -126.67734,28.341 -148.23698,41.3968 -21.56873,13.0614 -32.35072,28.6519 -32.35072,46.7666 0,9.2751 3.20492,17.9176 9.61858,25.9241 6.41511,8.0027 15.90589,14.2134 28.4642,18.6343 12.56262,4.4321 24.97488,6.6387 37.26517,6.6387 21.30024,0 42.2407,-4.7903 62.85257,-14.3824 20.60274,-9.5734 36.64554,-22.3758 48.10673,-38.3849 11.47225,-16.0149 17.20426,-34.668 17.20426,-55.9461 z m 12.31479,178.3153 c -8.20344,-18.998 -12.31479,-35.3676 -12.31479,-49.0819 -33.66016,25.541 -62.43418,41.7473 -86.29227,48.6073 -23.87682,6.8694 -46.70889,10.2937 -68.5082,10.2937 -36.70224,0 -68.22529,-8.5938 -94.58637,-25.7757 -26.34986,-17.1875 -39.52202,-40.858 -39.52202,-71.0112 0,-34.1482 18.55171,-60.5094 55.67178,-79.0648 37.10569,-18.546 101.05585,-34.5757 191.84421,-48.0839 l 41.39287,-6.0043 v -39.9072 c 0,-21.7411 -9.41008,-37.0057 -28.22066,-45.7682 -18.80863,-8.7569 -41.43416,-13.142 -67.88521,-13.142 -31.62825,0 -56.30053,5.3944 -74.01928,16.15 -17.7317,10.7742 -26.59176,23.3402 -26.59176,37.6926 v 5.0676 h -85.82541 v -4.7507 c 0,-15.6208 8.66696,-31.7746 26.0065,-48.4573 17.34143,-16.6794 40.35891,-29.2394 69.06951,-37.6945 28.70293,-8.4341 60.11889,-12.6654 94.23487,-12.6654 33.84417,0 64.63757,4.0151 92.36825,12.0313 27.74801,8.0084 47.99001,18.831 60.74765,32.4386 12.7687,13.6132 19.14829,39.1881 19.14829,76.7212 v 137.347 c 0,14.9735 0.48417,30.7574 1.48235,47.3144 0.98518,16.5627 6.01592,35.8163 15.08254,57.7434 h -83.28285"
       inkscape:export-filename="/home/golafsen/Desktop/astc-logo-white.png"
       inkscape:export-xdpi="13.601442"
       inkscape:export-ydpi="13.601442" />
    <path
       inkscape:connector-curvature="0"
       id="path34"
       style="fill:#fabd14;fill-opacity:1;fill-rule:nonzero;stroke:none;stroke-width:3.84281"
       d="m 605.91539,2347.7711 h 79.03224 v 1.272 c 0,15.1989 7.72885,27.8171 23.18176,37.8463 15.45291,10.0257 41.59364,15.0506 78.38857,15.0506 32.30844,0 58.52123,-5.9141 78.60472,-17.7485 20.08351,-11.823 30.14205,-25.753 30.14205,-41.7997 0,-21.7475 -19.72321,-37.162 -59.12166,-46.2396 l -40.10935,-9.1982 -26.60667,-6.3216 -54.46706,-12.6764 c -62.21514,-17.1053 -93.31455,-45.4945 -93.31455,-85.2005 0,-27.8641 15.07489,-52.3584 45.23136,-73.4749 30.15648,-21.1115 74.97327,-31.6734 134.4456,-31.6734 58.61729,0 100.33581,9.029 125.14118,27.0854 24.80054,18.0467 37.20323,38.0584 37.20323,60.0156 v 1.2687 h -79.45495 v -1.2687 c 0,-11.8209 -7.93061,-21.1108 -23.78222,-27.8695 -15.86599,-6.768 -36.98227,-10.1306 -63.36315,-10.1306 -31.43902,0 -55.49982,4.8992 -72.19685,14.7128 -16.70182,9.8284 -25.05033,21.9139 -25.05033,36.2664 0,10.9804 5.41357,19.9102 16.25989,26.7701 10.82713,6.8637 29.06128,13.0429 54.68324,18.5329 l 38.00059,7.9146 27.4521,6.0195 c 38.27441,8.2336 62.14307,14.0463 71.57238,17.4184 9.41969,3.3812 18.92105,7.71 28.49926,12.9825 13.23847,7.5992 23.01843,16.7845 29.34948,27.5544 6.32624,10.7743 9.50136,23.3349 9.50136,37.6928 0,33.3657 -16.01013,61.4417 -48.00634,84.2397 -32.00102,22.8166 -78.72482,34.21 -140.1954,34.21 -38.91328,0 -71.19771,-4.3286 -96.85329,-12.9844 -25.66518,-8.6596 -46.09934,-20.6363 -61.32602,-35.9493 -15.22088,-15.3095 -22.84117,-32.981 -22.84117,-53.0454 v -1.272"
       inkscape:export-filename="/home/golafsen/Desktop/astc-logo-white.png"
       inkscape:export-xdpi="13.601442"
       inkscape:export-ydpi="13.601442" />
    <path
       inkscape:connector-curvature="0"
       id="path36"
       style="fill:#fabd14;fill-opacity:1;fill-rule:nonzero;stroke:none;stroke-width:3.84281"
       d="m 1337.2362,2391.1604 v 49.4142 c -38.5241,6.9651 -67.9745,10.4476 -88.375,10.4476 -29.4648,0 -56.009,-4.4337 -79.6567,-13.3015 -23.6622,-8.8659 -41.637,-21.7359 -53.9579,-38.6382 -12.3163,-16.8894 -18.4792,-43.8096 -18.4792,-80.7631 v -181.8036 h -82.4283 v -49.0913 h 82.4283 v -83.6154 h 79.0227 v 83.6154 h 138.5093 v 49.0913 h -138.5093 v 165.0157 c 0,31.2533 3.252,52.9551 9.7655,65.0878 6.5183,12.1436 16.7882,21.0643 30.8001,26.7607 14.0215,5.7025 30.8001,8.56 50.3602,8.56 15.5681,0 39.0813,-3.599 70.5203,-10.7796"
       inkscape:export-filename="/home/golafsen/Desktop/astc-logo-white.png"
       inkscape:export-xdpi="13.601442"
       inkscape:export-ydpi="13.601442" />
    <path
       inkscape:connector-curvature="0"
       id="path38"
       style="fill:#fabd14;fill-opacity:1;fill-rule:nonzero;stroke:none;stroke-width:3.84281"
       d="m 1718.8706,2350.306 h 79.455 v 3.1712 c 0,15.833 -8.0748,31.7841 -24.2097,47.8228 -16.1494,16.0489 -37.2897,28.3466 -63.4305,36.8972 -26.1309,8.5601 -57.6276,12.825 -94.4754,12.825 -70.554,0 -124.901,-16.514 -163.0362,-49.5717 -38.1398,-33.0339 -57.2002,-78.7985 -57.2002,-137.2945 0,-58.2724 19.0604,-103.9342 57.2002,-136.9771 38.1352,-33.0429 92.4822,-49.5717 163.0362,-49.5717 36.8478,0 68.3445,4.2799 94.4754,12.8286 26.1408,8.5507 47.2811,20.2669 63.4305,35.158 16.1349,14.8813 24.2097,31.4101 24.2097,49.5679 v 3.1656 h -79.455 v -3.1656 c 0.8502,-12.8797 -6.8401,-24.1866 -23.0712,-33.8893 -16.2263,-9.7175 -41.291,-14.5643 -75.1894,-14.5643 -40.2296,0 -73.9838,10.8603 -101.2726,32.615 -27.303,21.7455 -40.9451,56.6909 -40.9451,104.8329 0,48.3618 13.6421,83.4124 40.9451,105.1542 27.2888,21.7545 61.043,32.6298 101.2726,32.6298 33.8984,0 58.7518,-4.8617 74.5504,-14.5739 15.8038,-9.7079 23.7102,-21.0154 23.7102,-33.8889 v -3.1712"
       inkscape:export-filename="/home/golafsen/Desktop/astc-logo-white.png"
       inkscape:export-xdpi="13.601442"
       inkscape:export-ydpi="13.601442" />
    <path
       inkscape:connector-curvature="0"
       id="path40"
       style="fill:none;stroke:#ffffff;stroke-width:9.60703;stroke-linecap:butt;stroke-linejoin:miter;stroke-miterlimit:4;stroke-dasharray:none;stroke-opacity:1"
       d="m 1795.1504,1918.2933 h -46.2961 c -576.1049,0 -1043.10745,-467.017 -1043.10745,-1043.08348 v -35.98314"
       inkscape:export-filename="/home/golafsen/Desktop/astc-logo-white.png"
       inkscape:export-xdpi="13.601442"
       inkscape:export-ydpi="13.601442" />
    <path
       inkscape:connector-curvature="0"
       id="path42"
       style="fill:none;stroke:#ffffff;stroke-width:9.60703;stroke-linecap:butt;stroke-linejoin:miter;stroke-miterlimit:4;stroke-dasharray:none;stroke-opacity:1"
       d="M 717.49625,1023.9651 H 1795.8518"
       inkscape:export-filename="/home/golafsen/Desktop/astc-logo-white.png"
       inkscape:export-xdpi="13.601442"
       inkscape:export-ydpi="13.601442" />
    <path
       inkscape:connector-curvature="0"
       id="path44"
       style="fill:none;stroke:#ffffff;stroke-width:9.60703;stroke-linecap:butt;stroke-linejoin:miter;stroke-miterlimit:4;stroke-dasharray:none;stroke-opacity:1"
       d="M 758.98901,1204.8078 H 1795.1504"
       inkscape:export-filename="/home/golafsen/Desktop/astc-logo-white.png"
       inkscape:export-xdpi="13.601442"
       inkscape:export-ydpi="13.601442" />
    <path
       inkscape:connector-curvature="0"
       id="path46"
       style="fill:none;stroke:#ffffff;stroke-width:9.60703;stroke-linecap:butt;stroke-linejoin:miter;stroke-miterlimit:4;stroke-dasharray:none;stroke-opacity:1"
       d="M 839.23174,1385.6554 H 1795.1504"
       inkscape:export-filename="/home/golafsen/Desktop/astc-logo-white.png"
       inkscape:export-xdpi="13.601442"
       inkscape:export-ydpi="13.601442" />
    <path
       inkscape:connector-curvature="0"
       id="path48"
       style="fill:none;stroke:#ffffff;stroke-width:9.60703;stroke-linecap:butt;stroke-linejoin:miter;stroke-miterlimit:4;stroke-dasharray:none;stroke-opacity:1"
       d="M 972.03454,1571.5562 H 1795.8518"
       inkscape:export-filename="/home/golafsen/Desktop/astc-logo-white.png"
       inkscape:export-xdpi="13.601442"
       inkscape:export-ydpi="13.601442" />
    <path
       inkscape:connector-curvature="0"
       id="path50"
       style="fill:none;stroke:#ffffff;stroke-width:9.60703;stroke-linecap:butt;stroke-linejoin:miter;stroke-miterlimit:4;stroke-dasharray:none;stroke-opacity:1"
       d="m 1188.553,1754.9449 h 606.5974"
       inkscape:export-filename="/home/golafsen/Desktop/astc-logo-white.png"
       inkscape:export-xdpi="13.601442"
       inkscape:export-ydpi="13.601442" />
    <path
       inkscape:connector-curvature="0"
       id="path52"
       style="fill:none;stroke:#ffffff;stroke-width:9.60703;stroke-linecap:butt;stroke-linejoin:miter;stroke-miterlimit:4;stroke-dasharray:none;stroke-opacity:1"
       d="M 1429.579,839.23629 V 1869.1821"
       inkscape:export-filename="/home/golafsen/Desktop/astc-logo-white.png"
       inkscape:export-xdpi="13.601442"
       inkscape:export-ydpi="13.601442" />
    <path
       inkscape:connector-curvature="0"
       id="path54"
       style="fill:none;stroke:#ffffff;stroke-width:9.60703;stroke-linecap:butt;stroke-linejoin:miter;stroke-miterlimit:4;stroke-dasharray:none;stroke-opacity:1"
       d="M 1610.4409,839.23629 V 1908.6093"
       inkscape:export-filename="/home/golafsen/Desktop/astc-logo-white.png"
       inkscape:export-xdpi="13.601442"
       inkscape:export-ydpi="13.601442" />
    <path
       inkscape:connector-curvature="0"
       id="path56"
       style="fill:none;stroke:#ffffff;stroke-width:9.60703;stroke-linecap:butt;stroke-linejoin:miter;stroke-miterlimit:4;stroke-dasharray:none;stroke-opacity:1"
       d="m 1246.2096,840.6149 v 948.3437"
       inkscape:export-filename="/home/golafsen/Desktop/astc-logo-white.png"
       inkscape:export-xdpi="13.601442"
       inkscape:export-ydpi="13.601442" />
    <path
       inkscape:connector-curvature="0"
       id="path58"
       style="fill:none;stroke:#ffffff;stroke-width:9.60703;stroke-linecap:butt;stroke-linejoin:miter;stroke-miterlimit:4;stroke-dasharray:none;stroke-opacity:1"
       d="M 1060.2895,839.23629 V 1658.2211"
       inkscape:export-filename="/home/golafsen/Desktop/astc-logo-white.png"
       inkscape:export-xdpi="13.601442"
       inkscape:export-ydpi="13.601442" />
    <path
       inkscape:connector-curvature="0"
       id="path60"
       style="fill:none;stroke:#ffffff;stroke-width:9.60703;stroke-linecap:butt;stroke-linejoin:miter;stroke-miterlimit:4;stroke-dasharray:none;stroke-opacity:1"
       d="M 876.89129,839.92801 V 1447.9474"
       inkscape:export-filename="/home/golafsen/Desktop/astc-logo-white.png"
       inkscape:export-xdpi="13.601442"
       inkscape:export-ydpi="13.601442" />
    <path
       inkscape:connector-curvature="0"
       id="path62"
       style="fill:#fabd14;fill-opacity:1;fill-rule:nonzero;stroke:none;stroke-width:3.84281"
       d="m 1412.3296,373.02149 h 149.4086 l 49.8076,-135.40629 49.798,135.40629 h 149.4084 l -121.7641,81.61654 38.7547,124.85296 -115.539,-71.93744 -116.8694,71.93744 41.1277,-124.85296 -124.1325,-81.61654"
       inkscape:export-filename="/home/golafsen/Desktop/astc-logo-white.png"
       inkscape:export-xdpi="13.601442"
       inkscape:export-ydpi="13.601442" />
    <path
       inkscape:connector-curvature="0"
       id="path66"
       style="fill:#fabd14;fill-opacity:1;fill-rule:nonzero;stroke:none;stroke-width:3.84281"
       d="m 1653.0385,977.10679 h 78.6624 l 26.208,-71.29857 26.2367,71.29857 h 78.6576 l -64.0788,42.97221 20.3909,65.7409 -60.8413,-37.8708 -61.538,37.8708 21.6784,-65.7409 -65.3759,-42.97221"
       inkscape:export-filename="/home/golafsen/Desktop/astc-logo-white.png"
       inkscape:export-xdpi="13.601442"
       inkscape:export-ydpi="13.601442" />
    <path
       inkscape:connector-curvature="0"
       id="path74"
       style="fill:#fabd14;fill-opacity:1;fill-rule:nonzero;stroke:none;stroke-width:3.84281"
       d="m 1370.8272,1319.2708 h 149.4086 l 49.8028,-135.4063 49.8028,135.4063 h 149.4085 l -121.7643,81.6213 38.7597,124.8627 -115.5438,-71.9423 -116.8695,71.9423 41.1276,-124.8627 -124.1324,-81.6213"
       inkscape:export-filename="/home/golafsen/Desktop/astc-logo-white.png"
       inkscape:export-xdpi="13.601442"
       inkscape:export-ydpi="13.601442" />
    <path
       inkscape:connector-curvature="0"
       id="path78"
       style="fill:#fabd14;fill-opacity:1;fill-rule:nonzero;stroke:none;stroke-width:3.84281"
       d="m 988.99573,792.18585 h 149.41807 l 49.803,-135.38707 49.8028,135.38707 h 149.4086 l -121.7644,81.62615 38.7548,124.85778 -115.539,-71.94225 -116.884,71.94225 41.147,-124.85778 -124.14687,-81.62615"
       inkscape:export-filename="/home/golafsen/Desktop/astc-logo-white.png"
       inkscape:export-xdpi="13.601442"
       inkscape:export-ydpi="13.601442" />
  </g>
</svg>
