<?xml version="1.0" encoding="UTF-8"?>
<!DOCTYPE svg PUBLIC "-//W3C//DTD SVG 1.1//EN" "http://www.w3.org/Graphics/SVG/1.1/DTD/svg11.dtd">
<!-- Creator: CorelDRAW 2017 -->
<svg xmlns="http://www.w3.org/2000/svg" width="350px" height="100px" style="shape-rendering:geometricPrecision; text-rendering:geometricPrecision; image-rendering:optimizeQuality;"
viewBox="11000 5800 9000 7200"
 xmlns:xlink="http://www.w3.org/1999/xlink">
 <defs>
  <style type="text/css">
   <![CDATA[
    .fil2 {fill:#00A0E3}
    .fil1 {fill:#115586}
    .fil0 {fill:#00A0E3;fill-rule:nonzero}
    .fil3 {fill:white;fill-rule:nonzero}
   ]]>
  </style>
 </defs>
 <g id="Ebene_x0020_1">
  <metadata id="CorelCorpID_0Corel-Layer"/>
  <g id="_2253413794320">
   <path class="fil0" d="M12587.99 8418.93c177.39,0 322.55,52.18 435.73,156.43 113.05,102.18 169.66,227.38 169.66,375.53l0 1728.32 -404.79 0 0 -1728.32c0,-127.29 -66.83,-190.88 -200.6,-190.88l-276.22 0 0 -2.64 -526.3 0 0 2.64 -230.72 0c-53.99,0 -101.53,20.86 -142.71,62.56 -41.04,39.62 -61.63,82.35 -61.63,128.32l0 1726.16 -401.05 0 0 -1726.16c0,-139.86 59.17,-262.88 177.42,-369.33 118.22,-108.36 260.93,-162.63 427.97,-162.63l1033.24 0zm-312.21 532.13l0 1728.15 -401.06 0 0 -1728.15 401.06 0z"/>
   <path class="fil0" d="M15677.26 10057.56c0,177.39 -52.18,322.55 -156.43,435.73 -102.18,113.04 -227.38,169.66 -375.54,169.66l-1076.36 0c-145.93,0 -271.14,-56.62 -375.4,-169.66 -104.26,-113.18 -156.44,-258.34 -156.44,-435.73l0 -107.87c0,-169.63 54.27,-312.35 162.67,-427.98 108.51,-118.24 231.53,-177.42 369.17,-177.42l1076.36 0 0 401.06 -1076.36 0c-45.84,0 -88.58,20.58 -128.19,61.63 -39.62,38.58 -59.45,86.12 -59.45,142.71l0 107.87c0,133.76 62.56,200.6 187.64,200.6l1076.36 0c127.31,0 190.89,-66.84 190.89,-200.6l0 -1033.24c0,-53.99 -20.86,-101.53 -62.56,-142.71 -39.62,-41.04 -82.35,-61.63 -128.33,-61.63l-1576.96 0 0 -401.05 1576.96 0c139.87,0 262.89,59.17 369.33,177.42 108.37,118.22 162.64,260.93 162.64,427.97l0 1033.24zm0 0z"/>
   <path class="fil0" d="M18105.04 9132.19c0,167.18 -54.27,309.76 -162.63,427.97 -108.53,118.21 -231.55,177.43 -369.2,177.43l-1070.84 0 0 -404.81 1070.84 0c43.76,0 85.47,-19.29 125.08,-57.87 41.7,-41.21 62.55,-88.72 62.55,-142.72l0 -107.88c0,-136.21 -62.55,-204.34 -187.63,-204.34l-1079.48 0c-125.21,0 -187.76,68.13 -187.76,204.34l0 1029.36c0,56.59 19.82,105.39 59.44,146.59 39.64,38.59 82.38,57.75 128.32,57.75l1580.09 0 0 401.06 -1580.09 0c-137.77,0 -260.8,-57.92 -369.3,-173.54 -108.4,-118.23 -162.64,-262.22 -162.64,-431.86l0 -1029.36c0,-180 52.19,-325.17 156.41,-435.76 104.26,-113.04 229.47,-169.63 375.53,-169.63l1079.48 0c145.93,0 271.17,56.59 375.4,169.63 104.39,110.59 156.43,255.76 156.43,435.76l0 107.88z"/>
   <path class="fil0" d="M20522.34 8819.98l-1620.77 0c-45.85,0 -88.71,20.59 -128.33,61.63 -39.61,41.18 -59.43,88.72 -59.43,142.71l0 111.76c0,133.76 62.69,200.59 187.76,200.59l1082.56 3.75c146.1,0 270.15,53.99 372.45,162 106.31,115.63 159.53,262.22 159.53,439.51l0 115.63c0,169.63 -54.24,313.63 -162.78,431.86 -108.36,115.62 -231.52,173.53 -369.2,173.53l-1620.73 0 0 -401.05 1620.73 0c45.98,0 88.72,-19.16 128.37,-57.75 39.61,-41.2 59.43,-90 59.43,-146.59l0 -115.63c0,-133.66 -62.55,-200.46 -187.8,-200.46l-1082.56 -3.91c-146.06,0 -271.14,-55.3 -375.39,-165.75 -104.36,-113.05 -156.57,-258.34 -156.57,-435.73l0 -111.76c0,-167.04 54.26,-309.75 162.76,-427.97 108.41,-118.25 231.56,-177.42 369.2,-177.42l1620.77 0 0 401.05zm0 0z"/>
   <path class="fil0" d="M27675.31 10057.56c0,177.39 -52.18,322.55 -156.44,435.73 -102.17,113.05 -227.38,169.66 -375.53,169.66l-1076.36 0c-145.94,0 -271.14,-56.61 -375.4,-169.66 -104.26,-113.18 -156.44,-258.34 -156.44,-435.73l0 -107.87c0,-169.63 54.27,-312.35 162.67,-427.98 108.51,-118.24 231.53,-177.42 369.17,-177.42l1072.66 0 0 401.06 -1072.66 0c-45.85,0 -88.59,20.58 -128.19,61.63 -39.62,38.58 -59.45,86.12 -59.45,142.71l0 107.87c0,133.77 62.55,200.59 187.64,200.59l1076.36 0c127.3,0 190.88,-66.82 190.88,-200.59l0 -1033.24c0,-53.99 -20.85,-101.54 -62.56,-142.71 -39.61,-41.04 -82.34,-61.63 -128.32,-61.63l-1576.97 0 0 -401.05 1576.97 0c139.86,0 262.88,59.17 369.33,177.42 108.37,118.22 162.64,260.93 162.64,427.97l0 1033.24z"/>
   <path class="fil0" d="M22877.52 8819.98l-894.93 0 0 1842.97 -340.99 0 0 -1842.97 -882.37 0 0 -401.05 2118.29 0 0 401.05zm0 0z"/>
   <path class="fil0" d="M25323.39 10659.07l-344.21 0 0 -728.69c0,-59.17 -18.76,-104.11 -56.33,-134.91 -37.56,-33.42 -81.32,-50.26 -131.31,-50.26l-1158.15 0 0 -412.43 1158.15 0c125.12,0 187.64,-63.08 187.64,-188.96l0 -119.51c0,-136.21 -62.52,-204.34 -187.64,-204.34l-1351.78 0 0 450.66 -0.06 0 0 526.29 0.06 0 0 862.15 -340.95 0 0 -2240.15 1692.73 0c148.02,0 273.23,56.59 375.4,169.63 104.39,113.21 156.45,258.34 156.45,435.76l0 119.51c0,146.46 -44.79,277.54 -134.54,393.3 89.75,118.21 134.54,249.27 134.54,393.26l0 728.69z"/>
  </g>
  <g id="_2253413792272">
   <path class="fil1" d="M3498.7 9530.35c-0.01,-0.96 -0.23,-2.06 -0.23,-3.01l0 20.99c0.02,-6.01 0.2,-11.98 0.23,-17.98zm-0.23 19.44l0 3077.57 2991.89 -0.62c-1659.95,-46.1 -2991.5,-1405.94 -2991.89,-3076.95z"/>
   <path class="fil2" d="M9656.42 9549.06c0,1700.47 -1378.51,3078.98 -3078.98,3078.98 -1700.47,0 -3078.97,-1378.51 -3078.97,-3078.98 0,-1700.47 1378.5,-3078.97 3078.97,-3078.97l3078.98 0 0 3078.97z"/>
   <path class="fil3" d="M7448.09 7616.47c287.88,0 523.46,84.69 707.13,253.88 183.46,165.81 275.34,369 275.34,609.43l0 2804.82 -656.93 0 0 -2804.82c0,-206.59 -108.45,-309.77 -325.54,-309.77l-448.27 0 -854.11 -4.29 -374.42 4.29c-87.62,0 -164.78,33.84 -231.6,101.52 -66.6,64.29 -100.01,133.63 -100.01,208.25l0 2801.31 -650.86 0 0 -2801.31c0,-226.98 96.03,-426.62 287.94,-599.38 191.85,-175.85 423.45,-263.93 694.53,-263.93l1676.8 0zm-506.66 863.57l0 2804.56 -650.87 0 0 -2804.56 650.87 0z"/>
  </g>
 </g>
</svg>
