<?xml version="1.0" encoding="UTF-8"?>
<svg id="_图层_1" data-name="图层_1" xmlns="http://www.w3.org/2000/svg" xmlns:xlink="http://www.w3.org/1999/xlink" version="1.1" viewBox="0 0 999 318">
  <!-- Generator: Adobe Illustrator 29.0.1, SVG Export Plug-In . SVG Version: 2.1.0 Build 192)  -->
  <defs>
    <style>
      .st0, .st1 {
        fill: none;
      }

      .st2 {
        fill: url(#_未命名的渐变_2);
      }

      .st3 {
        clip-path: url(#clippath-1);
      }

      .st4 {
        clip-path: url(#clippath-2);
      }

      .st1 {
        clip-rule: evenodd;
      }

      .st5 {
        fill: url(#_未命名的渐变_19);
      }

      .st6 {
        fill: url(#_未命名的渐变_21);
      }

      .st7 {
        clip-path: url(#clippath);
      }

      .st8 {
        fill: #123c88;
      }
    </style>
    <clipPath id="clippath">
      <polygon class="st1" points="78.71 231.48 47.79 199.87 47.79 138.4 47.88 138.31 78.71 107.48 78.71 231.48"/>
    </clipPath>
    <linearGradient id="_未命名的渐变_2" data-name="未命名的渐变 2" x1="63.25" y1="158.47" x2="63.25" y2="219.97" gradientUnits="userSpaceOnUse">
      <stop offset="0" stop-color="#3288c7"/>
      <stop offset="1" stop-color="#1e458e"/>
    </linearGradient>
    <clipPath id="clippath-1">
      <polygon class="st1" points="193.17 194.4 193.17 152.02 180.95 142.46 193.17 131.23 193.17 70.4 224.11 102.01 224.11 163.46 193.17 194.4"/>
    </clipPath>
    <linearGradient id="_未命名的渐变_21" data-name="未命名的渐变 2" x1="202.69" y1="173.51" x2="202.28" y2="70.39" xlink:href="#_未命名的渐变_2"/>
    <clipPath id="clippath-2">
      <rect class="st0" x="510.55" y="184.08" width="21.15" height="35.24"/>
    </clipPath>
    <linearGradient id="_未命名的渐变_19" data-name="未命名的渐变 19" x1="521.12" y1="209.62" x2="521.12" y2="184.06" gradientUnits="userSpaceOnUse">
      <stop offset="0" stop-color="#178acc"/>
      <stop offset="1" stop-color="#1e458e"/>
    </linearGradient>
  </defs>
  <g>
    <g class="st7">
      <rect class="st2" x="47.79" y="107.48" width="30.92" height="124"/>
    </g>
    <polygon class="st8" points="88.94 53.51 47.79 94.67 47.79 138.4 110.8 75.39 88.94 53.51"/>
    <polygon class="st8" points="193.17 194.4 174.84 212.74 161.09 226.47 182.96 248.37 224.11 207.21 224.11 163.46 193.17 194.4"/>
    <g class="st3">
      <rect class="st6" x="180.95" y="70.4" width="43.16" height="124"/>
    </g>
    <polygon class="st8" points="116.56 150.43 155.34 115.3 155.34 87.07 116.56 122.19 116.56 150.43"/>
    <polygon class="st8" points="116.56 215.65 155.34 180.53 155.34 152.29 116.56 187.4 116.56 215.65"/>
  </g>
  <g>
    <g>
      <polygon class="st8" points="423.82 198.25 423.82 219.32 382.12 219.32 372.41 219.32 360.97 219.32 360.97 80.05 382.12 80.05 382.12 112.99 423.82 112.99 423.82 134.06 382.12 134.06 382.12 198.25 423.82 198.25"/>
      <polygon class="st8" points="317.25 80.05 338.4 80.05 338.4 219.32 321.52 219.32 317.25 219.32 270.1 219.32 270.1 198.25 317.25 198.25 317.25 134.06 270.1 134.06 270.1 112.99 317.25 112.99 317.25 80.05"/>
    </g>
    <g>
      <polygon class="st8" points="509.63 80.05 536.47 80.05 476.37 219.32 449.54 219.32 509.63 80.05"/>
      <rect class="st8" x="444.29" y="101.9" width="152.93" height="21.07"/>
      <g class="st4">
        <rect class="st5" x="510.55" y="184.08" width="21.15" height="35.24"/>
      </g>
      <polygon class="st8" points="535.51 126.65 575.5 219.32 602.34 219.32 562.35 126.65 535.51 126.65"/>
    </g>
    <g>
      <rect class="st8" x="806.8" y="80.05" width="135.46" height="21.85"/>
      <polygon class="st8" points="951 147.41 951 126.34 798.07 126.34 798.07 147.41 833.31 147.41 797.48 219.32 824.31 219.32 860.15 147.41 887.92 147.41 887.92 219.32 899.35 219.32 909.07 219.32 950.77 219.32 950.77 198.25 909.07 198.25 909.07 147.41 951 147.41"/>
    </g>
    <g>
      <polygon class="st8" points="777.58 125.31 701.32 125.31 713.74 101.9 768.84 101.9 768.84 80.05 725.32 80.05 725.32 80.05 698.49 80.05 698.48 80.05 633.38 80.05 633.38 101.9 686.9 101.9 674.49 125.31 624.65 125.31 624.65 146.39 663.31 146.39 624.65 219.32 651.48 219.32 690.15 146.39 777.58 146.39 777.58 125.31"/>
      <polygon class="st8" points="777.58 219.32 736.13 149.68 709.3 149.68 750.74 219.32 777.58 219.32"/>
    </g>
  </g>
</svg>