<svg xmlns="http://www.w3.org/2000/svg"><defs><g id="svg-bng-logo-balls"><circle cy="58.8" cx="64" r="14"/><circle cy="36.6" cx="18.5" r="18"/><circle cy="10.8" cx="56.9" r="9.6"/></g><g id="svg-bng-logo-beams"><path d="m44.4 12.4l-11.8 8c2.3 2 4.1 4.4 5.4 7.2l10.7 -7.2c-2.3 -2 -3.9 -4.8 -4.3 -8zm20.1 8.4c-2.1 1.6 -4.7 2.6 -7.6 2.6c-0.4 0 -0.8 0 -1.1 -0.1l2.4 19.5c1.8 -0.7 3.7 -1 5.7 -1c1.1 0 2.2 0.1 3.3 0.3l-2.7 -21.3zm-25.3 21.6c-0.8 3 -2.3 5.6 -4.2 7.9l12.1 5.9c0.4 -3.1 1.7 -5.9 3.6 -8.2l-11.5 -5.6z"/></g><g id="svg-bng-beamng"><path d="m419.3 7.2c-9.4 0 -16.7 2.6 -22 7.7c-5.3 5.2 -7.9 12.4 -7.9 21.6c0 9.5 2.3 16.7 6.8 21.8c4.6 5.1 11.1 7.6 19.8 7.6c3.4 0 6.7 -0.2 9.9 -0.7c3.2 -0.5 6.7 -1.3 10.4 -2.5v-29.6h-22.7v10.1h10.9v11.9c-2.6 0.5 -5.2 0.7 -7.7 0.7c-4.9 0 -8.6 -1.6 -11.1 -4.9c-2.6 -3.2 -3.8 -8 -3.8 -14.1c0 -6 1.5 -10.7 4.7 -14.2c3.1 -3.6 7.4 -5.3 12.6 -5.3c4.5 0 8.8 1 13 3.1l4 -9.7c-5.4 -2.3 -11.1 -3.5 -16.9 -3.5zm-312.1 0.8v57.1h21.4c6.4 0 11.5 -1.4 15.3 -4.3c3.7 -3 5.6 -7 5.6 -12.2c0 -3.7 -0.8 -6.6 -2.4 -8.8c-1.6 -2.3 -4.2 -3.8 -7.8 -4.6v-0.4c2.7 -0.4 4.8 -1.7 6.4 -3.9c1.6 -2.2 2.4 -5 2.4 -8.4c0 -5.1 -1.8 -8.7 -5.5 -11c-3.7 -2.3 -9.5 -3.5 -17.6 -3.5h-17.8zm221.4 0v57.1h10.8v-26.8c0 -2.3 -0.2 -6 -0.4 -10.4h3.4l21.5 37.2h15.4v-57.1h-10.9v27.1c0 2.1 0.1 5.7 0.3 10h-3.3l-21.5 -37.1h-15.3zm-209.3 9.9h6.4c3.4 0 5.9 0.5 7.6 1.5c1.6 0.9 2.4 2.5 2.4 4.7c0 2.3 -0.8 4 -2.2 5c-1.5 1 -3.9 1.6 -7.2 1.6h-7v-12.8zm102.7 2.7c-6.2 0 -11.7 1.3 -16.7 3.9l3.9 8.1c4.7 -2.1 8.8 -3.2 12.3 -3.2c4.5 0 6.8 2.2 6.8 6.6v1.9l-7.6 0.3c-6.5 0.2 -11.4 1.4 -14.7 3.6c-3.2 2.2 -4.8 5.7 -4.8 10.3c0 4.4 1.2 7.8 3.6 10.2c2.4 2.4 5.7 3.6 9.9 3.6c0.2 0 0.4 0 0.6 0v0l24.8 -0.8h0v-29.1c0 -5.2 -1.5 -9 -4.7 -11.6c-3.1 -2.5 -7.6 -3.8 -13.4 -3.8zm-45.6 0.1c-6.5 0 -11.6 2 -15.2 6c-3.7 4 -5.5 9.6 -5.5 16.9c0 7.1 2 12.6 6 16.5c3.9 3.9 9.4 5.8 16.4 5.8c3.4 0 6.3 -0.2 8.7 -0.7c2.4 -0.6 4.6 -1.3 6.7 -2.4v-9.2c-2.6 1.2 -5 2.1 -7.4 2.6c-2.3 0.6 -4.8 0.9 -7.4 0.9c-3.4 0 -6 -1 -7.9 -2.9c-1.9 -1.9 -2.9 -4.5 -3 -7.9h28.1v-5.8c0 -6.2 -1.7 -11.1 -5.1 -14.6c-3.5 -3.5 -8.3 -5.2 -14.4 -5.2zm98.4 0c-2.9 0 -5.4 0.5 -7.6 1.6c-2.3 1.2 -4 2.8 -5.1 4.8h-0.7l-1.6 -5.6h-9.1v43.6h11.9v-20.5c0 -5.1 0.7 -8.8 2.1 -11.1c1.4 -2.2 3.6 -3.3 6.6 -3.3c2.3 0 4 0.8 5 2.3c1.1 1.6 1.6 4 1.6 7.1v25.5h11.9v-21.9c0 -4.5 0.7 -7.8 2.2 -9.9c1.4 -2.1 3.6 -3.1 6.5 -3.1c2.3 0 3.9 0.8 5 2.3c1.1 1.6 1.6 4 1.6 7.1v25.5h11.9v-28.4c0 -5.6 -1.2 -9.7 -3.8 -12.2c-2.5 -2.6 -6.3 -3.8 -11.2 -3.8c-2.9 0 -5.4 0.5 -7.7 1.6c-2.3 1.1 -4 2.7 -5.2 4.8h-1c-2.4 -4.3 -6.8 -6.4 -13.3 -6.4zm-98.4 8.4c2.6 0 4.6 0.8 6.1 2.4c1.5 1.6 2.2 3.9 2.3 6.8h-16.7c0.2 -2.9 1 -5.2 2.4 -6.8c1.4 -1.6 3.4 -2.4 5.9 -2.4zm-57.1 11.2h7.5c6.8 0 10.2 2.3 10.2 7.1c0 2.6 -0.8 4.5 -2.4 5.8c-1.6 1.3 -4.1 1.9 -7.4 1.9h-7.9v-14.8zm109 4.6v3.6c0 2.6 -0.8 4.7 -2.5 6.3c-1.6 1.6 -3.9 2.4 -6.6 2.4c-3.9 0 -5.8 -1.7 -5.8 -5c0 -2.4 0.8 -4.1 2.5 -5.3c1.7 -1.1 4.3 -1.7 7.8 -1.8l4.6 -0.2z"/></g><g id="svg-bng-tech"><path d="m635.8 4.5 -25.8 60.8h19l9.1 -21.6c1.2 -2.7 2.3 -4.9 3.5 -6.6 1.2 -1.7 2.4 -2.9 3.7 -3.7 1.2 -0.8 2.5 -1.2 3.7 -1.2 1 0 1.8 0.3 2.5 0.9 0.6 0.5 0.9 1.4 0.7 2.5 -0.1 0.9 -0.4 1.9 -0.8 3 -0.4 1 -0.7 1.9 -1 2.6l-10.2 24.1h19l10 -23.5c0.6 -1.4 1.1 -2.9 1.6 -4.4 0.5 -1.6 0.8 -3.1 1.1 -4.5 0.4 -2.3 0.2 -4.4 -0.5 -6.3 -0.7 -1.9 -2.1 -3.4 -4 -4.6 -1.9 -1.1 -4.6 -1.7 -8.1 -1.7 -3 0 -10.2 -0.1 -11.5 0.1 1.3 -2.7 1.6 -3.2 3 -6.1l4.1 -9.7zm-144.6 7.7 -8.2 9.4 -11.2 3.4 -3.2 7.4h7.6l-6.6 15.7c-0.5 1.1 -0.9 2.3 -1.4 3.7 -0.4 1.4 -0.8 2.6 -0.9 3.7 -0.6 3.8 0.2 6.5 2.4 8.2 2.3 1.6 5.8 2.5 10.6 2.5 3.6 0 6.8 -0.2 9.6 -0.7 2.8 -0.5 5.3 -1.1 7.5 -1.9l1.8 -11.4c-1.7 0.5 -3.3 1 -5 1.3 -1.6 0.3 -3.1 0.5 -4.3 0.5 -0.9 0 -1.6 -0.2 -2.2 -0.5 -0.5 -0.4 -0.7 -1 -0.5 -1.9 0.1 -0.4 0.2 -1 0.5 -1.8 0.3 -0.8 0.6 -1.5 0.9 -2.3l6.5 -15h14.2l4.9 -11.4h-14.1l3.8 -8.9zm56 8.1c-5.4 0 -10.2 0.8 -14.4 2.3 -4.2 1.6 -7.9 3.7 -11 6.4 -3 2.7 -5.5 5.7 -7.3 9.1 -1.8 3.4 -3 6.9 -3.6 10.5 -0.6 3.6 -0.2 6.7 1.1 9.4 1.3 2.6 3.5 4.6 6.5 6 3 1.4 6.9 2.1 11.6 2.1 4.8 0 8.9 -0.4 12.2 -1.1 3.3 -0.7 6.5 -1.7 9.7 -2.9l1.7 -10.7c-3.1 1.2 -5.9 2.1 -8.5 2.8 -2.6 0.7 -5.3 1 -8.2 1 -2.7 0 -4.6 -0.5 -5.8 -1.4 -1.2 -0.9 -1.6 -2.4 -1.3 -4.4 0 -0.1 0 -0.2 0 -0.3 0 -0.1 0 -0.2 0.1 -0.3h2.9c5.2 0 9.7 -0.4 13.6 -1.1 3.9 -0.8 7.2 -1.9 9.8 -3.3 2.7 -1.4 4.8 -3.1 6.3 -5.1 1.5 -2 2.4 -4.2 2.8 -6.7 0.6 -3.7 -0.7 -6.7 -3.9 -8.9 -3.2 -2.2 -7.9 -3.4 -14.1 -3.4zm54.1 0c-3.6 0 -7 0.5 -10.2 1.4 -3.2 0.9 -6.2 2.2 -8.9 3.9 -2.7 1.7 -5.1 3.7 -7.1 6 -2.1 2.3 -3.8 4.9 -5.1 7.7 -1.3 2.8 -2.2 5.7 -2.7 8.9 -0.7 4.3 -0.3 7.7 1.1 10.4 1.5 2.7 3.7 4.6 6.6 5.8 2.9 1.2 6.3 1.8 10.1 1.8 3.9 0 7.3 -0.3 10.3 -0.9 3 -0.6 5.9 -1.5 8.7 -2.6l1.9 -12c-2.7 1 -5.1 1.9 -7.5 2.5 -2.3 0.6 -4.6 0.9 -7 0.9 -1.3 0 -2.3 -0.2 -3.2 -0.6 -0.8 -0.4 -1.4 -1.2 -1.8 -2.1 -0.3 -1 -0.4 -2.4 -0.1 -4.1 0.2 -1.4 0.7 -3 1.4 -4.7 0.8 -1.7 1.7 -3.3 2.9 -4.9 1.2 -1.5 2.6 -2.8 4.2 -3.7 1.6 -1 3.4 -1.5 5.4 -1.5 1.8 0 3.6 0.2 5.5 0.7 1.9 0.5 3.6 1 5.2 1.6l7.8 -11.2c-2.6 -1 -5.4 -1.8 -8.2 -2.3 -2.8 -0.5 -5.9 -0.8 -9.3 -0.8zm-57.8 10.2c1.4 0 2.4 0.3 3 0.9 0.6 0.6 0.8 1.3 0.6 2.1 -0.1 0.9 -0.6 1.8 -1.5 2.7 -0.9 0.9 -2.2 1.7 -3.9 2.3 -1.8 0.6 -4.1 0.9 -6.9 0.9h-1.4c0.4 -1.4 1.2 -2.7 2.2 -4.1 1 -1.4 2.2 -2.5 3.6 -3.4 1.4 -0.9 2.8 -1.4 4.3 -1.4zm-91 20.7c-4.4 0 -8 3.6 -8 8 0 4.4 3.6 8 8 8 4.4 0 8 -3.6 8 -8 0 -4.4 -3.6 -8 -8 -8z"/></g></defs><svg id="bng-tech" xmlns="http://www.w3.org/2000/svg" viewBox="0 0 673 74" preserveAspectRatio="xMinYMid meet"><use href="#svg-bng-logo-balls" fill="#f60" /><use href="#svg-bng-logo-beams" fill="black" /><use href="#svg-bng-beamng" fill="black" /><use href="#svg-bng-tech" fill="#f60" /></svg></svg>