<?xml version="1.0" encoding="UTF-8" standalone="no"?>
<!DOCTYPE svg PUBLIC "-//W3C//DTD SVG 1.1//EN" "http://www.w3.org/Graphics/SVG/1.1/DTD/svg11.dtd">
<svg width="100%" height="100%" viewBox="0 0 433 97" version="1.1" xmlns="http://www.w3.org/2000/svg" xmlns:xlink="http://www.w3.org/1999/xlink" xml:space="preserve" xmlns:serif="http://www.serif.com/" style="fill-rule:evenodd;clip-rule:evenodd;stroke-linejoin:round;stroke-miterlimit:2;">
    <g transform="matrix(1,0,0,1,-52.6,-71.5)">
        <g>
            <path d="M237.8,118.4C237.8,118.4 246.6,115.4 246.6,105.4C246.6,93.7 238.3,87.9 226.9,87.9L197,87.9L197,151.5L229.5,151.5C239.5,151.5 249.3,144.5 249.3,133.8C249.3,121.1 237.8,118.5 237.8,118.4ZM212.5,101.1L224.2,101.1C227.8,101.1 230.2,103.5 230.2,107.1C230.2,109.9 228,112.9 223.9,112.9L212.5,112.9L212.5,101.1ZM224.3,138.2L212.7,138.2L212.7,125.7L224,125.7C229.7,125.7 232.4,128.2 232.4,131.9C232.4,136.5 229,138.2 224.3,138.2Z" style="fill:rgb(226,0,21);fill-rule:nonzero;"/>
            <path d="M283.7,86.3C265.3,86.3 254.5,101 254.5,119.6C254.5,138.3 265.3,152.9 283.7,152.9C302.2,152.9 312.9,138.3 312.9,119.6C312.9,101 302.2,86.3 283.7,86.3ZM283.7,137.7C274.7,137.7 270.2,129.6 270.2,119.6C270.2,109.6 274.7,101.6 283.7,101.6C292.7,101.6 297.3,109.7 297.3,119.6C297.3,129.6 292.7,137.7 283.7,137.7Z" style="fill:rgb(226,0,21);fill-rule:nonzero;"/>
            <path d="M346.8,112.8L344.6,112.3C339.2,111.2 334.9,109.8 334.9,105.9C334.9,101.7 339,100 342.6,100C347.9,100 352.6,102.6 355.6,105.9L365.5,96.1C361,91 353.7,86.1 342.3,86.1C328.9,86.1 318.8,93.6 318.8,106.1C318.8,117.5 327,123.1 337,125.2L339.2,125.7C347.5,127.4 350.6,128.7 350.6,132.7C350.6,136.5 347.2,139 342,139C335.8,139 330.2,136.3 325.9,130.8L315.8,140.8C321.4,147.5 328.5,152.7 342.2,152.7C354.1,152.7 366.8,145.9 366.8,132C366.9,117.5 355.9,114.7 346.8,112.8Z" style="fill:rgb(226,0,21);fill-rule:nonzero;"/>
            <path d="M402.3,137.7C395.3,137.7 388,131.9 388,119.2C388,107.9 394.8,101.6 401.9,101.6C407.5,101.6 410.8,104.2 413.4,108.7L426.2,100.2C419.8,90.5 412.2,86.4 401.7,86.4C382.5,86.4 372.1,101.3 372.1,119.3C372.1,138.2 383.6,153 401.5,153C414.1,153 420.1,148.6 426.6,139.2L413.7,130.5C411.1,134.7 408.3,137.7 402.3,137.7Z" style="fill:rgb(226,0,21);fill-rule:nonzero;"/>
            <path d="M468.9,87.8L468.9,111.2L449.6,111.2L449.6,87.8L432.9,87.8L432.9,151.4L449.6,151.4L449.6,126.3L468.9,126.3L468.9,151.4L485.6,151.4L485.6,87.8L468.9,87.8Z" style="fill:rgb(226,0,21);fill-rule:nonzero;"/>
        </g>
    </g>
    <g id="_x38_7_x2F_87_x2F_87__x7C__0_x2F_0_x2F_0_" serif:id="_x38_7_x2F_87_x2F_87__x7C__0_x2F_0_x2F_0" transform="matrix(1,0,0,1,-52.6,-71.5)">
        <g>
            <path d="M100.8,71.5C74.2,71.5 52.6,93.1 52.6,119.7C52.6,146.3 74.2,167.9 100.8,167.9C127.4,167.9 149,146.3 149,119.7C149,93.1 127.4,71.5 100.8,71.5ZM100.8,163.4C76.7,163.4 57.1,143.8 57.1,119.7C57.1,95.6 76.7,76 100.8,76C124.9,76 144.5,95.6 144.5,119.7C144.5,143.8 124.9,163.4 100.8,163.4Z" style="fill:rgb(87,87,87);fill-rule:nonzero;"/>
            <path d="M120.7,89.6L117.4,89.6L117.4,106.1L84.3,106.1L84.3,89.6L80.9,89.6C71.2,96.1 64.7,107.1 64.7,119.7C64.7,132.3 71.2,143.3 80.9,149.8L84.3,149.8L84.3,133.3L117.4,133.3L117.4,149.8L120.7,149.8C130.5,143.3 136.9,132.3 136.9,119.7C136.9,107.1 130.5,96.1 120.7,89.6ZM79.7,143.3C73,137.4 69.1,128.9 69.1,119.7C69.1,110.5 73,102 79.7,96.1L79.7,143.3ZM117.4,128.7L84.3,128.7L84.3,110.6L117.4,110.6L117.4,128.7ZM121.9,143.2L121.9,96.1C128.5,102 132.4,110.5 132.4,119.6C132.4,128.8 128.5,137.3 121.9,143.2Z" style="fill:rgb(87,87,87);fill-rule:nonzero;"/>
        </g>
    </g>
</svg>
