<?xml version="1.0" encoding="UTF-8" standalone="no"?>
<!-- Created with Inkscape (http://www.inkscape.org/) -->
<svg
   xmlns:svg="http://www.w3.org/2000/svg"
   xmlns="http://www.w3.org/2000/svg"
   version="1.0"
   width="112"
   height="20"
   id="svg2">
  <defs
     id="defs4" />
  <g
     transform="translate(-254.26343,-163.48068)"
     id="layer1">
    <g
       transform="translate(256.02387,164.53694)"
       id="g2418">
      <path
         d="M 45.365,7.256 L 44.379,7.279 L 44.379,3.336 L 45.509,3.336 C 46.365,3.336 46.646,3.964 46.646,5.336 C 46.646,6.708 46.33,7.256 45.365,7.256 M 50.34,16.246 L 50.34,12.02 C 50.34,10.016 49.625,8.851 48.097,8.577 C 49.873,8.106 50.359,6.616 50.359,4.708 C 50.359,2.018 49.392,0.346 46.255,0.346 L 40.637,0.346 L 40.64,17.763 L 44.38,17.763 L 44.38,10.19 L 45.302,10.19 C 46.202,10.19 46.629,10.811 46.629,11.64 L 46.629,16.273 C 46.629,17.043 46.784,17.611 46.89,17.762 L 50.673,17.762 C 50.541,17.618 50.34,17.017 50.34,16.246"
         id="path2384" />
      <path
         d="M 8.387,14.801 C 9.056,14.243 9.171,13.552 9.171,12.932 L 9.171,10.328 L 5.535,10.328 L 5.535,13.861 C 5.535,14.367 5.126,14.777 4.621,14.777 C 4.116,14.777 3.74,14.367 3.74,13.861 L 3.74,3.852 C 3.74,3.347 4.116,2.937 4.621,2.937 C 5.126,2.937 5.535,3.347 5.535,3.852 L 5.535,7.408 L 9.166,7.408 L 9.166,3.719 C 9.166,1.681 7.834,0.004 4.59,0 C 1.259,0 0,1.685 0,3.723 L 0,14.174 C 0,16.194 1.604,17.722 3.655,17.722 L 4.781,17.722 L 8.387,14.801 z"
         id="path2386" />
      <path
         d="M 103.314,7.247 L 102.321,7.247 L 102.321,3.327 L 103.457,3.327 C 104.311,3.327 104.594,3.955 104.594,5.326 C 104.594,6.699 104.28,7.247 103.314,7.247 M 108.285,16.237 L 108.285,12.01 C 108.285,10.007 107.573,8.842 106.045,8.567 C 107.821,8.097 108.307,6.608 108.307,4.701 C 108.307,2.009 107.337,0.337 104.203,0.337 L 98.584,0.337 L 98.584,17.754 L 102.333,17.754 L 102.333,10.182 L 103.248,10.182 C 104.15,10.182 104.572,10.802 104.572,11.632 L 104.572,16.265 C 104.572,17.036 104.731,17.603 104.836,17.754 L 108.616,17.754 C 108.486,17.609 108.285,17.007 108.285,16.237"
         id="path2388" />
      <path
         d="M 90.796,11.487 L 91.77,3.36 L 92.742,11.487 L 90.796,11.487 z M 94.275,0.303 L 89.246,0.303 L 86.258,17.753 L 90.044,17.753 L 90.415,14.674 L 93.12,14.672 L 93.489,17.753 L 97.278,17.753 L 94.275,0.303 z"
         id="path2390" />
      <polygon
         points="69.198,17.751 69.198,0.341 73.034,0.341 73.034,14.446 77.031,14.446 77.031,17.751 69.198,17.751 "
         id="polygon2392" />
      <rect
         width="3.8329999"
         height="17.41"
         x="63.333"
         y="0.34200001"
         id="rect2394" />
      <polygon
         points="69.198,17.751 69.198,0.341 73.034,0.341 73.034,14.446 77.031,14.446 77.031,17.751 69.198,17.751 "
         id="polygon2396" />
      <polygon
         points="77.954,17.751 77.954,0.341 81.787,0.341 81.787,14.446 85.786,14.446 85.786,17.751 77.954,17.751 "
         id="polygon2398" />
      <path
         d="M 57.057,7.764 L 55.913,7.75 L 55.913,3.334 L 57.051,3.334 C 58.023,3.334 58.186,4 58.186,5.594 C 58.186,7.241 58.022,7.764 57.057,7.764 M 58.022,0.342 L 52.177,0.342 L 52.177,17.759 L 55.925,17.759 L 55.925,10.847 L 58.022,10.847 C 61.465,10.847 62.046,8.653 62.046,5.594 C 62.047,2.536 61.466,0.342 58.022,0.342"
         id="path2400" />
      <polygon
         points="34.161,3.66 34.161,7.11 38.13,7.11 38.13,10.521 34.161,10.521 34.161,14.387 38.877,14.385 38.877,17.746 30.322,17.75 30.322,0.338 30.318,0.338 38.722,0.338 38.722,3.66 34.161,3.66 "
         id="polygon2402" />
      <polygon
         points="22.721,15.211 22.721,3.726 20.211,3.726 20.211,0.343 29.293,0.343 29.293,3.726 26.771,3.726 26.771,17.701 25.695,17.701 22.721,15.211 "
         id="polygon2404" />
      <polygon
         points="24.348,17.727 15.504,10.316 6.34,17.727 24.348,17.727 "
         id="polygon2406"
         style="fill:#ffc400" />
      <path
         d="M 14.526,8.319 L 15.505,3.315 L 16.479,8.319 L 14.526,8.319 z M 18.027,0.361 L 12.961,0.361 L 10.01,13.604 L 15.506,9.167 L 21.236,13.969 L 18.027,0.361 z"
         id="path2408" />
    </g>
  </g>
</svg>
