<svg width="1795" height="400" viewBox="0 0 1795 400" fill="none" xmlns="http://www.w3.org/2000/svg">
<mask id="mask0_2027_26684" style="mask-type:alpha" maskUnits="userSpaceOnUse" x="22" y="14" width="1742" height="372">
<path d="M207.804 33.4335C207.804 44.1664 199.103 52.8671 188.37 52.8671C177.637 52.8671 168.937 44.1664 168.937 33.4335C168.937 22.7007 177.637 14 188.37 14C199.103 14 207.804 22.7007 207.804 33.4335Z" fill="#020606"/>
<path d="M136.705 71.8271C136.705 82.5599 128.005 91.2606 117.272 91.2606C106.539 91.2606 97.8384 82.5599 97.8384 71.8271C97.8384 61.0942 106.539 52.3936 117.272 52.3936C128.005 52.3936 136.705 61.0942 136.705 71.8271Z" fill="#020606"/>
<path d="M60.8671 114.959C60.8671 125.692 52.1664 134.392 41.4335 134.392C30.7007 134.392 22 125.692 22 114.959C22 104.226 30.7007 95.5254 41.4335 95.5254C52.1664 95.5254 60.8671 104.226 60.8671 114.959Z" fill="#020606"/>
<path d="M60.8671 199.804C60.8671 210.536 52.1664 219.237 41.4335 219.237C30.7007 219.237 22 210.536 22 199.804C22 189.071 30.7007 180.37 41.4335 180.37C52.1664 180.37 60.8671 189.071 60.8671 199.804Z" fill="#020606"/>
<path d="M60.8671 284.646C60.8671 295.379 52.1664 304.08 41.4335 304.08C30.7007 304.08 22 295.379 22 284.646C22 273.914 30.7007 265.213 41.4335 265.213C52.1664 265.213 60.8671 273.914 60.8671 284.646Z" fill="#020606"/>
<path d="M276.058 71.8271C276.058 82.5599 267.357 91.2606 256.624 91.2606C245.892 91.2606 237.191 82.5599 237.191 71.8271C237.191 61.0942 245.892 52.3936 256.624 52.3936C267.357 52.3936 276.058 61.0942 276.058 71.8271Z" fill="#020606"/>
<path d="M207.804 114.959C207.804 125.692 199.103 134.392 188.37 134.392C177.637 134.392 168.937 125.692 168.937 114.959C168.937 104.226 177.637 95.5254 188.37 95.5254C199.103 95.5254 207.804 104.226 207.804 114.959Z" fill="#020606"/>
<path d="M130.069 157.143C130.069 167.876 121.369 176.577 110.636 176.577C99.9031 176.577 91.2024 167.876 91.2024 157.143C91.2024 146.411 99.9031 137.71 110.636 137.71C121.369 137.71 130.069 146.411 130.069 157.143Z" fill="#020606"/>
<path d="M130.069 241.04C130.069 251.773 121.369 260.474 110.636 260.474C99.9031 260.474 91.2024 251.773 91.2024 241.04C91.2024 230.307 99.9031 221.606 110.636 221.606C121.369 221.606 130.069 230.307 130.069 241.04Z" fill="#020606"/>
<path d="M136.705 327.78C136.705 338.513 128.005 347.214 117.272 347.214C106.539 347.214 97.8384 338.513 97.8384 327.78C97.8384 317.047 106.539 308.347 117.272 308.347C128.005 308.347 136.705 317.047 136.705 327.78Z" fill="#020606"/>
<path d="M207.804 365.699C207.804 376.432 199.103 385.133 188.37 385.133C177.637 385.133 168.937 376.432 168.937 365.699C168.937 354.966 177.637 346.266 188.37 346.266C199.103 346.266 207.804 354.966 207.804 365.699Z" fill="#020606"/>
<path d="M276.058 327.78C276.058 338.513 267.357 347.214 256.624 347.214C245.892 347.214 237.191 338.513 237.191 327.78C237.191 317.047 245.892 308.347 256.624 308.347C267.357 308.347 276.058 317.047 276.058 327.78Z" fill="#020606"/>
<path d="M350 284.646C350 295.379 341.299 304.08 330.566 304.08C319.833 304.08 311.133 295.379 311.133 284.646C311.133 273.914 319.833 265.213 330.566 265.213C341.299 265.213 350 273.914 350 284.646Z" fill="#020606"/>
<path d="M207.804 284.646C207.804 295.379 199.103 304.08 188.37 304.08C177.637 304.08 168.937 295.379 168.937 284.646C168.937 273.914 177.637 265.213 188.37 265.213C199.103 265.213 207.804 273.914 207.804 284.646Z" fill="#020606"/>
<path d="M350 114.959C350 125.692 341.299 134.392 330.566 134.392C319.833 134.392 311.133 125.692 311.133 114.959C311.133 104.226 319.833 95.5254 330.566 95.5254C341.299 95.5254 350 104.226 350 114.959Z" fill="#020606"/>
<path d="M283.167 157.143C283.167 167.876 274.467 176.577 263.734 176.577C253.001 176.577 244.3 167.876 244.3 157.143C244.3 146.411 253.001 137.71 263.734 137.71C274.467 137.71 283.167 146.411 283.167 157.143Z" fill="#020606"/>
<path d="M283.167 245.78C283.167 256.513 274.467 265.214 263.734 265.214C253.001 265.214 244.3 256.513 244.3 245.78C244.3 235.047 253.001 226.347 263.734 226.347C274.467 226.347 283.167 235.047 283.167 245.78Z" fill="#020606"/>
<path d="M37.6416 114.959H46.1734V283.225H37.6416V114.959Z" fill="#020606"/>
<path d="M105.896 157.618H114.428V242.936H105.896V157.618Z" fill="#020606"/>
<path d="M251.687 73.0664L260.185 72.3018L267.789 156.804L259.291 157.569L251.687 73.0664Z" fill="#020606"/>
<path d="M328.991 112.484L333.531 119.708L266.652 161.736L262.112 154.512L328.991 112.484Z" fill="#020606"/>
<path d="M328.991 289.344L333.531 282.12L266.652 240.092L262.112 247.316L328.991 289.344Z" fill="#020606"/>
<path d="M41.6537 119.878L46.2453 112.687L112.434 154.951L107.842 162.142L41.6537 119.878Z" fill="#020606"/>
<path d="M41.6537 279.986L46.2453 287.177L112.434 244.913L107.842 237.723L41.6537 279.986Z" fill="#020606"/>
<path d="M187.422 37.8262L194.758 33.4693L266.314 153.946L258.978 158.303L187.422 37.8262Z" fill="#020606"/>
<path d="M187.786 37.9014L192.119 30.5517L330.817 112.319L326.484 119.669L187.786 37.9014Z" fill="#020606"/>
<path d="M187.786 362.149L192.119 369.499L330.817 287.732L326.484 280.382L187.786 362.149Z" fill="#020606"/>
<path d="M115.535 76.4805L119.701 69.0349L265.678 150.713L261.512 158.158L115.535 76.4805Z" fill="#020606"/>
<path d="M115.535 325.089L119.701 332.534L265.678 250.857L261.512 243.411L115.535 325.089Z" fill="#020606"/>
<path d="M187.422 363.413L194.758 367.77L266.314 247.293L258.978 242.936L187.422 363.413Z" fill="#020606"/>
<path d="M39.0636 204.635L46.3991 200.278L120.554 325.131L113.218 329.488L39.0636 204.635Z" fill="#020606"/>
<path d="M39.5377 196.679L46.8732 201.036L121.819 74.8509L114.483 70.4941L39.5377 196.679Z" fill="#020606"/>
<path d="M108.008 245.512L115.268 241.029L190.993 363.676L183.734 368.158L108.008 245.512Z" fill="#020606"/>
<path d="M108.74 154.658L116 159.14L191.725 36.4941L184.465 32.0118L108.74 154.658Z" fill="#020606"/>
<path d="M42.9265 195.443L47.3184 202.758L257.18 76.7492L252.788 69.4346L42.9265 195.443Z" fill="#020606"/>
<path d="M42.9265 205.222L47.3184 197.907L257.18 323.916L252.788 331.23L42.9265 205.222Z" fill="#020606"/>
<path d="M40.001 112.522L44.1575 119.973L190.782 38.177L186.625 30.7262L40.001 112.522Z" fill="#020606"/>
<path d="M40.001 288.307L44.1575 280.856L190.782 362.652L186.625 370.103L40.001 288.307Z" fill="#020606"/>
<path d="M268.46 246.545L259.962 245.78L252.358 330.283L260.856 331.047L268.46 246.545Z" fill="#020606"/>
<path d="M489.444 274.737C480.695 274.737 472.975 273 466.284 269.526C459.593 266.052 454.382 261.163 450.651 254.858C447.048 248.425 445.247 241.091 445.247 232.856V177.851C445.247 169.616 447.048 162.411 450.651 156.235C454.382 149.93 459.593 145.041 466.284 141.567C472.975 138.093 480.695 136.356 489.444 136.356C498.065 136.356 505.72 138.093 512.411 141.567C519.102 144.912 524.248 149.673 527.851 155.849C531.582 162.025 533.448 169.166 533.448 177.272V177.465C533.448 178.108 533.255 178.623 532.869 179.009C532.483 179.395 532.033 179.588 531.518 179.588L525.149 179.974C523.862 179.974 523.219 179.331 523.219 178.044V177.465C523.219 167.815 520.131 160.095 513.955 154.305C507.779 148.386 499.609 145.427 489.444 145.427C479.151 145.427 470.916 148.386 464.74 154.305C458.564 160.095 455.476 167.815 455.476 177.465V233.435C455.476 243.085 458.564 250.869 464.74 256.788C471.045 262.707 479.279 265.666 489.444 265.666C499.609 265.666 507.779 262.707 513.955 256.788C520.131 250.869 523.219 243.085 523.219 233.435V233.049C523.219 231.891 523.862 231.312 525.149 231.312L531.518 231.698C532.805 231.698 533.448 232.277 533.448 233.435C533.448 241.541 531.582 248.746 527.851 255.051C524.248 261.227 519.102 266.052 512.411 269.526C505.72 273 498.065 274.737 489.444 274.737Z" fill="#020606"/>
<path d="M636.012 274.544C627.134 274.544 619.286 272.743 612.466 269.14C605.776 265.409 600.565 260.262 596.833 253.7C593.231 247.009 591.429 239.354 591.429 230.733V180.167C591.429 171.546 593.231 163.955 596.833 157.393C600.565 150.702 605.776 145.556 612.466 141.953C619.286 138.222 627.134 136.356 636.012 136.356C644.89 136.356 652.739 138.222 659.558 141.953C666.378 145.556 671.653 150.702 675.384 157.393C679.116 163.955 680.981 171.546 680.981 180.167V230.733C680.981 239.354 679.116 247.009 675.384 253.7C671.653 260.262 666.378 265.409 659.558 269.14C652.739 272.743 644.89 274.544 636.012 274.544ZM636.012 265.666C646.434 265.666 654.798 262.514 661.102 256.209C667.536 249.904 670.752 241.541 670.752 231.119V179.974C670.752 169.681 667.536 161.382 661.102 155.077C654.798 148.644 646.434 145.427 636.012 145.427C625.719 145.427 617.42 148.644 611.115 155.077C604.811 161.382 601.658 169.681 601.658 179.974V231.119C601.658 241.541 604.811 249.904 611.115 256.209C617.42 262.514 625.719 265.666 636.012 265.666Z" fill="#020606"/>
<path d="M746.808 273C745.521 273 744.878 272.357 744.878 271.07V139.83C744.878 138.543 745.521 137.9 746.808 137.9H753.177C754.464 137.9 755.107 138.543 755.107 139.83V263.157C755.107 263.672 755.364 263.929 755.879 263.929H825.166C826.453 263.929 827.096 264.572 827.096 265.859V271.07C827.096 272.357 826.453 273 825.166 273H746.808Z" fill="#020606"/>
<path d="M885.263 273C883.976 273 883.333 272.357 883.333 271.07V139.83C883.333 138.543 883.976 137.9 885.263 137.9H891.632C892.919 137.9 893.562 138.543 893.562 139.83V263.157C893.562 263.672 893.819 263.929 894.334 263.929H963.621C964.908 263.929 965.551 264.572 965.551 265.859V271.07C965.551 272.357 964.908 273 963.621 273H885.263Z" fill="#020606"/>
<path d="M1023.72 273C1022.43 273 1021.79 272.357 1021.79 271.07V139.83C1021.79 138.543 1022.43 137.9 1023.72 137.9H1030.09C1031.37 137.9 1032.02 138.543 1032.02 139.83V271.07C1032.02 272.357 1031.37 273 1030.09 273H1023.72Z" fill="#020606"/>
<path d="M1188.31 139.251C1188.95 138.35 1189.73 137.9 1190.63 137.9H1197.19C1198.48 137.9 1199.12 138.543 1199.12 139.83V271.07C1199.12 272.357 1198.48 273 1197.19 273H1190.82C1189.53 273 1188.89 272.357 1188.89 271.07V157.779C1188.89 157.393 1188.76 157.2 1188.5 157.2C1188.25 157.071 1188.05 157.2 1187.92 157.586L1153.96 210.082C1153.31 210.983 1152.54 211.433 1151.64 211.433H1148.36C1147.46 211.433 1146.69 210.983 1146.04 210.082L1111.69 157.779C1111.56 157.393 1111.37 157.264 1111.11 157.393C1110.85 157.522 1110.72 157.779 1110.72 158.165V271.07C1110.72 272.357 1110.08 273 1108.79 273H1102.43C1101.14 273 1100.5 272.357 1100.5 271.07V139.83C1100.5 138.543 1101.14 137.9 1102.43 137.9H1109.18C1110.08 137.9 1110.85 138.35 1111.5 139.251L1149.32 197.151C1149.45 197.28 1149.65 197.344 1149.9 197.344C1150.16 197.344 1150.35 197.28 1150.48 197.151L1188.31 139.251Z" fill="#020606"/>
<path d="M1346.34 273C1345.18 273 1344.41 272.485 1344.03 271.456L1335.73 245.787C1335.6 245.401 1335.34 245.208 1334.96 245.208H1274.74C1274.35 245.208 1274.1 245.401 1273.97 245.787L1265.86 271.456C1265.48 272.485 1264.7 273 1263.55 273H1256.79C1255.38 273 1254.86 272.292 1255.25 270.877L1298.09 139.444C1298.48 138.415 1299.25 137.9 1300.41 137.9H1309.09C1310.25 137.9 1311.02 138.415 1311.41 139.444L1354.45 270.877L1354.64 271.649C1354.64 272.55 1354.06 273 1352.9 273H1346.34ZM1277.06 235.751C1276.93 236.008 1276.93 236.266 1277.06 236.523C1277.31 236.652 1277.57 236.716 1277.83 236.716H1331.87C1332.13 236.716 1332.32 236.652 1332.45 236.523C1332.7 236.266 1332.77 236.008 1332.64 235.751L1305.43 151.796C1305.3 151.539 1305.11 151.41 1304.85 151.41C1304.59 151.41 1304.4 151.539 1304.27 151.796L1277.06 235.751Z" fill="#020606"/>
<path d="M1477.44 137.9C1478.72 137.9 1479.37 138.543 1479.37 139.83V145.041C1479.37 146.328 1478.72 146.971 1477.44 146.971H1438.84C1438.32 146.971 1438.07 147.228 1438.07 147.743V271.07C1438.07 272.357 1437.42 273 1436.14 273H1429.77C1428.48 273 1427.84 272.357 1427.84 271.07V147.743C1427.84 147.228 1427.58 146.971 1427.07 146.971H1390.4C1389.11 146.971 1388.47 146.328 1388.47 145.041V139.83C1388.47 138.543 1389.11 137.9 1390.4 137.9H1477.44Z" fill="#020606"/>
<path d="M1567.12 274.544C1558.25 274.544 1550.4 272.743 1543.58 269.14C1536.89 265.409 1531.68 260.262 1527.95 253.7C1524.34 247.009 1522.54 239.354 1522.54 230.733V180.167C1522.54 171.546 1524.34 163.955 1527.95 157.393C1531.68 150.702 1536.89 145.556 1543.58 141.953C1550.4 138.222 1558.25 136.356 1567.12 136.356C1576 136.356 1583.85 138.222 1590.67 141.953C1597.49 145.556 1602.77 150.702 1606.5 157.393C1610.23 163.955 1612.09 171.546 1612.09 180.167V230.733C1612.09 239.354 1610.23 247.009 1606.5 253.7C1602.77 260.262 1597.49 265.409 1590.67 269.14C1583.85 272.743 1576 274.544 1567.12 274.544ZM1567.12 265.666C1577.55 265.666 1585.91 262.514 1592.21 256.209C1598.65 249.904 1601.86 241.541 1601.86 231.119V179.974C1601.86 169.681 1598.65 161.382 1592.21 155.077C1585.91 148.644 1577.55 145.427 1567.12 145.427C1556.83 145.427 1548.53 148.644 1542.23 155.077C1535.92 161.382 1532.77 169.681 1532.77 179.974V231.119C1532.77 241.541 1535.92 249.904 1542.23 256.209C1548.53 262.514 1556.83 265.666 1567.12 265.666Z" fill="#020606"/>
<path d="M1756.08 273C1754.93 273 1754.15 272.55 1753.77 271.649L1724.24 210.275C1724.11 209.889 1723.85 209.696 1723.47 209.696H1686.99C1686.48 209.696 1686.22 209.953 1686.22 210.468V271.07C1686.22 272.357 1685.58 273 1684.29 273H1677.92C1676.63 273 1675.99 272.357 1675.99 271.07V139.83C1675.99 138.543 1676.63 137.9 1677.92 137.9H1726.56C1737.36 137.9 1746.05 141.245 1752.61 147.936C1759.3 154.627 1762.65 163.376 1762.65 174.184C1762.65 183.319 1760.14 191.039 1755.12 197.344C1750.1 203.52 1743.35 207.38 1734.85 208.924C1734.21 209.181 1734.02 209.503 1734.28 209.889L1763.8 270.684C1763.93 270.941 1764 271.263 1764 271.649C1764 272.55 1763.48 273 1762.45 273H1756.08ZM1686.99 146.971C1686.48 146.971 1686.22 147.228 1686.22 147.743V200.432C1686.22 200.947 1686.48 201.204 1686.99 201.204H1725.59C1733.57 201.204 1740 198.695 1744.89 193.677C1749.91 188.659 1752.42 182.161 1752.42 174.184C1752.42 166.078 1749.91 159.516 1744.89 154.498C1740 149.48 1733.57 146.971 1725.59 146.971H1686.99Z" fill="#020606"/>
</mask>
<g mask="url(#mask0_2027_26684)">
<rect x="21" y="14.5" width="1753" height="371" fill="#32BCB8"/>
</g>
</svg>