<?xml version="1.0" encoding="utf-8"?>
<!-- Generator: Adobe Illustrator 18.1.0, SVG Export Plug-In . SVG Version: 6.00 Build 0)  -->
<svg version="1.1" baseProfile="basic" id="Ebene_1"
	 xmlns="http://www.w3.org/2000/svg" xmlns:xlink="http://www.w3.org/1999/xlink" x="0px" y="0px" width="256px" height="256px"
	 viewBox="0 0 256 256" xml:space="preserve">
<rect x="0" y="128" fill="#000078" width="128" height="128"/>
<path fill="#3700FF" d="M128,0C57.3,0,0,57.3,0,128s57.3,128,128,128c70.7,0,128-57.3,128-128l0,0V0H128z"/>
<g>
	<path fill="#FFFFFF" d="M149.7,83.7c-3.6-4.4-8.1-7.8-13.4-10.2c-5.3-2.4-11.4-3.6-18.4-3.6c-7,0-13.4,1.3-19.3,4
		c-5.9,2.7-11.1,6.4-15.4,11.3c-4.4,4.8-7.8,10.6-10.2,17.2c-2.5,6.6-3.7,13.8-3.7,21.6c0,7.9,1.2,15.1,3.7,21.7
		c2.5,6.6,5.8,12.3,10.1,17.1c4.3,4.8,9.3,8.6,15.1,11.3c5.8,2.7,12,4,18.6,4c7.6,0,14.3-1.6,20.2-4.7c5.9-3.2,10.7-7.6,14.5-13.3
		l30.8,23c-7.1,10-16.1,17.3-27,22.1c-10.9,4.7-22.1,7.1-33.7,7.1c-13.1,0-25.2-2.1-36.3-6.2s-20.6-10-28.7-17.7
		c-8.1-7.7-14.4-17-18.9-27.9c-4.5-10.9-6.8-23.1-6.8-36.5c0-13.4,2.3-25.6,6.8-36.5c4.5-10.9,10.8-20.2,18.9-27.9
		C64.5,52,74.1,46.1,85.1,42c11.1-4.1,23.2-6.2,36.3-6.2c4.8,0,9.7,0.4,14.8,1.3c5.1,0.9,10.2,2.3,15.2,4.2c5,1.9,9.8,4.4,14.4,7.6
		c4.6,3.2,8.7,7,12.3,11.6L149.7,83.7z"/>
</g>
<path fill="#3700FF" d="M188,112c-28.7,0-52,23.3-52,52h0v52h52v0c28.7,0,52-23.3,52-52v-52H188z"/>
<g>
	<path fill="#FFFFFF" d="M152,144h21l15.2,41.7h0.2L203,144h21v64h-14v-49h-0.2L193,208h-10l-16.8-49.2H166l0,49.2h-14V144z"/>
</g>
</svg>
