<?xml version="1.0" encoding="utf-8"?>
<!-- Generator: Adobe Illustrator 25.2.3, SVG Export Plug-In . SVG Version: 6.00 Build 0)  -->
<svg version="1.1" id="Ebene_1" xmlns="http://www.w3.org/2000/svg" xmlns:xlink="http://www.w3.org/1999/xlink" x="0px" y="0px"
	 viewBox="0 0 56.62 52.88" style="enable-background:new 0 0 56.62 52.88;" xml:space="preserve">
<style type="text/css">
	.st0{fill:#FFFFFF;}
	.st1{fill:#B5123E;}
	.st2{fill:none;}
</style>
<rect class="st0" width="56.62" height="52.88"/>
<g>
	<rect x="12.93" y="5.83" class="st1" width="1.34" height="9.58"/>
	<polygon class="st1" points="16.64,5.84 16.64,15.42 21.89,15.42 21.89,14.21 17.98,14.21 17.98,5.84 	"/>
	<polygon class="st1" points="23.42,5.84 23.42,15.42 28.65,15.42 28.65,14.21 24.76,14.21 24.76,11.05 28.31,11.05 28.31,9.84 
		24.76,9.84 24.76,7.04 28.65,7.04 28.65,5.84 	"/>
	<polygon class="st1" points="36.76,5.84 36.76,13.55 36.73,13.55 32.6,5.84 30.78,5.84 30.78,15.42 32.12,15.42 32.12,7.54 
		32.15,7.54 36.38,15.42 38.1,15.42 38.1,5.84 	"/>
	<rect x="6.08" y="28.97" class="st1" width="9.46" height="1.39"/>
	<path class="st1" d="M15.29,18.23h-4.92v3.38h1.11v-2h2.87c0.12,0.51,0.18,1.03,0.16,1.56c0,0.08,0,0.15,0,0.22
		c-0.07,1.97-1.73,3.51-3.7,3.44c-0.1,0-0.2,0-0.31,0c-1.96-0.09-3.48-1.76-3.39-3.72c-0.06-0.94,0.16-1.87,0.65-2.67L6.4,18.33
		c-0.34,0.91-0.51,1.88-0.48,2.85c-0.01,0.16-0.02,0.32-0.01,0.48c0.05,2.64,2.23,4.74,4.87,4.68c3,0,4.93-2.04,4.93-5.11
		C15.74,20.21,15.6,19.2,15.29,18.23"/>
	<path class="st1" d="M7.09,8.16c0-1.01,0.88-1.28,1.63-1.28c0.61,0,1.21,0.13,1.76,0.4l0.19-1.27c-0.64-0.22-1.32-0.34-2-0.34
		c-1.69,0-3,0.91-3,2.61c0,2.98,4,2.39,4,4.53c0,0.01,0,0.01,0,0.02c-0.07,0.93-0.89,1.62-1.82,1.55c-0.67-0.04-1.33-0.2-1.94-0.47
		l-0.16,1.27c0.61,0.24,1.26,0.37,1.92,0.4c1.88,0,3.42-0.85,3.42-2.85C11.09,9.57,7.09,10,7.09,8.16"/>
	<path class="st1" d="M43.67,12.59V7.04h2.9v-1.2h-7.15v1.2h2.91v6.79L15.54,38.66v-0.35c0-3.17-1.64-5.17-4.81-5.17
		c-2.92,0-4.65,2.29-4.65,5.17v2.87l6.74-0.01l-6.51,6.04h44.64V5.84L43.67,12.59z M14.35,39.76l-0.03,0.03H7.27v-1.63
		c-0.01-0.13-0.01-0.25,0-0.38c0.1-1.84,1.67-3.26,3.51-3.16c2.44,0,3.57,1.32,3.57,3.71V39.76z"/>
</g>
<rect x="5.67" y="5.67" class="st2" width="45.28" height="41.54"/>
</svg>
