<!--
  - Copyright (c) eXXcellent solutions GmbH 2023.
  - All rights reserved.
  -
  - This file is made available under the terms of the license
  - agreement that accompanies this distribution.
  -->

<svg xmlns="http://www.w3.org/2000/svg" width="393.335" height="174.367"
     viewBox="0 0 393.335 174.367">
    <defs>
        <style>
            .a,.d{fill:none;}.b{clip-path:url(#a);}.c{fill:#010101;}.d{stroke:#010101;stroke-linecap:round;stroke-linejoin:round;stroke-width:2px;}.e{fill:#1d1d1b;}
        </style>
        <clipPath id="a">
            <path class="a" d="M43.86,77.2,53.605,0l77.022,8.695-9.745,77.2Z" transform="translate(-43.86)" />
        </clipPath>
    </defs>
    <g transform="translate(0 1.19)">
        <g transform="translate(0 -1.19)">
            <g transform="translate(158.898)">
                <g class="b">
                    <path class="c"
                          d="M81,22.5,49.3,8.989,85.053,3.011l33.113,13.694L81,22.5M85.488,1.2h-.435L46.47,7.721a.833.833,0,0,1,.471.942V9.931L79.909,24.06v-.688A.906.906,0,0,1,81,22.539a.87.87,0,0,1,.725,1.014v.688l38.8-6.086V16.887a.87.87,0,0,1,.688-.8L85.488,1.2"
                          transform="translate(-37.014 3.147)" />
                    <path class="c"
                          d="M51.679,3a.906.906,0,0,0-.942.833L44.4,54.083a.87.87,0,0,0,.471.906l34.345,18.44h0a.833.833,0,0,1-.471-.906v-1.3L46.136,53.612,52.258,5.138V3.87A.833.833,0,0,0,51.932,3h-.254m75.428,8.369h-.254a.869.869,0,0,0-.688.8v1.268l-6.3,48.51L80.444,71.472V72.74a.942.942,0,0,1-.725.761h0l41.119-9.927a.869.869,0,0,0,.688-.8l6.231-50.43a.8.8,0,0,0-.652-.978"
                          transform="translate(-42.477 7.868)" />
                    <path class="c"
                          d="M61.544,7.09a.906.906,0,0,0-.906.833v.688L53.9,60.527v1.3a.833.833,0,0,0,.471.906h.435a.942.942,0,0,0,.725-.761V60.708L62.087,8.793V8.1a.869.869,0,0,0-.725-1.014"
                          transform="translate(-17.563 18.596)" />
                </g>
            </g>
            <path class="d" d="M127.62,22.29C74.726,101.232,69.654-16.185,26.18,65.112"
                  transform="translate(68.666 58.463)" />
            <path class="e"
                  d="M70.023,38.757a8.3,8.3,0,0,1,6.7,2.9,12.463,12.463,0,0,1,2.391,8.188v1.051H63.32A10.361,10.361,0,0,0,65.2,57.559a6.7,6.7,0,0,0,5.543,2.282,8.079,8.079,0,0,0,3.405-.616,10,10,0,0,0,2.826-2.1l1.811,1.413a16.342,16.342,0,0,1-1.739,1.522,10.434,10.434,0,0,1-1.811,1.087,9.49,9.49,0,0,1-2.1.652,13.511,13.511,0,0,1-2.536.217,8.84,8.84,0,0,1-7.246-2.971,13.26,13.26,0,0,1-2.427-8.514,13.586,13.586,0,0,1,2.391-8.586,8.115,8.115,0,0,1,6.7-3.188Zm0,2.137a6.412,6.412,0,0,0-3.623.978A6.231,6.231,0,0,0,64.045,44.7a6.628,6.628,0,0,0-.4.942l-.217.87v2.464h13.4V46.51a3.8,3.8,0,0,0-.217-.869,2.788,2.788,0,0,0-.362-.942A6.231,6.231,0,0,0,73.9,41.872a6.63,6.63,0,0,0-3.876-.978Z"
                  transform="translate(159.738 101.628)" />
            <path class="e"
                  d="M76.458,38.775a9.709,9.709,0,0,1,6.666,1.92A7.028,7.028,0,0,1,85.261,46.2V61.744H82.87V59.5a8.188,8.188,0,0,1-3.007,1.993,11.81,11.81,0,0,1-3.913.543,13.947,13.947,0,0,1-4.094-.616,5.724,5.724,0,0,1-2.645-1.449,5.29,5.29,0,0,1-1.232-1.993,6.847,6.847,0,0,1-.435-2.427,5.905,5.905,0,0,1,2.1-4.818,8.876,8.876,0,0,1,5.833-1.739h7.246V46.456a5.76,5.76,0,0,0-1.449-4.166,7.246,7.246,0,0,0-4.818-1.377,9.2,9.2,0,0,0-3.623.652,6.376,6.376,0,0,0-2.464,2.21l-1.739-1.522A7.68,7.68,0,0,1,71.965,39.5a13.187,13.187,0,0,1,4.492-.725Zm-.652,12.137c-3.876,0-5.8,1.522-5.8,4.6a3.949,3.949,0,0,0,1.413,3.333,7.427,7.427,0,0,0,4.529,1.087,15.868,15.868,0,0,0,2.971-.29A5.434,5.434,0,0,0,81.6,58.194a5.941,5.941,0,0,0,1.268-4.347V50.912Z"
                  transform="translate(177.142 101.61)" />
            <path class="e"
                  d="M83.42,38.75a14.491,14.491,0,0,1,4.42.652,11.593,11.593,0,0,1,3.623,1.739l-1.594,1.63a10.434,10.434,0,0,0-6.376-1.956,7.246,7.246,0,0,0-4.311,1.123A3.913,3.913,0,0,0,77.7,45.2a3.152,3.152,0,0,0,1.123,2.681A6.268,6.268,0,0,0,82.441,49l3.623.362a12.209,12.209,0,0,1,2.645.471,6.231,6.231,0,0,1,2.1.978,4.747,4.747,0,0,1,1.377,1.739,6.087,6.087,0,0,1,.507,2.717A5.76,5.76,0,0,1,90.267,60.2,10.869,10.869,0,0,1,83.6,62.009a15.107,15.107,0,0,1-5.326-.616,11.557,11.557,0,0,1-3.985-2.427L75.92,57.3a9.818,9.818,0,0,0,7.463,2.79c4.529,0,6.811-1.558,6.811-4.637a3.369,3.369,0,0,0-1.014-2.681,6.086,6.086,0,0,0-3.3-1.123l-3.623-.326c-4.565-.362-6.847-2.355-6.847-5.941a5.76,5.76,0,0,1,2.21-4.71A9.419,9.419,0,0,1,83.42,38.75Z"
                  transform="translate(194.851 101.635)" />
            <path class="e"
                  d="M88.368,68.3a5.8,5.8,0,0,1-1.558,2.645,4.746,4.746,0,0,1-1.993,1.123,8.261,8.261,0,0,1-2.282.326H81.412V70.109h.869a6.557,6.557,0,0,0,1.63,0,2.934,2.934,0,0,0,1.123-.543,3.623,3.623,0,0,0,.8-.942,11.588,11.588,0,0,0,.616-1.449l2.029-5.615L80.18,38.88h2.645l6.811,19.853L96.483,38.88h2.608Z"
                  transform="translate(210.3 101.976)" />
            <path class="e"
                  d="M97.558,35.6a14.491,14.491,0,0,1,5.326.869,15.251,15.251,0,0,1,4.347,2.753l-1.667,1.667a17.46,17.46,0,0,0-1.558-1.3,11.41,11.41,0,0,0-1.739-.978,8.007,8.007,0,0,0-2.174-.616,15.145,15.145,0,0,0-2.681-.217,8.477,8.477,0,0,0-5.724,1.811A6.594,6.594,0,0,0,89.661,44.7a5.471,5.471,0,0,0,1.7,4.42A7.245,7.245,0,0,0,93.5,50.348a12.318,12.318,0,0,0,2.645.688l3.913.616a7.445,7.445,0,0,1,2.029.4,7.609,7.609,0,0,1,1.522.435,8.259,8.259,0,0,1,1.268.616,8.8,8.8,0,0,1,1.159.87,8.143,8.143,0,0,1,2.9,6.412,9.455,9.455,0,0,1-.8,3.84,7.789,7.789,0,0,1-2.246,2.935,10,10,0,0,1-3.623,1.848,15.759,15.759,0,0,1-4.71.652,16.846,16.846,0,0,1-6.3-1.051A15.469,15.469,0,0,1,86.4,65.238l1.775-1.775a18.514,18.514,0,0,0,2.174,1.848,11.158,11.158,0,0,0,4.565,1.92,21.739,21.739,0,0,0,2.79,0,10.108,10.108,0,0,0,6.3-1.811,6.2,6.2,0,0,0,2.282-5.108,5.761,5.761,0,0,0-1.811-4.71l-.8-.435-1.014-.471L101.4,54.37l-1.7-.326-3.876-.652A11.3,11.3,0,0,1,89.842,51,7.644,7.644,0,0,1,87.2,44.769a9.745,9.745,0,0,1,.725-3.8,8.8,8.8,0,0,1,2.065-2.9,9.42,9.42,0,0,1,3.3-1.848,14.491,14.491,0,0,1,4.275-.616Z"
                  transform="translate(226.614 93.37)" />
            <path class="e"
                  d="M105.05,35.61a13.151,13.151,0,0,1,9.637,3.623l-1.63,1.666a17.461,17.461,0,0,0-1.558-1.3,11.846,11.846,0,0,0-1.775-.978A7.245,7.245,0,0,0,107.549,38a14.743,14.743,0,0,0-2.681-.217A8.4,8.4,0,0,0,99.144,39.6,6.485,6.485,0,0,0,97.116,44.7a5.47,5.47,0,0,0,1.666,4.42,8.262,8.262,0,0,0,2.138,1.232,12.645,12.645,0,0,0,2.681.688l3.913.616,2.029.4a9.347,9.347,0,0,1,1.522.435l1.268.616a8.8,8.8,0,0,1,1.159.869,8.26,8.26,0,0,1,2.862,6.449,9.455,9.455,0,0,1-.761,3.84,8.151,8.151,0,0,1-2.246,2.935,10.652,10.652,0,0,1-3.623,1.848,15.977,15.977,0,0,1-4.746.652,16.773,16.773,0,0,1-6.268-1.051A15.614,15.614,0,0,1,94,65.282l1.811-1.775a14.056,14.056,0,0,0,2.174,1.848,10.073,10.073,0,0,0,2.174,1.232,10.652,10.652,0,0,0,2.391.688,21.047,21.047,0,0,0,2.753,0,9.963,9.963,0,0,0,6.3-1.811,6.123,6.123,0,0,0,2.319-5.108,5.8,5.8,0,0,0-1.848-4.71,8.076,8.076,0,0,0-.869-.688,6.123,6.123,0,0,0-.978-.471l-1.268-.326-1.739-.326-3.913-.616a11.3,11.3,0,0,1-5.978-2.391A7.753,7.753,0,0,1,94.725,44.6a9.13,9.13,0,0,1,.725-3.8,7.862,7.862,0,0,1,2.065-2.9,9.564,9.564,0,0,1,3.261-1.848,14.818,14.818,0,0,1,4.275-.435Z"
                  transform="translate(246.547 93.363)" />
            <path class="e"
                  d="M114.661,35.68a11.991,11.991,0,0,1,4.021.652,8.913,8.913,0,0,1,3.224,1.884,8.623,8.623,0,0,1,2.1,3.007,9.818,9.818,0,0,1,.8,4.094,9.709,9.709,0,0,1-.8,4.094,9.13,9.13,0,0,1-2.1,3.043,8.442,8.442,0,0,1-3.224,1.884,11.992,11.992,0,0,1-4.021.652h-9.745v14.2H102.38V35.68Zm-9.745,2.246V52.708h9.456a8.514,8.514,0,0,0,5.688-1.811,6.811,6.811,0,0,0,2.21-5.579,6.92,6.92,0,0,0-2.21-5.579,8.7,8.7,0,0,0-5.688-1.811Z"
                  transform="translate(268.527 93.583)" />
            <path class="e"
                  d="M9.13,39.253a8.55,8.55,0,0,1,6.3,2.5,8.188,8.188,0,0,1,2.319,4.239,22.425,22.425,0,0,1,.362,4.891,22.426,22.426,0,0,1-.507,4.891,8.188,8.188,0,0,1-2.174,4.311,8.55,8.55,0,0,1-6.3,2.5,8.55,8.55,0,0,1-6.3-2.5A8.441,8.441,0,0,1,.507,55.845a23.838,23.838,0,0,1,0-9.782,8.441,8.441,0,0,1,2.319-4.239,8.55,8.55,0,0,1,6.3-2.572Zm0,2.137a6.376,6.376,0,0,0-4.71,1.92A5.181,5.181,0,0,0,3.333,44.9a8.477,8.477,0,0,0-.616,1.92,9.419,9.419,0,0,0-.254,2.029c0,.688,0,1.377,0,2.029v2.029a10.071,10.071,0,0,0,.254,2.065,8.187,8.187,0,0,0,.616,1.884A4.964,4.964,0,0,0,4.42,58.49a6.521,6.521,0,0,0,4.71,1.92,6.449,6.449,0,0,0,4.71-1.92,5.688,5.688,0,0,0,1.123-1.63,10.434,10.434,0,0,0,.616-1.884,13.4,13.4,0,0,0,.254-2.137c0-.688,0-1.377,0-2.029V48.781a12.426,12.426,0,0,0-.254-2.029,10.868,10.868,0,0,0-.616-1.92,6.05,6.05,0,0,0-1.123-1.594A6.3,6.3,0,0,0,9.13,41.39Z"
                  transform="translate(0 102.944)" />
            <path class="e"
                  d="M16.257,39.251a8.332,8.332,0,0,1,2.935.471,7.246,7.246,0,0,1,2.536,1.7l-1.739,1.739a7.246,7.246,0,0,0-1.956-1.413,6.3,6.3,0,0,0-2.355-.362,5.833,5.833,0,0,0-2.572.543,5.688,5.688,0,0,0-1.92,1.522A6.268,6.268,0,0,0,10.1,45.591,7.9,7.9,0,0,0,9.664,48.2V62.256H7.2V39.541H9.591v3.007a6.7,6.7,0,0,1,2.826-2.464,9.274,9.274,0,0,1,3.84-.833Z"
                  transform="translate(18.884 102.945)" />
            <path class="e"
                  d="M21.759,39.251a10.47,10.47,0,0,1,4.021.725A10.868,10.868,0,0,1,29.4,42.729l-1.667,1.522A9.6,9.6,0,0,0,24.984,42a6.775,6.775,0,0,0-3.079-.616A6.7,6.7,0,0,0,15.89,44.4a7.246,7.246,0,0,0-1.2,2.717,19.962,19.962,0,0,0,0,7.572,7.608,7.608,0,0,0,1.2,2.717A6.775,6.775,0,0,0,21.9,60.409a6.775,6.775,0,0,0,3.079-.652,9.419,9.419,0,0,0,2.753-2.21L29.4,59.032a10.325,10.325,0,0,1-3.623,2.753,9.854,9.854,0,0,1-4.021.725,10.362,10.362,0,0,1-4.2-.8,8.477,8.477,0,0,1-3.116-2.319,10.144,10.144,0,0,1-1.993-3.623,16.7,16.7,0,0,1-.688-4.855,16.882,16.882,0,0,1,.869-4.891A10.47,10.47,0,0,1,14.622,42.4a8.876,8.876,0,0,1,3.116-2.319A10.361,10.361,0,0,1,21.759,39.251Z"
                  transform="translate(30.844 102.945)" />
            <path class="e"
                  d="M20.852,49.853a8.333,8.333,0,0,1,6.7-2.971A8.007,8.007,0,0,1,34,49.491a8.622,8.622,0,0,1,1.92,5.869V69.851H33.532V55.795a7.246,7.246,0,0,0-1.594-5.036,5.978,5.978,0,0,0-4.565-1.739,6.2,6.2,0,0,0-4.746,1.739,6.92,6.92,0,0,0-1.667,5.036V69.888H18.57V36.34h2.391Z"
                  transform="translate(48.706 95.314)" />
            <path class="e" d="M28.7,39.311H25.73V36.34H28.7Zm-.29,30.577H26.02V47.172h2.391Z"
                  transform="translate(67.486 95.314)" />
            <path class="e"
                  d="M46.263,69.888H43.872V66.953a7.463,7.463,0,0,1-3.152,2.572,9.564,9.564,0,0,1-3.623.616,8.984,8.984,0,0,1-3.224-.543,6.811,6.811,0,0,1-2.355-1.413A8.7,8.7,0,0,1,29.2,63.8a24.418,24.418,0,0,1,0-10.579,8.731,8.731,0,0,1,2.319-4.347,6.34,6.34,0,0,1,2.355-1.449,8.985,8.985,0,0,1,3.224-.543,10.362,10.362,0,0,1,3.623.616,7.246,7.246,0,0,1,3.152,2.608V36.34h2.391ZM37.46,49.02a6.268,6.268,0,0,0-3.369.8,5.941,5.941,0,0,0-1.956,2.174,9.854,9.854,0,0,0-.869,3.079,27.643,27.643,0,0,0,0,6.92,9.637,9.637,0,0,0,.869,3.043,5.652,5.652,0,0,0,1.956,2.174,6.268,6.268,0,0,0,3.369.833,6.05,6.05,0,0,0,3.333-.833,5.652,5.652,0,0,0,1.956-2.174,8.8,8.8,0,0,0,.906-3.043,27.642,27.642,0,0,0,0-6.92,8.985,8.985,0,0,0-.906-3.079,5.942,5.942,0,0,0-1.956-2.174,6.05,6.05,0,0,0-3.333-.8Z"
                  transform="translate(75.066 95.314)" />
            <path class="e"
                  d="M44.822,39.26a8.224,8.224,0,0,1,6.666,2.9,12.535,12.535,0,0,1,2.391,8.188V51.4H38.12a10.361,10.361,0,0,0,1.848,6.666,6.739,6.739,0,0,0,5.543,2.282,7.97,7.97,0,0,0,3.405-.616,10.108,10.108,0,0,0,2.862-2.1l1.775,1.413a13.151,13.151,0,0,1-1.7,1.522A9.492,9.492,0,0,1,50,61.649a7.9,7.9,0,0,1-2.1.652,13.516,13.516,0,0,1-2.536.217,8.731,8.731,0,0,1-7.246-2.971,13.078,13.078,0,0,1-2.464-8.659A13.586,13.586,0,0,1,38.047,42.3a8.043,8.043,0,0,1,6.775-3.043Zm0,2.137A6.268,6.268,0,0,0,41.2,42.412a7.028,7.028,0,0,0-2.717,3.623,3.623,3.623,0,0,0-.217.906,7.246,7.246,0,0,0,0,1.051v1.377H51.488V47.991a4.455,4.455,0,0,0,0-1.051,3.622,3.622,0,0,0-.217-.906,6.232,6.232,0,0,0-.362-.942A5.869,5.869,0,0,0,48.59,42.3a6.34,6.34,0,0,0-3.768-.906Z"
                  transform="translate(93.426 102.937)" />
            <path class="e"
                  d="M51.662,39.253a8.55,8.55,0,0,1,6.3,2.5,8.441,8.441,0,0,1,2.319,4.239,23.838,23.838,0,0,1,0,9.782,8.441,8.441,0,0,1-2.391,4.311,9.2,9.2,0,0,1-12.608,0,8.441,8.441,0,0,1-2.319-4.239,23.838,23.838,0,0,1,0-9.782,8.441,8.441,0,0,1,2.319-4.239,8.55,8.55,0,0,1,6.376-2.572Zm0,2.137a6.376,6.376,0,0,0-4.71,1.92A6.05,6.05,0,0,0,45.829,44.9a8.441,8.441,0,0,0-.58,1.92,12.428,12.428,0,0,0-.29,2.029c0,.688,0,1.377,0,2.029v2.029a13.479,13.479,0,0,0,.29,2.065,8.115,8.115,0,0,0,.58,1.884,5.688,5.688,0,0,0,1.123,1.63,6.739,6.739,0,0,0,9.419,0,4.964,4.964,0,0,0,1.087-1.63,8.188,8.188,0,0,0,.616-1.884,13.473,13.473,0,0,0,.29-2.065V48.853a12.426,12.426,0,0,0-.29-2.029,8.477,8.477,0,0,0-.616-1.92,5.181,5.181,0,0,0-1.087-1.594A6.376,6.376,0,0,0,51.662,41.39Z"
                  transform="translate(111.366 102.944)" />
            <path class="e" d="M55.65,75.883H53.44V35.38h2.21Z" transform="translate(140.165 92.796)" />
        </g>
    </g>
</svg>