<?xml version="1.0" encoding="UTF-8" standalone="no"?>
<!-- Created with Inkscape (http://www.inkscape.org/) -->

<svg
   xmlns:dc="http://purl.org/dc/elements/1.1/"
   xmlns:cc="http://creativecommons.org/ns#"
   xmlns:rdf="http://www.w3.org/1999/02/22-rdf-syntax-ns#"
   xmlns:svg="http://www.w3.org/2000/svg"
   xmlns="http://www.w3.org/2000/svg"
   xmlns:sodipodi="http://sodipodi.sourceforge.net/DTD/sodipodi-0.dtd"
   xmlns:inkscape="http://www.inkscape.org/namespaces/inkscape"
   version="1.1"
   id="svg2"
   xml:space="preserve"
   width="341.332"
   height="341.33331"
   viewBox="0 0 341.332 341.33331"
   sodipodi:docname="excite_m.svg"
   inkscape:version="0.92.5 (2060ec1f9f, 2020-04-08)"><metadata
     id="metadata8"><rdf:RDF><cc:Work
         rdf:about=""><dc:format>image/svg+xml</dc:format><dc:type
           rdf:resource="http://purl.org/dc/dcmitype/StillImage" /><dc:title></dc:title></cc:Work></rdf:RDF></metadata><defs
     id="defs6" /><sodipodi:namedview
     pagecolor="#ffffff"
     bordercolor="#666666"
     borderopacity="1"
     objecttolerance="10"
     gridtolerance="10"
     guidetolerance="10"
     inkscape:pageopacity="0"
     inkscape:pageshadow="2"
     inkscape:window-width="1920"
     inkscape:window-height="1137"
     id="namedview4"
     showgrid="false"
     fit-margin-top="0"
     fit-margin-left="0"
     fit-margin-right="0"
     fit-margin-bottom="0"
     inkscape:zoom="2.2368421"
     inkscape:cx="407.83867"
     inkscape:cy="280.62016"
     inkscape:window-x="-8"
     inkscape:window-y="-8"
     inkscape:window-maximized="1"
     inkscape:current-layer="g12" /><g
     id="g10"
     inkscape:groupmode="layer"
     inkscape:label="ink_ext_XXXXXX"
     transform="matrix(1.3333333,0,0,-1.3333333,0,341.33332)"><g
       id="g12"
       transform="scale(0.1)"><path
         d="M 0,0 H 1280 V 1279.99 H 0 V 0"
         style="fill:#00467f;fill-opacity:1;fill-rule:nonzero;stroke:none"
         id="path14"
         inkscape:connector-curvature="0" /><path
         d="M 1280,2560 C 573.078,2560 0.00390625,1986.93 0.00390625,1280 0.00390625,573.078 573.078,0.0117188 1280,0.0117188 1986.92,0.0117188 2559.99,573.078 2559.99,1280 v 0 1280 H 1280"
         style="fill:#008cff;fill-opacity:1;fill-rule:nonzero;stroke:none"
         id="path16"
         inkscape:connector-curvature="0" /><path
         d="M 638.902,2160.05 H 1778.76 v -339.96 h -769.9 v -309.95 h 719.91 V 1160.18 H 1008.86 V 820.219 h 809.9 l 1.49,-339.949 -1181.348,0.011 V 2160.05"
         style="fill:#ffffff;fill-opacity:1;fill-rule:nonzero;stroke:none"
         id="path18"
         inkscape:connector-curvature="0" /><path
         d="m 1972.66,1117.27 c -287.14,0 -519.93,44.16 -519.93,-242.981 v 0 -519.937 h 519.92 v 0 c 287.15,0 324.74,209.507 324.74,496.679 l -24.69,246.899 -300.04,19.34"
         style="fill:#008cff;fill-opacity:1;fill-rule:nonzero;stroke:none"
         id="path20"
         inkscape:connector-curvature="0" /><path
         d="m 1617.78,1022.3 h 177.83 l 128.55,-352.991 h 1.52 l 123.98,352.991 h 177.83 V 480.332 h -118.56 v 414.949 h -1.52 L 1964.99,480.332 h -84.69 l -142.17,416.34 h -1.53 l -0.27,-416.34 H 1617.78 V 1022.3"
         style="fill:#ffffff;fill-opacity:1;fill-rule:nonzero;stroke:none"
         id="path22"
         inkscape:connector-curvature="0" /></g></g></svg>