<?xml version="1.0" encoding="UTF-8" standalone="no"?>
<!-- Created with Inkscape (http://www.inkscape.org/) -->

<svg
   width="140.53447mm"
   height="54.407166mm"
   viewBox="0 0 140.53447 54.407166"
   version="1.1"
   id="svg5"
   inkscape:version="1.2.2 (b0a8486541, 2022-12-01)"
   sodipodi:docname="Femyou.svg"
   xmlns:inkscape="http://www.inkscape.org/namespaces/inkscape"
   xmlns:sodipodi="http://sodipodi.sourceforge.net/DTD/sodipodi-0.dtd"
   xmlns="http://www.w3.org/2000/svg"
   xmlns:svg="http://www.w3.org/2000/svg">
  <sodipodi:namedview
     id="namedview7"
     pagecolor="#ffffff"
     bordercolor="#000000"
     borderopacity="0.25"
     inkscape:showpageshadow="2"
     inkscape:pageopacity="0.0"
     inkscape:pagecheckerboard="0"
     inkscape:deskcolor="#d1d1d1"
     inkscape:document-units="mm"
     showgrid="false"
     inkscape:zoom="0.914906"
     inkscape:cx="274.34512"
     inkscape:cy="263.96154"
     inkscape:window-width="1432"
     inkscape:window-height="1229"
     inkscape:window-x="963"
     inkscape:window-y="539"
     inkscape:window-maximized="0"
     inkscape:current-layer="layer1" />
  <defs
     id="defs2" />
  <g
     inkscape:label="Layer 1"
     inkscape:groupmode="layer"
     id="layer1"
     transform="translate(-40.828707,-147.71533)">
    <g
       id="g528"
       style="fill:#a800ac;fill-opacity:1;stroke:none;stroke-opacity:1">
      <g
         aria-label="e"
         id="text243-9"
         style="fstroke-width:0.0890061">
        <path
           d="m 65.903165,182.64679 q 0.114296,-0.14287 0.114296,-0.25717 0,-0.11429 -0.14287,-0.28574 -0.142869,-0.17144 -0.51433,-0.51433 l -0.342887,-0.34288 q -0.742921,-0.68578 -1.114382,-0.85722 -0.37146,-0.17144 -1.085808,-0.17144 -1.428695,0 -2.143042,0.22859 -0.714348,0.20002 -1.600139,0.91436 -2.685946,2.17162 -2.828816,2.77167 0.114296,0.0286 0.485756,0.0286 2.771669,0 7.886397,-0.97152 0.51433,-0.0857 0.857217,-0.25716 0.342887,-0.17145 0.428608,-0.28574 z m 1.285826,5.05758 q 1.114382,-0.7715 1.54299,-0.7715 0.428609,0 0.428609,0.42861 0,0.57148 -1.085808,1.85731 -1.057235,1.25725 -2.257338,2.14304 -3.771755,2.74309 -7.172049,2.74309 -2.371634,0 -4.086068,-1.60014 -1.714434,-1.62871 -1.714434,-4.51467 0,-2.40021 1.000086,-4.22894 1.000087,-1.77158 3.486016,-3.68603 2.48593,-1.94303 4.400381,-1.94303 0.485756,0 1.485843,0.0857 1.514416,0.1143 2.114468,0.31432 0.600052,0.17144 1.3144,0.71434 0.685773,0.54291 1.17153,1.45727 0.51433,0.91437 0.51433,1.74301 0,0.60005 -0.285739,1.08581 -0.285739,0.45718 -0.6572,0.74292 -0.371461,0.28574 -1.057234,0.5429 -0.685774,0.2286 -1.200104,0.34289 -0.485756,0.1143 -1.285826,0.25717 -2.885963,0.5429 -5.857649,0.71434 l -2.514503,0.1143 -0.14287,0.74292 q -0.114295,0.62863 -0.114295,0.85722 0,1.34297 1.342973,2.68594 1.228678,1.25726 2.828816,1.25726 1.257252,0 2.828816,-0.74292 1.571565,-0.7715 2.714521,-1.68587 1.17153,-0.91436 2.257338,-1.65728 z"
           id="path402" />
      </g>
      <g
         aria-label="yo"
         id="text243-1"
         style="stroke-width:0.0913555">
        <path
           d="m 116.07855,193.38272 q -1.20245,0 -1.73036,-0.87985 -0.52791,-0.90917 -0.52791,-1.87699 0,-0.96783 0.61589,-3.754 0.99716,-4.66317 1.61305,-5.80697 0.58656,-0.99715 1.29044,-1.02648 0.79185,0 0.79185,0.87984 0,0.55724 -0.85051,4.22325 -0.85052,3.66601 -0.85052,4.89779 0,0.82119 0.29329,0.82119 0.41059,0 1.99431,-1.26111 1.58371,-1.26111 2.43423,-2.46356 1.05581,-1.49573 1.99431,-3.66601 0.9385,-2.17028 1.55439,-3.25542 0.64522,-1.08514 1.55439,-1.08514 0.41059,0 0.70387,0.26395 0.29328,0.26396 0.29328,0.70388 0,0.5279 -0.70387,1.877 -0.67455,1.31976 -1.52506,3.5487 -0.85052,2.1996 -1.1438,4.72182 l 0.0293,0.32261 0.58656,-0.23463 q 0.70388,-0.35193 1.34909,-0.35193 0.99716,0 0.99716,0.70387 0,0.96783 -1.81834,1.81834 l -1.11447,0.46925 -0.46925,2.93281 q -1.11447,4.4872 -1.49573,5.33772 -0.35194,0.87984 -1.3491,0.87984 -0.7332,0 -2.08229,-0.55723 -0.76253,-0.35194 -1.17312,-0.76253 -0.38127,-0.4106 -0.64522,-1.23178 -0.38127,-1.23178 -0.38127,-2.14096 0,-0.70387 0.17597,-1.20245 0.17597,-0.49858 0.35194,-0.7332 0.17597,-0.23462 0.67454,-0.70387 0.49858,-0.49858 0.76253,-0.82119 0.43993,-0.52791 1.23178,-0.87984 0.79186,-0.35194 0.85052,-0.38127 0.23462,-0.14664 0.87984,-0.49858 0.088,-0.26395 0.088,-1.05581 0,-0.26395 -0.0587,-0.55723 -0.11731,0.088 -0.82119,0.67454 -0.70387,0.55724 -1.29043,0.96783 -0.55724,0.38127 -1.43708,0.76253 -0.87984,0.38127 -1.64237,0.38127 z m 4.13526,6.10024 q 0.58656,-0.90917 0.58656,-3.754 v -0.26395 q 0,-0.23462 0.088,-0.79186 l -0.32261,0.35194 q -0.76253,0.82119 -1.23178,1.61305 -0.46925,0.79185 -0.46925,1.08514 0,0.38126 0.5279,0.99715 0.52791,0.61589 0.82119,0.76253 z"
           id="path405" />
        <path
           d="m 144.35081,178.1321 q 2.72751,0 3.72467,0.90918 1.02648,0.87984 1.02648,2.66885 0,3.07945 -2.31692,7.03875 -2.31692,3.95929 -5.27906,5.4257 -2.46356,1.20245 -4.86846,1.20245 -1.64237,0 -2.99147,-0.55724 -1.31976,-0.5279 -2.02364,-1.55439 -1.23178,-1.75968 -1.23178,-3.28474 0,-0.85052 0.26396,-2.11163 0.76253,-3.63668 4.36988,-6.27621 2.93281,-2.11162 4.80981,-2.78617 1.877,-0.67455 4.51653,-0.67455 z m 2.25826,4.22325 q 0,-0.55723 -0.79185,-0.99715 -0.79186,-0.46925 -1.64238,-0.46925 -0.17597,0 -0.49858,0.0587 -0.29328,0.0293 -0.9385,0.11731 -0.61589,0.0587 -1.31976,0.11732 -0.99716,0.088 -1.6717,0.38126 -0.67455,0.26396 -1.75969,1.05581 -2.22893,1.61305 -3.37273,3.16744 -1.14379,1.52506 -1.14379,3.37273 0,1.70103 1.20245,2.75684 1.20245,1.02649 3.25542,1.02649 2.4049,0 5.07376,-3.05013 2.69818,-3.07945 3.51937,-6.98008 0.088,-0.35194 0.088,-0.55724 z"
           id="path407" />
      </g>
    </g>
    <g
       id="g536"
       style="fill:#f70d88;fill-opacity:1">
      <g
         aria-label="M"
         id="text405-8"
         style="stroke-width:0.190238">
        <path
           d="m 108.30539,197.79495 q -1.34359,0 -2.32076,-0.85502 -0.97716,-0.85502 -0.97716,-2.25969 0,-2.44291 2.74827,-18.38289 2.80934,-16.00104 3.11471,-18.68824 -0.73287,0.85502 -2.93149,4.09187 -2.13755,3.23685 -7.26765,9.52734 -1.893257,2.32076 -5.313328,4.33616 -3.358998,1.95433 -5.740834,1.95433 -0.91609,0 -2.076472,-1.71004 -1.160381,-1.71003 -2.015399,-3.96972 l -1.099308,-2.80935 -2.748272,12.82527 q -1.771108,8.36696 -2.992562,12.5199 -1.221454,4.15295 -2.25969,5.55762 -1.038236,1.46574 -2.442908,1.46574 -1.893254,0 -1.893254,-3.1147 0,-4.39724 5.374398,-29.55919 2.381835,-11.05416 3.358998,-14.90174 0.977164,-3.90865 1.710036,-4.64152 1.465745,-1.46575 3.053635,-1.46575 1.343599,0 1.893254,1.77111 0.610727,1.71003 0.977163,6.16834 0.610727,6.53478 1.771108,11.23738 1.221454,4.7026 2.076472,5.49654 1.282527,-0.73287 5.43547,-5.8019 4.214013,-5.06904 10.870943,-14.35209 1.22145,-1.77111 3.11471,-2.99256 1.89325,-1.22146 3.42007,-1.22146 2.6872,0 2.6872,4.21402 0,3.29793 -3.23686,19.2379 -3.17578,15.93998 -3.17578,20.33721 0,0.61073 0.0611,1.28253 0.0611,0.6718 0.0611,0.85502 0,1.46574 -0.73287,2.68719 -0.73288,1.16039 -2.50399,1.16039 z"
           id="path306" />
      </g>
      <g
         aria-label="F"
         id="text405-88"
         style="stroke-width:0.190238">
        <path
           d="m 48.279577,184.72538 q -0.732873,4.82475 -1.3436,7.02336 -0.549654,2.13755 -1.221454,2.87042 -0.671799,0.6718 -2.015399,0.6718 -2.381835,0 -2.809344,-1.22145 0,-0.0611 -0.06107,-0.18322 0,-0.18322 0,-0.30536 0,-1.09931 0.549655,-3.54222 0.610727,-2.80935 1.282526,-10.87094 0.6718,-8.0616 2.442908,-16.48963 l 2.137545,-10.13807 5.43547,-1.77111 q 5.374398,-1.58789 8.550178,-1.58789 2.076472,0 4.275089,-0.73287 2.198617,-0.73287 5.740834,-0.73287 5.007962,0 5.007962,1.64896 0,0.85502 -0.366437,1.52682 -0.366436,0.6718 -1.282526,1.16038 -0.855018,0.48858 -1.832181,0.85502 -0.977164,0.30536 -2.687199,0.6718 -1.648963,0.30536 -3.114708,0.54965 -1.465745,0.18322 -3.908653,0.61073 -2.442908,0.36643 -4.336161,0.73287 l -6.351561,1.16038 -0.732873,3.48115 q -1.038236,5.00796 -1.160381,7.38979 l -0.06107,1.95433 3.542217,-0.36644 q 4.214016,-0.48858 8.244814,-0.48858 5.252253,0 5.252253,1.46575 0,2.74827 -12.642049,4.88581 l -5.19118,0.79395 z"
           id="path309" />
      </g>
      <g
         aria-label="U"
         transform="scale(-1,1)"
         id="text405-3"
         style="stroke-width:0.190238">
        <path
           d="m -150.33824,151.07433 q 0,-1.40468 0.91609,-2.19862 0.97716,-0.85502 1.58789,-0.97716 0.6718,-0.18322 1.03823,-0.18322 1.58789,0 2.19862,1.89325 0.6718,1.83218 0.85502,4.27509 0.18322,2.38183 0.42751,2.80934 0.24429,0.48859 0.24429,1.3436 0,1.52682 -0.73288,4.94689 -1.64896,7.75624 -4.70259,13.98565 -2.99257,6.16834 -6.22942,9.71056 -3.23685,3.54222 -6.77907,5.92405 -3.48114,2.32076 -5.98512,3.17578 -2.44291,0.79395 -4.09187,0.79395 -2.07648,0 -4.64153,-0.97717 -2.50398,-1.03823 -3.78651,-2.50398 -1.3436,-1.58789 -1.3436,-7.93945 0,-6.71799 1.28253,-16.36748 1.3436,-9.71056 2.32076,-14.16887 0.54966,-2.74827 1.22146,-3.84758 0.6718,-1.16038 2.19861,-1.89325 0.61073,-0.24429 0.97717,-0.24429 1.52682,0 1.52682,2.80934 0,0.54966 -0.73288,6.47371 -0.73287,5.86298 -1.46574,13.80243 -0.6718,7.93945 -0.6718,13.49707 0,3.29792 0.48858,4.39723 0.54965,1.09931 2.50398,1.09931 2.13755,0 5.80191,-1.95433 4.15294,-2.19862 7.02336,-5.49654 2.87041,-3.359 5.61869,-9.16091 3.7865,-7.57301 3.7865,-13.98564 0,-2.25969 -0.42751,-5.25226 -0.4275,-3.05363 -0.4275,-3.7865 z"
           id="path312" />
      </g>
    </g>
  </g>
</svg>
