<?xml version="1.0" encoding="UTF-8" standalone="no"?>
<!-- Created with Inkscape (http://www.inkscape.org/) -->

<svg
   version="1.1"
   id="svg2"
   xml:space="preserve"
   width="322.66666"
   height="89.333336"
   viewBox="0 0 322.66666 89.333336"
   sodipodi:docname="fraunhoferiis.eps"
   xmlns:inkscape="http://www.inkscape.org/namespaces/inkscape"
   xmlns:sodipodi="http://sodipodi.sourceforge.net/DTD/sodipodi-0.dtd"
   xmlns="http://www.w3.org/2000/svg"
   xmlns:svg="http://www.w3.org/2000/svg"><defs
     id="defs6" /><sodipodi:namedview
     id="namedview4"
     pagecolor="#ffffff"
     bordercolor="#666666"
     borderopacity="1.0"
     inkscape:pageshadow="2"
     inkscape:pageopacity="0.0"
     inkscape:pagecheckerboard="0" /><g
     id="g8"
     inkscape:groupmode="layer"
     inkscape:label="ink_ext_XXXXXX"
     transform="matrix(1.3333333,0,0,-1.3333333,0,89.333333)"><g
       id="g10"
       transform="scale(0.1)"><path
         d="M 6.35938,270.559 C 99.2969,318.41 235.438,395.758 397.039,508.859 v 37.95 C 254.816,453.77 110.188,379.051 6.35938,329.629 v -59.07"
         style="fill:#2da78a;fill-opacity:1;fill-rule:nonzero;stroke:none"
         id="path12" /><path
         d="M 6.35938,383.914 C 109.836,426.074 254.469,491.215 397.039,576.004 v 18.742 C 263.047,528.277 123.828,486.664 6.35938,460.734 v -76.82"
         style="fill:#2da78a;fill-opacity:1;fill-rule:nonzero;stroke:none"
         id="path14" /><path
         d="m 397.043,270.375 v 190.93 C 308.094,386.324 220.012,321.395 146.012,270.375 h 251.031"
         style="fill:#2da78a;fill-opacity:1;fill-rule:nonzero;stroke:none"
         id="path16" /><path
         d="m 96.0547,270.375 c 70.2583,41.711 155.5583,96.152 240.4923,159.77 19.808,14.847 40.047,30.152 60.5,45.96 v 23.661 C 271.324,405.516 143.016,326.953 42.7734,270.375 h 53.2813"
         style="fill:#2da78a;fill-opacity:1;fill-rule:nonzero;stroke:none"
         id="path18" /><path
         d="M 6.35938,488.508 C 120.629,508.605 260.426,544.754 397.039,609.676 v 21.289 C 259.379,569.164 121.578,542.953 6.35938,533.633 v -45.125"
         style="fill:#2da78a;fill-opacity:1;fill-rule:nonzero;stroke:none"
         id="path20" /><path
         d="M 6.35938,663.035 V 553.656 c 8.52732,0.528 17.23832,1.141 26.12112,1.828 94.9965,7.313 224.6485,24.09 364.5585,84.59 v 22.961 H 6.35938"
         style="fill:#2da78a;fill-opacity:1;fill-rule:nonzero;stroke:none"
         id="path22" /><path
         d="M 6.35938,553.66 V 533.629 C 121.578,542.961 259.379,569.172 397.039,630.961 v 9.117 C 257.129,579.582 127.477,562.789 32.4805,555.492 23.5977,554.793 14.8867,554.191 6.35938,553.66"
         style="fill:#ffffff;fill-opacity:1;fill-rule:nonzero;stroke:none"
         id="path24" /><path
         d="M 6.35938,460.73 C 123.828,486.672 263.047,528.27 397.039,594.738 V 609.68 C 260.426,544.75 120.629,508.602 6.35938,488.5 v -27.77"
         style="fill:#ffffff;fill-opacity:1;fill-rule:nonzero;stroke:none"
         id="path26" /><path
         d="M 6.35938,329.625 C 110.188,379.051 254.816,453.766 397.039,546.816 v 29.192 C 254.469,491.207 109.836,426.078 6.35938,383.918 v -54.293"
         style="fill:#ffffff;fill-opacity:1;fill-rule:nonzero;stroke:none"
         id="path28" /><path
         d="m 96.0547,270.375 h 49.9613 c 73.988,51.02 162.078,115.949 251.031,190.93 v 14.8 c -20.453,-15.808 -40.692,-31.113 -60.5,-45.96 C 251.613,366.527 166.313,312.086 96.0547,270.375"
         style="fill:#ffffff;fill-opacity:1;fill-rule:nonzero;stroke:none"
         id="path30" /><path
         d="M 6.35938,270.375 H 42.7773 C 143.02,326.953 271.328,405.516 397.039,499.766 v 9.089 C 235.438,395.766 99.2969,318.414 6.35938,270.563 v -0.188"
         style="fill:#ffffff;fill-opacity:1;fill-rule:nonzero;stroke:none"
         id="path32" /><path
         d="m 528.605,270.559 h 52.508 v 114.8 h 88.508 v 41.262 h -88.508 v 64.488 h 93.02 v 41.25 H 528.605 Z m 181.52,0 h 50.262 v 70.91 c 0,27.742 0,78.769 40.867,78.769 9,0 18,-1.48 22.519,-4.129 v 50.629 c -5.257,1.504 -10.5,1.504 -15.39,1.504 -29.996,0 -50.629,-30.402 -52.879,-48.363 h -0.75 v 43.851 h -44.629 z m 151.148,139.914 c 16.872,12.769 38.243,21.004 59.629,21.004 29.61,0 43.5,-10.497 43.5,-41.637 h -27.746 c -21.004,0 -45.761,-1.84 -64.89,-11.238 -19.133,-9.391 -32.985,-26.262 -32.985,-55.164 0,-36.727 33.364,-57.379 67.492,-57.379 22.883,0 48.012,12 59.622,33.382 h 0.769 c 0.391,-5.98 0.391,-18.699 2.242,-28.882 h 44.244 c -1.13,15.039 -1.86,28.543 -2.26,43.152 -0.37,14.258 -0.73,28.891 -0.73,48.398 v 24.75 c 0,57.02 -24.375,81.383 -83.258,81.383 -21.39,0 -47.629,-5.64 -67.136,-14.64 z m 25.481,-84.024 c 0,29.653 33.379,33.403 55.891,33.403 h 21.757 c 0,-15.024 -2.246,-28.872 -10.519,-39.782 -7.867,-10.461 -19.852,-17.257 -35.227,-17.257 -18,0 -31.902,7.156 -31.902,23.636 z M 1229.59,463.73 h -50.3 v -94.519 c 0,-24.731 -7.87,-64.133 -44.25,-64.133 -32.25,0 -32.63,31.902 -32.63,55.531 V 463.73 h -50.25 V 341.828 c 0,-43.508 19.88,-75.769 65.64,-75.769 26.24,0 48,12 63.38,30.769 h 0.77 v -26.269 h 47.64 z m 51.77,-193.171 h 50.23 v 94.55 c 0,24.731 7.89,64.141 44.27,64.141 32.21,0 32.6,-31.902 32.6,-55.52 V 270.559 h 50.31 V 392.48 c 0,43.5 -19.91,75.762 -65.66,75.762 -26.27,0 -47.65,-8.64 -63.38,-30.762 h -0.8 v 26.25 h -47.57 z m 229.12,0 h 50.25 v 94.55 c 0,24.731 7.9,64.141 44.28,64.141 32.24,0 32.62,-31.902 32.62,-55.52 V 270.559 h 50.21 V 392.48 c 0,43.5 -19.86,75.762 -65.59,75.762 -26.25,0 -48.02,-12.012 -60.72,-30.762 h -0.8 v 114.379 h -50.25 z m 209.25,95.273 c 0,-55.473 37.18,-99.773 100.92,-99.773 64.12,0 101.25,44.3 101.25,99.773 0,63.777 -43.85,102.41 -101.25,102.41 -57.01,0 -100.92,-38.633 -100.92,-102.41 z m 52.52,6.027 c 0,28.879 15.75,57.391 48.4,57.391 33.01,0 48.75,-27.77 48.75,-57.391 0,-32.269 -10.1,-66.781 -48.75,-66.781 -38.29,0 -48.4,34.902 -48.4,66.781 z m 199.91,-101.3 h 50.23 v 156.429 h 43.9 v 36.742 h -43.9 v 24.012 c 0,14.988 5.27,29.637 22.2,29.637 10.84,0 17.21,-4.137 21.7,-6.781 l 4.14,41.64 c -9.75,2.254 -24,4.141 -36.75,4.141 -39.79,0 -61.52,-27.008 -61.52,-65.641 V 463.73 h -37.11 v -36.742 h 37.11 z m 160.5,115.539 c 2.29,25.882 16.52,45.379 44.63,45.379 28.17,0 39.42,-21.004 40.88,-45.379 z m 119.29,-63.778 c -18.78,-10.488 -39.75,-19.507 -64.16,-19.507 -31.08,0 -52.84,17.617 -55.13,48.796 h 133.5 c 0,67.512 -20.23,116.633 -91.87,116.633 -59.99,0 -89.61,-46.125 -89.61,-102.012 0,-63.417 37.11,-100.171 100.89,-100.171 27.02,0 47.98,5.25 66.38,15.39 z m 50.26,-51.761 h 50.24 v 70.91 c 0,27.742 0,78.769 40.86,78.769 9.03,0 18.03,-1.48 22.55,-4.129 v 50.629 c -5.32,1.504 -10.54,1.504 -15.42,1.504 -29.98,0 -50.61,-30.402 -52.85,-48.363 h -0.79 v 43.851 h -44.59 V 270.559"
         style="fill:#231f20;fill-opacity:1;fill-rule:nonzero;stroke:none"
         id="path34" /><path
         d="m 2222.4,137.195 h 25.37 V 6.21484 H 2222.4 V 137.195"
         style="fill:#231f20;fill-opacity:1;fill-rule:nonzero;stroke:none"
         id="path36" /><path
         d="m 2281.87,137.195 h 25.37 V 6.21484 h -25.37 V 137.195"
         style="fill:#231f20;fill-opacity:1;fill-rule:nonzero;stroke:none"
         id="path38" /><path
         d="m 2380.35,118.793 c -2.19,0 -4.36,-0.25 -6.52,-0.75 -2.31,-0.5 -4.5,-1.441 -6.55,-2.801 -1.93,-1.269 -3.55,-3.129 -4.88,-5.64 -1.33,-2.372 -1.99,-5.379 -1.99,-9 0,-2.7582 0.84,-5.059 2.52,-6.9497 1.7,-1.8789 3.83,-3.5703 6.35,-5.0585 2.79,-1.5118 5.82,-2.879 9.06,-4.1407 3.16,-1.3593 6.48,-2.8086 9.98,-4.3086 3.51,-1.3711 6.89,-3.0117 10.15,-4.8828 3.38,-2 6.35,-4.4375 8.89,-7.3086 2.54,-2.75 4.65,-6.0703 6.35,-9.9492 1.35,-3.7617 2.09,-8.2344 2.18,-13.4101 v -1.4375 c -0.34,-13.9415 -4.99,-23.9297 -13.98,-30.004 -9.06,-6.13277 -20.23,-9.19136 -33.53,-9.19136 h -0.31 c -6.4,0.01562 -11.79,0.50781 -16.2,1.5 -4.59,0.87109 -9.9,2.0625 -15.95,3.55078 l 2.36,23.66018 c 8.94,-5.2578 18.5,-7.9492 28.65,-8.0781 5.2,0 10.22,1.3906 15.06,4.1367 4.82,2.7422 7.3,7.0039 7.42,12.7617 0,3.1211 -0.72,5.8203 -2.17,8.0586 -1.7,2.2617 -3.82,4.1328 -6.34,5.6328 -5.57,3 -11.92,5.8789 -19.05,8.6289 -3.51,1.5078 -6.83,3.25 -9.98,5.2578 -3.26,1.8828 -6.29,4.125 -9.06,6.7539 -2.54,2.75 -4.65,6.0703 -6.35,9.9375 -1.7,3.8828 -2.54,8.461 -2.54,13.6992 0.26,14.5121 4.91,24.9101 13.97,31.1641 8.71,5.879 18.79,8.816 30.27,8.816 10.9,0 20.98,-1.578 30.29,-4.699 l -2.36,-21.57 c -8.1,3.629 -16.68,5.492 -25.74,5.621"
         style="fill:#231f20;fill-opacity:1;fill-rule:nonzero;stroke:none"
         id="path40" /></g></g></svg>
