<?xml version="1.0" encoding="UTF-8" standalone="no"?>
<!DOCTYPE svg PUBLIC "-//W3C//DTD SVG 1.1//EN" "http://www.w3.org/Graphics/SVG/1.1/DTD/svg11.dtd">
<svg width="100%" height="100%" viewBox="0 0 319 77" version="1.1" xmlns="http://www.w3.org/2000/svg" xmlns:xlink="http://www.w3.org/1999/xlink" xml:space="preserve" xmlns:serif="http://www.serif.com/" style="fill-rule:evenodd;clip-rule:evenodd;stroke-linejoin:round;stroke-miterlimit:2;">
    <path d="M26.439,25.449L52.878,25.449L79.312,0L0,0L0,76.343L26.439,50.9L26.439,25.449Z" style="fill:rgb(136,136,136);fill-rule:nonzero;"/>
    <path d="M52.878,25.449L52.878,50.9L26.439,50.9L0,76.343L79.312,76.343L79.312,0L52.878,25.449Z" style="fill:rgb(51,51,51);fill-rule:nonzero;"/>
    <path d="M101.397,54.026L96.787,54.026L96.787,66.666L94.87,66.666L94.87,54.026L90.241,54.026L90.241,52.2L101.397,52.2L101.397,54.026ZM119.493,64.867L119.493,66.667L109.907,66.667L109.907,52.223L119.388,52.223L119.388,54.049L111.852,54.049L111.852,58.527L118.699,58.527L118.699,60.327L111.852,60.327L111.852,64.892L119.493,64.867ZM127.53,59.444C127.529,59.404 127.529,59.363 127.529,59.323C127.529,55.289 130.849,51.969 134.883,51.969C134.95,51.969 135.018,51.97 135.085,51.972C137.593,51.934 139.96,53.154 141.385,55.218L139.733,56.245C138.683,54.72 136.946,53.807 135.094,53.807C132.004,53.807 129.461,56.35 129.461,59.441C129.461,62.531 132.004,65.073 135.094,65.073C136.946,65.073 138.683,64.161 139.733,62.636L141.385,63.663C139.96,65.726 137.592,66.944 135.085,66.904C135.016,66.906 134.947,66.907 134.878,66.907C130.847,66.907 127.529,63.589 127.529,59.558C127.529,59.52 127.529,59.483 127.53,59.445L127.53,59.444ZM161.824,52.223L161.824,66.666L159.898,66.666L159.898,60.303L151.882,60.303L151.882,66.666L149.956,66.666L149.956,52.223L151.882,52.223L151.882,58.504L159.92,58.504L159.92,52.223L161.824,52.223ZM183.373,52.223L183.373,66.666L181.406,66.666L173.244,55.428L173.244,66.666L171.318,66.666L171.318,52.223L173.308,52.223L181.47,63.507L181.47,52.223L183.373,52.223ZM192.093,59.445C192.093,59.417 192.093,59.39 192.093,59.362C192.093,55.217 195.503,51.807 199.648,51.807C203.792,51.807 207.203,55.217 207.203,59.362C207.203,63.507 203.792,66.917 199.648,66.917C199.64,66.917 199.633,66.917 199.625,66.917C199.567,66.918 199.508,66.919 199.45,66.919C195.414,66.919 192.092,63.598 192.092,59.561C192.092,59.522 192.092,59.484 192.093,59.445ZM205.235,59.445C205.21,56.398 202.696,53.904 199.648,53.904C196.583,53.904 194.061,56.426 194.061,59.491C194.061,62.556 196.583,65.078 199.648,65.078C199.677,65.078 199.707,65.079 199.736,65.079C202.741,65.079 205.214,62.606 205.214,59.601C205.214,59.549 205.213,59.497 205.212,59.445L205.235,59.445ZM224.91,64.867L224.91,66.667L215.97,66.667L215.97,52.223L217.896,52.223L217.896,64.867L224.91,64.867ZM231.409,59.445C231.409,59.416 231.408,59.387 231.408,59.358C231.408,55.211 234.821,51.799 238.967,51.799C243.114,51.799 246.526,55.211 246.526,59.358C246.526,63.505 243.115,66.917 238.968,66.917C238.901,66.919 238.833,66.92 238.766,66.92C234.73,66.92 231.408,63.598 231.408,59.562C231.408,59.523 231.408,59.484 231.409,59.445ZM244.555,59.445C244.533,56.393 242.015,53.894 238.963,53.894C235.895,53.894 233.371,56.418 233.371,59.486C233.371,62.554 235.895,65.078 238.963,65.078C238.965,65.078 238.966,65.078 238.968,65.078C239.005,65.079 239.042,65.079 239.079,65.079C242.084,65.079 244.557,62.606 244.557,59.601C244.557,59.549 244.556,59.497 244.555,59.445ZM267.228,58.984L267.228,59.611C267.23,59.681 267.231,59.75 267.231,59.82C267.231,63.712 264.029,66.914 260.137,66.914C260.067,66.914 259.998,66.913 259.928,66.911C255.892,66.822 252.62,63.478 252.62,59.441C252.62,55.342 255.993,51.969 260.092,51.969C262.443,51.969 264.662,53.079 266.072,54.961L264.63,56.093C263.563,54.614 261.847,53.735 260.023,53.735C256.908,53.735 254.344,56.299 254.344,59.414C254.344,62.514 256.883,65.071 259.983,65.093C262.605,65.22 264.91,63.283 265.237,60.679L260.467,60.679L260.467,58.979L267.228,58.984ZM276.709,52.223L278.635,52.223L278.635,66.666L276.709,66.666L276.709,52.223ZM298.565,64.867L298.565,66.667L288.979,66.667L288.979,52.223L298.479,52.223L298.479,54.049L290.947,54.049L290.947,58.527L297.789,58.527L297.789,60.327L290.942,60.327L290.942,64.892L298.565,64.867ZM307.278,64.639L308.3,63.192C309.52,64.452 311.193,65.175 312.947,65.2C314.847,65.2 316.361,64.237 316.361,62.835C316.361,61.055 313.992,60.553 312.613,60.242C310.185,59.717 307.733,58.542 307.733,55.992C307.733,53.586 309.869,51.971 312.882,51.971C314.649,51.902 316.368,52.563 317.634,53.797L316.721,55.221C315.691,54.221 314.304,53.67 312.868,53.692C311.042,53.692 309.705,54.605 309.705,55.933C309.705,57.526 311.718,58.133 313.161,58.425C314.604,58.717 318.333,59.639 318.333,62.757C318.333,65.227 315.987,66.92 312.951,66.92C310.834,66.936 308.794,66.115 307.277,64.638L307.278,64.639ZM125.124,26.639L125.124,27.339C125.124,37.13 117.766,44.439 107.874,44.439C107.739,44.442 107.605,44.444 107.47,44.444C97.925,44.444 90.07,36.589 90.07,27.044C90.07,26.926 90.072,26.809 90.074,26.691C90.172,16.924 98.235,8.942 108.002,8.942C113.788,8.942 119.23,11.743 122.593,16.452L121,17.694C118.037,13.419 113.125,10.897 107.924,10.982C107.824,10.98 107.723,10.979 107.623,10.979C99.197,10.979 92.263,17.913 92.263,26.339C92.263,26.456 92.264,26.572 92.267,26.689C92.264,26.806 92.263,26.923 92.263,27.04C92.263,35.466 99.197,42.4 107.623,42.4C107.723,42.4 107.824,42.399 107.924,42.397C116.177,42.397 122.641,36.582 122.988,28.529L109.616,28.529L109.616,26.639L125.124,26.639ZM162.352,33.751L143.612,33.751L139.289,43.821L136.952,43.821L151.714,9.54L154.298,9.54L169.065,43.821L166.678,43.821L162.352,33.751ZM161.508,31.811L153.008,11.868L144.452,31.811L161.508,31.811ZM218.152,9.54L218.152,43.821L216.016,43.821L216.016,12.521L202.148,35.54L200.948,35.54L187.088,12.521L187.088,43.821L184.948,43.821L184.948,9.54L187.796,9.54L201.596,32.409L215.418,9.54L218.152,9.54ZM270.168,9.54L270.168,43.821L268.032,43.821L268.032,12.521L254.164,35.54L252.964,35.54L239.104,12.521L239.104,43.821L236.964,43.821L236.964,9.54L239.794,9.54L253.616,32.409L267.434,9.54L270.168,9.54ZM311.469,33.751L292.726,33.751L288.399,43.821L286.066,43.821L300.828,9.54L303.412,9.54L318.179,43.821L315.792,43.821L311.469,33.751ZM310.62,31.811L302.13,11.868L293.571,31.811L310.62,31.811Z" style="fill:rgb(136,136,136);fill-rule:nonzero;"/>
    <rect x="25.156" y="23.672" width="29.004" height="29.004" style="fill:white;fill-rule:nonzero;"/>
    <rect x="27.909" y="26.424" width="23.499" height="23.499" style="fill:rgb(194,34,41);fill-rule:nonzero;"/>
</svg>
