<?xml version="1.0" encoding="UTF-8" standalone="no"?>
<!-- Created with Inkscape (http://www.inkscape.org/) -->

<svg
   xmlns:dc="http://purl.org/dc/elements/1.1/"
   xmlns:cc="http://creativecommons.org/ns#"
   xmlns:rdf="http://www.w3.org/1999/02/22-rdf-syntax-ns#"
   xmlns:svg="http://www.w3.org/2000/svg"
   xmlns="http://www.w3.org/2000/svg"
   version="1.1"
   width="1024"
   height="318"
   id="svg6065">
  <defs
     id="defs6067">
    <clipPath
       id="clipPath5708">
      <path
         d="M 0,0 612,0 612,792 0,792 0,0 z"
         id="path5710" />
    </clipPath>
  </defs>
  <metadata
     id="metadata6070">
    <rdf:RDF>
      <cc:Work
         rdf:about="">
        <dc:format>image/svg+xml</dc:format>
        <dc:type
           rdf:resource="http://purl.org/dc/dcmitype/StillImage" />
        <dc:title></dc:title>
      </cc:Work>
    </rdf:RDF>
  </metadata>
  <g
     transform="translate(0,-450)"
     id="layer1">
    <g
       transform="matrix(6.3542467,0,0,-6.3542467,-223.05481,1697.121)"
       id="g5954">
      <g
         transform="translate(100.5581,162.5717)"
         id="g5672">
        <path
           d="m 0,0 0,7.274 -6.849,0 0,-7.274 -3.037,0 0,16.692 3.037,0 0,-6.523 6.849,0 0,6.523 3.038,0 L 3.038,0 0,0 z"
           id="path5674"
           style="fill:#231f20;fill-opacity:1;fill-rule:nonzero;stroke:none" />
      </g>
      <g
         transform="translate(103.5957,179.264)"
         id="g5676">
        <path
           d="m 0,0 -3.038,0 0,-6.523 -6.849,0 0,6.523 -3.037,0 0,-16.692 3.037,0 0,7.273 6.849,0 0,-7.273 3.038,0 L 0,0 z"
           id="path5678"
           style="fill:#201e20;fill-opacity:1;fill-rule:nonzero;stroke:none" />
      </g>
      <g
         transform="translate(106.7653,162.5717)"
         id="g5680">
        <path
           d="m 0,0 0,16.692 11.393,0 0,-2.755 -8.36,0 0,-3.886 7.299,0 0,-2.73 -7.299,0 0,-4.566 8.358,0 L 11.391,0 0,0 z"
           id="path5682"
           style="fill:#231f20;fill-opacity:1;fill-rule:nonzero;stroke:none" />
      </g>
      <g
         transform="translate(118.1578,179.264)"
         id="g5684">
        <path
           d="m 0,0 -11.393,0 0,-16.692 11.392,0 0,2.755 -8.359,0 0,4.566 7.3,0 0,2.73 -7.3,0 0,3.886 8.36,0 L 0,0 z"
           id="path5686"
           style="fill:#201e20;fill-opacity:1;fill-rule:nonzero;stroke:none" />
      </g>
      <g
         transform="translate(130.4263,162.5717)"
         id="g5688">
        <path
           d="M 0,0 -3.738,6.072 -7.484,0 l -3.27,0 5.248,8.499 -5.202,8.193 3.317,0 3.744,-5.843 3.628,5.843 3.296,0 L -1.856,8.473 3.343,0 0,0 z"
           id="path5690"
           style="fill:#231f20;fill-opacity:1;fill-rule:nonzero;stroke:none" />
      </g>
      <g
         transform="translate(133.703,179.264)"
         id="g5692">
        <path
           d="M 0,0 -3.296,0 -6.924,-5.843 -10.667,0 l -3.317,0 5.201,-8.193 -5.247,-8.499 3.269,0 3.746,6.072 3.738,-6.072 3.344,0 -5.2,8.473 L 0,0 z"
           id="path5694"
           style="fill:#201e20;fill-opacity:1;fill-rule:nonzero;stroke:none" />
      </g>
      <g
         transform="translate(145.8174,162.5717)"
         id="g5696">
        <path
           d="m 0,0 -1.085,3.201 -6.637,0 L -8.804,0 l -3.06,0 5.86,16.692 3.319,0 L 3.175,0 0,0 z m -4.404,12.971 -2.377,-7.042 4.755,0 -2.378,7.042 z"
           id="path5698"
           style="fill:#231f20;fill-opacity:1;fill-rule:nonzero;stroke:none" />
      </g>
      <g
         transform="translate(139.0367,168.5011)"
         id="g5700">
        <path
           d="M 0,0 2.377,7.041 4.754,0 0,0 z m 4.095,10.763 -3.318,0 -5.86,-16.692 3.06,0 1.082,3.2 6.636,0 1.086,-3.2 3.175,0 -5.861,16.692 z"
           id="path5702"
           style="fill:#201e20;fill-opacity:1;fill-rule:nonzero;stroke:none" />
      </g>
      <g
         id="g5704">
        <g
           clip-path="url(#clipPath5708)"
           id="g5706">
          <g
             transform="translate(162.6742,162.5717)"
             id="g5712">
            <path
               d="m 0,0 -1.76,1.837 c -0.496,-0.968 -2.095,-2.12 -4.192,-2.144 -1.927,-0.023 -3.648,0.47 -4.968,1.862 -1.738,1.811 -2.164,4.049 -2.164,6.779 0,2.731 0.354,4.895 2.165,6.707 1.273,1.271 3.178,1.957 4.967,1.957 2.05,0 3.814,-0.756 4.944,-1.91 0.825,-0.845 1.435,-1.908 1.53,-3.367 l -3.109,0 c -0.047,0.661 -0.373,1.104 -0.727,1.533 -0.588,0.683 -1.506,1.012 -2.659,1.012 -0.967,0 -2.078,-0.425 -2.735,-1.129 -1.15,-1.201 -1.291,-3.275 -1.291,-4.803 0,-1.531 0.163,-3.674 1.315,-4.875 C -8.021,2.755 -6.94,2.4 -5.973,2.4 c 1.08,0 1.928,0.377 2.496,0.966 0.89,0.941 1.081,1.976 1.081,3.25 l -3.979,0 0,2.52 6.922,0 L 0.547,0 0,0 z"
               id="path5714"
               style="fill:#231f20;fill-opacity:1;fill-rule:nonzero;stroke:none" />
          </g>
          <g
             transform="translate(156.7225,179.5701)"
             id="g5716">
            <path
               d="m 0,0 c -1.79,0 -3.695,-0.687 -4.967,-1.958 -1.811,-1.811 -2.166,-3.976 -2.166,-6.706 0,-2.731 0.427,-4.968 2.165,-6.78 1.29,-1.36 2.963,-1.861 4.838,-1.861 0.043,0 0.087,0 0.13,0 2.097,0.024 3.695,1.176 4.191,2.144 l 1.761,-1.837 0.546,0 0,9.135 -6.922,0 0,-2.52 3.979,0 c 0,-1.273 -0.19,-2.308 -1.081,-3.249 -0.567,-0.589 -1.415,-0.967 -2.495,-0.967 -0.968,0 -2.049,0.356 -2.711,1.06 -1.152,1.201 -1.316,3.343 -1.316,4.875 0,1.528 0.142,3.601 1.292,4.803 0.657,0.703 1.767,1.129 2.735,1.129 1.153,0 2.071,-0.329 2.658,-1.013 0.355,-0.428 0.681,-0.871 0.728,-1.532 l 3.109,0 C 6.379,-3.818 5.769,-2.755 4.944,-1.91 3.813,-0.757 2.05,0 0,0"
               id="path5718"
               style="fill:#201e20;fill-opacity:1;fill-rule:nonzero;stroke:none" />
          </g>
          <g
             transform="translate(177.3893,164.1484)"
             id="g5720">
            <path
               d="m 0,0 c -1.272,-1.272 -3.013,-1.883 -4.802,-1.883 -1.785,0 -3.529,0.611 -4.802,1.883 -1.814,1.814 -2.12,4.027 -2.12,6.757 0,2.731 0.306,4.969 2.12,6.779 1.273,1.272 3.017,1.886 4.802,1.886 1.789,0 3.53,-0.614 4.802,-1.886 C 1.813,11.726 2.121,9.488 2.121,6.757 2.121,4.027 1.813,1.814 0,0 m -2.161,11.56 c -0.662,0.704 -1.677,1.107 -2.641,1.107 -0.961,0 -1.98,-0.403 -2.636,-1.107 -1.15,-1.201 -1.201,-3.274 -1.201,-4.803 0,-1.531 0.051,-3.579 1.201,-4.779 0.656,-0.709 1.675,-1.107 2.636,-1.107 0.964,0 1.979,0.398 2.641,1.107 1.151,1.2 1.2,3.248 1.2,4.779 0,1.529 -0.049,3.602 -1.2,4.803"
               id="path5722"
               style="fill:#231f20;fill-opacity:1;fill-rule:nonzero;stroke:none" />
          </g>
          <g
             transform="translate(168.75,170.9056)"
             id="g5724">
            <path
               d="m 0,0 0,0 c 0,1.528 0.051,3.602 1.201,4.803 0.656,0.704 1.675,1.106 2.636,1.106 0.964,0 1.98,-0.402 2.641,-1.106 1.151,-1.201 1.2,-3.275 1.2,-4.803 0,-1.531 -0.049,-3.579 -1.2,-4.78 -0.661,-0.708 -1.677,-1.106 -2.641,-1.106 -0.961,0 -1.98,0.398 -2.636,1.106 C 0.051,-3.579 0,-1.531 0,0 M 3.837,8.664 C 2.053,8.664 0.308,8.05 -0.965,6.779 -2.778,4.968 -3.084,2.731 -3.084,0 c 0,-2.73 0.306,-4.943 2.119,-6.757 1.273,-1.272 3.018,-1.883 4.802,-1.883 1.79,0 3.531,0.611 4.802,1.883 1.813,1.814 2.121,4.027 2.121,6.757 0,2.731 -0.308,4.968 -2.121,6.779 C 7.368,8.05 5.627,8.664 3.837,8.664"
               id="path5726"
               style="fill:#201e20;fill-opacity:1;fill-rule:nonzero;stroke:none" />
          </g>
        </g>
      </g>
      <g
         transform="translate(192.047,162.5717)"
         id="g5728">
        <path
           d="m 0,0 -7.227,11.464 0,-11.464 -2.991,0 0,16.692 3.224,0 7.133,-11.3 0,11.3 2.99,0 L 3.129,0 0,0 z"
           id="path5730"
           style="fill:#231f20;fill-opacity:1;fill-rule:nonzero;stroke:none" />
      </g>
      <g
         transform="translate(195.1756,179.264)"
         id="g5732">
        <path
           d="m 0,0 -2.989,0 0,-11.3 -7.133,11.3 -3.224,0 0,-16.692 2.99,0 0,11.464 7.227,-11.464 3.129,0 L 0,0 z"
           id="path5734"
           style="fill:#201e20;fill-opacity:1;fill-rule:nonzero;stroke:none" />
      </g>
      <g
         transform="translate(36.1828,158.8305)"
         id="g5736">
        <path
           d="M 0,0 14.151,0 10.613,6.127 0,0 z"
           id="path5738"
           style="fill:#7ec9d5;fill-opacity:1;fill-rule:nonzero;stroke:none" />
      </g>
      <g
         transform="translate(64.4875,158.8305)"
         id="g5740">
        <path
           d="M 0,0 14.151,24.512 -7.077,12.256 -7.077,0 0,0 z"
           id="path5742"
           style="fill:#7ec9d5;fill-opacity:1;fill-rule:nonzero;stroke:none" />
      </g>
      <g
         transform="translate(57.4106,146.5719)"
         id="g5744">
        <path
           d="m 0,0 21.229,12.259 -14.152,0 L 0,0 z"
           id="path5746"
           style="fill:#b3df60;fill-opacity:1;fill-rule:nonzero;stroke:none" />
      </g>
      <g
         transform="translate(46.7961,164.9577)"
         id="g5748">
        <path
           d="m 0,0 10.615,6.128 0,24.514 L -3.538,6.128 0,0 z"
           id="path5750"
           style="fill:#b3df60;fill-opacity:1;fill-rule:nonzero;stroke:none" />
      </g>
      <g
         transform="translate(50.3342,158.8305)"
         id="g5752">
        <path
           d="M 0,0 7.076,-12.259 7.076,0 0,0 z"
           id="path5754"
           style="fill:#b3df60;fill-opacity:1;fill-rule:nonzero;stroke:none" />
      </g>
      <g
         transform="translate(36.1828,183.3435)"
         id="g5756">
        <path
           d="M 0,0 0,-24.513 7.075,-12.257 0,0 z"
           id="path5758"
           style="fill:#7ec9d5;fill-opacity:1;fill-rule:nonzero;stroke:none" />
      </g>
      <g
         transform="translate(78.6384,183.3424)"
         id="g5760">
        <path
           d="m 0,0 -14.151,-24.512 14.152,0 L 0.001,0 0,0 z"
           id="path5762"
           style="fill:#3499be;fill-opacity:1;fill-rule:nonzero;stroke:none" />
      </g>
      <g
         transform="translate(57.4106,171.0862)"
         id="g5764">
        <path
           d="m 0,0 -10.615,-6.128 3.539,-6.128 7.076,0 L 0,0 z"
           id="path5766"
           style="fill:#3499be;fill-opacity:1;fill-rule:nonzero;stroke:none" />
      </g>
      <g
         transform="translate(57.4106,195.6)"
         id="g5768">
        <path
           d="M 0,0 -21.228,-12.257 -14.153,-24.514 0,0 z"
           id="path5770"
           style="fill:#3499be;fill-opacity:1;fill-rule:nonzero;stroke:none" />
      </g>
    </g>
  </g>
</svg>
