<?xml version="1.0" encoding="UTF-8" standalone="no"?>
<!DOCTYPE svg PUBLIC "-//W3C//DTD SVG 1.1//EN" "http://www.w3.org/Graphics/SVG/1.1/DTD/svg11.dtd">
<svg width="100%" height="100%" viewBox="0 0 536 205" version="1.1" xmlns="http://www.w3.org/2000/svg" xmlns:xlink="http://www.w3.org/1999/xlink" xml:space="preserve" xmlns:serif="http://www.serif.com/" style="fill-rule:evenodd;clip-rule:evenodd;stroke-linejoin:round;stroke-miterlimit:2;">
    <g id="Ebene-1" serif:id="Ebene 1">
        <g transform="matrix(1,0,0,1,0,-0.214)">
            <rect x="219.789" y="31.349" width="31.135" height="142.274" style="fill:rgb(94,138,180);"/>
        </g>
        <g transform="matrix(1,0,0,1,358.612,106.903)">
            <path d="M0,-9.262C4.661,-13.267 6.996,-19.146 6.996,-26.899C6.996,-34.515 4.661,-40.265 0,-44.141C-4.665,-48.014 -11.398,-49.954 -20.198,-49.954L-46.013,-49.954L-46.013,-3.252L-20.198,-3.252C-11.398,-3.252 -4.665,-5.253 0,-9.262M22.169,-63.256C31.756,-54.912 36.554,-43.122 36.554,-27.884C36.554,-11.855 31.726,0.59 22.07,9.459C12.415,18.326 -1.151,22.76 -18.622,22.76L-46.013,22.76L-46.013,66.506L-77.147,66.506L-77.147,-75.768L-18.622,-75.768C-1.019,-75.768 12.577,-71.596 22.169,-63.256" style="fill:rgb(94,138,180);fill-rule:nonzero;"/>
        </g>
        <g transform="matrix(1,0,0,1,480.49,112.519)">
            <path d="M0,-20.494L55.372,-20.494L55.372,42.761C48.014,48.15 39.017,52.515 28.376,55.865C17.735,59.215 7.685,60.89 -1.773,60.89C-15.567,60.89 -28.049,57.771 -39.214,51.53C-50.382,45.292 -59.184,36.751 -65.619,25.913C-72.057,15.074 -75.275,2.956 -75.275,-10.444C-75.275,-23.712 -71.993,-35.766 -65.422,-46.604C-58.855,-57.441 -49.824,-65.946 -38.327,-72.122C-26.833,-78.296 -14.059,-81.384 0,-81.384C10.247,-81.384 20.066,-79.542 29.46,-75.866C38.851,-72.187 47.096,-67.196 54.19,-60.89L36.652,-38.623C31.529,-43.482 25.815,-47.293 19.508,-50.052C13.203,-52.811 6.7,-54.19 0,-54.19C-8.015,-54.19 -15.339,-52.25 -21.971,-48.377C-28.607,-44.501 -33.829,-39.245 -37.638,-32.612C-41.449,-25.977 -43.352,-18.587 -43.352,-10.444C-43.352,-2.296 -41.415,5.158 -37.539,11.922C-33.665,18.689 -28.41,24.01 -21.774,27.884C-15.142,31.76 -7.817,33.696 0.197,33.696C4.268,33.696 8.671,33.007 13.4,31.628C18.129,30.248 22.726,28.376 27.194,26.012L27.194,7.883L0,7.883L0,-20.494Z" style="fill:rgb(94,138,180);fill-rule:nonzero;"/>
        </g>
        <g transform="matrix(1,0,0,1,14.1429,27.6933)">
            <path d="M0,71.907L32.039,99.6L59.279,78.14C68.819,69.716 59.856,63.116 59.856,63.116L38.507,47.394C28.667,40.148 30.251,28.581 41.202,21.574L92.232,-14.271L68.123,-27.693L13.754,4.814C13.754,4.814 -38.479,33.997 0,71.907" style="fill:rgb(255,175,44);fill-rule:nonzero;"/>
        </g>
        <g transform="matrix(1,0,0,1,156.023,102.426)">
            <path d="M0,42.482L-57.39,102.332L-98.062,67.536L-38.319,14.183C-27.027,4.285 -28.306,-10.118 -40.135,-18.108L-58.009,-31.449C-63.397,-35.47 -63.408,-43.541 -58.032,-47.578L-41.688,-59.85L-9.289,-40.584C-9.289,-40.584 43.218,-8.489 0,42.482" style="fill:rgb(94,138,180);fill-rule:nonzero;"/>
        </g>
    </g>
</svg>
