<?xml version="1.0" encoding="utf-8"?>
<!-- Generator: Adobe Illustrator 27.0.0, SVG Export Plug-In . SVG Version: 6.00 Build 0)  -->
<svg version="1.1" id="Logo" xmlns="http://www.w3.org/2000/svg" xmlns:xlink="http://www.w3.org/1999/xlink" x="0px" y="0px"
	 viewBox="0 0 300 82" style="enable-background:new 0 0 300 82;" xml:space="preserve">
<style type="text/css">
	.st0{fill:#1D1D1B;}
	.st1{fill:#0060A8;}
	.st2{fill-rule:evenodd;clip-rule:evenodd;fill:url(#Blue_Back_00000153700602700161182890000011768110421049201589_);}
	.st3{fill-rule:evenodd;clip-rule:evenodd;fill:url(#Blue_Front_00000128464055219366244380000005698251276766002089_);}
	.st4{fill-rule:evenodd;clip-rule:evenodd;fill:url(#Yellow_Back_00000137836125921379841200000008985175759882212481_);}
	.st5{fill-rule:evenodd;clip-rule:evenodd;fill:url(#Yellow_Front_00000102529647654926230130000008704888334588485000_);}
</style>
<g id="Logo_00000155126929984897061950000016796664553097547939_">
	<g id="Text_00000058562254136568451950000016285401674579905672_">
		<g id="IPG_00000083085239311458599770000011710538590262755258_">
			
				<rect id="I_00000162319099730267009130000011600497863396963233_" x="132.575" y="16.865" class="st0" width="6.389" height="42.27"/>
			<path id="P_00000047046538209047432200000016686807105059665299_" class="st0" d="M217.351,19.454
				c-1.883-1.717-4.759-2.588-8.549-2.588h-46.832v42.27h6.386V42.812l38.496-0.003c5,0,8.379-0.864,10.331-2.643
				c1.937-1.776,2.918-5.128,2.918-9.962v-1.704C220.101,24.173,219.176,21.13,217.351,19.454z M168.355,22.222h38.188
				c2.613,0,4.564,0.437,5.648,1.267c1.007,0.75,1.517,2.267,1.517,4.508v3.935c0,3.718-2.252,5.526-6.881,5.526h-38.471V22.222z"/>
			<path id="G_00000163774774248837193180000001407606355224049552_" class="st0" d="M272.459,37.824v5.35h21.153v3.549
				c0,2.727-0.719,4.682-2.134,5.809c-1.449,1.131-3.76,1.705-6.867,1.705h-30.321c-3.721,0-6.289-0.727-7.628-2.159
				c-1.341-1.464-2.021-3.844-2.021-7.076V30.471c0-3.053,0.727-5.285,2.162-6.634c1.457-1.375,3.966-2.072,7.453-2.072h25.386
				c6.05,0,9.929,0.479,11.532,1.424c1.552,0.905,2.339,3.109,2.339,6.554v0.389h6.038v-1.951c0-7.81-5.411-11.77-16.084-11.77
				H253.89c-5.493,0-9.495,1.173-11.897,3.485c-2.389,2.312-3.647,6.244-3.742,11.691v12.216c0,5.661,1.209,9.752,3.597,12.16
				c2.391,2.408,6.369,3.628,11.825,3.628h31.633c5.391,0,9.232-1.188,11.414-3.532c2.177-2.352,3.281-6.206,3.281-11.456v-6.78
				H272.459z"/>
		</g>
		<g id="Automotive_00000012434798595643100960000005589214241852528305_">
			<path id="A_00000170969463889051651140000003499012973296960901_" class="st1" d="M136.681,68.385h-1.366l-4.095,6.925h1.54
				l0.821-1.374h4.835l0.818,1.374h1.545L136.681,68.385z M135.997,69.807l1.723,2.931h-3.447L135.997,69.807z"/>
			<path id="U_00000067959282389438513020000003713254391503859855_" class="st1" d="M156.974,68.385v5.048
				c0,0.292-0.067,0.482-0.205,0.581c-0.087,0.064-0.321,0.171-0.932,0.171h-3.016c-0.594,0-0.847-0.097-0.949-0.174
				c-0.165-0.133-0.2-0.415-0.2-0.628v-4.998h-1.353v5.001c0,0.767,0.211,1.302,0.63,1.592c0.396,0.271,1,0.403,1.847,0.403h3.094
				c0.837,0,1.431-0.134,1.817-0.41c0.414-0.296,0.622-0.814,0.622-1.538v-5.048H156.974z"/>
			<polygon id="T_00000097466416815130426610000018092336603584101037_" class="st1" points="168.063,68.385 168.063,69.583 
				171.321,69.583 171.321,75.31 172.67,75.31 172.67,69.583 175.929,69.583 175.929,68.385 			"/>
			<path id="O_00000133509542919034451720000014002466481105952933_" class="st1" d="M193.67,68.97
				c-0.395-0.44-1.04-0.654-1.972-0.654h-3.645c-0.909,0-1.551,0.204-1.961,0.621c-0.408,0.41-0.614,1.069-0.614,1.959V72.8
				c0,0.889,0.206,1.55,0.614,1.966c0.407,0.409,1.067,0.615,1.961,0.615h3.645c0.902,0,1.56-0.211,1.954-0.625
				c0.397-0.413,0.597-1.076,0.597-1.97v-1.864C194.249,70.031,194.059,69.392,193.67,68.97z M192.894,70.671v2.366
				c0,0.397-0.093,0.693-0.273,0.874c-0.188,0.181-0.522,0.273-0.992,0.273h-3.503c-0.474,0-0.812-0.09-1.005-0.269
				c-0.19-0.171-0.287-0.469-0.287-0.887V70.66c0-0.401,0.087-0.687,0.265-0.872c0.175-0.181,0.531-0.277,1.028-0.277h3.503
				c0.457,0,0.789,0.088,0.982,0.261C192.798,69.943,192.894,70.246,192.894,70.671z"/>
			<polygon id="M_00000049938776486789761030000007746798146396783005_" class="st1" points="213.396,68.385 209.799,73.613 
				206.192,68.385 204.463,68.385 204.463,75.31 205.811,75.31 205.811,70.157 209.359,75.31 210.235,75.31 213.771,70.159 
				213.771,75.31 215.125,75.31 215.125,68.385 			"/>
			<path id="O_00000129178826201764930170000006442750809870774166_" class="st1" d="M233.559,68.97
				c-0.391-0.433-1.054-0.653-1.97-0.653h-3.647c-0.912,0-1.553,0.204-1.962,0.621c-0.406,0.409-0.611,1.067-0.611,1.959V72.8
				c0,0.891,0.206,1.552,0.611,1.966c0.406,0.409,1.066,0.615,1.962,0.615h3.647c0.904,0,1.561-0.211,1.949-0.624
				c0.402-0.41,0.596-1.055,0.596-1.972v-1.864C234.134,70.032,233.947,69.393,233.559,68.97z M232.782,70.671v2.366
				c0,0.398-0.094,0.693-0.278,0.876c-0.179,0.178-0.522,0.271-0.988,0.271h-3.503c-0.472,0-0.812-0.09-1.005-0.267
				c-0.188-0.175-0.285-0.474-0.285-0.889V70.66c0-0.392,0.091-0.686,0.273-0.875c0.169-0.179,0.52-0.274,1.017-0.274h3.503
				c0.462,0,0.793,0.088,0.984,0.262C232.687,69.941,232.782,70.244,232.782,70.671z"/>
			<polygon id="T_00000071543481036920350990000007518623519998447764_" class="st1" points="243.69,68.385 243.69,69.583 
				246.948,69.583 246.948,75.31 248.296,75.31 248.296,69.583 251.552,69.583 251.552,68.385 			"/>
			
				<rect id="I_00000165236770250678259620000018204802217562996662_" x="261.313" y="68.385" class="st1" width="1.353" height="6.925"/>
			<polygon id="V_00000087390284086175333040000008774690367708112015_" class="st1" points="279.722,68.385 276.78,73.779 
				273.84,68.385 272.316,68.385 276.111,75.31 277.456,75.31 281.253,68.385 			"/>
			<polygon id="E_00000057862833051693952620000007732466776973084049_" class="st1" points="292.245,74.115 292.245,72.358 
				297.431,72.358 297.431,71.161 292.245,71.161 292.245,69.583 297.647,69.583 297.647,68.385 290.895,68.385 290.895,75.31 
				297.688,75.31 297.688,74.115 			"/>
		</g>
	</g>
	<g id="Image_00000024003030968377169580000006874397693787625138_">
		
			<linearGradient id="Blue_Back_00000040570817144393961890000007244704860314816908_" gradientUnits="userSpaceOnUse" x1="30.534" y1="100.2196" x2="111.1872" y2="19.5664">
			<stop  offset="0" style="stop-color:#004174"/>
			<stop  offset="0.25" style="stop-color:#82B5E2"/>
			<stop  offset="0.44" style="stop-color:#00518E"/>
			<stop  offset="0.54" style="stop-color:#AFCDEC"/>
			<stop  offset="0.61" style="stop-color:#BCD4F0"/>
			<stop  offset="1" style="stop-color:#549AD4"/>
		</linearGradient>
		
			<path id="Blue_Back_00000083798627620152421800000003989994865516888980_" style="fill-rule:evenodd;clip-rule:evenodd;fill:url(#Blue_Back_00000040570817144393961890000007244704860314816908_);" d="
			M107.793,17.735c0.275,1.24-3.329,1.745-3.329,3.065v38.45c0,12.131-13.021,21.974-28.955,21.974H25.044
			c-5.381-0.163-7.395-1.08-12.611-3.241c24.342-4.264,40.979-5.863,46.448-13.968c4.303-8.06-7.248-17.363-0.694-25.5
			C66.981,27.545,92.836,20.68,107.793,17.735z"/>
		
			<linearGradient id="Blue_Front_00000054964214521342583230000010037909147095062718_" gradientUnits="userSpaceOnUse" x1="29.1238" y1="3.5398" x2="93.029" y2="94.8059">
			<stop  offset="0" style="stop-color:#2E91D0"/>
			<stop  offset="0.5" style="stop-color:#2580C3"/>
			<stop  offset="1" style="stop-color:#005495"/>
		</linearGradient>
		
			<path id="Blue_Front_00000081628073173472339760000010948259342988005301_" style="fill-rule:evenodd;clip-rule:evenodd;fill:url(#Blue_Front_00000054964214521342583230000010037909147095062718_);" d="
			M107.912,17.696c0.314,1.242,0.432,2.523,0.432,3.836v38.45C108.344,72.12,95.355,82,79.421,82H28.96
			c-6.166,0-11.9-1.512-16.595-4.03c25.271-1.861,45.198-4.729,50.666-12.793c4.303-8.097-6.943-18.564-0.581-25.307
			C72.487,29.284,99.658,20.989,107.912,17.696z"/>
		
			<linearGradient id="Yellow_Back_00000058568622650699114170000005125175897542681784_" gradientUnits="userSpaceOnUse" x1="-7.3906" y1="64.5213" x2="79.0665" y2="-8.0248">
			<stop  offset="0" style="stop-color:#A69700"/>
			<stop  offset="0.33" style="stop-color:#EFCF00"/>
			<stop  offset="0.4" style="stop-color:#DAC000"/>
			<stop  offset="0.49" style="stop-color:#BFAB00"/>
			<stop  offset="0.59" style="stop-color:#DBC100"/>
			<stop  offset="0.7" style="stop-color:#EFCF00"/>
			<stop  offset="0.88" style="stop-color:#ECD100"/>
			<stop  offset="1" style="stop-color:#C8B300"/>
		</linearGradient>
		
			<path id="Yellow_Back_00000150098161546163133030000007715372266782942646_" style="fill-rule:evenodd;clip-rule:evenodd;fill:url(#Yellow_Back_00000058568622650699114170000005125175897542681784_);" d="
			M32.641,2.985l50.579-2.713c1.552-0.077-0.696-0.036,0.777,0.153c-1.159,6.709-3.37,10.856-11.357,15.506
			c-11.316,7.168-16.279,9.769-28.88,18.026c-9.494,6.743,1.402,18.795-1.273,25.774c-2.718,7.21-22.794,13.953-35.781,14.845
			c-4.184-3.837-2.985-5.771-2.985-11.085V25C3.722,12.908,16.744,3.839,32.641,2.985z"/>
		
			<linearGradient id="Yellow_Front_00000061452697428838633180000016474144452699148474_" gradientUnits="userSpaceOnUse" x1="3.442" y1="-4.4502" x2="83.4853" y2="75.593">
			<stop  offset="0" style="stop-color:#FFF381"/>
			<stop  offset="1" style="stop-color:#FFE800"/>
		</linearGradient>
		
			<path id="Yellow_Front_00000088822473673351488440000001317144278326707871_" style="fill-rule:evenodd;clip-rule:evenodd;fill:url(#Yellow_Front_00000061452697428838633180000016474144452699148474_);" d="
			M28.96,0h50.461c1.552,0,3.104,0.117,4.577,0.312c-2.44,3.952-4.92,7.981-12.906,12.634c-20.774,11.63-24.498,12.56-31.126,17.252
			c-9.498,6.741,1.474,19.609-1.163,26.585c-2.751,7.211-19.805,14.77-32.095,17.792C2.523,70.738,0,65.857,0,60.503v-38.45
			C0,9.923,13.024,0,28.96,0z"/>
	</g>
</g>
</svg>
