<?xml version="1.0" encoding="utf-8"?>
<!-- Generator: Adobe Illustrator 27.8.0, SVG Export Plug-In . SVG Version: 6.00 Build 0)  -->
<svg version="1.1" id="Ebene_1" xmlns="http://www.w3.org/2000/svg" xmlns:xlink="http://www.w3.org/1999/xlink" x="0px" y="0px"
	 viewBox="0 0 347.1 309.3" style="enable-background:new 0 0 347.1 309.3;" xml:space="preserve">
<style type="text/css">
	.st0{fill:#00A1DE;}
	.st1{fill:#323232;}
	.st2{fill:#858583;}
	.st3{fill:#FFFFFF;}
</style>
<g>
	<g>
		<rect x="1" y="1" class="st3" width="345.1" height="307.3"/>
		<path class="st1" d="M345.1,2v305.3H2V2H345.1 M347.1,0h-2H2H0v2v305.3v2h2h343.1h2v-2V2V0L347.1,0z"/>
	</g>
	<g>
		<g>
			<rect x="40.6" y="40.4" class="st0" width="59.2" height="145.4"/>
		</g>
		<g>
			<polygon class="st0" points="161.4,80 155.9,89.6 194.6,112 194.6,185.8 110.9,185.8 110.9,126.8 144.1,146 149.6,136.5 
				110.9,114.2 110.9,40.4 194.6,40.4 194.6,99.2 			"/>
		</g>
		<g>
			<polygon class="st0" points="252,91 252,140.7 263,140.7 263,102.1 306.5,102.1 306.5,185.8 205.7,185.8 205.7,40.4 306.5,40.4 
				306.5,91 			"/>
		</g>
	</g>
	<g>
		<polygon class="st1" points="71.3,223.8 83.8,223.8 68.7,268.8 57.2,268.8 42.1,223.8 54.6,223.8 62.9,254.1 		"/>
		<path class="st1" d="M255.2,228.6c-3.8-3.7-8.8-5.6-14.8-5.6c-4.3,0-8,0.9-11.2,2.9c-3.2,1.9-5.7,4.6-7.4,8.1
			c-1.7,3.5-2.6,7.4-2.6,11.9v0.5c0,7.1,1.9,12.8,5.8,16.9s9,6.2,15.5,6.2c6.5,0,11.6-2.1,15.5-6.2c3.9-4.2,5.8-9.7,5.8-16.6
			l-0.1-3.1C261.1,237.3,259,232.3,255.2,228.6z M247.2,256.6c-1.6,2.2-3.9,3.3-6.8,3.3c-3,0-5.3-1.1-6.9-3.4
			c-1.6-2.3-2.4-5.5-2.4-9.8c0-4.8,0.8-8.3,2.4-10.6c1.6-2.3,3.9-3.4,6.8-3.4c3,0,5.3,1.2,6.9,3.4c1.6,2.3,2.5,5.5,2.5,9.7
			C249.7,250.8,248.9,254.3,247.2,256.6z"/>
		<path class="st1" d="M305,255.8c0,4.1-1.8,7.4-5.3,9.9c-3.5,2.5-8,3.8-13.6,3.8c-3.8,0-7.1-0.7-10-2c-2.9-1.3-5.2-3.2-6.9-5.5
			c-1.7-2.3-2.5-4.9-2.5-7.6h11.4c0.1,2.1,0.9,3.8,2.4,4.9c1.5,1.1,3.4,1.7,5.9,1.7c2.3,0,4-0.4,5.2-1.3c1.2-0.9,1.8-2,1.8-3.4
			c0-1.5-0.7-2.6-2.2-3.5c-1.4-0.8-3.8-1.6-7-2.3c-10.7-2.2-16-6.8-16-13.6c0-4,1.6-7.3,5-10c3.3-2.7,7.6-4,13-4
			c5.7,0,10.3,1.3,13.7,4c3.4,2.7,5.1,6.2,5.1,10.5h-12c0-1.7-0.6-3.1-1.7-4.3c-1.1-1.1-2.8-1.7-5.2-1.7c-2,0-3.6,0.5-4.7,1.4
			c-1.1,0.9-1.7,2.1-1.7,3.5c0,1.3,0.6,2.4,1.9,3.2c1.3,0.8,3.4,1.5,6.4,2.1c3,0.6,5.5,1.3,7.5,2C301.9,246.1,305,250.1,305,255.8z"
			/>
		<rect x="89.7" y="223.8" class="st1" width="12" height="44.9"/>
		<path class="st1" d="M163.7,259.7c1.3,0,2.5-0.1,3.5-0.3v9.1c-2.3,0.7-4.8,1.1-7.3,1.1c-8.4,0-12.7-4.2-12.9-12.7v-24.2h-6.6v-8.8
			h6.6v-11h12v11h7.7v8.8h-7.7v22.4c0,1.7,0.3,2.8,1,3.6C160.7,259.3,161.9,259.7,163.7,259.7z"/>
		<path class="st1" d="M199.9,223.8h12v44.9h-11.3l-0.3-4.6c-3,3.6-7.1,5.4-12.3,5.4c-4.8,0-8.5-1.4-11-4.2
			c-2.5-2.8-3.8-6.8-3.9-12.2v-29.4h12v29c0,4.7,2.1,7,6.4,7c4.1,0,6.9-1.4,8.4-4.2V223.8z"/>
		<path class="st1" d="M133.3,223c1.3,0,2.6,0.2,3.7,0.5l-0.2,11.5c-1.6-0.2-3.1-0.3-4.3-0.3c-4.5,0-7.5,1.5-8.9,4.6v29.4h-12v-44.9
			H123l0.3,5.3C125.7,225.1,129,223,133.3,223z"/>
		<rect x="89.7" y="206.1" class="st1" width="12" height="12"/>
	</g>
</g>
</svg>
