<svg width="140" height="91" viewBox="0 0 140 91" fill="none" xmlns="http://www.w3.org/2000/svg">
<path d="M34.0609 58.835H27.1019L25.8939 52.479C24.7931 51.8554 23.6028 51.4051 22.3649 51.144C20.7521 50.7546 19.098 50.5625 17.4389 50.572C15.3489 50.4404 13.2742 51.0048 11.5389 52.177C10.8824 52.6486 10.3501 53.2723 9.98747 53.9948C9.62486 54.7172 9.44281 55.5168 9.45692 56.325C9.4592 57.101 9.66054 57.8635 10.0417 58.5395C10.4229 59.2155 10.971 59.7824 11.6339 60.186C13.9831 61.5874 16.5124 62.6619 19.1519 63.38C24.2572 64.8 28.1292 66.6753 30.7679 69.006C32.0672 70.148 33.0964 71.5647 33.781 73.1534C34.4655 74.7421 34.7883 76.4632 34.7259 78.192C34.7856 80.0226 34.3869 81.8392 33.5661 83.4766C32.7453 85.114 31.5284 86.5204 30.0259 87.568C26.8926 89.856 22.7592 91 17.6259 91C14.2342 91.0496 10.8639 90.4564 7.69291 89.252C4.90737 88.1986 2.38532 86.5499 0.302895 84.421V74.759H7.48591L8.47291 81.338C9.60767 82.2046 10.8974 82.8468 12.2729 83.23C14.0104 83.7472 15.8162 83.9987 17.6289 83.976C19.6816 84.1162 21.7224 83.5684 23.4289 82.419C24.0686 81.9341 24.5828 81.303 24.9284 80.5785C25.2739 79.854 25.4407 79.0572 25.4149 78.255C25.4444 77.4433 25.2895 76.6356 24.962 75.8924C24.6345 75.1492 24.1428 74.4899 23.5239 73.964C21.5308 72.5317 19.281 71.4959 16.8969 70.913C11.4089 69.3236 7.25591 67.438 4.43791 65.256C3.06428 64.2123 1.96284 62.8525 1.22712 61.2921C0.491399 59.7317 0.143116 58.0167 0.211892 56.293C0.191252 54.4862 0.615252 52.702 1.44654 51.0977C2.27783 49.4934 3.4909 48.1181 4.97889 47.093C8.47203 44.6067 12.6754 43.3165 16.9619 43.415C20.2741 43.3735 23.5672 43.9224 26.6869 45.036C29.3989 45.9918 31.9022 47.4593 34.0609 49.359V58.835Z" fill="#000000"/>
<path d="M39.98 49.65V44.056H59.145V49.65L54.187 50.604V83.815L59.145 84.769V90.331H39.98V84.769L44.938 83.815V50.604L39.98 49.65Z" fill="#000000"/>
<path d="M108.955 56.102L108.764 56.07L96.369 90.333H90.139L77.8091 56.197L77.618 56.229L78.5081 76.539V83.815L83.467 84.769V90.331H64.3V84.769L69.2281 83.815V50.604L64.3 49.65V44.056H81.3361L93.1291 78.156H93.3191L105.206 44.056H122.306V49.65L117.348 50.604V83.815L122.306 84.769V90.331H103.139V84.769L108.067 83.815V76.537L108.955 56.102Z" fill="#000000"/>
<path d="M23.198 3.276V6.055L19.631 6.668V26.315C19.6919 27.5714 19.4824 28.8263 19.0166 29.9947C18.5508 31.1632 17.8395 32.2181 16.931 33.088C15.0081 34.8033 12.4925 35.7019 9.91799 35.593C7.27923 35.7332 4.68018 34.9042 2.60997 33.262C0.800639 31.7087 -0.0660335 29.4517 0.00996654 26.491L0.0539729 26.359H4.18898C4.08004 27.1432 4.15209 27.9418 4.39965 28.6938C4.6472 29.4458 5.06367 30.1311 5.61711 30.6972C6.17056 31.2633 6.84628 31.6952 7.59249 31.9596C8.33869 32.2241 9.13557 32.3142 9.92198 32.223C10.6483 32.248 11.3716 32.1174 12.0433 31.8401C12.7151 31.5628 13.3198 31.1451 13.817 30.615C14.8635 29.4344 15.4056 27.8907 15.327 26.315V6.668L11.755 6.055V3.276H23.199H23.198Z" fill="#000000"/>
<path d="M43.372 31.634C42.6849 32.8454 41.6927 33.8559 40.494 34.565C39.2584 35.2671 37.856 35.6226 36.4351 35.594C35.3116 35.6545 34.1887 35.4639 33.1481 35.0362C32.1074 34.6084 31.1752 33.9542 30.419 33.121C28.9744 31.473 28.2524 28.9063 28.2531 25.421V14.851L25.5391 14.238V11.459H32.562V25.459C32.562 27.983 32.934 29.719 33.678 30.667C34.1053 31.1611 34.6431 31.5474 35.2478 31.7945C35.8525 32.0416 36.507 32.1425 37.1581 32.089C38.4869 32.1417 39.8037 31.8194 40.958 31.159C41.9639 30.5311 42.7542 29.6111 43.2231 28.522V14.851L40.05 14.238V11.459H47.5331V31.765L50.246 32.377V35.134H43.6551L43.372 31.634Z" fill="#000000"/>
<path d="M53.0649 3.779V1H60.943V31.765L64.508 32.377V35.134H53.0649V32.377L56.632 31.765V4.392L53.0649 3.779Z" fill="#000000"/>
<path d="M67.769 32.377L71.3361 31.765V14.851L67.769 14.238V11.459H75.6451V31.765L79.212 32.377V35.134H67.769V32.377ZM75.6451 5.39798H71.3361V0.997986H75.6451V5.39798Z" fill="#000000"/>
<path d="M97.9431 35.134C97.8097 34.4927 97.7074 33.9167 97.636 33.406C97.5647 32.8953 97.5137 32.3847 97.4831 31.874C96.6297 32.9577 95.5699 33.8615 94.3651 34.533C92.8589 35.3424 91.1522 35.7025 89.4475 35.5706C87.7428 35.4387 86.1118 34.8204 84.748 33.789C84.0858 33.1252 83.5718 32.3285 83.24 31.4514C82.9081 30.5744 82.7661 29.637 82.8231 28.701C82.7829 27.6716 83.0134 26.6498 83.4915 25.7373C83.9697 24.8249 84.6788 24.0538 85.548 23.501C87.8034 22.1678 90.403 21.5321 93.019 21.674H97.462V18.921C97.4921 18.31 97.3904 17.6996 97.1636 17.1314C96.9369 16.5632 96.5905 16.0505 96.148 15.628C95.1317 14.7681 93.823 14.3329 92.4941 14.413C91.5265 14.3963 90.5626 14.5368 89.64 14.829C88.8986 15.0584 88.216 15.4468 87.64 15.967L87.1801 18.461H83.855V13.866C85.0307 12.9545 86.3562 12.2547 87.772 11.798C89.3815 11.2685 91.0668 11.0064 92.761 11.022C95.1095 10.9131 97.4203 11.6421 99.281 13.079C100.122 13.8014 100.785 14.7085 101.218 15.7293C101.65 16.7502 101.841 17.8572 101.775 18.964V30.364C101.775 30.67 101.779 30.97 101.787 31.264C101.795 31.558 101.813 31.8497 101.841 32.139L103.592 32.379V35.136L97.9431 35.134ZM91.006 31.984C92.3804 31.9987 93.7334 31.6433 94.923 30.955C95.9858 30.3872 96.866 29.5302 97.462 28.483V24.583H92.8621C91.3668 24.5011 89.8886 24.9334 88.673 25.808C88.1986 26.1466 87.8113 26.5928 87.5429 27.1102C87.2745 27.6275 87.1327 28.2012 87.1291 28.784C87.1007 29.2267 87.1726 29.67 87.3393 30.081C87.506 30.4921 87.7633 30.8602 88.092 31.158C88.935 31.7695 89.9676 32.0622 91.006 31.984Z" fill="#000000"/>
<path d="M137.785 34.777C138.396 34.166 138.812 33.3875 138.981 32.54C139.15 31.6925 139.063 30.814 138.732 30.0156C138.402 29.2172 137.842 28.5348 137.123 28.0547C136.405 27.5746 135.56 27.3183 134.696 27.3183C133.832 27.3183 132.987 27.5746 132.269 28.0547C131.55 28.5348 130.99 29.2172 130.659 30.0156C130.329 30.814 130.242 31.6925 130.411 32.54C130.58 33.3875 130.996 34.166 131.607 34.777C132.426 35.5961 133.537 36.0563 134.696 36.0563C135.855 36.0563 136.966 35.5961 137.785 34.777V34.777Z" fill="#000000"/>
<path d="M119.228 28.599C118.617 29.2098 118.201 29.9881 118.032 30.8354C117.864 31.6828 117.95 32.5611 118.281 33.3592C118.612 34.1574 119.171 34.8396 119.89 35.3196C120.608 35.7996 121.453 36.0558 122.317 36.0558C123.18 36.0558 124.025 35.7996 124.743 35.3196C125.462 34.8396 126.021 34.1574 126.352 33.3592C126.683 32.5611 126.769 31.6828 126.601 30.8354C126.432 29.9881 126.016 29.2098 125.405 28.599C124.999 28.1933 124.518 27.8715 123.988 27.6519C123.458 27.4323 122.89 27.3193 122.317 27.3193C121.743 27.3193 121.175 27.4323 120.645 27.6519C120.115 27.8715 119.634 28.1933 119.228 28.599V28.599Z" fill="#000000"/>
<path d="M134.695 48.381C137.107 48.381 139.063 46.4253 139.063 44.013C139.063 41.6006 137.107 39.645 134.695 39.645C132.283 39.645 130.327 41.6006 130.327 44.013C130.327 46.4253 132.283 48.381 134.695 48.381Z" fill="#000000"/>
</svg>
