<?xml version="1.0" encoding="UTF-8" standalone="no"?>
<!-- Created with Inkscape (http://www.inkscape.org/) by Marsupilami -->
<svg
   xmlns:svg="http://www.w3.org/2000/svg"
   xmlns="http://www.w3.org/2000/svg"
   version="1.0"
   width="1024"
   height="158"
   viewBox="0 0 247.58501 38.30125"
   id="svg14564">
  <defs
     id="defs14566" />
  <g
     transform="translate(-251.2075,-513.21156)"
     id="layer1">
    <path
       d="M 0,0 L 0,38.3125 L 56.1875,38.3125 L 56.1875,0 L 0,0 z M 107.71875,9.28125 C 102.62,9.2812505 100.875,12.08375 100.875,19.25 C 100.875,26.41625 102.62,29.21875 107.71875,29.21875 C 112.81875,29.21875 114.5625,26.41625 114.5625,19.25 C 114.5625,12.08375 112.81875,9.28125 107.71875,9.28125 z M 227.53125,9.28125 C 223.3175,9.2812505 221.25,11.41625 221.25,15.28125 C 221.25,22.07125 229.0625,20.18375 229.0625,23.96875 C 229.0625,25.015001 228.4875,25.8125 227.46875,25.8125 C 226.50125,25.812499 225.8125,25.23 225.8125,23.59375 L 225.8125,23.15625 L 221,23.15625 L 221,23.8125 C 221,27.78375 223.305,29.21875 227.4375,29.21875 C 231.84,29.21875 234.21875,27.3925 234.21875,23.3125 C 234.21874,16.3075 226.0625,18.15875 226.0625,14.375 C 226.0625,13.51625 226.55125,12.6875 227.625,12.6875 C 228.59125,12.6875 229.0625,13.6225 229.0625,14.75 L 229.0625,15.1875 L 233.71875,15.1875 C 233.71875,11.08125 231.87875,9.28125 227.53125,9.28125 z M 70.46875,9.65625 L 70.46875,28.84375 L 75.46875,28.84375 L 75.46875,23.75 L 76.5,22.15625 L 79.4375,28.84375 L 85.125,28.84375 L 79.6875,18.03125 L 84.53125,9.65625 L 79.21875,9.65625 L 75.5,17.03125 L 75.46875,17.03125 L 75.46875,9.65625 L 70.46875,9.65625 z M 85.5625,9.65625 L 85.5625,28.84375 L 90.21875,28.84375 L 90.21875,17 L 90.28125,17 L 93.625,28.84375 L 99.09375,28.84375 L 99.09375,9.65625 L 94.40625,9.65625 L 94.40625,21.46875 L 94.375,21.46875 L 91.15625,9.65625 L 85.5625,9.65625 z M 116.34375,9.65625 L 116.34375,28.84375 L 121.34375,28.84375 L 121.34375,21.15625 L 122.65625,21.15625 C 123.865,21.15625 124.3125,21.7325 124.3125,23.90625 L 124.3125,25.1875 C 124.3125,25.9925 124.29875,27.82375 124.78125,28.84375 L 130.09375,28.84375 L 130.09375,28.5625 C 129.77125,28.40125 129.66625,28.1825 129.53125,27.96875 C 129.29125,27.5925 129.28125,26.305 129.28125,25.3125 L 129.28125,23.6875 C 129.28125,21.1375 128.57125,19.59 126.15625,19.375 L 126.15625,19.34375 C 128.4375,18.995 129.4375,17.33125 129.4375,14.78125 C 129.4375,11.82875 127.96625,9.65625 124.15625,9.65625 L 116.34375,9.65625 z M 131.75,9.65625 L 131.75,28.84375 L 136.75,28.84375 L 136.75,21.15625 L 138.0625,21.15625 C 139.27,21.15625 139.6875,21.7325 139.6875,23.90625 L 139.6875,25.1875 C 139.6875,25.9925 139.705,27.82375 140.1875,28.84375 L 145.5,28.84375 L 145.5,28.5625 C 145.17875,28.40125 145.07125,28.1825 144.9375,27.96875 C 144.69625,27.5925 144.6875,26.305 144.6875,25.3125 L 144.6875,23.6875 C 144.6875,21.1375 143.97875,19.59 141.5625,19.375 L 141.5625,19.34375 C 143.84499,18.995 144.8125,17.33125 144.8125,14.78125 C 144.8125,11.82875 143.3725,9.65625 139.5625,9.65625 L 131.75,9.65625 z M 157.1875,9.65625 L 157.1875,28.84375 L 164.71875,28.84375 C 168.87875,28.843751 170.5,26.48375 170.5,23.15625 C 170.5,21.168749 169.49,19.0225 166.96875,18.78125 L 166.96875,18.75 C 169.08749,18.32125 169.96875,16.47625 169.96875,14.4375 C 169.96875,11.565 168.2875,9.65625 164.71875,9.65625 L 157.1875,9.65625 z M 172.4375,9.65625 L 172.4375,28.84375 L 177.40625,28.84375 L 177.40625,21.15625 L 178.75,21.15625 C 179.95875,21.15625 180.375,21.7325 180.375,23.90625 L 180.375,25.1875 C 180.375,25.9925 180.36125,27.82375 180.84375,28.84375 L 186.15625,28.84375 L 186.15625,28.5625 C 185.835,28.40125 185.7275,28.1825 185.59375,27.96875 C 185.3525,27.5925 185.375,26.305 185.375,25.3125 L 185.375,23.6875 C 185.37499,21.1375 184.63375,19.59 182.21875,19.375 L 182.21875,19.34375 C 184.49999,18.995 185.5,17.33125 185.5,14.78125 C 185.5,11.82875 184.06,9.65625 180.25,9.65625 L 172.4375,9.65625 z M 187.84375,9.65625 L 187.84375,28.84375 L 199.4375,28.84375 L 199.4375,24.75 L 192.8125,24.75 L 192.8125,20.9375 L 198.78125,20.9375 L 198.78125,17.03125 L 192.8125,17.03125 L 192.8125,13.75 L 199.1875,13.75 L 199.1875,9.65625 L 187.84375,9.65625 z M 201.0625,9.65625 L 201.0625,28.84375 L 205.71875,28.84375 L 205.71875,14.5625 L 205.78125,14.5625 L 208.4375,28.84375 L 212.03125,28.84375 L 214.6875,14.5625 L 214.75,14.5625 L 214.75,28.84375 L 219.40625,28.84375 L 219.40625,9.65625 L 212.28125,9.65625 L 210.28125,21.03125 L 210.21875,21.03125 L 208.1875,9.65625 L 201.0625,9.65625 z M 236,9.65625 L 236,28.84375 L 247.59375,28.84375 L 247.59375,24.75 L 240.96875,24.75 L 240.96875,20.9375 L 246.9375,20.9375 L 246.9375,17.03125 L 240.96875,17.03125 L 240.96875,13.75 L 247.34375,13.75 L 247.34375,9.65625 L 236,9.65625 z M 107.71875,12.6875 C 109.24875,12.6875 109.40625,14.07 109.40625,19.25 C 109.40625,24.42875 109.24875,25.8125 107.71875,25.8125 C 106.18875,25.812499 106.03125,24.42875 106.03125,19.25 C 106.03125,14.07 106.18875,12.6875 107.71875,12.6875 z M 121.34375,13.25 L 122.3125,13.25 C 123.81625,13.25 124.4375,13.94375 124.4375,15.5 C 124.4375,16.86875 123.765,17.78125 122.34375,17.78125 L 121.34375,17.78125 L 121.34375,13.25 z M 136.75,13.25 L 137.71875,13.25 C 139.2225,13.25 139.84375,13.94375 139.84375,15.5 C 139.84374,16.86875 139.17125,17.78125 137.75,17.78125 L 136.75,17.78125 L 136.75,13.25 z M 162.1875,13.25 L 163.375,13.25 C 164.395,13.25 164.96875,14.17625 164.96875,15.25 C 164.96875,16.26875 164.395,17.1875 163.375,17.1875 L 162.1875,17.1875 L 162.1875,13.25 z M 177.40625,13.25 L 178.375,13.25 C 179.8775,13.25 180.5,13.94375 180.5,15.5 C 180.50001,16.86875 179.82875,17.78125 178.40625,17.78125 L 177.40625,17.78125 L 177.40625,13.25 z M 146.71875,19.03125 L 146.71875,23.125 L 155.09375,23.125 L 155.09375,19.03125 L 146.71875,19.03125 z M 162.1875,20.5625 L 163.5625,20.5625 C 164.47625,20.562499 165.34375,21.4 165.34375,22.875 C 165.34375,24.431251 164.47625,25.21875 163.5625,25.21875 L 162.1875,25.21875 L 162.1875,20.5625 z "
       transform="translate(251.2075,513.21156)"
       style="fill:#004884;fill-opacity:1;fill-rule:nonzero;stroke:none"
       id="path6823" />
    <path
       d="M 28.09375,6.375 C 21.0425,6.375 15.3125,12.104999 15.3125,19.15625 C 15.3125,26.2075 21.0425,31.906249 28.09375,31.90625 C 35.14375,31.90625 40.84375,26.207499 40.84375,19.15625 C 40.84375,12.105 35.14375,6.375 28.09375,6.375 z M 28.03125,9.4375 C 33.39,9.4375 37.750001,13.796251 37.75,19.15625 C 37.75,24.515 33.390001,28.84375 28.03125,28.84375 C 22.6725,28.84375 18.343749,24.515001 18.34375,19.15625 C 18.34375,13.79625 22.672501,9.4374996 28.03125,9.4375 z M 8.59375,12 L 5.125,19.125 L 8.59375,26.28125 L 11.65625,26.28125 C 10.7,24.0925 10.1875,21.6975 10.1875,19.15625 C 10.1875,16.613751 10.7,14.18875 11.65625,12 L 8.59375,12 z M 12.78125,12 C 11.75875,14.1725 11.1875,16.595001 11.1875,19.15625 C 11.1875,21.70875 11.76375,24.1125 12.78125,26.28125 L 16.25,26.28125 C 14.9875,24.2 14.25,21.768751 14.25,19.15625 C 14.25,16.5375 14.9825,14.085 16.25,12 L 12.78125,12 z M 22.28125,12 L 22.28125,26.28125 L 26.375,26.28125 L 26.375,12 L 22.28125,12 z M 29.90625,12 L 26.4375,19.125 L 29.90625,26.28125 L 34,26.28125 L 30.5,19.15625 L 34,12 L 29.90625,12 z M 39.84375,12 C 41.11125,14.085 41.843751,16.537501 41.84375,19.15625 C 41.84375,21.77625 41.113748,24.22625 39.84375,26.3125 L 43.3125,26.3125 C 44.33375,24.14 44.90625,21.715001 44.90625,19.15625 C 44.90625,16.6 44.331251,14.17 43.3125,12 L 39.84375,12 z M 44.4375,12 C 45.395,14.18875 45.906252,16.613751 45.90625,19.15625 C 45.90625,21.6975 45.394998,24.0925 44.4375,26.28125 L 47.5,26.28125 L 50.96875,19.125 L 47.5,12 L 44.4375,12 z "
       transform="translate(251.2075,513.21156)"
       style="fill:#ffffff;fill-opacity:1;fill-rule:nonzero;stroke:none"
       id="path6849" />
  </g>
</svg>
