<svg width="228" height="42" viewBox="0 0 228 42" fill="none" xmlns="http://www.w3.org/2000/svg">
    <path d="m57.605 21.533.025 8.102a.16.16 0 0 1-.148.15h-.954a.16.16 0 0 1-.149-.15l.05-8.325-.025-8.933a.16.16 0 0 1 .148-.149h1.506c.074 0 .173.05.198.149l6.22 15.704 6.194-15.704c.025-.1.124-.149.199-.149h1.406a.16.16 0 0 1 .148.149l-.018 8.933.05 8.325a.16.16 0 0 1-.15.15h-1.003a.16.16 0 0 1-.148-.15l.024-8.102v-4.436l.05-3.134-6.22 15.679c-.024.099-.124.148-.198.148h-.774c-.075 0-.174-.05-.199-.148l-6.281-15.686.05 3.16v4.417zM88.964 29.79c-.062 0-.149-.043-.168-.124l-1.728-4.8h-6.38l-1.704 4.8c-.019.087-.105.124-.167.124h-.843c-.062 0-.105-.062-.087-.124l5.328-14.49c.019-.086.105-.123.167-.123h1.097c.062 0 .148.043.167.124l5.284 14.49c.019.061-.019.123-.087.123h-.88zm-2.212-5.854-2.862-8.022-2.862 8.022h5.724zM100.04 30.02c-4.17 0-6.573-2.72-6.573-7.689 0-4.633 2.484-7.52 6.573-7.52 2.825 0 5.266 1.388 5.854 5.142.019.062-.043.124-.105.124h-.843c-.062 0-.124-.062-.148-.124-.484-3.036-2.423-4.213-4.783-4.213-3.432 0-5.414 2.652-5.414 6.61 0 4.547 2.063 6.74 5.414 6.74 2.72 0 4.677-1.561 4.888-4.528 0-.062.062-.124.124-.124h.861c.062 0 .124.062.105.124-.328 3.562-2.645 5.457-5.953 5.457zM112.027 22.543l.043 7.117a.133.133 0 0 1-.124.124h-.861a.133.133 0 0 1-.124-.124l.044-7.099-.044-7.39c0-.062.062-.124.124-.124h.861c.062 0 .124.062.124.124l-.043 6.213h8.846l-.043-6.213c0-.062.062-.124.124-.124h.861c.062 0 .124.062.124.124l-.044 7.39.044 7.1a.133.133 0 0 1-.124.123h-.861a.133.133 0 0 1-.124-.124l.043-7.117v-.254h-8.846v.254zM127.65 29.79a.133.133 0 0 1-.124-.124l.044-7.495-.044-6.994c0-.062.062-.124.124-.124h.843c.062 0 .124.062.124.124l-.044 6.994.044 7.495a.133.133 0 0 1-.124.124h-.843zM135.214 22.356l.043 7.31c0 .062-.061.124-.123.124h-.824a.133.133 0 0 1-.124-.124l.043-7.452-.018-7.037c0-.062.062-.124.123-.124h.905c.087 0 .149.043.192.105l9.013 13.164-.018-1.772v-4.36l-.044-7.013c0-.062.062-.124.124-.124h.824c.062 0 .124.062.124.124l-.043 7.037.043 7.452a.133.133 0 0 1-.124.124h-1.009a.229.229 0 0 1-.193-.105l-8.908-12.929.019 1.729-.025 3.871zM151.029 29.79c-.061 0-.123-.062-.123-.124l.043-7.688-.043-6.801c0-.062.062-.124.123-.124h8.295c.062 0 .124.062.124.124v.65a.133.133 0 0 1-.124.124h-7.31l-.043 5.458h6.907c.062 0 .124.062.124.123v.651a.133.133 0 0 1-.124.124h-6.907l.043 6.573h7.478c.062 0 .123.062.123.123v.65c0 .063-.061.125-.123.125h-8.463v.012zM178.324 29.79c-.075 0-.174-.074-.198-.148l-4.039-15.63-4.039 15.63c0 .074-.1.149-.174.149h-1.127c-.075 0-.174-.075-.199-.15l-4.664-17.258c-.025-.074.024-.149.099-.149h1.003c.075 0 .174.075.199.15l4.187 15.802 4.039-15.803c0-.074.099-.149.174-.149h1.127c.075 0 .174.075.174.15l4.039 15.852 4.187-15.853c.025-.074.124-.149.199-.149h.904c.074 0 .124.075.099.15l-4.689 17.258c-.025.074-.124.149-.198.149h-1.103zM198.692 29.79c-.062 0-.148-.043-.167-.124l-1.728-4.8h-6.381l-1.703 4.8c-.019.087-.106.124-.168.124h-.842c-.062 0-.106-.062-.087-.124l5.328-14.49c.018-.086.105-.123.167-.123h1.096c.062 0 .149.043.168.124l5.284 14.49c.018.061-.019.123-.087.123h-.88zm-2.211-5.854-2.862-8.022-2.862 8.022h5.724zM212.024 27.852l-2.862-4.529h-3.835l.043 6.337a.133.133 0 0 1-.124.124h-.861a.133.133 0 0 1-.124-.124l.044-7.625-.044-6.864c0-.062.062-.124.124-.124h4.634c3.116 0 5.117 1.387 5.117 4.088 0 2.51-1.536 3.81-3.835 4.126l4.083 6.424c.018.044 0 .106-.062.106h-1.035a.265.265 0 0 1-.192-.106l-1.071-1.833zm-6.697-5.75v.317h3.897c2.36 0 3.834-.948 3.834-3.265 0-2.088-1.431-3.203-3.834-3.203h-3.854l-.043 6.152zM219.414 29.79a.133.133 0 0 1-.124-.124l.043-7.688-.043-6.801c0-.062.062-.124.124-.124h8.295c.062 0 .124.062.124.124v.65a.133.133 0 0 1-.124.124h-7.31l-.043 5.458h6.907c.062 0 .124.062.124.123v.651a.133.133 0 0 1-.124.124h-6.907l.043 6.573h7.477c.062 0 .124.062.124.123v.65a.133.133 0 0 1-.124.125h-8.462v.012zM41.753 42H0V.247h41.753V42zM2.131 39.87h37.491V2.377H2.131V39.87z" fill="#010202"/>
    <path d="M26.42 36.394V21.688l2.956-1.704v16.41H26.42zM22.35 5.854h-2.948v30.54h2.949V5.854zM8.307 5.854H5.36v30.54h2.948V5.854zM36.395 5.854h-2.95v30.54h2.95V5.854zM15.332 5.854v14.725l-2.955 1.672V5.854h2.955z" fill="#010202"/>
</svg>
