<?xml version="1.0" encoding="UTF-8" standalone="no"?>
<!-- Created with Inkscape (http://www.inkscape.org/) -->

<svg
   width="158.72354mm"
   height="52.308121mm"
   viewBox="0 0 158.72354 52.308121"
   version="1.1"
   id="svg5"
   xml:space="preserve"
   inkscape:export-filename="Maplesoft.svg"
   inkscape:export-xdpi="96"
   inkscape:export-ydpi="96"
   xmlns:inkscape="http://www.inkscape.org/namespaces/inkscape"
   xmlns:sodipodi="http://sodipodi.sourceforge.net/DTD/sodipodi-0.dtd"
   xmlns:xlink="http://www.w3.org/1999/xlink"
   xmlns="http://www.w3.org/2000/svg"
   xmlns:svg="http://www.w3.org/2000/svg"><sodipodi:namedview
     id="namedview7"
     pagecolor="#ffffff"
     bordercolor="#666666"
     borderopacity="1.0"
     inkscape:showpageshadow="2"
     inkscape:pageopacity="0.0"
     inkscape:pagecheckerboard="0"
     inkscape:deskcolor="#d1d1d1"
     inkscape:document-units="mm"
     showgrid="false" /><defs
     id="defs2"><path
       id="SVGID_1_"
       d="m 477.5,231.4 c -1.5,1 -15.3,12.2 -22.5,17.4 -8.6,6.1 -16.5,6.3 -17.4,4.2 -0.9,-2 5.9,-13.5 5.9,-13.5 -2.2,-0.2 -6.5,3.1 -10.6,6.4 -4,3.2 -7.7,6.5 -9.4,6.4 -3.3,0 -8.8,-10.6 -9.8,-11.7 -1,-1.1 -3.5,-3.6 -5.1,-1.1 -1.6,2.5 -13.9,16.9 -16.3,19.6 -2.4,2.7 -3.1,-2 -4.3,-3.9 -1.2,-2 -4,-6.1 -4.5,-1.3 -0.5,4.8 -12.6,20.7 -17.9,21.7 -5.3,1 -25.6,-9.6 -37,-13.1 -11.9,-3.7 -23.8,-3.8 -27,-3.8 -3.1,-0.1 -7.7,-3.6 -8.5,0.4 -0.9,4 6.3,5.8 6.3,5.8 0,0 8,-0.2 11,-1.2 1.6,-0.6 10.9,0.7 21.3,3.6 13.5,3.8 30.2,14 32.5,15.8 3.6,3 12.2,10.5 34.8,9.6 38.6,-3.8 54.8,-24.1 65.8,-33.8 11.9,-10.4 26.1,-25.3 34,-27.7 4.6,-1.4 9.1,-2.5 11.7,-2.2 0,0 5.3,1.4 5,0.8 -0.3,-0.6 -2.4,-3.4 -7.4,-4.4 -4.9,-1 -20.7,3 -20.7,3 0,0 3.9,-2.3 6.6,-3.2 -0.2,0 -0.4,0 -0.6,0 -2.6,0 -8.4,1.6 -15.9,6.2" /><path
       id="SVGID_4_"
       d="m 467.7,231.5 c -1.7,1.5 -18.1,20 -22.8,24.8 -4.7,4.8 -9.7,-6.9 -12,-10.6 -3.1,-5 -8.9,13.9 -13.3,14.4 -3,0.3 -13.4,-12.1 -15.3,-13.7 -1.9,-1.6 -4.5,-5.5 -5.9,1.9 -1.4,7.1 -8.4,23.8 -11,25.2 -2.6,1.4 -14.6,-5.3 -16.7,-6.3 -2.2,-1 -0.7,15.7 -3.6,15.9 l -2.8,-0.3 c 0,0 5.1,13.7 37.8,9.6 23.4,-2.9 37.4,-9.5 58.9,-29.7 19.5,-18.3 32.5,-28.6 32.5,-28.6 l -9.7,4.7 c -6.9,3 -9.8,-4 -11.5,-6.9 -0.7,-1.3 -1.4,-1.7 -2.1,-1.7 -1.1,0 -1.9,0.7 -2.5,1.3" /><rect
       id="SVGID_7_"
       x="291.29999"
       y="303.60001"
       width="214.7"
       height="14.7" /><rect
       id="SVGID_9_"
       x="291.29999"
       y="303.60001"
       width="214.7"
       height="14.7" /><rect
       id="SVGID_11_"
       x="291.29999"
       y="303.60001"
       width="214.7"
       height="14.7" /><path
       id="SVGID_13_"
       d="m 387,303.6 c -6.9,0 -14,0.2 -21,0.8 -16.9,1.8 -14.7,4.6 -16,5.3 -0.8,0.4 -10.1,2.3 -21.6,2.5 -9,0.1 -18.1,-0.2 -20.4,-0.5 -4.2,-0.6 -13.2,-1.2 -13.2,-1.2 0,0 -3.3,0 -3.4,0.5 v 0 c 0,0.2 0.5,0.4 1.7,0.8 3.2,0.9 5,0.9 7,0.8 0.9,0 1.8,-0.1 2.9,0 3.4,0.2 16.6,1.1 26.4,0.9 9.4,-0.2 22.2,-2 29,-1.3 6.8,0.7 27.5,3 32.1,4.3 4.6,1.3 2.9,-0.1 2.1,-0.8 -0.9,-0.7 -4.5,-2 -0.4,-1.5 4.1,0.5 25.5,3.4 28.9,3.9 3.3,0.5 3,-0.4 2.7,-0.8 -0.3,-0.4 -5.7,-3.9 -3.4,-4.2 1.1,-0.1 6.4,0.4 11.9,0.9 6,0.6 12.2,1.1 13.7,0.8 0,0 -14.9,-2.5 -16.1,-3.2 -1.2,-0.6 4.6,-1.4 16.1,-0.4 9.6,0.7 29.4,2.6 31.3,2.7 2,0.1 11.6,0.4 12.4,0.3 0.8,-0.1 -4.7,-0.3 -4.7,-0.3 0,0 16.6,-0.4 19.3,-1.1 2.7,-0.7 1.7,-1.7 1.4,-1.9 -0.3,-0.2 -2.8,0.7 -2.8,0.7 -1.5,0.3 -5.7,0.5 -10.2,0.5 -7.7,0.1 -31,-2.8 -48.6,-4.5 -12.5,-1.3 -33.6,-3.9 -56.7,-3.9 H 387 Z" /><rect
       id="SVGID_16_"
       x="350.10001"
       y="303.60001"
       width="136"
       height="14.1" /><path
       id="SVGID_18_"
       d="m 367.3,304.4 c -18.8,1.5 -17.2,5.4 -17.2,5.4 l 2.8,0.1 c 3.4,0.3 15.9,4.6 16.5,4.1 0.7,-0.5 3.3,-3.4 6.4,-3.3 3.1,0.1 22.8,4.1 30,6 2.9,0.7 4.5,1 5.3,1 v 0 c 1.2,0 0.6,-0.6 0.6,-1 0,-0.6 -3.6,-5.1 -1.2,-5.2 1.6,-0.1 6.4,0.7 11.2,1.6 6.1,1.1 12.2,2.1 10.9,1.2 -1.6,-1.2 -8.3,-5 -0.8,-4.1 7.6,0.9 32.5,3.9 35.1,4.1 1.9,0.2 4.6,0.3 3.2,-0.6 -1.4,-1 -2.8,-2.4 4.7,-2.2 l 11.1,0.5 c 0,0 -15.2,-1.5 -48.3,-5 -21.4,-2.2 -36.7,-3.2 -49.9,-3.2 -7.1,-0.2 -13.7,0.1 -20.4,0.6" /><rect
       id="SVGID_21_"
       x="329.89999"
       y="301.60001"
       width="198.7"
       height="15.6" /><rect
       id="SVGID_23_"
       x="329.89999"
       y="301.60001"
       width="198.7"
       height="15.6" /><rect
       id="SVGID_25_"
       x="329.89999"
       y="301.60001"
       width="198.7"
       height="15.6" /><path
       id="SVGID_27_"
       d="m 440.1,301.6 c -4.9,0 -10.2,0.1 -16.2,0.4 -22.3,1.5 -30.5,4.3 -34.2,4.9 -2.2,0.4 -17.8,2.1 -28.9,2 -8.6,-0.1 -15.8,-0.6 -16.7,-1 -1.8,-0.7 -7.6,-1.5 -7.6,-1.5 0,0 -5.9,-0.1 -6.5,1.3 0,0.1 -0.1,0.2 -0.1,0.2 v 0.1 c 0.1,0.7 1.8,0.6 3.5,0.6 0.9,0 1.9,0 2.6,0.1 2.3,0.3 11.1,1.5 20.9,1.5 9.5,0 27.8,-1.5 31.3,-0.6 3.5,0.9 14.3,3.6 13.8,5 -0.5,1.4 3.1,-0.1 4.7,-0.7 1.6,-0.7 3.3,-2.1 5.1,-1.5 1.8,0.6 11,3.9 12.1,4.6 1.1,0.6 4.1,-0.3 5.4,-0.7 1.2,-0.4 8.9,-4 12.2,-4.2 1.6,-0.1 4.6,0.5 7.8,1.2 3.4,0.7 7,1.4 9.3,1.1 0,0 -4.3,-2.9 -3,-3.6 1.3,-0.7 9.2,-1.3 16.4,-0.1 6.1,1 17.6,3.2 18.8,3.4 1.2,0.2 9.4,0.6 10.4,0.6 1,-0.1 -3,-0.5 -3,-0.5 0,0 16.7,0 21.9,-0.7 5.1,-0.7 7.8,-1.7 8.3,-1.9 0.5,-0.2 -5.1,0.6 -5.1,0.6 -2.6,0.3 -6.9,0.3 -11.2,0.3 -7.3,-0.1 -18.4,-3.4 -28,-5.6 -7.5,-1.7 -18.4,-5.2 -43.9,-5.2 h -0.1 z" /><rect
       id="SVGID_30_"
       x="389.5"
       y="301.60001"
       width="117.5"
       height="14.6" /><path
       id="SVGID_32_"
       d="m 441.2,301.6 c -5,0 -10.3,0.2 -16.1,0.4 -22.9,1.1 -35.6,5 -35.6,5 l 2.2,0.2 c 2,0.4 -2.1,4.9 0.2,4.4 2.4,-0.5 15.7,-3.4 18.1,-3.2 2.3,0.2 5.8,4.6 5.6,6.6 -0.1,0.8 0.4,1.1 1.1,1.1 h 0.1 c 1.2,0 2.9,-0.6 4.2,-1 2.3,-0.6 15.3,-5.1 18.2,-5.3 1.9,-0.1 3.3,0.9 4.6,1.8 1.7,1.2 3.3,2.4 5.6,1.4 3.1,-1.3 10.6,-5.2 14.3,-4.1 3.6,1.1 15.7,4.6 17.1,4.9 1,0.2 3.1,0.4 5.3,-0.6 2.2,-1 6.2,-2.5 12.4,-2.1 l 8.5,0.7 c 0,0 -8.5,-1.8 -26.1,-6 -13,-3.1 -24.8,-4.4 -39.3,-4.4 h -0.4 z" /><path
       id="SVGID_35_"
       d="m 142.9,396.9 c -0.7,-1.4 -1,-4.2 -1,-8.7 0,-3.9 0.4,-6.8 1.1,-9 0.8,-2.2 3.4,-4.8 8.1,-7.9 l 1.3,-0.9 v 18.8 c 0,5.8 -0.5,7.4 -0.9,8.2 -0.7,1.3 -2.1,1.9 -4.2,1.9 -2.7,-0.1 -3.9,-1.3 -4.4,-2.4 m -15.1,-27.5 c -3.6,1.6 -6.1,3.1 -7.3,4.4 -2,2.1 -3,6.3 -3,12.3 v 6.9 c 0,8.2 1.9,13.5 5.7,15.8 3.9,2.4 8.3,3.6 13,3.6 3.6,0 6.6,-0.7 9.2,-2.1 2.6,-1.4 4.7,-3.6 6.3,-6.5 l 1.6,0.3 v 6.7 h 25.5 v -41.2 c 0,-1 0,-2 0,-3 -18.1,1 -35.2,1.9 -51,2.8" /><path
       id="SVGID_38_"
       d="m 224.8,364.9 v 23.4 c 0,4.6 -0.2,7.4 -0.7,8.7 -0.4,1 -1.4,2.3 -4.1,2.3 -2.7,0 -3.8,-1.3 -4.3,-2.4 -0.6,-1.4 -0.9,-4.5 -0.9,-9.7 v -21.9 c -9,0.3 -17.7,0.7 -26.3,1.1 V 423 h 26.3 v -20.7 l 1.5,1.8 c 2.4,2.8 5,5 7.8,6.4 2.8,1.4 5.9,2.1 9.2,2.1 4.1,0 7.7,-0.9 10.6,-2.7 2.9,-1.8 4.8,-4.2 5.7,-7.3 1,-3.1 1.5,-8.5 1.5,-16 V 364 c -8.9,0.3 -17.6,0.6 -26.3,0.9" /><path
       id="SVGID_41_"
       d="M 259.9,363.8 V 411 h 27.2 v -47.7 c -9.2,0.1 -18.2,0.3 -27.2,0.5" /><path
       id="SVGID_44_"
       d="m 295.7,363.1 v 18.3 c 0,6.1 0.5,10.9 1.4,14 0.9,3.1 2.6,6.1 5,8.7 2.4,2.6 5.8,4.7 10.2,6.2 4.4,1.5 9.5,2.3 15.3,2.3 5.9,0 10.9,-0.8 14.8,-2.3 3.9,-1.5 7.1,-3.8 9.6,-6.9 2.5,-3.1 4.2,-6 4.9,-8.6 0.7,-2.7 1.1,-6.7 1.1,-11.8 v -5.4 h -24.8 v 10.3 c 0,4.3 -0.4,7.2 -1.1,8.8 -0.6,1.2 -1.9,2.6 -4.9,2.6 -2.5,0 -3.6,-1.1 -4.1,-2.1 -0.6,-1.2 -1,-3.7 -1,-7.7 v -18.9 h 36 v -7.8 c -4.8,0 -9.5,0 -14.2,0 -16.4,-0.1 -32.4,0.1 -48.2,0.3" /><path
       id="SVGID_47_"
       d="m 83.2,372.4 0.1,38.6 h 25 v -40.3 c -8.9,0.5 -17.2,1.1 -25.1,1.7" /><path
       id="SVGID_50_"
       d="M 20,377.5 V 411 h 25 v -35.7 c -10.7,0.9 -19.2,1.6 -25,2.2" /><path
       id="SVGID_53_"
       d="m 49.9,374.9 5.7,36.1 h 17.6 l 5.6,-38.3 c -10.7,0.8 -20.4,1.5 -28.9,2.2" /><path
       id="SVGID_56_"
       d="m 408.5,390.9 c 0,10 -8,15.2 -16.4,15.2 -9.5,0 -16.8,-7.1 -19.2,-11.7 h -2 c 0,3.4 -1.9,9.5 -3.2,12.4 4.7,2.7 11.5,5.6 21.8,5.6 18.8,0 30.5,-13.9 30.5,-26.8 0,-13.4 -8.8,-17.6 -18.2,-20.5 -10.3,-0.4 -21.1,-1.8 -31.3,-2.1 8.2,16.3 38,10.2 38,27.9" /><path
       id="SVGID_59_"
       d="m 425.6,370.2 c 0,30.8 21.5,42.2 41.2,42.2 19.4,0 40.6,-11.1 41.1,-41 -5,-0.4 -9.9,-0.8 -14.9,-1.2 v 0 c 0,19 -6.3,36.8 -26.2,36.8 -20,0 -26.3,-17.8 -26.3,-36.8 0,-1.1 0,-2.3 0.1,-3.4 -5,-0.3 -9.9,-0.5 -14.8,-0.7 -0.2,1.4 -0.2,2.7 -0.2,4.1" /><path
       id="SVGID_62_"
       d="m 519.1,410.7 c 2.5,-0.5 5.1,-0.8 7.4,-0.8 2.4,0 4.9,0.3 7.3,0.8 -0.3,-12.4 -0.5,-24.7 -0.6,-36.9 -4.3,-0.4 -8.5,-0.8 -12.8,-1.2 -0.1,12.6 -0.5,25.3 -1.3,38.1" /><path
       id="SVGID_65_"
       d="m 569.3,391.2 c 0,13.2 6.8,21.2 20.8,21.2 4.2,0 9.1,-1.2 13.1,-2.5 v -4.1 c -2.2,0.7 -5.8,1.2 -7.6,1.2 -13.4,0 -13.7,-12.9 -13.7,-25.6 0,-0.7 0,-1.4 0,-2.1 -4.1,-0.5 -8.2,-1 -12.3,-1.6 -0.2,5 -0.3,9.4 -0.3,13.5" /><linearGradient
       id="SVGID_3_"
       gradientUnits="userSpaceOnUse"
       x1="-4.2094002"
       y1="729.04651"
       x2="-0.34130001"
       y2="729.04651"
       gradientTransform="matrix(0.6039,15.9509,-15.9509,0.6039,12034.003,-152.8119)">
		<stop
   offset="0"
   style="stop-color:#FFFFFF"
   id="stop34" />
		<stop
   offset="1"
   style="stop-color:#005586"
   id="stop36" />
	</linearGradient><clipPath
       id="SVGID_2_">
		<use
   xlink:href="#SVGID_1_"
   style="overflow:visible"
   id="use31" />
	</clipPath><radialGradient
       id="SVGID_6_"
       cx="19.560699"
       cy="737.60608"
       r="3.8680999"
       gradientTransform="matrix(-26.2658,6.6952,-6.6952,-26.2658,5900.418,19421.447)"
       gradientUnits="userSpaceOnUse">
		<stop
   offset="0"
   style="stop-color:#FFFFFF"
   id="stop49" />
		<stop
   offset="1"
   style="stop-color:#005586"
   id="stop51" />
	</radialGradient><clipPath
       id="SVGID_5_">
		<use
   xlink:href="#SVGID_4_"
   style="overflow:visible"
   id="use46" />
	</clipPath><clipPath
       id="SVGID_8_">
				<use
   xlink:href="#SVGID_7_"
   style="overflow:visible"
   id="use61" />
			</clipPath><clipPath
       id="SVGID_10_">
					<use
   xlink:href="#SVGID_9_"
   style="overflow:visible"
   id="use67" />
				</clipPath><clipPath
       id="SVGID_12_">
							<use
   xlink:href="#SVGID_11_"
   style="overflow:visible"
   id="use73" />
						</clipPath><linearGradient
       id="SVGID_15_"
       gradientUnits="userSpaceOnUse"
       x1="38.0938"
       y1="665.80603"
       x2="41.961899"
       y2="665.80603"
       gradientTransform="matrix(-27.1903,-10.6095,-7.5386,1.7592,6536.3555,-423.9582)">
								<stop
   offset="0"
   style="stop-color:#FFFFFF"
   id="stop82" />
								<stop
   offset="1"
   style="stop-color:#005586"
   id="stop84" />
							</linearGradient><clipPath
       id="SVGID_14_">
								<use
   xlink:href="#SVGID_13_"
   style="overflow:visible"
   id="use79" />
							</clipPath><clipPath
       id="SVGID_17_">
							<use
   xlink:href="#SVGID_16_"
   style="overflow:visible"
   id="use98" />
						</clipPath><radialGradient
       id="SVGID_20_"
       cx="0.26030001"
       cy="692.97913"
       r="3.8680999"
       gradientTransform="matrix(-29.8147,0.7182,22.2312,9.5952,-14900.823,-6308.7266)"
       gradientUnits="userSpaceOnUse">
								<stop
   offset="0"
   style="stop-color:#FFFFFF"
   id="stop107" />
								<stop
   offset="5.615230e-003"
   style="stop-color:#FFFFFF"
   id="stop109" />
								<stop
   offset="1"
   style="stop-color:#005586"
   id="stop111" />
							</radialGradient><clipPath
       id="SVGID_19_">
								<use
   xlink:href="#SVGID_18_"
   style="overflow:visible"
   id="use104" />
							</clipPath><clipPath
       id="SVGID_22_">
				<use
   xlink:href="#SVGID_21_"
   style="overflow:visible"
   id="use131" />
			</clipPath><clipPath
       id="SVGID_24_">
					<use
   xlink:href="#SVGID_23_"
   style="overflow:visible"
   id="use137" />
				</clipPath><clipPath
       id="SVGID_26_">
							<use
   xlink:href="#SVGID_25_"
   style="overflow:visible"
   id="use143" />
						</clipPath><linearGradient
       id="SVGID_29_"
       gradientUnits="userSpaceOnUse"
       x1="52.517601"
       y1="769.31219"
       x2="56.3857"
       y2="769.31219"
       gradientTransform="matrix(15.619,-11.274,-13.7309,1.6075,10125.406,-301.0688)">
								<stop
   offset="0"
   style="stop-color:#FFFFFF"
   id="stop152" />
								<stop
   offset="1"
   style="stop-color:#005586"
   id="stop154" />
							</linearGradient><clipPath
       id="SVGID_28_">
								<use
   xlink:href="#SVGID_27_"
   style="overflow:visible"
   id="use149" />
							</clipPath><clipPath
       id="SVGID_31_">
							<use
   xlink:href="#SVGID_30_"
   style="overflow:visible"
   id="use168" />
						</clipPath><radialGradient
       id="SVGID_34_"
       cx="38.382401"
       cy="692.93042"
       r="3.8680999"
       gradientTransform="matrix(-29.9981,0.0497261,-14.8219,10.0854,11832.912,-6649.1318)"
       gradientUnits="userSpaceOnUse">
								<stop
   offset="0"
   style="stop-color:#FFFFFF"
   id="stop177" />
								<stop
   offset="1"
   style="stop-color:#005586"
   id="stop179" />
							</radialGradient><clipPath
       id="SVGID_33_">
								<use
   xlink:href="#SVGID_32_"
   style="overflow:visible"
   id="use174" />
							</clipPath><linearGradient
       id="SVGID_37_"
       gradientUnits="userSpaceOnUse"
       x1="6.6768999"
       y1="708.29468"
       x2="10.545"
       y2="708.29468"
       gradientTransform="matrix(0,23.018,23.018,0,-16155.381,168.1103)">
		<stop
   offset="0"
   style="stop-color:#FFFFFF"
   id="stop218" />
		<stop
   offset="1"
   style="stop-color:#005586"
   id="stop220" />
	</linearGradient><clipPath
       id="SVGID_36_">
		<use
   xlink:href="#SVGID_35_"
   style="overflow:visible"
   id="use215" />
	</clipPath><linearGradient
       id="SVGID_40_"
       gradientUnits="userSpaceOnUse"
       x1="6.6768999"
       y1="710.60687"
       x2="10.5451"
       y2="710.60687"
       gradientTransform="matrix(0,23.0182,23.0182,0,-16136.998,168.105)">
		<stop
   offset="0"
   style="stop-color:#FFFFFF"
   id="stop233" />
		<stop
   offset="1"
   style="stop-color:#005586"
   id="stop235" />
	</linearGradient><clipPath
       id="SVGID_39_">
		<use
   xlink:href="#SVGID_38_"
   style="overflow:visible"
   id="use230" />
	</clipPath><linearGradient
       id="SVGID_43_"
       gradientUnits="userSpaceOnUse"
       x1="6.6768999"
       y1="712.33392"
       x2="10.5451"
       y2="712.33392"
       gradientTransform="matrix(0,23.018,23.018,0,-16123.027,168.1086)">
		<stop
   offset="0"
   style="stop-color:#FFFFFF"
   id="stop248" />
		<stop
   offset="1"
   style="stop-color:#005586"
   id="stop250" />
	</linearGradient><clipPath
       id="SVGID_42_">
		<use
   xlink:href="#SVGID_41_"
   style="overflow:visible"
   id="use245" />
	</clipPath><linearGradient
       id="SVGID_46_"
       gradientUnits="userSpaceOnUse"
       x1="6.6773"
       y1="714.05341"
       x2="10.5455"
       y2="714.05341"
       gradientTransform="matrix(0,23.0189,23.0189,0,-16109.873,168.09)">
		<stop
   offset="0"
   style="stop-color:#FFFFFF"
   id="stop263" />
		<stop
   offset="1"
   style="stop-color:#005586"
   id="stop265" />
	</linearGradient><clipPath
       id="SVGID_45_">
		<use
   xlink:href="#SVGID_44_"
   style="overflow:visible"
   id="use260" />
	</clipPath><linearGradient
       id="SVGID_49_"
       gradientUnits="userSpaceOnUse"
       x1="6.6771002"
       y1="706.60889"
       x2="10.5453"
       y2="706.60889"
       gradientTransform="matrix(0,23.0185,23.0185,0,-16169.302,168.099)">
		<stop
   offset="0"
   style="stop-color:#FFFFFF"
   id="stop278" />
		<stop
   offset="1"
   style="stop-color:#005586"
   id="stop280" />
	</linearGradient><clipPath
       id="SVGID_48_">
		<use
   xlink:href="#SVGID_47_"
   style="overflow:visible"
   id="use275" />
	</clipPath><linearGradient
       id="SVGID_52_"
       gradientUnits="userSpaceOnUse"
       x1="6.6773"
       y1="704.573"
       x2="10.5455"
       y2="704.573"
       gradientTransform="matrix(0,23.0189,23.0189,0,-16185.951,168.0902)">
		<stop
   offset="0"
   style="stop-color:#FFFFFF"
   id="stop293" />
		<stop
   offset="1"
   style="stop-color:#005586"
   id="stop295" />
	</linearGradient><clipPath
       id="SVGID_51_">
		<use
   xlink:href="#SVGID_50_"
   style="overflow:visible"
   id="use290" />
	</clipPath><linearGradient
       id="SVGID_55_"
       gradientUnits="userSpaceOnUse"
       x1="6.6771002"
       y1="705.59772"
       x2="10.5453"
       y2="705.59772"
       gradientTransform="matrix(0,23.0185,23.0185,0,-16177.435,168.0985)">
		<stop
   offset="0"
   style="stop-color:#FFFFFF"
   id="stop308" />
		<stop
   offset="1"
   style="stop-color:#005586"
   id="stop310" />
	</linearGradient><clipPath
       id="SVGID_54_">
		<use
   xlink:href="#SVGID_53_"
   style="overflow:visible"
   id="use305" />
	</clipPath><linearGradient
       id="SVGID_58_"
       gradientUnits="userSpaceOnUse"
       x1="9.2256002"
       y1="717.68628"
       x2="13.0937"
       y2="717.68628"
       gradientTransform="matrix(0,30.8899,30.8899,0,-21775.387,1.5545)">
		<stop
   offset="0"
   style="stop-color:#FFFFFF"
   id="stop323" />
		<stop
   offset="1"
   style="stop-color:#231815"
   id="stop325" />
	</linearGradient><clipPath
       id="SVGID_57_">
		<use
   xlink:href="#SVGID_56_"
   style="overflow:visible"
   id="use320" />
	</clipPath><linearGradient
       id="SVGID_61_"
       gradientUnits="userSpaceOnUse"
       x1="9.0320997"
       y1="719.37097"
       x2="12.9002"
       y2="719.37097"
       gradientTransform="matrix(0,30.1376,30.1376,0,-21213.385,17.3932)">
		<stop
   offset="0"
   style="stop-color:#FFFFFF"
   id="stop338" />
		<stop
   offset="1"
   style="stop-color:#231815"
   id="stop340" />
	</linearGradient><clipPath
       id="SVGID_60_">
		<use
   xlink:href="#SVGID_59_"
   style="overflow:visible"
   id="use335" />
	</clipPath><linearGradient
       id="SVGID_64_"
       gradientUnits="userSpaceOnUse"
       x1="9.0320997"
       y1="720.84198"
       x2="12.9002"
       y2="720.84198"
       gradientTransform="matrix(0,30.1376,30.1376,0,-21197.93,17.3932)">
		<stop
   offset="0"
   style="stop-color:#FFFFFF"
   id="stop353" />
		<stop
   offset="1"
   style="stop-color:#231815"
   id="stop355" />
	</linearGradient><clipPath
       id="SVGID_63_">
		<use
   xlink:href="#SVGID_62_"
   style="overflow:visible"
   id="use350" />
	</clipPath><linearGradient
       id="SVGID_67_"
       gradientUnits="userSpaceOnUse"
       x1="9.0320997"
       y1="722.31091"
       x2="12.9002"
       y2="722.31091"
       gradientTransform="matrix(0,30.1376,30.1376,0,-21182.496,17.3932)">
		<stop
   offset="0"
   style="stop-color:#FFFFFF"
   id="stop368" />
		<stop
   offset="1"
   style="stop-color:#231815"
   id="stop370" />
	</linearGradient><clipPath
       id="SVGID_66_">
		<use
   xlink:href="#SVGID_65_"
   style="overflow:visible"
   id="use365" />
	</clipPath></defs><g
     inkscape:label="Ebene 1"
     inkscape:groupmode="layer"
     id="layer1"
     transform="translate(285.55555,-43.830359)"><g
       id="g646"
       transform="matrix(0.26458333,0,0,0.26458333,-290.8472,-15.753807)"><g
         id="g26">
	<path
   class="st0"
   d="m 373,394.4 c 2.4,4.6 9.7,11.7 19.2,11.7 8.5,0 16.4,-5.2 16.4,-15.2 0,-21 -40,-8.6 -40,-37.3 0,-14.7 10.2,-25.6 28.1,-25.6 8.3,0 13.6,3 18.8,4.7 -1.8,3.2 -3.7,9.5 -4.1,12 h -2 c -1.7,-5.4 -7.3,-10.5 -14.9,-10.5 -6.6,0 -14.4,4.2 -14.4,14.2 0,22 40,8.5 40,37.1 0,12.9 -11.7,26.8 -30.5,26.8 -10.3,0 -17.1,-2.9 -21.9,-5.6 1.4,-2.9 3.2,-9 3.2,-12.3 z"
   id="path18"
   style="fill:#161519" />
	<path
   class="st0"
   d="m 466.8,328 c 19.6,0 41.2,11.3 41.2,42.2 0,30.8 -21.5,42.2 -41.2,42.2 -19.7,0 -41.2,-11.3 -41.2,-42.2 0,-30.9 21.5,-42.2 41.2,-42.2 m 0,78.9 c 20,0 26.2,-17.8 26.2,-36.8 0,-19 -6.3,-36.7 -26.2,-36.7 -20,0 -26.3,17.8 -26.3,36.7 0,19 6.3,36.8 26.3,36.8"
   id="path20"
   style="fill:#161519" />
	<path
   class="st0"
   d="m 554.4,296.5 c -2.7,-1.7 -5.9,-2.5 -9.3,-2.5 -10,0 -13.9,8.1 -13.9,16.9 0,4.1 1,12.9 2,19.8 5.8,0 11.7,-0.2 17.5,-0.2 -0.2,1.2 -0.4,2.4 -0.4,3.4 0,1.2 0.2,2.4 0.4,3.4 -5.8,-0.2 -11.7,-0.5 -17.5,-0.5 0,24.5 0,48.9 0.7,73.8 -2.4,-0.5 -4.9,-0.8 -7.3,-0.8 -2.4,0 -4.9,0.3 -7.4,0.8 1.5,-24.9 1.5,-49.1 1.5,-73.8 -4.1,0 -8.1,0.3 -12.2,0.5 0.2,-1 0.3,-2.2 0.3,-3.4 0,-1 -0.2,-2.2 -0.3,-3.4 4.1,0 8.3,0.2 12.2,0.2 0,-13.2 5.8,-32 14.7,-41 4.1,-4.1 10.8,-7.8 17.3,-7.8 1,0 2.4,0.2 3.4,0.5 -0.2,4.6 -0.7,9.2 -0.7,13.5 z"
   id="path22"
   style="fill:#161519" />
	<path
   class="st0"
   d="m 583.5,307 h 0.9 c -0.7,8.5 -1,16.8 -1.4,25.1 2.4,0 10.2,-0.2 18,-0.5 -0.2,1.2 -0.2,2.4 -0.2,3.5 0,1.2 0,2.4 0.2,3.6 -5.9,-0.3 -13.9,-0.3 -18,-0.3 -0.3,1.7 -1.2,28.3 -1.2,43 0,12.7 0.3,25.6 13.7,25.6 1.9,0 5.4,-0.5 7.6,-1.2 v 4.1 c -3.9,1.4 -8.8,2.6 -13.1,2.6 -14.1,0 -20.8,-8 -20.8,-21.2 0,-12.4 1,-27.6 1.2,-52.8 -3.4,0 -7.1,0 -11.5,0.3 0.2,-1.3 0.4,-2.5 0.4,-3.9 0,-1.2 -0.2,-2.2 -0.4,-3.4 5.1,0.4 8.8,0.5 11.2,0.5 -0.2,-4.4 -0.3,-11.7 -0.7,-19 z"
   id="path24"
   style="fill:#161519" />
</g><g
         id="g41">
	<defs
   id="defs29" />
	<clipPath
   id="clipPath2026">
		<use
   xlink:href="#SVGID_1_"
   style="overflow:visible"
   id="use2024" />
	</clipPath>
	
		<linearGradient
   id="linearGradient2032"
   gradientUnits="userSpaceOnUse"
   x1="-4.2094002"
   y1="729.04651"
   x2="-0.34130001"
   y2="729.04651"
   gradientTransform="matrix(0.6039,15.9509,-15.9509,0.6039,12034.003,-152.8119)">
		<stop
   offset="0"
   style="stop-color:#FFFFFF"
   id="stop2028" />
		<stop
   offset="1"
   style="stop-color:#005586"
   id="stop2030" />
	</linearGradient>
	<polygon
   class="st1"
   points="515.4,216 289.6,224.6 292.6,302.1 518.4,293.6 "
   clip-path="url(#SVGID_2_)"
   id="polygon39"
   style="fill:url(#SVGID_3_)" />
</g><g
         id="g56">
	<defs
   id="defs44" />
	<clipPath
   id="clipPath2040">
		<use
   xlink:href="#SVGID_4_"
   style="overflow:visible"
   id="use2038" />
	</clipPath>
	
		<radialGradient
   id="radialGradient2046"
   cx="19.560699"
   cy="737.60608"
   r="3.8680999"
   gradientTransform="matrix(-26.2658,6.6952,-6.6952,-26.2658,5900.418,19421.447)"
   gradientUnits="userSpaceOnUse">
		<stop
   offset="0"
   style="stop-color:#FFFFFF"
   id="stop2042" />
		<stop
   offset="1"
   style="stop-color:#005586"
   id="stop2044" />
	</radialGradient>
	<polygon
   class="st2"
   points="509.1,292.4 485.4,199.3 348.2,234.2 372,327.3 "
   clip-path="url(#SVGID_5_)"
   id="polygon54"
   style="fill:url(#SVGID_6_)" />
</g><g
         id="g196">
	<g
   class="st3"
   id="g126"
   style="opacity:0.75">
		<g
   id="g124">
			<defs
   id="defs59" />
			<clipPath
   id="clipPath2054">
				<use
   xlink:href="#SVGID_7_"
   style="overflow:visible"
   id="use2052" />
			</clipPath>
			<g
   class="st4"
   clip-path="url(#SVGID_8_)"
   id="g122">
				<defs
   id="defs65" />
				<clipPath
   id="clipPath2060">
					<use
   xlink:href="#SVGID_9_"
   style="overflow:visible"
   id="use2058" />
				</clipPath>
				<g
   class="st5"
   clip-path="url(#SVGID_10_)"
   id="g93"
   style="opacity:0.2">
					<g
   id="g91">
						<defs
   id="defs71" />
						<clipPath
   id="clipPath2066">
							<use
   xlink:href="#SVGID_11_"
   style="overflow:visible"
   id="use2064" />
						</clipPath>
						<g
   class="st6"
   clip-path="url(#SVGID_12_)"
   id="g89">
							<defs
   id="defs77" />
							<clipPath
   id="clipPath2072">
								<use
   xlink:href="#SVGID_13_"
   style="overflow:visible"
   id="use2070" />
							</clipPath>
							
								<linearGradient
   id="linearGradient2078"
   gradientUnits="userSpaceOnUse"
   x1="38.0938"
   y1="665.80603"
   x2="41.961899"
   y2="665.80603"
   gradientTransform="matrix(-27.1903,-10.6095,-7.5386,1.7592,6536.3555,-423.9582)">
								<stop
   offset="0"
   style="stop-color:#FFFFFF"
   id="stop2074" />
								<stop
   offset="1"
   style="stop-color:#005586"
   id="stop2076" />
							</linearGradient>
							<polygon
   class="st7"
   points="531,313 372,350.1 267.1,309.2 426.2,272.1 "
   clip-path="url(#SVGID_14_)"
   id="polygon87"
   style="fill:url(#SVGID_15_)" />
						</g>
					</g>
				</g>
				<g
   class="st5"
   clip-path="url(#SVGID_10_)"
   id="g120"
   style="opacity:0.2">
					<g
   id="g118">
						<defs
   id="defs96" />
						<clipPath
   id="clipPath2088">
							<use
   xlink:href="#SVGID_16_"
   style="overflow:visible"
   id="use2086" />
						</clipPath>
						<g
   class="st8"
   clip-path="url(#SVGID_17_)"
   id="g116">
							<defs
   id="defs102" />
							<clipPath
   id="clipPath2094">
								<use
   xlink:href="#SVGID_18_"
   style="overflow:visible"
   id="use2092" />
							</clipPath>
							
								<radialGradient
   id="radialGradient2102"
   cx="0.26030001"
   cy="692.97913"
   r="3.8680999"
   gradientTransform="matrix(-29.8147,0.7182,22.2312,9.5952,-14900.823,-6308.7266)"
   gradientUnits="userSpaceOnUse">
								<stop
   offset="0"
   style="stop-color:#FFFFFF"
   id="stop2096" />
								<stop
   offset="5.615230e-003"
   style="stop-color:#FFFFFF"
   id="stop2098" />
								<stop
   offset="1"
   style="stop-color:#005586"
   id="stop2100" />
							</radialGradient>
							<polygon
   class="st9"
   points="478.8,300.4 516.9,316.9 355.8,320.8 317.7,304.3 "
   clip-path="url(#SVGID_19_)"
   id="polygon114"
   style="fill:url(#SVGID_20_)" />
						</g>
					</g>
				</g>
			</g>
		</g>
	</g>
	<g
   class="st3"
   id="g194"
   style="opacity:0.75">
		<g
   id="g192">
			<defs
   id="defs129" />
			<clipPath
   id="clipPath2115">
				<use
   xlink:href="#SVGID_21_"
   style="overflow:visible"
   id="use2113" />
			</clipPath>
			<g
   class="st10"
   clip-path="url(#SVGID_22_)"
   id="g190">
				<defs
   id="defs135" />
				<clipPath
   id="clipPath2121">
					<use
   xlink:href="#SVGID_23_"
   style="overflow:visible"
   id="use2119" />
				</clipPath>
				<g
   class="st11"
   clip-path="url(#SVGID_24_)"
   id="g163"
   style="opacity:0.2">
					<g
   id="g161">
						<defs
   id="defs141" />
						<clipPath
   id="clipPath2127">
							<use
   xlink:href="#SVGID_25_"
   style="overflow:visible"
   id="use2125" />
						</clipPath>
						<g
   class="st12"
   clip-path="url(#SVGID_26_)"
   id="g159">
							<defs
   id="defs147" />
							<clipPath
   id="clipPath2133">
								<use
   xlink:href="#SVGID_27_"
   style="overflow:visible"
   id="use2131" />
							</clipPath>
							
								<linearGradient
   id="linearGradient2139"
   gradientUnits="userSpaceOnUse"
   x1="52.517601"
   y1="769.31219"
   x2="56.3857"
   y2="769.31219"
   gradientTransform="matrix(15.619,-11.274,-13.7309,1.6075,10125.406,-301.0688)">
								<stop
   offset="0"
   style="stop-color:#FFFFFF"
   id="stop2135" />
								<stop
   offset="1"
   style="stop-color:#005586"
   id="stop2137" />
							</linearGradient>
							<polygon
   class="st13"
   points="529,317.5 264.9,348.4 329.9,301.6 593.9,270.6 "
   clip-path="url(#SVGID_28_)"
   id="polygon157"
   style="fill:url(#SVGID_29_)" />
						</g>
					</g>
				</g>
				<g
   class="st11"
   clip-path="url(#SVGID_24_)"
   id="g188"
   style="opacity:0.2">
					<g
   id="g186">
						<defs
   id="defs166" />
						<clipPath
   id="clipPath2149">
							<use
   xlink:href="#SVGID_30_"
   style="overflow:visible"
   id="use2147" />
						</clipPath>
						<g
   class="st14"
   clip-path="url(#SVGID_31_)"
   id="g184">
							<defs
   id="defs172" />
							<clipPath
   id="clipPath2155">
								<use
   xlink:href="#SVGID_32_"
   style="overflow:visible"
   id="use2153" />
							</clipPath>
							
								<radialGradient
   id="radialGradient2161"
   cx="38.382401"
   cy="692.93042"
   r="3.8680999"
   gradientTransform="matrix(-29.9981,0.0497261,-14.8219,10.0854,11832.912,-6649.1318)"
   gradientUnits="userSpaceOnUse">
								<stop
   offset="0"
   style="stop-color:#FFFFFF"
   id="stop2157" />
								<stop
   offset="1"
   style="stop-color:#005586"
   id="stop2159" />
							</radialGradient>
							<polygon
   class="st15"
   points="528.9,301.4 507.1,316.2 367.7,316.5 389.5,301.6 "
   clip-path="url(#SVGID_33_)"
   id="polygon182"
   style="fill:url(#SVGID_34_)" />
						</g>
					</g>
				</g>
			</g>
		</g>
	</g>
</g><path
         class="st0"
         d="m 610.7,332.2 v 0.8 h 1.4 v 4.7 h 0.8 V 333 h 1.4 v -0.8 z m 8.2,0 -1.3,3.8 v 0 l -1.3,-3.8 h -1.2 v 5.4 h 0.7 v -4.6 0 l 1.5,4.7 h 0.4 l 1.5,-4.7 v 0 4.7 h 0.7 v -5.4 h -1 z"
         id="path198"
         style="fill:#161519" /><g
         id="g210">
	<path
   class="st16"
   d="m 177.3,342.5 c -0.9,-4.2 -3.7,-7.8 -8.3,-10.7 -4.6,-2.9 -11.6,-4.4 -20.9,-4.4 -7.7,0 -14,1.3 -18.8,3.9 -4.8,2.6 -8,5.6 -9.5,8.9 -1.6,3.4 -2.4,8.3 -2.4,14.6 v 4.8 h 24.4 v -8 c 0,-4.8 0.2,-7.7 0.7,-8.9 0.4,-1 1.5,-2.2 4.3,-2.2 2,0 3.5,0.8 4.3,2.4 0.8,1.4 1.2,4.3 1.2,8.8 0,3.6 -0.4,6 -1.1,7.3 -0.5,0.9 -2.7,2.5 -15.1,7 -8.4,3 -13.7,5.6 -15.7,7.7 -2,2.1 -3,6.3 -3,12.3 v 6.9 c 0,8.2 1.9,13.5 5.7,15.8 3.9,2.4 8.3,3.6 13,3.6 3.6,0 6.6,-0.7 9.2,-2.1 2.6,-1.4 4.7,-3.6 6.3,-6.5 l 1.6,0.3 v 6.7 h 25.5 v -41.2 c 0.1,-13.5 -0.4,-22.6 -1.4,-27 m -24.9,46.6 c 0,5.8 -0.5,7.4 -0.9,8.2 -0.7,1.3 -2.1,1.9 -4.2,1.9 -2.7,0 -3.9,-1.3 -4.5,-2.4 -0.7,-1.4 -1,-4.2 -1,-8.7 0,-3.9 0.4,-6.8 1.1,-9 0.8,-2.2 3.4,-4.8 8.1,-7.9 l 1.3,-0.9 v 18.8 z"
   id="path200"
   style="fill:#005586" />
	<path
   class="st16"
   d="m 250,337.3 c -0.7,-2.6 -2.6,-4.9 -5.6,-6.9 -3,-2 -6.6,-3 -10.7,-3 -3.4,0 -6.5,0.7 -9.4,2.1 -2.9,1.4 -5.5,3.6 -7.9,6.5 l -1.7,2 0.2,-2.5 0.4,-6.6 h -26.7 v 94 h 26.3 v -20.7 l 1.5,1.8 c 2.4,2.8 5,5 7.8,6.4 2.8,1.4 5.9,2.1 9.2,2.1 4.1,0 7.7,-0.9 10.6,-2.7 2.9,-1.8 4.8,-4.2 5.7,-7.3 1,-3.1 1.5,-8.5 1.5,-16 v -35.2 c 0,-6.6 -0.4,-11.3 -1.2,-14 m -25.1,51 c 0,4.6 -0.2,7.4 -0.7,8.7 -0.4,1 -1.4,2.3 -4.1,2.3 -2.7,0 -3.8,-1.3 -4.3,-2.4 -0.6,-1.4 -0.9,-4.5 -0.9,-9.7 v -34.7 c 0,-5 0.3,-8.1 0.8,-9.4 0.4,-1.1 1.5,-2.4 4.3,-2.4 2.8,0 3.8,1.2 4.2,2.2 0.4,1.2 0.6,4.3 0.6,9.6 v 35.8 z"
   id="path202"
   style="fill:#005586" />
	<rect
   x="259.89999"
   y="310.39999"
   class="st16"
   width="27.200001"
   height="100.5"
   id="rect204"
   style="fill:#005586" />
	<path
   class="st16"
   d="m 358,370.6 v -10.3 c 0,-8 -1,-14.2 -3,-18.6 -2,-4.3 -5.4,-7.8 -10.3,-10.4 -4.9,-2.6 -11.3,-4 -18.9,-4 -6.2,0 -11.8,1.1 -16.6,3.3 -4.7,2.2 -8.2,5.3 -10.2,9.3 -2.1,4.1 -3.2,9.8 -3.2,17 v 24.4 c 0,6.1 0.5,10.8 1.4,14 0.9,3.1 2.6,6.1 5,8.7 2.4,2.6 5.8,4.7 10.2,6.2 4.4,1.5 9.5,2.3 15.3,2.3 5.9,0 10.9,-0.8 14.8,-2.3 3.9,-1.5 7.1,-3.8 9.6,-6.9 2.5,-3.1 4.2,-6 4.9,-8.6 0.7,-2.7 1.1,-6.7 1.1,-11.8 v -5.4 h -24.8 v 10.3 c 0,4.3 -0.4,7.2 -1.1,8.8 -0.6,1.2 -1.9,2.6 -4.9,2.6 -2.5,0 -3.6,-1.1 -4.1,-2.1 -0.7,-1.2 -1,-3.7 -1,-7.7 V 370.5 H 358 Z m -36,-19 c 0,-6.4 0.4,-8.2 0.7,-8.9 0.4,-1 1.5,-2.1 4.3,-2.1 1.9,0 3.2,0.8 3.8,2.4 0.5,1.4 0.8,4.2 0.8,8.6 v 6.9 H 322 Z"
   id="path206"
   style="fill:#005586" />
	<path
   class="st16"
   d="M 108.3,310.4 V 411 h -25 L 83.2,343.1 73.2,411 H 55.6 L 45.1,344.5 V 411 H 20 V 310.4 h 37 c 1.1,6.1 2.2,13.2 3.4,21.4 l 4.1,25.5 6.6,-47 h 37.2 z"
   id="path208"
   style="fill:#005586" />
</g><g
         id="g225">
	<defs
   id="defs213" />
	<clipPath
   id="clipPath2182">
		<use
   xlink:href="#SVGID_35_"
   style="overflow:visible"
   id="use2180" />
	</clipPath>
	
		<linearGradient
   id="linearGradient2188"
   gradientUnits="userSpaceOnUse"
   x1="6.6768999"
   y1="708.29468"
   x2="10.545"
   y2="708.29468"
   gradientTransform="matrix(0,23.018,23.018,0,-16155.381,168.1103)">
		<stop
   offset="0"
   style="stop-color:#FFFFFF"
   id="stop2184" />
		<stop
   offset="1"
   style="stop-color:#005586"
   id="stop2186" />
	</linearGradient>
	<rect
   x="117.5"
   y="366.70001"
   class="st17"
   width="61.299999"
   height="45.799999"
   clip-path="url(#SVGID_36_)"
   id="rect223"
   style="fill:url(#SVGID_37_)" />
</g><g
         id="g240">
	<defs
   id="defs228" />
	<clipPath
   id="clipPath2196">
		<use
   xlink:href="#SVGID_38_"
   style="overflow:visible"
   id="use2194" />
	</clipPath>
	
		<linearGradient
   id="linearGradient2202"
   gradientUnits="userSpaceOnUse"
   x1="6.6768999"
   y1="710.60687"
   x2="10.5451"
   y2="710.60687"
   gradientTransform="matrix(0,23.0182,23.0182,0,-16136.998,168.105)">
		<stop
   offset="0"
   style="stop-color:#FFFFFF"
   id="stop2198" />
		<stop
   offset="1"
   style="stop-color:#005586"
   id="stop2200" />
	</linearGradient>
	<rect
   x="188.60001"
   y="364"
   class="st18"
   width="62.5"
   height="58.799999"
   clip-path="url(#SVGID_39_)"
   id="rect238"
   style="fill:url(#SVGID_40_)" />
</g><g
         id="g255">
	<defs
   id="defs243" />
	<clipPath
   id="clipPath2210">
		<use
   xlink:href="#SVGID_41_"
   style="overflow:visible"
   id="use2208" />
	</clipPath>
	
		<linearGradient
   id="linearGradient2216"
   gradientUnits="userSpaceOnUse"
   x1="6.6768999"
   y1="712.33392"
   x2="10.5451"
   y2="712.33392"
   gradientTransform="matrix(0,23.018,23.018,0,-16123.027,168.1086)">
		<stop
   offset="0"
   style="stop-color:#FFFFFF"
   id="stop2212" />
		<stop
   offset="1"
   style="stop-color:#005586"
   id="stop2214" />
	</linearGradient>
	<rect
   x="259.89999"
   y="363.20001"
   class="st19"
   width="27.200001"
   height="47.700001"
   clip-path="url(#SVGID_42_)"
   id="rect253"
   style="fill:url(#SVGID_43_)" />
</g><g
         id="g270">
	<defs
   id="defs258" />
	<clipPath
   id="clipPath2224">
		<use
   xlink:href="#SVGID_44_"
   style="overflow:visible"
   id="use2222" />
	</clipPath>
	
		<linearGradient
   id="linearGradient2230"
   gradientUnits="userSpaceOnUse"
   x1="6.6773"
   y1="714.05341"
   x2="10.5455"
   y2="714.05341"
   gradientTransform="matrix(0,23.0189,23.0189,0,-16109.873,168.09)">
		<stop
   offset="0"
   style="stop-color:#FFFFFF"
   id="stop2226" />
		<stop
   offset="1"
   style="stop-color:#005586"
   id="stop2228" />
	</linearGradient>
	<rect
   x="295.70001"
   y="362.70001"
   class="st20"
   width="62.299999"
   height="49.799999"
   clip-path="url(#SVGID_45_)"
   id="rect268"
   style="fill:url(#SVGID_46_)" />
</g><g
         id="g285">
	<defs
   id="defs273" />
	<clipPath
   id="clipPath2238">
		<use
   xlink:href="#SVGID_47_"
   style="overflow:visible"
   id="use2236" />
	</clipPath>
	
		<linearGradient
   id="linearGradient2244"
   gradientUnits="userSpaceOnUse"
   x1="6.6771002"
   y1="706.60889"
   x2="10.5453"
   y2="706.60889"
   gradientTransform="matrix(0,23.0185,23.0185,0,-16169.302,168.099)">
		<stop
   offset="0"
   style="stop-color:#FFFFFF"
   id="stop2240" />
		<stop
   offset="1"
   style="stop-color:#005586"
   id="stop2242" />
	</linearGradient>
	<rect
   x="83.199997"
   y="370.70001"
   class="st21"
   width="25.1"
   height="40.299999"
   clip-path="url(#SVGID_48_)"
   id="rect283"
   style="fill:url(#SVGID_49_)" />
</g><g
         id="g300">
	<defs
   id="defs288" />
	<clipPath
   id="clipPath2252">
		<use
   xlink:href="#SVGID_50_"
   style="overflow:visible"
   id="use2250" />
	</clipPath>
	
		<linearGradient
   id="linearGradient2258"
   gradientUnits="userSpaceOnUse"
   x1="6.6773"
   y1="704.573"
   x2="10.5455"
   y2="704.573"
   gradientTransform="matrix(0,23.0189,23.0189,0,-16185.951,168.0902)">
		<stop
   offset="0"
   style="stop-color:#FFFFFF"
   id="stop2254" />
		<stop
   offset="1"
   style="stop-color:#005586"
   id="stop2256" />
	</linearGradient>
	<rect
   x="20"
   y="375.29999"
   class="st22"
   width="25.1"
   height="35.700001"
   clip-path="url(#SVGID_51_)"
   id="rect298"
   style="fill:url(#SVGID_52_)" />
</g><g
         id="g315">
	<defs
   id="defs303" />
	<clipPath
   id="clipPath2266">
		<use
   xlink:href="#SVGID_53_"
   style="overflow:visible"
   id="use2264" />
	</clipPath>
	
		<linearGradient
   id="linearGradient2272"
   gradientUnits="userSpaceOnUse"
   x1="6.6771002"
   y1="705.59772"
   x2="10.5453"
   y2="705.59772"
   gradientTransform="matrix(0,23.0185,23.0185,0,-16177.435,168.0985)">
		<stop
   offset="0"
   style="stop-color:#FFFFFF"
   id="stop2268" />
		<stop
   offset="1"
   style="stop-color:#005586"
   id="stop2270" />
	</linearGradient>
	<rect
   x="49.900002"
   y="372.70001"
   class="st23"
   width="28.9"
   height="38.299999"
   clip-path="url(#SVGID_54_)"
   id="rect313"
   style="fill:url(#SVGID_55_)" />
</g><g
         id="g330">
	<defs
   id="defs318" />
	<clipPath
   id="clipPath2280">
		<use
   xlink:href="#SVGID_56_"
   style="overflow:visible"
   id="use2278" />
	</clipPath>
	
		<linearGradient
   id="linearGradient2286"
   gradientUnits="userSpaceOnUse"
   x1="9.2256002"
   y1="717.68628"
   x2="13.0937"
   y2="717.68628"
   gradientTransform="matrix(0,30.8899,30.8899,0,-21775.387,1.5545)">
		<stop
   offset="0"
   style="stop-color:#FFFFFF"
   id="stop2282" />
		<stop
   offset="1"
   style="stop-color:#231815"
   id="stop2284" />
	</linearGradient>
	<rect
   x="367.70001"
   y="363.10001"
   class="st24"
   width="52.299999"
   height="49.299999"
   clip-path="url(#SVGID_57_)"
   id="rect328"
   style="fill:url(#SVGID_58_)" />
</g><g
         id="g345">
	<defs
   id="defs333" />
	<clipPath
   id="clipPath2294">
		<use
   xlink:href="#SVGID_59_"
   style="overflow:visible"
   id="use2292" />
	</clipPath>
	
		<linearGradient
   id="linearGradient2300"
   gradientUnits="userSpaceOnUse"
   x1="9.0320997"
   y1="719.37097"
   x2="12.9002"
   y2="719.37097"
   gradientTransform="matrix(0,30.1376,30.1376,0,-21213.385,17.3932)">
		<stop
   offset="0"
   style="stop-color:#FFFFFF"
   id="stop2296" />
		<stop
   offset="1"
   style="stop-color:#231815"
   id="stop2298" />
	</linearGradient>
	<rect
   x="425.60001"
   y="366.10001"
   class="st25"
   width="82.300003"
   height="46.299999"
   clip-path="url(#SVGID_60_)"
   id="rect343"
   style="fill:url(#SVGID_61_)" />
</g><g
         id="g360">
	<defs
   id="defs348" />
	<clipPath
   id="clipPath2308">
		<use
   xlink:href="#SVGID_62_"
   style="overflow:visible"
   id="use2306" />
	</clipPath>
	
		<linearGradient
   id="linearGradient2314"
   gradientUnits="userSpaceOnUse"
   x1="9.0320997"
   y1="720.84198"
   x2="12.9002"
   y2="720.84198"
   gradientTransform="matrix(0,30.1376,30.1376,0,-21197.93,17.3932)">
		<stop
   offset="0"
   style="stop-color:#FFFFFF"
   id="stop2310" />
		<stop
   offset="1"
   style="stop-color:#231815"
   id="stop2312" />
	</linearGradient>
	<rect
   x="519.09998"
   y="372.5"
   class="st26"
   width="14.7"
   height="38.200001"
   clip-path="url(#SVGID_63_)"
   id="rect358"
   style="fill:url(#SVGID_64_)" />
</g><g
         id="g375">
	<defs
   id="defs363" />
	<clipPath
   id="clipPath2322">
		<use
   xlink:href="#SVGID_65_"
   style="overflow:visible"
   id="use2320" />
	</clipPath>
	
		<linearGradient
   id="linearGradient2328"
   gradientUnits="userSpaceOnUse"
   x1="9.0320997"
   y1="722.31091"
   x2="12.9002"
   y2="722.31091"
   gradientTransform="matrix(0,30.1376,30.1376,0,-21182.496,17.3932)">
		<stop
   offset="0"
   style="stop-color:#FFFFFF"
   id="stop2324" />
		<stop
   offset="1"
   style="stop-color:#231815"
   id="stop2326" />
	</linearGradient>
	<rect
   x="569.29999"
   y="377.79999"
   class="st27"
   width="33.900002"
   height="34.599998"
   clip-path="url(#SVGID_66_)"
   id="rect373"
   style="fill:url(#SVGID_67_)" />
</g></g></g><style
     type="text/css"
     id="style16">
	.st0{fill:#161519;}
	.st1{clip-path:url(#SVGID_2_);fill:url(#SVGID_3_);}
	.st2{clip-path:url(#SVGID_5_);fill:url(#SVGID_6_);}
	.st3{opacity:0.75;}
	.st4{clip-path:url(#SVGID_8_);}
	.st5{opacity:0.2;clip-path:url(#SVGID_10_);}
	.st6{clip-path:url(#SVGID_12_);}
	.st7{clip-path:url(#SVGID_14_);fill:url(#SVGID_15_);}
	.st8{clip-path:url(#SVGID_17_);}
	.st9{clip-path:url(#SVGID_19_);fill:url(#SVGID_20_);}
	.st10{clip-path:url(#SVGID_22_);}
	.st11{opacity:0.2;clip-path:url(#SVGID_24_);}
	.st12{clip-path:url(#SVGID_26_);}
	.st13{clip-path:url(#SVGID_28_);fill:url(#SVGID_29_);}
	.st14{clip-path:url(#SVGID_31_);}
	.st15{clip-path:url(#SVGID_33_);fill:url(#SVGID_34_);}
	.st16{fill:#005586;}
	.st17{clip-path:url(#SVGID_36_);fill:url(#SVGID_37_);}
	.st18{clip-path:url(#SVGID_39_);fill:url(#SVGID_40_);}
	.st19{clip-path:url(#SVGID_42_);fill:url(#SVGID_43_);}
	.st20{clip-path:url(#SVGID_45_);fill:url(#SVGID_46_);}
	.st21{clip-path:url(#SVGID_48_);fill:url(#SVGID_49_);}
	.st22{clip-path:url(#SVGID_51_);fill:url(#SVGID_52_);}
	.st23{clip-path:url(#SVGID_54_);fill:url(#SVGID_55_);}
	.st24{clip-path:url(#SVGID_57_);fill:url(#SVGID_58_);}
	.st25{clip-path:url(#SVGID_60_);fill:url(#SVGID_61_);}
	.st26{clip-path:url(#SVGID_63_);fill:url(#SVGID_64_);}
	.st27{clip-path:url(#SVGID_66_);fill:url(#SVGID_67_);}
</style></svg>
