<?xml version="1.0" encoding="utf-8"?>
<!-- Generator: Adobe Illustrator 22.1.0, SVG Export Plug-In . SVG Version: 6.00 Build 0)  -->
<svg version="1.1" id="Ebene_1" xmlns="http://www.w3.org/2000/svg" xmlns:xlink="http://www.w3.org/1999/xlink" x="0px" y="0px"
	 viewBox="0 0 396.9 113.4" style="enable-background:new 0 0 396.9 113.4;" xml:space="preserve">
<style type="text/css">
	.st0{display:none;fill:#FFFFFF;}
	.st1{fill:#164194;}
</style>
<polygon class="st0" points="-133,-68.2 528.1,-68.2 528.1,182.6 -133,182.6 "/>
<g>
	<path class="st1" d="M69.7,57.4H59.4l1.2-24.2c0.2-4.8,0.5-8.8,0.8-12.3h-0.2c-1.2,3.2-2.8,6.9-4.8,10.9L43.7,57.4h-9.5l-3-23.6
		c-0.5-4.2-0.9-9.1-0.8-12.8h-0.1c-1.1,4.5-2.3,8.5-3.8,13l-7.3,23.5h-10L26.5,6.5h11.2l3.4,26.2c0.5,3.6,0.7,7.1,0.7,10.7h0.2
		c1.5-3.9,2.8-6.8,4.8-10.6L60.2,6.5h11.2L69.7,57.4z"/>
	<path class="st1" d="M87.1,57.4h-9.5l7.5-39.2h9.5L87.1,57.4z"/>
	<path class="st1" d="M129.9,27.1c-2.1-0.8-4.7-1.3-6.8-1.3c-9.6,0-13.6,9.4-13.6,15.7c0,4.8,2.9,7.8,8.6,7.8c3.1,0,5.7-0.5,8.2-1.4
		l-1,8.6c-2.9,0.8-6.4,1.5-9.5,1.5c-11.5,0-16.7-5.7-16.7-14.6c0-13.1,8.2-25.9,24.8-25.9c3,0,6,0.3,8.4,1L129.9,27.1z"/>
	<path class="st1" d="M156.4,40.6c0.7,1.2,1.3,2.6,2.2,4.3l6.2,12.5h-11.2l-6.6-15.6h-0.4l-2.9,15.6h-9.5l7.5-39.2
		c3.1-0.2,9-0.2,13.7-0.2c9.2,0,13.2,3.9,13.2,9.6C168.4,35.6,161.9,39.8,156.4,40.6z M152.9,25.4c-1.4,0-2.3,0.1-3.2,0.2l-2,10
		c0.7,0.1,1.4,0.2,3,0.2c4.2,0,7.3-2.8,7.3-6.5C158.1,27,156.6,25.4,152.9,25.4z"/>
	<path class="st1" d="M189.2,58.1c-10.9,0-16.3-5.7-16.3-14.9c0-13.6,9.7-25.7,24.5-25.7c10.3,0,16.1,5.7,16.1,15.4
		C213.4,47.3,202.1,58.1,189.2,58.1z M195.7,26c-6.6,0-12.8,5.7-12.8,15.8c0,4.8,2.4,7.7,7.4,7.7c8.4,0,13.1-8.2,13.1-15.5
		C203.4,29.2,200.8,26,195.7,26z"/>
	<path class="st1" d="M257.4,57.4h-11.2L236.3,32c-1.4-3.8-2.6-7.7-3.5-11.1c-0.6,4.8-1.4,9.5-2.3,14.6l-4.2,22H217l9.7-50.9h11.4
		l9.5,24.1c1.6,4,2.8,8.2,3.8,12.1c0.6-4.7,1.5-10.3,2.4-15.1l3.8-21.1h9.4L257.4,57.4z"/>
	<path class="st1" d="M284.6,58.1c-10.9,0-16.3-5.7-16.3-14.9c0-13.6,9.7-25.7,24.5-25.7c10.3,0,16.1,5.7,16.1,15.4
		C308.9,47.3,297.5,58.1,284.6,58.1z M291.2,26c-6.6,0-12.8,5.7-12.8,15.8c0,4.8,2.4,7.7,7.4,7.7c8.4,0,13.1-8.2,13.1-15.5
		C298.8,29.2,296.3,26,291.2,26z"/>
	<path class="st1" d="M332.6,57.4h-11.2l-6.9-39.2h9.9l3.2,18.2c0.6,3.3,1,7,1.3,10.5h0.1c1.5-3.7,3.3-7.5,5-10.5l10-18.3h10.3
		L332.6,57.4z"/>
	<path class="st1" d="M375.4,57.4l-1.1-6.9h-14.9l-3.8,6.9h-9.9l21.7-39.2H379l6.7,39.2H375.4z M371.9,34.3
		c-0.3-1.8-0.5-3.8-0.6-5.7h-0.1c-1,2.1-1.9,3.9-2.9,5.7l-5.1,9.2h10.2L371.9,34.3z"/>
</g>
<g>
	<path d="M15.6,99.6c-1.9,0-3.8-0.2-5.3-0.6l0.2-3.4c1.5,0.5,3.6,1,5.4,1c3.2,0,5.8-1.3,5.8-4.5c0-6-11.9-3.6-11.9-12
		c0-4.3,3.4-7.5,9.4-7.5c1.6,0,3.2,0.2,4.8,0.5l-0.2,3.2c-1.5-0.4-3.2-0.7-4.8-0.7c-3.6,0-5.5,1.6-5.5,4.1c0,5.7,11.9,3.6,11.9,11.9
		C25.4,96.2,21.7,99.6,15.6,99.6z"/>
	<path d="M37.7,99.6c-5.3,0-8.7-3.1-8.7-9.9c0-5.7,3.6-10.3,9.5-10.3c5,0,8.8,2.7,8.8,9.8C47.3,95.1,43.5,99.6,37.7,99.6z
		 M38.2,82.4c-2.8,0-5.5,2.2-5.5,7c0,4.7,1.9,7.3,5.5,7.3c2.9,0,5.4-2.3,5.4-7.2C43.6,85,41.8,82.4,38.2,82.4z"/>
	<path d="M63.5,73.7c-0.9-0.3-1.9-0.4-2.9-0.4c-2.8,0-4,1.6-4,5v1.5H62v2.7h-5.4v16.7h-3.5V82.6h-4v-2.7h4v-1.4
		c0-5.4,2.6-7.9,7.5-7.9c1.1,0,2.2,0.1,3.2,0.4L63.5,73.7z"/>
	<path d="M71,99.6c-4,0-5.2-1.6-5.2-5.8V82.6h-4v-2.7h4v-6.3l3.5-1v7.3h5.4v2.7h-5.4v9.9c0,3.2,0.6,4.1,2.8,4.1
		c0.9,0,1.9-0.2,2.7-0.4v3C73.7,99.4,72.3,99.6,71,99.6z"/>
	<path d="M100.4,99.3h-4l-3.9-11.5c-0.4-1.2-0.7-2.5-1.1-3.9h0c-0.4,1.7-0.9,3.3-1.4,4.9l-3.3,10.5h-3.9l-6-19.5h3.9l3,10.4
		c0.5,1.8,1,3.6,1.4,5.1h0c0.4-1.7,0.8-3.4,1.3-5l3.3-10.5h3.8l3.4,10.3c0.8,2.4,1.1,3.7,1.5,5.2h0c0.4-1.6,0.7-3.1,1.3-5l3.1-10.5
		h3.7L100.4,99.3z"/>
	<path d="M120.4,99.3c0-1.4,0-2.8,0.2-3.9h-0.1c-0.9,2.4-3.4,4.2-6.6,4.2c-3.2,0-5.4-1.7-5.4-4.8c0-4.3,4.3-7,11.7-7v-1.4
		c0-2.7-1.1-4.2-4.3-4.2c-1.8,0-4.2,0.6-5.9,1.6l-0.4-3c1.9-0.8,4.2-1.4,6.8-1.4c5.6,0,7.2,2.6,7.2,6.5v10.6
		c0.9,0.2,2.3,0.3,3.4,0.4V99C125.1,99.2,122.4,99.4,120.4,99.3z M120.2,90.3c-6.8,0-8.3,2.1-8.3,3.8c0,1.6,1.2,2.7,3,2.7
		c3.2,0,5.3-3.1,5.3-6.2V90.3z"/>
	<path d="M135.1,84.4L135.1,84.4c0.9-2.7,2.9-5.4,6.8-5l-0.2,3.4c-4.1-0.7-6.1,2.3-6.1,8.5v7.8h-3.5V82.6c-0.9-0.2-2.3-0.3-3.4-0.4
		v-2.1c2-0.2,4.7-0.4,6.8-0.3C135.5,81,135.4,82.8,135.1,84.4z"/>
	<path d="M160.3,89.3h-12.7c-0.2,5.2,2,7.4,6.1,7.4c2,0,4.1-0.5,5.7-1.2l0.3,2.9c-1.9,0.8-4.2,1.2-6.6,1.2c-6,0-9.2-3.1-9.2-10
		c0-5.8,3.2-10.2,8.7-10.2c5.5,0,7.8,3.7,7.8,8.2C160.5,88.1,160.4,88.7,160.3,89.3z M152.5,82c-2.5,0-4.3,1.9-4.7,4.8h9.1
		C156.9,84,155.2,82,152.5,82z"/>
	<path d="M184.5,99.3c0-1.4,0-2.8,0.2-3.9h-0.1c-0.9,2.4-3.4,4.2-6.6,4.2s-5.4-1.7-5.4-4.8c0-4.3,4.3-7,11.7-7v-1.4
		c0-2.7-1.1-4.2-4.3-4.2c-1.8,0-4.2,0.6-5.9,1.6l-0.4-3c1.9-0.8,4.2-1.4,6.8-1.4c5.6,0,7.2,2.6,7.2,6.5v10.6
		c0.9,0.2,2.3,0.3,3.4,0.4V99C189.3,99.2,186.6,99.4,184.5,99.3z M184.3,90.3c-6.8,0-8.3,2.1-8.3,3.8c0,1.6,1.2,2.7,3,2.7
		c3.2,0,5.3-3.1,5.3-6.2V90.3z"/>
	<path d="M199.3,83.9L199.3,83.9c1.2-2.7,3.6-4.5,6.9-4.5c4.5,0,5.9,2.8,5.9,6.2v13.6h-3.5V86.7c0-2.7-0.7-4.3-3.3-4.3
		c-3.2,0-5.5,3.3-5.5,7.6v9.4h-3.5V82.6c-0.9-0.2-2.3-0.3-3.4-0.4v-2.1c2-0.2,4.7-0.4,6.8-0.3C199.7,80.9,199.6,82.8,199.3,83.9z"/>
	<path d="M230.5,99.3c0-1.1,0.1-2.8,0.3-4l-0.1,0c-1.1,2.6-3.5,4.3-6.5,4.3c-4.8,0-7.2-3.5-7.2-9.2c0-6.8,3.9-10.9,10.1-10.9
		c1.1,0,2.1,0.1,3.3,0.2v-6.3c-0.9-0.2-2.3-0.3-3.4-0.4V71c2-0.2,4.7-0.4,6.9-0.3v25.9c0.9,0.2,2.3,0.3,3.4,0.4V99
		C235.4,99.2,232.7,99.4,230.5,99.3z M230.4,82.8c-1.2-0.3-2.3-0.4-3.4-0.4c-3.7,0-6.2,2.2-6.2,7.8c0,4.2,1.4,6.6,4.3,6.6
		c3.5,0,5.3-4.1,5.3-7.5V82.8z"/>
	<path d="M254.3,99.6c-1.9,0-3.8-0.2-5.3-0.6l0.2-3.4c1.5,0.5,3.6,1,5.4,1c3.2,0,5.8-1.3,5.8-4.5c0-6-11.9-3.6-11.9-12
		c0-4.3,3.4-7.5,9.4-7.5c1.6,0,3.2,0.2,4.8,0.5l-0.2,3.2c-1.5-0.4-3.2-0.7-4.8-0.7c-3.6,0-5.5,1.6-5.5,4.1c0,5.7,11.9,3.6,11.9,11.9
		C264.2,96.2,260.5,99.6,254.3,99.6z"/>
	<path d="M275.9,101.2c-2.3,6-4.1,8-8.4,8c-0.7,0-1.8-0.1-2.5-0.2l0.3-3.2c0.8,0.3,1.6,0.4,2.5,0.4c2.2,0,3.3-1,4.7-4.7l0.8-2.2
		l-7.4-19.5h4l3.7,10.1c0.6,1.8,1.1,3.3,1.5,4.8h0.1c0.4-1.4,1.2-3.8,1.9-6l3.1-8.9h3.8L275.9,101.2z"/>
	<path d="M290.6,99.6c-1.4,0-2.9-0.1-4.1-0.4l0.1-3.1c1.2,0.4,2.8,0.7,4.3,0.7c2.6,0,4.3-1.2,4.3-3c0-4.3-9-1.7-9-8.5
		c0-3.3,2.7-5.8,7.8-5.8c1.2,0,2.5,0.2,3.7,0.4l-0.1,2.9c-1.2-0.4-2.6-0.6-3.9-0.6c-2.6,0-3.9,1.1-3.9,2.8c0,4.3,9.1,2,9.1,8.5
		C298.9,97,295.8,99.6,290.6,99.6z"/>
	<path d="M310.2,99.6c-4,0-5.2-1.6-5.2-5.8V82.6h-4v-2.7h4v-6.3l3.5-1v7.3h5.4v2.7h-5.4v9.9c0,3.2,0.6,4.1,2.8,4.1
		c0.9,0,1.9-0.2,2.7-0.4v3C312.8,99.4,311.4,99.6,310.2,99.6z"/>
	<path d="M333.3,89.3h-12.7c-0.2,5.2,2,7.4,6.1,7.4c2,0,4.1-0.5,5.7-1.2l0.3,2.9c-1.9,0.8-4.2,1.2-6.6,1.2c-6,0-9.2-3.1-9.2-10
		c0-5.8,3.2-10.2,8.7-10.2c5.5,0,7.8,3.7,7.8,8.2C333.5,88.1,333.4,88.7,333.3,89.3z M325.5,82c-2.5,0-4.3,1.9-4.7,4.8h9.1
		C329.9,84,328.3,82,325.5,82z"/>
	<path d="M363.9,99.3V86.8c0-2.7-0.6-4.4-3.2-4.4c-2.8,0-5.4,2.9-5.4,7.6v9.3h-3.5V86.7c0-2.4-0.5-4.4-3.2-4.4c-3,0-5.4,3.2-5.4,7.6
		v9.3h-3.5V82.6c-0.9-0.2-2.3-0.3-3.4-0.4v-2.1c2-0.2,4.7-0.4,6.8-0.3c0,1.1-0.1,2.9-0.3,4.1l0.1,0c1.1-2.7,3.6-4.5,6.8-4.5
		c4.1,0,5.2,2.9,5.4,4.4c0.8-1.8,2.9-4.4,6.7-4.4c3.7,0,5.8,2,5.8,6.4v13.5H363.9z"/>
	<path d="M377.1,99.6c-1.4,0-2.9-0.1-4.1-0.4l0.1-3.1c1.2,0.4,2.8,0.7,4.3,0.7c2.6,0,4.3-1.2,4.3-3c0-4.3-9-1.7-9-8.5
		c0-3.3,2.7-5.8,7.8-5.8c1.2,0,2.5,0.2,3.7,0.4l-0.1,2.9c-1.2-0.4-2.6-0.6-3.9-0.6c-2.6,0-3.9,1.1-3.9,2.8c0,4.3,9.1,2,9.1,8.5
		C385.4,97,382.3,99.6,377.1,99.6z"/>
</g>
</svg>
