<svg width="1503" height="1348" xmlns="http://www.w3.org/2000/svg" xmlns:xlink="http://www.w3.org/1999/xlink" xml:space="preserve" overflow="hidden"><g transform="translate(-1445 -564)"><path d="M1546 693.247C1546 629.598 1597.6 578 1661.25 578L2738.75 578C2802.4 578 2854 629.598 2854 693.247L2854 1782.75C2854 1846.4 2802.4 1898 2738.75 1898L1661.25 1898C1597.6 1898 1546 1846.4 1546 1782.75Z" stroke="#000000" stroke-width="27.5" stroke-miterlimit="8" fill="none" fill-rule="evenodd"/><path d="M2165.5 725C2165.5 705.946 2180.5 690.5 2199 690.5 2217.5 690.5 2232.5 705.946 2232.5 725 2232.5 744.054 2217.5 759.5 2199 759.5 2180.5 759.5 2165.5 744.054 2165.5 725Z" stroke="#000000" stroke-width="20.625" stroke-miterlimit="8" fill-rule="evenodd"/><path d="M2165.5 885C2165.5 865.946 2180.5 850.5 2199 850.5 2217.5 850.5 2232.5 865.946 2232.5 885 2232.5 904.054 2217.5 919.5 2199 919.5 2180.5 919.5 2165.5 904.054 2165.5 885Z" stroke="#000000" stroke-width="20.625" stroke-miterlimit="8" fill-rule="evenodd"/><path d="M2165.5 1044C2165.5 1024.95 2180.27 1009.5 2198.5 1009.5 2216.73 1009.5 2231.5 1024.95 2231.5 1044 2231.5 1063.05 2216.73 1078.5 2198.5 1078.5 2180.27 1078.5 2165.5 1063.05 2165.5 1044Z" stroke="#000000" stroke-width="20.625" stroke-miterlimit="8" fill-rule="evenodd"/><path d="M2165.5 1203.5C2165.5 1184.17 2180.27 1168.5 2198.5 1168.5 2216.73 1168.5 2231.5 1184.17 2231.5 1203.5 2231.5 1222.83 2216.73 1238.5 2198.5 1238.5 2180.27 1238.5 2165.5 1222.83 2165.5 1203.5Z" stroke="#000000" stroke-width="20.625" stroke-miterlimit="8" fill-rule="evenodd"/><path d="M1912.5 836C1912.5 816.946 1927.27 801.5 1945.5 801.5 1963.73 801.5 1978.5 816.946 1978.5 836 1978.5 855.054 1963.73 870.5 1945.5 870.5 1927.27 870.5 1912.5 855.054 1912.5 836Z" stroke="#000000" stroke-width="20.625" stroke-miterlimit="8" fill-rule="evenodd"/><path d="M1912.5 1092C1912.5 1072.95 1927.27 1057.5 1945.5 1057.5 1963.73 1057.5 1978.5 1072.95 1978.5 1092 1978.5 1111.05 1963.73 1126.5 1945.5 1126.5 1927.27 1126.5 1912.5 1111.05 1912.5 1092Z" stroke="#000000" stroke-width="20.625" stroke-miterlimit="8" fill-rule="evenodd"/><path d="M2418.5 964C2418.5 944.946 2433.5 929.5 2452 929.5 2470.5 929.5 2485.5 944.946 2485.5 964 2485.5 983.054 2470.5 998.5 2452 998.5 2433.5 998.5 2418.5 983.054 2418.5 964Z" stroke="#000000" stroke-width="20.625" stroke-miterlimit="8" fill-rule="evenodd"/><path d="M0 0 252.83 111.026" stroke="#000000" stroke-width="20.625" stroke-miterlimit="8" fill="none" fill-rule="evenodd" transform="matrix(1 0 0 -1 1945.5 836.527)"/><path d="M1945.5 836.5 2198.33 886.329" stroke="#000000" stroke-width="20.625" stroke-miterlimit="8" fill="none" fill-rule="evenodd"/><path d="M0 0 252.83 212.777" stroke="#000000" stroke-width="20.625" stroke-miterlimit="8" fill="none" fill-rule="evenodd" transform="matrix(1 0 0 -1 1945.5 1099.28)"/><path d="M1945.5 836.5 2198.33 1046.62" stroke="#000000" stroke-width="20.625" stroke-miterlimit="8" fill="none" fill-rule="evenodd"/><path d="M1945.5 836.5 2198.33 1206" stroke="#000000" stroke-width="20.625" stroke-miterlimit="8" fill="none" fill-rule="evenodd"/><path d="M0 0 252.83 373.633" stroke="#000000" stroke-width="20.625" stroke-miterlimit="8" fill="none" fill-rule="evenodd" transform="matrix(1 0 0 -1 1945.5 1099.13)"/><path d="M0 0 252.83 52.4871" stroke="#000000" stroke-width="20.625" stroke-miterlimit="8" fill="none" fill-rule="evenodd" transform="matrix(1 0 0 -1 1945.5 1098.99)"/><path d="M1945.5 1098.5 2198.33 1205.4" stroke="#000000" stroke-width="20.625" stroke-miterlimit="8" fill="none" fill-rule="evenodd"/><path d="M2198.5 727.5 2451.98 965.447" stroke="#000000" stroke-width="20.625" stroke-miterlimit="8" fill="none" fill-rule="evenodd"/><path d="M2198.5 885.5 2452.63 968.048" stroke="#000000" stroke-width="20.625" stroke-miterlimit="8" fill="none" fill-rule="evenodd"/><path d="M0 0 254.131 82.535" stroke="#000000" stroke-width="20.625" stroke-miterlimit="8" fill="none" fill-rule="evenodd" transform="matrix(1 0 0 -1 2198.5 1046.04)"/><path d="M0 0 254.131 239.926" stroke="#000000" stroke-width="20.625" stroke-miterlimit="8" fill="none" fill-rule="evenodd" transform="matrix(1 0 0 -1 2198.5 1205.43)"/><text font-family="Avenir Next LT Pro,Avenir Next LT Pro_MSFontService,sans-serif" font-weight="700" font-size="298" transform="matrix(1 0 0 1 1624.21 1566)">ML</text><text fill="#7F7F7F" font-family="Avenir Next LT Pro,Avenir Next LT Pro_MSFontService,sans-serif" font-weight="700" font-size="298" transform="matrix(1 0 0 1 2092.17 1566)">FMU</text><path d="M1641 1777.5C1641 1764.52 1651.52 1754 1664.5 1754L2730.5 1754C2743.48 1754 2754 1764.52 2754 1777.5L2754 1777.5C2754 1790.48 2743.48 1801 2730.5 1801L1664.5 1801C1651.52 1801 1641 1790.48 1641 1777.5Z" fill="#003591" fill-rule="evenodd"/><rect x="1641" y="1754" width="1113" height="26.9998" fill="#003591"/><rect x="1641" y="1714" width="1112" height="27.0001" fill="#409D35"/><rect x="1641" y="1612" width="1112" height="70.0001" fill="#98D8F1"/></g></svg>