<?xml version="1.0" encoding="UTF-8" standalone="no"?>
<svg
   xmlns:dc="http://purl.org/dc/elements/1.1/"
   xmlns:cc="http://creativecommons.org/ns#"
   xmlns:rdf="http://www.w3.org/1999/02/22-rdf-syntax-ns#"
   xmlns:svg="http://www.w3.org/2000/svg"
   xmlns="http://www.w3.org/2000/svg"
   xmlns:sodipodi="http://sodipodi.sourceforge.net/DTD/sodipodi-0.dtd"
   xmlns:inkscape="http://www.inkscape.org/namespaces/inkscape"
   viewBox="0 0 608 341.33334"
   height="341.33334"
   width="341"
   xml:space="preserve"
   id="svg2"
   version="1.1"
   inkscape:version="0.91 r13725"
   sodipodi:docname="Model_CONNECT.svg"><sodipodi:namedview
     pagecolor="#ffffff"
     bordercolor="#666666"
     borderopacity="1"
     objecttolerance="10"
     gridtolerance="10"
     guidetolerance="10"
     inkscape:pageopacity="0"
     inkscape:pageshadow="2"
     inkscape:window-width="1920"
     inkscape:window-height="1138"
     id="namedview22"
     showgrid="false"
     inkscape:zoom="0.69140623"
     inkscape:cx="-79.276847"
     inkscape:cy="170.66667"
     inkscape:window-x="-8"
     inkscape:window-y="-8"
     inkscape:window-maximized="1"
     inkscape:current-layer="g10" /><metadata
     id="metadata8"><rdf:RDF><cc:Work
         rdf:about=""><dc:format>image/svg+xml</dc:format><dc:type
           rdf:resource="http://purl.org/dc/dcmitype/StillImage" /></cc:Work></rdf:RDF></metadata><defs
     id="defs6" /><g
     transform="matrix(1.3333333,0,0,-1.3333333,0,341.33333)"
     id="g10"><g
       transform="matrix(0.18008351,0,0,0.17781699,0,-100.5728)"
       id="g12"><path
         id="path14"
         style="fill:#3c5fb5;fill-opacity:1;fill-rule:nonzero;stroke:none"
         d="m 0,0 1280,0 0,1280 -1280,0 z"
         inkscape:connector-curvature="0" /><path
         id="path16"
         style="fill:#273574;fill-opacity:1;fill-rule:nonzero;stroke:none"
         d="M 1280,2560 C 573.074,2560 0,1986.93 0,1280 0,573.078 573.074,0 1280,0 1986.92,0 2560,573.07 2560,1280 l 0,1280 -1280,0"
         inkscape:connector-curvature="0" /><path
         id="path18"
         style="fill:#ffffff;fill-opacity:1;fill-rule:nonzero;stroke:none"
         d="m 548.941,1899.9 c 0,103.04 83.715,186.85 186.664,186.85 102.954,0 186.668,-83.81 186.668,-186.85 0,-102.81 -83.714,-186.49 -186.668,-186.49 -102.949,0 -186.664,83.68 -186.664,186.49 z m 309.348,-1050.818 0,-222.922 c 0,-26.808 -21.734,-48.539 -48.543,-48.539 l -222.918,0 c -26.808,0 -48.543,21.731 -48.543,48.539 l 0,222.922 c 0,26.809 21.735,48.539 48.543,48.539 l 222.918,0 c 26.809,0 48.543,-21.73 48.543,-48.539 z M 2135.61,1695.12 c 44.18,0 80,35.83 80,80 l 0,320 c 0,44.19 -35.82,80 -80,80 l -320,0 c -44.18,0 -80,-35.81 -80,-80 l 0,-320 c 0,-6.14 2.18,-11.57 3.49,-17.31 l -325.05,-353.77 c -19.89,6.63 -40.79,11.08 -62.91,11.08 -29.73,0 -57.66,-6.86 -82.98,-18.43 L 958.598,1732.5 c 35.297,46.82 57.012,104.39 57.012,167.4 0,154.49 -125.602,280.19 -280.005,280.19 -154.398,0 -280,-125.7 -280,-280.19 0,-109.56 63.907,-203.61 155.883,-249.52 l 0,-672.759 -73.203,0 c -44.183,0 -80,-35.82 -80,-80 l 0,-320 c 0,-44.18 35.817,-80 80,-80 l 320.004,0 c 44.184,0 80,35.82 80,80 l 0,320 c 0,44.18 -35.816,80 -80,80 l -86.797,0 0,646.089 c 19.856,2.58 38.985,7 57.324,13.52 l 332.814,-361.06 c -6.24,-19.41 -10.49,-39.72 -10.49,-61.22 0,-110.31 89.22,-199.83 200,-199.83 110.47,0 200,89.52 200,199.83 0,29.38 -6.66,57.05 -18,82.17 l 366.4,398 6.07,0 0,-731.55 c -98.34,-30.07 -170,-120.398 -170,-228.64 0,-132.379 107.06,-239.809 240,-239.809 132.56,0 240,107.43 240,239.809 0,100.832 -62.11,186.75 -150,222.39 l 0,737.8 70,0"
         inkscape:connector-curvature="0" /></g></g></svg>