<?xml version="1.0" encoding="utf-8"?>
<!-- Generator: Adobe Illustrator 25.4.1, SVG Export Plug-In . SVG Version: 6.00 Build 0)  -->
<svg version="1.1" id="Layer_1" xmlns="http://www.w3.org/2000/svg" xmlns:xlink="http://www.w3.org/1999/xlink" x="0px" y="0px"
	 viewBox="0 0 200 57.6" style="enable-background:new 0 0 200 57.6;" xml:space="preserve">
<style type="text/css">
	.st0{fill:#E36D00;}
	.st1{fill:#1D1E1C;}
	.st2{fill:#E56606;}
</style>
<g id="Logo" transform="translate(0.05 0.015)">
	<path id="Path_1" class="st0" d="M64.5,46c-0.2,1.2-0.3,2.4-0.3,3.6c-3.7,2.6-6.7,4.4-11,4.4c-8.6,0.1-0.9-18-2-23.6
		c-0.1-0.6-0.9-0.5-1.3,0c-4.8,6-9.6,17.3-15.6,23.4c-1.1,1.4-2.8,2.2-4.6,2.2c-5.8,0-5.3-7.4-4.4-11.5C27.3,36,35.6,15,35.2,8.3
		c0-0.8-1-0.7-1.4-0.2C26,17.8,5.5,57.1,5.5,57.1l-5.5,0.4c0,0,24.1-47.7,33.9-55.2c4.2-3.2,9.1-3.7,10,1.8
		c1.7,10.6-9,29.3-10.1,41.7c-0.1,0.7,0.5,1.1,0.9,0.7c1.8-1.9,10.4-18.2,14.9-21.7c4.2-3.2,8.5-3.5,9.1,4.4
		c0.4,5.2-2.8,16.9-1.9,18.4c1.2,1.9,3.5,0.6,6-0.8C63.4,46.5,64,46.2,64.5,46L64.5,46z"/>
	<path id="Path_2" class="st1" d="M80.5,31.5c6.8,0,9.5,2.3,7.1,11.1c-2.1,8-6.7,11.3-13.7,11.3c-6.7,0-9.8-1.5-7.2-11.2
		C68.9,34.8,73.7,31.5,80.5,31.5z M74.9,50.9c2.8,0,5.2-1.6,7-8.3c1.8-6.9,0.6-8.1-2.4-8.1c-2.9,0-5.3,1.5-7,8.2
		C70.6,49.9,71.9,50.9,74.9,50.9L74.9,50.9z"/>
	<path id="Path_3" class="st1" d="M109.3,23.4c0.4-1.6,1.4-1.6,5.7-1.6l-8.1,30.8c-3.1,0.9-6.4,1.3-9.6,1.3
		c-5.7,0-10.3-1.1-7.8-10.4c2.2-8.5,7.6-12,13.2-12c1.5-0.1,3,0.2,4.4,0.9L109.3,23.4z M106.2,35.1c-0.9-0.5-1.9-0.7-2.8-0.6
		c-2.9,0-6.1,1.5-8,8.5c-1.7,6.5-0.2,7.7,2.8,7.7c1.4,0,2.7-0.2,4-0.7L106.2,35.1z"/>
	<path id="Path_4" class="st1" d="M132.9,38.4c-0.5,2-1.2,3.8-2.2,5.6c-4.6,0.5-9.2,0.7-13.8,0.7c-0.9,4.6,0.6,5.8,4.5,5.8
		c2.6,0,5.3-0.5,7.8-1.3c0.1,0.8,0.1,1.6-0.2,2.4c-0.4,1.3-4.7,2.4-9.6,2.4c-6,0-10-1.7-7.7-10.1c2.8-10.8,9-12.3,14.8-12.3
		C131.9,31.5,134.1,33.8,132.9,38.4z M117.7,41.9c3,0.1,6-0.1,8.9-0.5c0.5-0.8,0.8-1.7,1-2.6c0.8-3.1,0.2-4.3-2.6-4.3
		S119.7,36.1,117.7,41.9z"/>
	<path id="Path_5" class="st1" d="M136.8,52.8c-0.2,0.7-0.2,0.7-5.4,0.7l7.9-30.1c0.4-1.6,1.5-1.6,5.7-1.6L136.8,52.8z"/>
	<path id="Path_6" class="st1" d="M155.5,31.5c6.8,0,9.5,2.3,7.1,11.1c-2.1,8-6.7,11.3-13.7,11.3c-6.7,0-9.8-1.5-7.2-11.2
		C143.8,34.8,148.6,31.5,155.5,31.5z M149.9,50.9c2.8,0,5.2-1.6,7-8.3c1.8-6.9,0.6-8.1-2.4-8.1c-2.9,0-5.3,1.5-7,8.2
		C145.5,49.9,146.9,50.9,149.9,50.9L149.9,50.9z"/>
	<path id="Path_7" class="st1" d="M167.3,32.9c3.5-0.9,7.1-1.4,10.7-1.5c6.8,0,8.7,1.6,7.6,5.8l-4.1,15.5c-0.2,0.7-0.3,0.7-5.6,0.7
		l4-15.2c0.7-2.7,0.3-3.8-2.9-3.8c-1.7,0-3.4,0.3-5,0.8l-4.6,17.5c-0.2,0.7-0.3,0.7-5.5,0.7L167.3,32.9z"/>
	<path id="Path_8" class="st2" d="M199.9,50.5l-0.5,2.1l-16.3,0.8l0.9-3.6L199.9,50.5z"/>
</g>
</svg>
