<?xml version="1.0" encoding="UTF-8" standalone="no"?>
<!-- Created with Inkscape (http://www.inkscape.org/) -->

<svg
   version="1.1"
   width="593.37439"
   height="325"
   id="svg3175"
   sodipodi:docname="mosaik_logo.svg"
   inkscape:version="1.2.1 (9c6d41e410, 2022-07-14)"
   xmlns:inkscape="http://www.inkscape.org/namespaces/inkscape"
   xmlns:sodipodi="http://sodipodi.sourceforge.net/DTD/sodipodi-0.dtd"
   xmlns="http://www.w3.org/2000/svg"
   xmlns:svg="http://www.w3.org/2000/svg"
   xmlns:rdf="http://www.w3.org/1999/02/22-rdf-syntax-ns#"
   xmlns:cc="http://creativecommons.org/ns#"
   xmlns:dc="http://purl.org/dc/elements/1.1/">
  <sodipodi:namedview
     id="namedview1264"
     pagecolor="#ffffff"
     bordercolor="#000000"
     borderopacity="0.25"
     inkscape:showpageshadow="2"
     inkscape:pageopacity="0.0"
     inkscape:pagecheckerboard="0"
     inkscape:deskcolor="#d1d1d1"
     showgrid="false"
     inkscape:zoom="2.3256818"
     inkscape:cx="286.36764"
     inkscape:cy="162.74798"
     inkscape:window-width="1920"
     inkscape:window-height="1001"
     inkscape:window-x="-9"
     inkscape:window-y="-9"
     inkscape:window-maximized="1"
     inkscape:current-layer="g3175" />
  <defs
     id="defs3177" />
  <metadata
     id="metadata3180">
    <rdf:RDF>
      <cc:Work
         rdf:about="">
        <dc:format>image/svg+xml</dc:format>
        <dc:type
           rdf:resource="http://purl.org/dc/dcmitype/StillImage" />
        <dc:title />
      </cc:Work>
    </rdf:RDF>
  </metadata>
  <g
     transform="translate(-150,-552.36218)"
     id="layer1">
    <g
       id="text3183"
       style="font-size:120px;font-style:normal;font-variant:normal;font-weight:normal;font-stretch:normal;text-align:start;line-height:125%;letter-spacing:0px;word-spacing:0px;writing-mode:lr-tb;text-anchor:start;fill:#202020;fill-opacity:1;stroke:none;font-family:Aller;-inkscape-font-specification:Aller">
      <path
         d="m 369.99999,639.36218 c 0.87999,-0.15994 1.71999,-0.27994 2.52,-0.36 0.87999,-0.0799 1.75999,-0.11994 2.64,-0.12 0.87999,6e-5 1.67999,0.0401 2.4,0.12 0.79999,0.0801 1.63999,0.20006 2.52,0.36 0.23998,1.20006 0.47998,2.80006 0.72,4.8 0.23998,1.92006 0.35998,3.56005 0.36,4.92 0.71998,-1.43995 1.59998,-2.79995 2.64,-4.08 1.11998,-1.35994 2.39998,-2.55994 3.84,-3.6 1.51998,-1.03994 3.23997,-1.87994 5.16,-2.52 1.91997,-0.63994 4.03997,-0.95994 6.36,-0.96 4.79996,6e-5 8.47996,1.00006 11.04,3 2.63995,1.92006 4.63995,4.64006 6,8.16 0.79995,-1.35995 1.75995,-2.71995 2.88,-4.08 1.19994,-1.35994 2.51994,-2.55994 3.96,-3.6 1.43994,-1.03994 3.07994,-1.87994 4.92,-2.52 1.83993,-0.63994 3.91993,-0.95994 6.24,-0.96 7.11992,6e-5 12.27992,2.00006 15.48,6 3.27991,4.00005 4.91991,9.92005 4.92,17.76 l 0,39.24 c -0.88009,0.16 -1.88009,0.28 -3,0.36 -1.12009,0.08 -2.12009,0.12 -3,0.12 -0.88008,0 -1.88008,-0.04 -3,-0.12 -1.04008,-0.08 -2.00008,-0.2 -2.88,-0.36 l 0,-35.76 c -8e-5,-5.51996 -0.84008,-9.63995 -2.52,-12.36 -1.68007,-2.79995 -4.44007,-4.19995 -8.28,-4.2 -4.08006,5e-5 -7.40006,1.48005 -9.96,4.44 -2.48006,2.96005 -3.72005,7.32004 -3.72,13.08 l 0,34.8 c -0.88005,0.16 -1.88005,0.28 -3,0.36 -1.04005,0.08 -2.00005,0.12 -2.88,0.12 -0.88005,0 -1.88005,-0.04 -3,-0.12 -1.04004,-0.08 -2.00004,-0.2 -2.88,-0.36 l 0,-36.6 c -4e-5,-5.35996 -0.80004,-9.35995 -2.4,-12 -1.60004,-2.71995 -4.16004,-4.07995 -7.68,-4.08 -2.00003,5e-5 -3.88003,0.44005 -5.64,1.32 -1.76002,0.88005 -3.32002,2.20005 -4.68,3.96 -1.28002,1.76005 -2.32002,4.00004 -3.12,6.72 -0.72002,2.64004 -1.08002,5.72004 -1.08,9.24 l 0,31.44 c -0.88002,0.16 -1.88002,0.28 -3,0.36 -1.04001,0.08 -2.00001,0.12 -2.88,0.12 -0.88001,0 -1.88001,-0.04 -3,-0.12 -1.12001,-0.08 -2.12001,-0.2 -3,-0.36 l 0,-61.56"
         id="path3047"
         style="line-height:125%;fill:#202020;font-family:Aller;-inkscape-font-specification:Aller" />
      <path
         d="m 497.38187,702.36218 c -4.80003,0 -9.00003,-0.8 -12.6,-2.4 -3.60002,-1.68 -6.60002,-3.95999 -9,-6.84 -2.40001,-2.87999 -4.20001,-6.27999 -5.4,-10.2 -1.12001,-3.91998 -1.68001,-8.15997 -1.68,-12.72 -10e-6,-4.55996 0.55999,-8.79996 1.68,-12.72 1.19999,-3.91995 2.99999,-7.31995 5.4,-10.2 2.39998,-2.87994 5.39998,-5.15994 9,-6.84 3.59997,-1.67994 7.79997,-2.51994 12.6,-2.52 4.79996,6e-5 8.99996,0.84006 12.6,2.52 3.59995,1.68006 6.59995,3.96006 9,6.84 2.39994,2.88005 4.15994,6.28005 5.28,10.2 1.19994,3.92004 1.79994,8.16004 1.8,12.72 -6e-5,4.56003 -0.60006,8.80002 -1.8,12.72 -1.12006,3.92001 -2.88006,7.32001 -5.28,10.2 -2.40005,2.88001 -5.40005,5.16 -9,6.84 -3.60004,1.6 -7.80004,2.4 -12.6,2.4 m 0,-9.48 c 5.51996,1e-5 9.59995,-1.99999 12.24,-6 2.63995,-3.99998 3.95995,-9.55998 3.96,-16.68 -5e-5,-7.11996 -1.32005,-12.63996 -3.96,-16.56 -2.64005,-3.99995 -6.72004,-5.99995 -12.24,-6 -5.52003,5e-5 -9.60003,2.00005 -12.24,6 -2.56002,3.92004 -3.84002,9.44004 -3.84,16.56 -2e-5,7.12002 1.27998,12.68002 3.84,16.68 2.63997,4.00001 6.71997,6.00001 12.24,6"
         id="path3049"
         style="line-height:125%;fill:#202020;font-family:Aller;-inkscape-font-specification:Aller" />
      <path
         d="m 540.48249,689.76218 c 2.15999,0.88001 4.51999,1.60001 7.08,2.16 2.63999,0.48001 5.23998,0.72001 7.8,0.72 1.83998,10e-6 3.59998,-0.19999 5.28,-0.6 1.67997,-0.39999 3.11997,-0.99999 4.32,-1.8 1.27997,-0.79999 2.27997,-1.75999 3,-2.88 0.79997,-1.19999 1.19997,-2.51998 1.2,-3.96 -3e-5,-1.59998 -0.32003,-2.91998 -0.96,-3.96 -0.56003,-1.03998 -1.36003,-1.91998 -2.4,-2.64 -0.96003,-0.71997 -2.12003,-1.31997 -3.48,-1.8 -1.28003,-0.55997 -2.68002,-1.07997 -4.2,-1.56 l -4.2,-1.56 c -5.12001,-1.91997 -8.84001,-4.07997 -11.16,-6.48 -2.32,-2.39996 -3.48,-5.63996 -3.48,-9.72 0,-5.43995 1.91999,-9.75994 5.76,-12.96 3.91999,-3.19994 9.63998,-4.79994 17.16,-4.8 3.11997,6e-5 6.15997,0.32006 9.12,0.96 3.03996,0.56006 5.67996,1.24006 7.92,2.04 -0.16004,1.60006 -0.48004,3.20006 -0.96,4.8 -0.40004,1.60005 -0.92004,3.08005 -1.56,4.44 -1.76004,-0.63995 -3.88004,-1.23995 -6.36,-1.8 -2.40003,-0.63995 -5.00003,-0.95995 -7.8,-0.96 -2.96002,5e-5 -5.60002,0.52005 -7.92,1.56 -2.24002,1.04005 -3.36002,2.88005 -3.36,5.52 -2e-5,1.36005 0.27998,2.52004 0.84,3.48 0.55998,0.96004 1.31998,1.80004 2.28,2.52 0.95998,0.64004 2.03998,1.20004 3.24,1.68 1.27998,0.48004 2.63998,0.96004 4.08,1.44 l 5.28,1.8 c 1.91997,0.64004 3.71997,1.40003 5.4,2.28 1.75996,0.88003 3.23996,2.00003 4.44,3.36 1.27996,1.28003 2.27996,2.88003 3,4.8 0.79996,1.84002 1.19995,4.08002 1.2,6.72 -5e-5,2.96002 -0.60004,5.68001 -1.8,8.16 -1.20004,2.40001 -2.92004,4.48001 -5.16,6.24 -2.16004,1.68 -4.80003,3 -7.92,3.96 -3.12003,0.96 -6.56002,1.44 -10.32,1.44 -3.84002,0 -7.20001,-0.28 -10.08,-0.84 -2.88001,-0.48 -5.56,-1.16 -8.04,-2.04 0.16,-1.6 0.48,-3.2 0.96,-4.8 0.56,-1.67999 1.16,-3.31999 1.8,-4.92"
         id="path3051"
         style="line-height:125%;fill:#202020;font-family:Aller;-inkscape-font-specification:Aller" />
      <path
         d="m 628.69187,672.00218 c -1.20004,-0.15997 -2.72004,-0.31997 -4.56,-0.48 -1.84004,-0.15997 -3.40004,-0.23997 -4.68,-0.24 -4.96003,3e-5 -8.76003,0.92003 -11.4,2.76 -2.56002,1.84003 -3.84002,4.64002 -3.84,8.4 -2e-5,2.40002 0.43998,4.28001 1.32,5.64 0.87998,1.36001 1.95998,2.40001 3.24,3.12 1.35998,0.72001 2.83997,1.16001 4.44,1.32 1.59997,0.16001 3.11997,0.24001 4.56,0.24 1.83997,1e-5 3.71996,-0.08 5.64,-0.24 1.99996,-0.23999 3.75996,-0.55999 5.28,-0.96 l 0,-19.56 m 0,-11.64 c -4e-5,-4.71995 -1.20004,-7.99995 -3.6,-9.84 -2.40004,-1.83995 -5.88003,-2.75995 -10.44,-2.76 -2.80003,5e-5 -5.44002,0.24005 -7.92,0.72 -2.40002,0.40005 -4.76002,0.96005 -7.08,1.68 -1.52001,-2.63995 -2.28001,-5.79994 -2.28,-9.48 2.71999,-0.87994 5.71998,-1.55994 9,-2.04 3.27998,-0.47994 6.43997,-0.71994 9.48,-0.72 7.99996,6e-5 14.07996,1.84006 18.24,5.52 4.15995,3.60005 6.23995,9.40005 6.24,17.4 l 0,38.52 c -2.80005,0.64 -6.20005,1.28 -10.2,1.92 -4.00004,0.72 -8.08004,1.08 -12.24,1.08 -3.92003,0 -7.48002,-0.36 -10.68,-1.08 -3.12002,-0.72 -5.80002,-1.88 -8.04,-3.48 -2.16001,-1.6 -3.84001,-3.63999 -5.04,-6.12 -1.20001,-2.47999 -1.80001,-5.47999 -1.8,-9 -10e-6,-3.43998 0.67999,-6.43998 2.04,-9 1.43999,-2.63997 3.35999,-4.79997 5.76,-6.48 2.39998,-1.75996 5.15998,-3.03996 8.28,-3.84 3.11997,-0.87996 6.39997,-1.31996 9.84,-1.32 2.55996,4e-5 4.63996,0.08 6.24,0.24 1.67996,0.08 3.07996,0.20004 4.2,0.36 l 0,-2.28"
         id="path3053"
         style="line-height:125%;fill:#202020;font-family:Aller;-inkscape-font-specification:Aller" />
      <path
         d="m 661.88124,648.72218 -7.8,0 c -0.16,-0.63995 -0.28,-1.35995 -0.36,-2.16 -0.08,-0.87994 -0.12,-1.71994 -0.12,-2.52 0,-0.79994 0.04,-1.59994 0.12,-2.4 0.08,-0.87994 0.2,-1.63994 0.36,-2.28 l 19.44,0 0,61.56 c -0.88002,0.16 -1.88002,0.28 -3,0.36 -1.04002,0.08 -2.00002,0.12 -2.88,0.12 -0.80001,0 -1.76001,-0.04 -2.88,-0.12 -1.04001,-0.08 -2.00001,-0.2 -2.88,-0.36 l 0,-52.2 m -2.64,-22.92 c -0.16001,-0.95992 -0.28001,-1.99992 -0.36,-3.12 -1e-5,-1.11992 -1e-5,-2.11992 0,-3 -1e-5,-0.87992 -1e-5,-1.87992 0,-3 0.08,-1.11991 0.19999,-2.11991 0.36,-3 1.03999,-0.15991 2.15999,-0.27991 3.36,-0.36 1.19999,-0.0799 2.23999,-0.11991 3.12,-0.12 0.87999,9e-5 1.91998,0.0401 3.12,0.12 1.19998,0.0801 2.27998,0.20009 3.24,0.36 0.15998,0.88009 0.23998,1.88009 0.24,3 0.08,1.12008 0.11998,2.12008 0.12,3 -2e-5,0.88008 -0.04,1.88008 -0.12,3 -2e-5,1.12008 -0.08,2.16008 -0.24,3.12 -0.96002,0.16008 -2.04002,0.28008 -3.24,0.36 -1.12002,0.0801 -2.12001,0.12007 -3,0.12 -0.96001,7e-5 -2.04001,-0.0399 -3.24,-0.12 -1.20001,-0.0799 -2.32001,-0.19992 -3.36,-0.36"
         id="path3055"
         style="line-height:125%;fill:#202020;font-family:Aller;-inkscape-font-specification:Aller" />
      <path
         d="m 692.25437,612.96218 c 0.87999,-0.15991 1.83999,-0.27991 2.88,-0.36 1.11999,-0.0799 2.11998,-0.11991 3,-0.12 0.87998,9e-5 1.87998,0.0401 3,0.12 1.11998,0.0801 2.11998,0.20009 3,0.36 l 0,87.96 c -0.88002,0.16 -1.88002,0.28 -3,0.36 -1.12002,0.08 -2.12002,0.12 -3,0.12 -0.88002,0 -1.88001,-0.04 -3,-0.12 -1.04001,-0.08 -2.00001,-0.2 -2.88,-0.36 l 0,-87.96 m 15.12,56.04 19.56,-29.64 c 1.03995,-0.15994 2.07995,-0.27994 3.12,-0.36 1.03995,-0.0799 2.11995,-0.11994 3.24,-0.12 1.19995,6e-5 2.31995,0.0401 3.36,0.12 1.11994,0.0801 2.23994,0.20006 3.36,0.36 l -19.56,28.8 22.92,32.76 c -1.12006,0.16 -2.20006,0.28 -3.24,0.36 -1.04006,0.08 -2.12006,0.12 -3.24,0.12 -1.12005,0 -2.24005,-0.04 -3.36,-0.12 -1.12005,-0.08 -2.24005,-0.2 -3.36,-0.36 l -22.8,-31.92"
         id="path3057"
         style="line-height:125%;fill:#202020;font-family:Aller;-inkscape-font-specification:Aller" />
    </g>
    <path
       d="m 369,717.36218 -30,52.5 30,52.5 60,0 30,-52.5 -30,-52.5 z"
       id="path4005-8"
       style="fill:#b81c1c;fill-opacity:1;stroke:none" />
    <path
       d="m 274.5,662.36218 -30,52.5 30,52.5 60,0 30,-52.5 -30,-52.5 z"
       id="path4005-84"
       style="fill:#484848;fill-opacity:1;stroke:none" />
    <path
       d="m 274.5,552.36218 -30,52.5 30,52.5 60,0 30,-52.5 -30,-52.5 z"
       id="path4005-3"
       style="fill:#5e8227;fill-opacity:1;stroke:none" />
    <path
       d="m 180,607.36218 -30,52.5 30,52.5 60,0 30,-52.5 -30,-52.5 z"
       id="path4005-4"
       style="fill:#3b9ac4;fill-opacity:1;stroke:none" />
    <path
       d="m 274.5,772.36218 -30,52.5 30,52.5 60,0 30,-52.5 -30,-52.5 z"
       id="path4005-8-0"
       style="fill:#d98d36;fill-opacity:1;stroke:none" />
    <path
       d="m 180,717.36218 -30,52.5 30,52.5 60,0 30,-52.5 -30,-52.5 z"
       id="path4005-8-1"
       style="fill:#913a91;fill-opacity:1;stroke:none" />
    <g
       transform="matrix(0.17179841,0,0,0.17179841,252.9534,476.81754)"
       id="g3100">
      <path
         d="m 295,682.3616 -20,300 c 0,5 10,10 25,10 15,0 25,-5 25,-10 l -20,-300 z"
         id="path3778"
         style="fill:#ffffff;fill-opacity:1;stroke:none" />
      <path
         d="m 290,210 a 20,20 0 1 1 -40,0 20,20 0 1 1 40,0 z"
         transform="translate(30,472.3616)"
         id="path3772"
         style="fill:#ffffff;fill-opacity:1;stroke:none" />
      <path
         d="m 487.13265,715.37314 c -5.79228,4.05579 -74.72882,-8.09958 -141.34605,-4.61459 -17.95967,-13.32105 -31.86355,-20.84981 -46.63566,-23.45453 l 1.73648,-9.84808 c 78.78462,13.89186 132.94905,23.44251 186.24523,37.9172 z"
         id="rect3774"
         style="fill:#ffffff;fill-opacity:1;stroke:none" />
      <path
         d="m 177.84333,827.97058 c -0.61629,-7.04416 44.37884,-60.66727 74.66937,-120.10197 20.5162,-8.89301 33.98823,-17.16974 43.63005,-28.66041 l 7.66045,6.42788 c -51.42301,61.28355 -86.77633,103.416 -125.95987,142.3345 z"
         id="rect3774-50"
         style="fill:#ffffff;fill-opacity:1;stroke:none" />
      <path
         d="m 235.01582,503.83633 c 6.40857,2.98836 30.34998,68.76684 66.67668,124.71656 -2.55653,22.21405 -2.12469,38.01954 3.00561,52.11493 l -9.39693,3.4202 c -27.36161,-75.1754 -46.17272,-126.8585 -60.28536,-180.25169 z"
         id="rect3774-5"
         style="fill:#ffffff;fill-opacity:1;stroke:none" />
    </g>
    <g
       transform="matrix(0.15730319,0,0,0.15730319,257.30904,595.72678)"
       id="g3123">
      <path
         d="m 270,572.3616 -90,40 240,0 -90,-40 z"
         id="path4363"
         style="fill:none;stroke:#ffffff;stroke-width:8;stroke-linecap:butt;stroke-linejoin:miter;stroke-miterlimit:4;stroke-opacity:1;stroke-dasharray:none" />
      <path
         d="M 300,90 270,120 250,330 200,520 300,455 400,520 350,330 330,120 z"
         transform="translate(0,452.3616)"
         id="path4363-1"
         style="fill:none;stroke:#ffffff;stroke-width:8;stroke-linecap:square;stroke-linejoin:miter;stroke-miterlimit:4;stroke-opacity:1;stroke-dasharray:none" />
      <path
         d="m 260,672.3616 -160,55 400,0 -160,-55 z"
         id="path4363-2"
         style="fill:none;stroke:#ffffff;stroke-width:8;stroke-linecap:butt;stroke-linejoin:miter;stroke-miterlimit:4;stroke-opacity:1;stroke-dasharray:none" />
      <path
         d="m 220,450 160,0 -80,-55 z"
         transform="translate(0,452.3616)"
         id="path3807"
         style="fill:none;stroke:#ffffff;stroke-width:8;stroke-linecap:butt;stroke-linejoin:bevel;stroke-miterlimit:4;stroke-opacity:1;stroke-dasharray:none" />
      <path
         d="m 240,390 120,0 -60,-55 z"
         transform="translate(0,452.3616)"
         id="path3809"
         style="fill:none;stroke:#ffffff;stroke-width:8;stroke-linecap:butt;stroke-linejoin:miter;stroke-miterlimit:4;stroke-opacity:1;stroke-dasharray:none" />
      <path
         d="m 250,330 100,0 -50,-30 z"
         transform="translate(0,452.3616)"
         id="path3811"
         style="fill:none;stroke:#ffffff;stroke-width:8;stroke-linecap:butt;stroke-linejoin:bevel;stroke-miterlimit:4;stroke-opacity:1;stroke-dasharray:none" />
      <path
         d="m 260,220 85,55 55,-30 30,30"
         transform="translate(0,452.3616)"
         id="path3813"
         style="fill:none;stroke:#ffffff;stroke-width:8;stroke-linecap:butt;stroke-linejoin:miter;stroke-miterlimit:4;stroke-opacity:1;stroke-dasharray:none" />
      <path
         d="m 340,220 -85,55 -55,-30 -30,30"
         transform="translate(0,452.3616)"
         id="path3815"
         style="fill:none;stroke:#ffffff;stroke-width:8;stroke-linecap:butt;stroke-linejoin:miter;stroke-miterlimit:4;stroke-opacity:1;stroke-dasharray:none" />
      <path
         d="m 340,220 -75,-60 65,-40"
         transform="translate(0,452.3616)"
         id="path3819"
         style="fill:none;stroke:#ffffff;stroke-width:8;stroke-linecap:butt;stroke-linejoin:miter;stroke-miterlimit:4;stroke-opacity:1;stroke-dasharray:none" />
      <path
         d="m 260,672.3616 75,-60 -65,-40"
         id="path3819-3"
         style="fill:none;stroke:#ffffff;stroke-width:8;stroke-linecap:butt;stroke-linejoin:miter;stroke-miterlimit:4;stroke-opacity:1;stroke-dasharray:none" />
      <path
         d="m 255,275 45,25 45,-25"
         transform="translate(0,452.3616)"
         id="path3878"
         style="fill:none;stroke:#ffffff;stroke-width:8;stroke-linecap:butt;stroke-linejoin:miter;stroke-miterlimit:4;stroke-opacity:1;stroke-dasharray:none" />
    </g>
    <g
       transform="matrix(0.15300127,0,0,0.15300127,258.94387,703.24735)"
       id="g3158">
      <path
         d="m 259.75,862.3616 -29.75,81 c 17.74999,5.73761 38.11034,9 59.75,9 21.63966,0 42.00001,-3.26239 59.75,-9 l -29.75,-81 -60,0 z"
         id="path3778-7"
         style="fill:#ffffff;fill-opacity:1;stroke:none" />
      <path
         d="m 157.75,637.3616 -124.999997,220 404.999997,25 125,-220 -405,-25 z m 5.28125,5.53125 122.53125,8.0625 -35.5,62.46875 -121.59375,-7.71875 34.5625,-62.8125 z M 290,651.2366 l 124.3125,8.1875 -34.75,62.1875 L 254.53125,713.70535 290,651.2366 z m 128.75,8.46875 123.15625,8.09375 -35.5625,61.84375 -122.3125,-7.75 34.71875,-62.1875 z m -292.375,49.875 121.5,7.6875 -34.6875,61.03125 -120.437497,-7.625 33.624997,-61.09375 z m 125.96875,7.96875 125.09375,7.90625 -34.09375,61.0625 -125.6875,-7.9375 34.6875,-61.03125 z m 129.53125,8.1875 122.28125,7.75 -35.09375,61 -121.28125,-7.6875 34.09375,-61.0625 z M 90.625003,774.51785 211,782.14285 172.53125,849.8616 53.562503,841.9241 90.625003,774.51785 z M 215.46875,782.4241 341.1875,790.39285 303.15625,858.5491 177,850.14285 215.46875,782.4241 z m 130.1875,8.25 121.1875,7.65625 -39.375,68.5 -119.875,-8 38.0625,-68.15625 z"
         id="path3803"
         style="fill:#ffffff;fill-opacity:1;stroke:none" />
    </g>
    <g
       transform="matrix(0.14960631,0,0,0.14960631,352.62204,653.56398)"
       id="g3175">
      <g
         transform="matrix(16.864568,0,0,16.864568,-1766.4764,-1631.1156)"
         id="g321">
        <rect
           x="105.44"
           y="125"
           width="35"
           height="35"
           ry="4.2656999"
           fill="#a02c2c"
           id="rect289"
           style="fill:#a0842c;fill-opacity:0" />
        <g
           transform="matrix(1.1978,0,0,1.1978,-24.092,-28.475)"
           fill="#ffffff"
           id="g319">
          <g
             id="g301">
            <path
               d="m 122.67,137.37 c -0.0714,5e-5 -0.13744,0.0783 -0.1732,0.20521 l -2.6083,8.4082 -2.4045,8.5437 h 0.46203 l 2.2889,-8.1329 2.4351,-8.6512 2.432,8.6541 2.2852,8.13 h 0.46151 l -2.3998,-8.5404 -2.6057,-8.4111 c -0.0357,-0.12711 -0.10172,-0.20549 -0.17319,-0.20563 z"
               color="#000000"
               stroke="#ffffff"
               stroke-width="0.33127"
               id="path291" />
            <rect
               x="120.63"
               y="143.12"
               width="4.0503001"
               height="0.70410001"
               ry="0.35205001"
               id="rect293" />
            <rect
               x="119.76"
               y="146.24001"
               width="5.8741999"
               height="0.70410001"
               ry="0.35205001"
               id="rect295" />
            <rect
               x="118.82"
               y="149.46001"
               width="7.6901999"
               height="0.70410001"
               ry="0.35205001"
               id="rect297" />
            <ellipse
               transform="scale(-1,1)"
               cx="-122.64"
               cy="137.67"
               rx="1.0861"
               ry="1.1569"
               id="ellipse299" />
          </g>
          <g
             transform="matrix(0.019515,-0.35702,0.47037,0.02394,7.3039,177.96)"
             id="g309">
            <path
               d="m 128.65,232.65 c -0.9915,0.0113 -1.9788,0.22703 -2.8584,0.64786 -1.1579,0.55398 -2.1991,1.4208 -2.1786,1.7935 0.0205,0.37271 0.48139,0.62751 0.99746,0.48918 0.51606,-0.13832 0.88081,-0.74194 2.3034,-1.31 1.3332,-0.53239 2.2656,-0.50944 3.6252,-0.0341 0.88236,0.30845 1.4316,0.86061 1.9134,1.1768 0.4818,0.31619 1.2565,0.0259 1.0291,-0.48747 -0.22738,-0.51334 -0.72435,-1.1422 -1.95,-1.6918 -0.89412,-0.4009 -1.8902,-0.59531 -2.8818,-0.584 z"
               color="#000000"
               style="-inkscape-stroke:none"
               id="path303" />
            <path
               d="m 128.93,226.89 c -1.9086,0.0237 -3.8092,0.47701 -5.5024,1.3612 -2.2289,1.164 -4.0518,2.6439 -3.9126,3.5748 0.1392,0.9309 1.283,0.87644 1.8195,0.63631 0.5365,-0.24013 0.93896,-1.2682 3.3268,-2.5332 2.6751,-1.4172 5.9669,-1.419 8.6989,-0.082 1.6097,0.78779 2.687,1.8976 3.4447,2.8023 0.7577,0.9047 2.1253,0.0489 1.9836,-0.69142 -0.14174,-0.74027 -1.9518,-2.6864 -4.3111,-3.841 -1.7212,-0.84231 -3.6387,-1.2508 -5.5473,-1.227 z"
               color="#000000"
               style="-inkscape-stroke:none"
               id="path305" />
            <path
               d="m 128.69,220.82 c -3.1563,0.0321 -5.4924,0.47761 -8.2925,1.6748 -3.686,1.576 -6.8139,4.37 -7.0948,5.201 -0.28099,0.83105 1.1506,1.1926 2.2184,0.44944 1.0678,-0.74316 1.8117,-2.0161 5.9487,-3.9703 4.3313,-2.046 9.9699,-1.9579 14.488,-0.14764 3.7558,1.5149 5.3438,3.349 6.317,4.408 0.9732,1.059 2.7963,1.3237 2.713,0.28895 -0.0833,-1.0348 -3.2222,-4.6796 -7.1238,-6.243 -2.8463,-1.1405 -6.0173,-1.6936 -9.1736,-1.6614 z"
               color="#000000"
               style="-inkscape-stroke:none"
               id="path307" />
          </g>
          <g
             transform="matrix(-0.019515,-0.35702,-0.47037,0.02394,238.04,177.96)"
             id="g317">
            <path
               d="m 128.65,232.65 c -0.9915,0.0113 -1.9788,0.22703 -2.8584,0.64786 -1.1579,0.55398 -2.1991,1.4208 -2.1786,1.7935 0.0205,0.37271 0.48139,0.62751 0.99746,0.48918 0.51606,-0.13832 0.88081,-0.74194 2.3034,-1.31 1.3332,-0.53239 2.2656,-0.50944 3.6252,-0.0341 0.88236,0.30845 1.4316,0.86061 1.9134,1.1768 0.4818,0.31619 1.2565,0.0259 1.0291,-0.48747 -0.22738,-0.51334 -0.72435,-1.1422 -1.95,-1.6918 -0.89412,-0.4009 -1.8902,-0.59531 -2.8818,-0.584 z"
               color="#000000"
               style="-inkscape-stroke:none"
               id="path311" />
            <path
               d="m 128.93,226.89 c -1.9086,0.0237 -3.8092,0.47701 -5.5024,1.3612 -2.2289,1.164 -4.0518,2.6439 -3.9126,3.5748 0.1392,0.9309 1.283,0.87644 1.8195,0.63631 0.5365,-0.24013 0.93896,-1.2682 3.3268,-2.5332 2.6751,-1.4172 5.9669,-1.419 8.6989,-0.082 1.6097,0.78779 2.687,1.8976 3.4447,2.8023 0.7577,0.9047 2.1253,0.0489 1.9836,-0.69142 -0.14174,-0.74027 -1.9518,-2.6864 -4.3111,-3.841 -1.7212,-0.84231 -3.6387,-1.2508 -5.5473,-1.227 z"
               color="#000000"
               style="-inkscape-stroke:none"
               id="path313" />
            <path
               d="m 128.69,220.82 c -3.1563,0.0321 -5.4924,0.47761 -8.2925,1.6748 -3.686,1.576 -6.8139,4.37 -7.0948,5.201 -0.28099,0.83105 1.1506,1.1926 2.2184,0.44944 1.0678,-0.74316 1.8117,-2.0161 5.9487,-3.9703 4.3313,-2.046 9.9699,-1.9579 14.488,-0.14764 3.7558,1.5149 5.3438,3.349 6.317,4.408 0.9732,1.059 2.7963,1.3237 2.713,0.28895 -0.0833,-1.0348 -3.2222,-4.6796 -7.1238,-6.243 -2.8463,-1.1405 -6.0173,-1.6936 -9.1736,-1.6614 z"
               color="#000000"
               style="-inkscape-stroke:none"
               id="path315" />
          </g>
        </g>
      </g>
    </g>
    <g
       transform="matrix(0.39540593,0,0,0.39540593,91.378221,437.77592)"
       id="g3841"
       style="stroke:#ffffff;stroke-width:5;stroke-miterlimit:4;stroke-opacity:1;stroke-dasharray:none">
      <path
         d="m 300,302.5 c -31.75637,0 -57.5,25.74363 -57.5,57.5 0,26.65589 17.5,40 27.5,50 5,5 12.5,10 12.5,15 0,10 0,30 0,30 0,9.695 7.805,17.5 17.5,17.5 9.695,0 17.5,-7.805 17.5,-17.5 0,0 0,-20 0,-30 0,-5 7.5,-10 12.5,-15 10,-10 27.5,-23.34411 27.5,-50 0,-31.75637 -25.74363,-57.5 -57.5,-57.5 z"
         transform="translate(0,452.3616)"
         id="path4343"
         style="fill:none;stroke:#ffffff;stroke-width:5;stroke-miterlimit:4;stroke-opacity:1;stroke-dasharray:none" />
      <path
         d="m 285,430 30,0"
         transform="translate(0,452.3616)"
         id="path3790"
         style="fill:none;stroke:#ffffff;stroke-width:5;stroke-linecap:butt;stroke-linejoin:miter;stroke-miterlimit:4;stroke-opacity:1;stroke-dasharray:none" />
      <path
         d="m 285,891.3616 30,0"
         id="path3790-3"
         style="fill:none;stroke:#ffffff;stroke-width:5;stroke-linecap:butt;stroke-linejoin:miter;stroke-miterlimit:4;stroke-opacity:1;stroke-dasharray:none" />
      <path
         d="m 285,900.3616 30,0"
         id="path3790-2"
         style="fill:none;stroke:#ffffff;stroke-width:5;stroke-linecap:butt;stroke-linejoin:miter;stroke-miterlimit:4;stroke-opacity:1;stroke-dasharray:none" />
      <path
         d="m 285,909.3616 30,0"
         id="path3790-8"
         style="fill:none;stroke:#ffffff;stroke-width:5;stroke-linecap:butt;stroke-linejoin:miter;stroke-miterlimit:4;stroke-opacity:1;stroke-dasharray:none" />
      <path
         d="m 292,417 -5,-17 -12,-20 9,5 9,-5 7,5 7,-5 9,5 9,-5 -12,20 -5,17"
         transform="translate(0,452.3616)"
         id="path3839"
         style="fill:none;stroke:#ffffff;stroke-width:5;stroke-linecap:butt;stroke-linejoin:round;stroke-miterlimit:4;stroke-opacity:1;stroke-dasharray:none" />
    </g>
    <g
       transform="matrix(0.17757374,0,0,0.17757374,156.26747,506.08042)"
       id="g3209">
      <path
         d="m 152.82811,862.36304 c -20.70909,-0.17905 -37.64764,16.46136 -37.82667,37.17046 -0.17905,20.70909 16.46136,37.64763 37.17046,37.82667 20.70909,0.17905 37.64763,-16.46136 37.82667,-37.17046 0.17905,-20.70909 -16.46136,-37.64764 -37.17046,-37.82667 z m -1.26558,3.77329 c 5.85446,-0.16168 11.70008,1.20964 17.06186,4.07796 0,0 -3.00978,7.70544 -6.09352,10.31212 -3.08374,2.60668 -7.63296,5.3246 -8.53092,7.33565 -0.89798,2.01105 -0.46873,7.6169 -0.46873,7.6169 -1.11132,-0.24773 -2.04924,-0.11903 -3.02334,0.35154 -0.91485,-8.7305 -3.26077,-20.6779 -4.78106,-29.01451 1.937,-0.39374 3.88422,-0.62577 5.83571,-0.67966 z m -22.28821,9.28088 c 0,0 6.3954,5.23792 7.92158,8.97623 1.52616,3.73831 2.70064,8.90695 4.33577,10.38242 1.63515,1.47548 7.12473,2.78895 7.12473,2.78895 -0.57901,0.98038 -0.75588,1.92806 -0.60935,2.99988 -8.58593,-1.82778 -20.68644,-3.27578 -29.08483,-4.40607 0.89637,-7.85547 4.46568,-15.12407 10.3121,-20.74141 z m 52.59175,7.80441 c 3.89215,6.88207 5.27168,14.84629 3.8436,22.82725 0,0 -8.26285,-0.47416 -11.69487,-2.60147 -3.43201,-2.12729 -7.41889,-5.62657 -9.609,-5.85916 -2.19012,-0.23255 -7.40597,1.9218 -7.40597,1.9218 -0.10777,-1.13346 -0.51702,-2.00794 -1.26557,-2.78895 8.02051,-3.56795 18.67301,-9.47745 26.13181,-13.49947 z m -25.40529,18.74928 c 5.87182,6.5254 14.79882,14.82021 20.92889,20.67109 -5.3425,5.82834 -12.49882,9.60244 -20.53046,10.71052 0,0 -2.11102,-8.00781 -1.14839,-11.92923 0.96263,-3.92141 3.05705,-8.79011 2.60147,-10.94489 -0.45562,-2.15479 -4.10141,-6.44507 -4.10141,-6.44507 1.04468,-0.4528 1.73844,-1.10916 2.2499,-2.06242 z m -7.35908,0.84372 c 0.75346,0.85363 1.60711,1.30808 2.67177,1.49994 -4.39152,7.60087 -9.5246,18.65781 -13.19481,26.29587 -7.19401,-3.27996 -12.98705,-8.92201 -16.52281,-16.21813 0,0 6.96481,-4.46136 10.99178,-4.75763 4.02695,-0.29627 9.29414,0.18513 11.20268,-0.91404 1.90855,-1.09916 4.85139,-5.90601 4.85139,-5.90601 z"
         id="path3787-5-4"
         style="fill:#ffffff;fill-opacity:1;stroke:none" />
      <path
         d="m 457.8281,862.36304 c -20.70909,-0.17905 -37.64764,16.46136 -37.82667,37.17046 -0.17905,20.70909 16.46136,37.64763 37.17046,37.82667 20.70909,0.17905 37.64763,-16.46136 37.82667,-37.17046 0.17905,-20.70909 -16.46136,-37.64764 -37.17046,-37.82667 z m -1.26558,3.77329 c 5.85446,-0.16168 11.70008,1.20964 17.06186,4.07796 0,0 -3.00978,7.70544 -6.09352,10.31212 -3.08374,2.60668 -7.63296,5.3246 -8.53092,7.33565 -0.89798,2.01105 -0.46873,7.6169 -0.46873,7.6169 -1.11132,-0.24773 -2.04924,-0.11903 -3.02334,0.35154 -0.91485,-8.7305 -3.26077,-20.6779 -4.78106,-29.01451 1.937,-0.39374 3.88422,-0.62577 5.83571,-0.67966 z m -22.28821,9.28088 c 0,0 6.3954,5.23792 7.92158,8.97623 1.52616,3.73831 2.70064,8.90695 4.33577,10.38242 1.63515,1.47548 7.12473,2.78895 7.12473,2.78895 -0.57901,0.98038 -0.75588,1.92806 -0.60935,2.99988 -8.58593,-1.82778 -20.68644,-3.27578 -29.08483,-4.40607 0.89637,-7.85547 4.46568,-15.12407 10.3121,-20.74141 z m 52.59175,7.80441 c 3.89215,6.88207 5.27168,14.84629 3.8436,22.82725 0,0 -8.26285,-0.47416 -11.69487,-2.60147 -3.43201,-2.12729 -7.41889,-5.62657 -9.609,-5.85916 -2.19012,-0.23255 -7.40597,1.9218 -7.40597,1.9218 -0.10777,-1.13346 -0.51702,-2.00794 -1.26557,-2.78895 8.02051,-3.56795 18.67301,-9.47745 26.13181,-13.49947 z m -25.40529,18.74928 c 5.87182,6.5254 14.79882,14.82021 20.92889,20.67109 -5.3425,5.82834 -12.49882,9.60244 -20.53046,10.71052 0,0 -2.11102,-8.00781 -1.14839,-11.92923 0.96263,-3.92141 3.05705,-8.79011 2.60147,-10.94489 -0.45562,-2.15479 -4.10141,-6.44507 -4.10141,-6.44507 1.04468,-0.4528 1.73844,-1.10916 2.2499,-2.06242 z m -7.35908,0.84372 c 0.75346,0.85363 1.60711,1.30808 2.67177,1.49994 -4.39152,7.60087 -9.5246,18.65781 -13.19481,26.29587 -7.19401,-3.27996 -12.98705,-8.92201 -16.52281,-16.21813 0,0 6.96481,-4.46136 10.99178,-4.75763 4.02695,-0.29627 9.29414,0.18513 11.20268,-0.91404 1.90855,-1.09916 4.85139,-5.90601 4.85139,-5.90601 z"
         id="path3787-5-4-7"
         style="fill:#ffffff;fill-opacity:1;stroke:none" />
      <path
         d="m 328.59375,342.3125 c -14.42266,-0.0698 -28.19636,1.05939 -40.8125,3.84375 -24.82723,5.73288 -59.79079,19.69422 -87.375,31.4375 -45.64696,-2.10762 -130.776785,32.26069 -133.1875,35.90625 -2.410715,3.64556 -3.32479,3.89887 -3.375,5.28125 -0.04984,4.10354 0.884833,8.50837 1,12.4375 0.115167,3.92913 0.451916,12.762 1.25,13.4375 0.798084,0.67545 0.676436,0.20854 1.53125,0.65625 l 0.125,6.65625 c -0.940046,0.35855 -2.15925,1.06638 -2.15625,2.25 0.003,1.18362 1.434912,1.59356 2.40625,1.875 0,0 0.137827,1.12684 1.5,2.65625 1.362172,1.52941 21.76596,7.95063 42.46875,10.3125 1.44443,0.16479 2.80645,0.29411 4.15625,0.40625 C 112.24275,463.05582 110,455.54368 110,447.5 c 0,-23.4721 19.0279,-42.5 42.5,-42.5 23.4721,0 42.5,19.0279 42.5,42.5 0,7.5146 -1.95297,14.56248 -5.375,20.6875 1.20038,-0.007 2.37462,-0.0269 3.65625,-0.0312 51.00211,-0.17606 173.34874,1.61859 224.6875,0.90625 1.01104,-0.014 1.93647,-0.0439 2.875,-0.0625 C 417.13372,462.69025 415,455.34889 415,447.5 c 0,-23.4721 19.0279,-42.5 42.5,-42.5 23.4721,0 42.5,19.0279 42.5,42.5 0,6.89293 -1.64994,13.39918 -4.5625,19.15625 1.84749,-0.10652 4.25,-0.25 4.25,-0.25 7.37963,0.26063 10.92485,-2.72358 13.375,-6.21875 7.60118,-1.36417 13.40107,-1.51065 17.875,-8.90625 4.47393,-7.3956 9.82078,-16.22823 10.40625,-22.65625 -1.90691,-4.07184 -5.35021,-11.91406 -2.3125,-20.0625 1.85427,-4.97394 1.7077,-4.61629 1.625,-6.53125 0.0279,-2.69096 -5.37251,-4.83308 -5.8125,-9.53125 0.37057,-2.03705 1.60393,-9.05451 0.84375,-10.46875 -0.76018,-1.41424 -7.83761,-4.04125 -13.59375,-4.03125 -0.37485,-0.81608 -2.86839,-2.43519 -4.3125,-2.9375 -6.15016,-2.13923 -33.8125,-6.4375 -33.8125,-6.4375 -44.15332,-10.47759 -103.86551,-26.06308 -155.375,-26.3125 z M 328.5,352.875 c 25.80889,0.12194 52.77636,5.11299 74.21875,11.09375 l -8.46875,25.9375 c -53.87135,0.42469 -111.50536,1.59355 -160.32699,5.16818 L 218.84384,383.3653 c 35.34856,-19.09734 68.68952,-28.64859 98.68741,-30.2403 3.62049,-0.1921 7.28177,-0.26742 10.96875,-0.25 z m 81.75,12.90625 c 11.52734,3.17964 19.38789,6.0211 24.9375,9.3125 0,0 -3.43196,7.18369 -6.1875,8.1875 -8.88539,3.23683 -16.04354,5.54887 -27.0625,6.4375 z M 270,405 l 100,0 c 5.54,0 10,4.46 10,10 l 0,35 c 0,5.54 -4.46,10 -10,10 l -100,0 c -5.54,0 -10,-4.46 -10,-10 l 0,-10 -3,0 c -1.108,0 -2,-0.892 -2,-2 l 0,-11 c 0,-1.108 0.892,-2 2,-2 l 3,0 0,-10 c 0,-5.54 4.46,-10 10,-10 z"
         transform="translate(0,452.3616)"
         id="path4102"
         style="fill:#ffffff;fill-opacity:1;stroke:none" />
      <path
         d="m 270,412 c -1.662,0 -3,1.338 -3,3 l 0,35 c 0,1.662 1.338,3 3,3 l 100,0 c 1.662,0 3,-1.338 3,-3 l 0,-35 c 0,-1.662 -1.338,-3 -3,-3 l -100,0 z m 30,3 30,0 -30,35 -30,0 30,-35 z m 35,0 30,0 -30,35 -30,0 30,-35 z m 35,0 0,35 -30,0 30,-35 z"
         transform="translate(0,452.3616)"
         id="rect4186-3"
         style="fill:#ffffff;fill-opacity:1;stroke:none" />
    </g>
  </g>
</svg>
