<svg width="3001" height="521" viewBox="0 0 3001 521" fill="none" xmlns="http://www.w3.org/2000/svg">
<path d="M2975.58 378.217C2958.08 369.899 2942.34 358.602 2928.87 343.704C2901.43 313.288 2884.56 277.782 2884.44 236.192C2884.19 161.208 2884.44 86.3467 2884.44 11.3618C2884.44 8.38231 2884.44 5.52693 2884.44 2.05081C2884.44 1.18178 2885.07 0.561042 2885.95 0.561042H2937.81C2938.69 0.561042 2939.32 1.18178 2939.32 2.05081V13.4724C2939.32 85.726 2939.45 158.104 2939.32 230.357C2939.2 268.222 2954.68 298.514 2985.14 320.985C2990.05 324.585 2995.21 327.689 3000.5 330.668C2984.39 361.084 2991.44 347.677 2975.58 378.217Z" fill="#404040"/>
<path d="M1056.15 392.742H1005.79C1005.04 392.742 1004.28 392.121 1004.28 391.376C1004.16 387.9 1003.78 384.424 1003.78 380.824C1003.78 330.793 1003.91 280.885 1003.65 230.854C1003.4 176.229 965.386 130.543 911.006 119.122C851.212 106.459 789.027 147.8 778.201 207.639C776.565 216.453 775.935 225.64 775.81 234.703C775.558 286.472 775.684 338.117 775.684 390.88C775.684 391.749 775.054 392.37 774.173 392.37H723.066C722.184 392.37 721.555 391.749 721.555 390.88V2.05081C721.555 1.18178 722.184 0.561042 723.066 0.561042H773.795C774.677 0.561042 775.306 1.18178 775.306 2.05081V105.962C775.306 107.203 776.691 107.824 777.698 107.203C782.481 103.976 786.006 101.617 789.279 99.2581C857.632 50.2199 951.917 57.6688 1010.95 117.135C1041.17 147.551 1057.28 184.547 1057.91 227.254C1058.54 280.637 1058.03 334.02 1058.03 387.404C1058.03 388.645 1057.78 389.762 1057.53 391.501C1057.53 392.121 1056.9 392.742 1056.15 392.742Z" fill="#404040"/>
<path d="M2498.11 393.735H2446.63C2445.74 393.735 2445.11 393.114 2445.11 392.245C2445.11 388.397 2445.11 384.548 2445.11 380.7C2444.99 326.944 2446 273.188 2444.23 219.433C2442.47 164.435 2394.38 119.246 2336.98 115.521C2282.35 111.921 2229.98 152.641 2220.42 206.397C2219.03 214.591 2218.28 222.909 2218.15 231.227C2217.9 284.486 2218.03 337.745 2218.03 391.873C2218.03 392.742 2217.4 393.363 2216.51 393.363H2164.53C2163.65 393.363 2163.02 392.618 2163.02 391.873C2163.02 388.149 2163.02 384.672 2163.02 381.072C2163.02 331.041 2163.02 281.134 2163.02 231.102C2163.02 146.31 2223.56 78.4013 2308.91 67.2281C2397.03 55.6824 2478.85 111.797 2496.98 197.955C2498.99 207.266 2499.75 216.701 2499.87 226.261C2500.38 279.768 2500.12 333.4 2500 386.907C2500 388.521 2499.75 390.135 2499.5 392.494C2499.5 393.239 2498.87 393.735 2498.11 393.735Z" fill="#404040"/>
<path d="M580.065 0.0644531H631.298C632.18 0.0644531 632.809 0.685189 632.809 1.55422V66.1108C632.809 66.9798 633.438 67.6005 634.32 67.6005H695.246C696.127 67.6005 696.756 68.2213 696.756 69.0903V115.397C696.756 116.266 696.127 116.887 695.246 116.887H634.445C633.564 116.887 632.935 117.508 632.935 118.377V390.88C632.935 391.749 632.305 392.37 631.424 392.37H579.939C579.058 392.37 578.428 391.749 578.428 390.88V1.55422C578.554 0.685189 579.184 0.0644531 580.065 0.0644531Z" fill="#404040"/>
<path d="M415.161 392.742H363.55C362.795 392.742 362.165 392.121 362.039 391.376C361.788 388.893 361.41 386.783 361.41 384.548C361.41 331.165 361.032 277.782 361.662 224.398C362.543 148.048 424.98 79.7669 502.271 69.9593C514.103 68.4696 526.188 67.973 538.902 66.9798C539.783 66.8556 540.538 67.6005 540.538 68.4695V116.39C540.538 117.135 539.909 117.88 539.154 117.88C529.083 118.625 518.761 118.625 508.942 120.736C453.555 132.281 417.175 176.478 416.923 232.468C416.672 281.258 416.923 330.172 416.923 378.962C416.923 382.686 416.923 386.41 416.923 391.128C416.672 392.121 415.916 392.742 415.161 392.742Z" fill="#404040"/>
<path d="M1777.44 209.749C1766.24 120.239 1679.89 55.0617 1588.87 68.3454C1463.75 86.4709 1396.28 222.288 1477.72 332.406C1527.82 400.315 1638.34 416.082 1707.08 366.795C1711.48 363.692 1715.64 360.091 1720.04 356.491C1720.92 355.746 1722.43 356.243 1722.56 357.484C1726.21 397.832 1700.15 441.284 1661.13 460.03C1638.09 471.079 1613.67 474.431 1588.37 469.837C1557.53 464.127 1533.61 447.739 1515.11 422.537C1514.6 421.917 1513.72 421.792 1513.09 422.165C1498.87 431.476 1485.27 440.415 1471.05 449.726C1472.31 451.96 1472.81 452.953 1473.44 453.822C1510.2 505.716 1582.58 531.663 1649.04 516.765C1725.58 499.509 1778.32 434.58 1778.58 357.236C1778.7 326.944 1778.7 296.652 1778.58 266.36C1778.45 247.49 1779.71 228.371 1777.44 209.749ZM1610.9 346.808C1547.96 346.683 1496.1 288.458 1497.23 230.606C1497.48 168.16 1549.47 116.142 1611.41 116.39C1674.22 116.639 1724.95 168.036 1724.95 230.978C1724.82 289.7 1673.72 346.932 1610.9 346.808Z" fill="#404040"/>
<path d="M2860.14 227.626C2860.14 220.302 2859.64 212.853 2858.26 205.528C2841.01 111.052 2754.28 51.5855 2659.24 70.4559C2598.31 82.4982 2554.63 118.253 2533.61 176.726C2512.59 235.199 2523.92 290.321 2563.44 337.248C2629.4 415.585 2751.63 411.116 2808.03 350.035C2808.53 349.415 2809.79 349.415 2811.93 348.67V391.004C2811.93 391.873 2812.56 392.494 2813.44 392.494H2858.38C2859.14 392.494 2859.77 391.873 2859.89 391.128C2860.02 388.769 2860.27 387.155 2860.27 385.541C2860.27 332.903 2860.39 280.265 2860.14 227.626ZM2692.09 346.683C2630.29 346.311 2577.42 286.844 2578.8 229.985C2580.31 167.291 2630.91 115.894 2693.35 116.142C2756.8 116.39 2805.89 167.415 2806.27 232.096C2806.77 287.589 2754.91 347.056 2692.09 346.683Z" fill="#404040"/>
<path d="M168.561 67.7247C75.9124 67.7247 -0.497204 140.972 0.509842 230.854C1.51689 322.475 69.4925 395.597 167.176 395.97C268.384 396.342 335.73 322.102 337.241 231.599C338.751 141.468 261.712 67.7247 168.561 67.7247ZM167.805 347.18C103.858 346.932 53.6315 288.458 54.8903 230.357C55.0162 168.284 106.879 116.887 168.938 117.259C231.375 117.632 282.357 168.656 282.609 230.854C282.86 290.817 232.005 347.428 167.805 347.18Z" fill="#404040"/>
<path d="M1249.12 68.2213C1156.6 68.4695 1081.83 141.965 1082.2 232.22C1082.58 325.578 1156.35 397.211 1251.76 396.715C1345.04 396.218 1419.06 322.475 1418.68 230.233C1418.31 141.096 1341.77 67.973 1249.12 68.2213ZM1249 347.677C1186.68 347.304 1135.95 291.19 1135.83 232.096C1135.7 169.774 1187.94 117.384 1250.13 118.004C1313.07 118.625 1363.67 169.277 1363.67 231.475C1364.81 290.196 1313.45 348.049 1249 347.677Z" fill="#404040"/>
<path d="M1970.54 66.9798C1877.52 66.8556 1802.12 139.358 1802.49 229.737C1802.87 320.612 1873.49 394.356 1969.16 394.728C2068.23 395.101 2138.09 320.24 2139.35 230.482C2140.48 140.102 2064.2 67.1039 1970.54 66.9798ZM1969.79 345.814C1908.11 345.566 1855.99 288.334 1856.75 229.116C1857.5 166.422 1907.86 116.515 1970.92 116.639C2033.74 116.763 2084.21 167.291 2084.59 229.613C2085.1 289.079 2032.73 346.063 1969.79 345.814Z" fill="#404040"/>
</svg>
