<?xml version="1.0" encoding="UTF-8"?>
<svg id="Layer_1" data-name="Layer 1" xmlns="http://www.w3.org/2000/svg" viewBox="0 0 225 31.87">
  <defs>
    <style>
      .cls-1 {
        stroke-width: 0px;
      }
    </style>
  </defs>
  <path class="cls-1" d="m5.23,15.97s15.88-1.94,17.14-3.14c1.34-1.28,3.33-11.02,3.33-11.02h1.2s1.94,9.64,3.21,10.91,17.17,3.25,17.17,3.25v1.17s-15.75,1.86-17,3.04c-1.37,1.28-3.32,11.07-3.32,11.07h-1.31s-1.79-9.42-2.93-10.67c-1.28-1.41-17.49-3.49-17.49-3.49v-1.11Z"/>
  <path class="cls-1" d="m0,25.78s5.56-.69,6-1.12c.47-.46,1.16-3.94,1.16-3.94h.42s.68,3.44,1.12,3.9,6.01,1.16,6.01,1.16v.42s-5.51.66-5.95,1.08c-.48.46-1.16,3.95-1.16,3.95h-.46s-.63-3.36-1.02-3.81C5.67,26.92,0,26.17,0,26.17v-.4Z"/>
  <path class="cls-1" d="m37.61,6.85s5.56-.69,6-1.12c.47-.46,1.16-3.94,1.16-3.94h.42s.68,3.44,1.12,3.9,6.01,1.16,6.01,1.16v.42s-5.51.66-5.95,1.08c-.48.46-1.16,3.95-1.16,3.95h-.46s-.63-3.36-1.02-3.81c-.45-.5-6.12-1.25-6.12-1.25v-.4Z"/>
  <g>
    <path class="cls-1" d="m66.72,21.53v9.71h-5.59V1.81h11.82c7.31,0,10.89,3.33,10.89,9.91,0,5.59-3.78,9.81-10.69,9.81h-6.42Zm0-14.96v10.35h5.79c4.12,0,5.84-1.62,5.84-5.15s-1.52-5.2-5.88-5.2h-5.74Z"/>
    <path class="cls-1" d="m87.35,4.27V0h5.74v4.27h-5.74Zm.2,26.97V7.55h5.3v23.68h-5.3Z"/>
    <path class="cls-1" d="m107.96,12.26c-3.78,0-6.13,2.4-6.13,7.45,0,4.66,2.16,7.5,6.28,7.5,3.73,0,5-2.3,5.69-5.1l4.85,1.18c-.93,5.35-4.17,8.58-10.49,8.58-7.26,0-11.72-4.22-11.72-11.96s4.56-12.31,11.62-12.31c6.62,0,9.61,3.14,10.54,8.63l-4.95.93c-.69-2.94-2.06-4.9-5.69-4.9Z"/>
    <path class="cls-1" d="m123.33,11.8h-3.24v-4.27h3.24V1.96h5.3v5.57h6.77v4.27h-6.77v11.69c0,2.26.83,3.43,3.14,3.43,1.18,0,2.21-.25,3.33-.59l.64,4.71c-1.72.54-2.89.83-5.2.83-5.05,0-7.21-3.33-7.21-7.65v-12.43Z"/>
    <path class="cls-1" d="m137.6,19.66c0-7.6,4.56-12.06,11.72-12.06s11.62,4.46,11.62,12.06-4.32,12.21-11.62,12.21-11.72-4.66-11.72-12.21Zm5.3-.05c0,4.76,1.96,7.7,6.37,7.7s6.42-2.94,6.42-7.7-2.16-7.55-6.42-7.55-6.37,2.79-6.37,7.55Z"/>
    <path class="cls-1" d="m164.63,31.31V7.48h5v6.91l.44.05c1.32-5.59,3.48-7.21,6.82-7.21h.83v5.93h-1.27c-4.85,0-6.57,1.72-6.57,6.42v11.71h-5.25Z"/>
    <path class="cls-1" d="m196.69,25.16h-.49c-1.28,4.27-4.22,6.72-8.04,6.72-4.85,0-7.16-3.29-7.16-8.29V7.55h5.3v14.66c0,2.8,1.23,4.85,4.36,4.85,3.58,0,5.88-2.35,5.88-5.84V7.55h5.3v23.68h-5.15v-6.08Z"/>
    <path class="cls-1" d="m204.8,24.42l4.76-.98c.74,2.79,2.35,4.56,6.08,4.56,2.79,0,4.27-.98,4.27-2.94,0-1.81-1.28-2.7-5.84-3.53-6.13-1.23-8.29-3.29-8.29-7.11,0-4.17,3.04-6.82,9.17-6.82s8.48,2.6,9.42,6.67l-4.76,1.03c-.64-2.84-2.01-3.92-4.76-3.92s-4.07,1.03-4.07,2.75c0,1.62.98,2.75,5.34,3.53,6.82,1.27,8.88,3.58,8.88,7.21,0,4.27-2.84,7.01-9.46,7.01-7.45,0-9.91-3.04-10.74-7.45Z"/>
  </g>
</svg>