<svg width="100" height="46" viewBox="0 0 100 46" fill="none" xmlns="http://www.w3.org/2000/svg">
<path d="M5.28593 12.791H9.07101L12.3545 18.9931H17.1367L13.1044 12.0437C13.6587 11.7885 14.1573 11.4706 14.5971 11.0848C15.8943 9.94763 16.5429 8.38927 16.5429 6.41068C16.5429 4.39259 15.8943 2.82005 14.5971 1.69203C13.3 0.564009 11.5032 0 9.2068 0H1.12792V18.9931H5.28593V12.791ZM9.32537 3.68075C10.276 3.68075 11.0137 3.92275 11.5387 4.40778C12.0626 4.89281 12.3261 5.58036 12.3261 6.47042C12.3261 7.32099 12.0636 7.99436 11.5387 8.4885C11.0137 8.98365 10.276 9.23072 9.32537 9.23072H5.28593V3.68075H9.32537ZM32.6429 14.0081H28.6034C28.5041 14.3645 28.3217 14.6865 28.0542 14.9731C27.7866 15.2597 27.4502 15.4824 27.0448 15.6414C26.6384 15.8004 26.1388 15.8783 25.545 15.8783C24.8123 15.8783 24.1495 15.7295 23.5546 15.4328C22.9608 15.1361 22.4956 14.6713 22.1592 14.0375C21.9585 13.6598 21.8187 13.2132 21.7376 12.7019H32.7027C32.7219 12.5044 32.7624 12.1409 32.7624 11.5151C32.7624 9.93245 32.4453 8.57254 31.8119 7.4344C31.1775 6.29726 30.307 5.41632 29.1983 4.79358C28.0886 4.16982 26.8117 3.85896 25.3666 3.85896C23.882 3.85896 22.5645 4.18096 21.4163 4.82395C20.2681 5.46695 19.3672 6.36713 18.7136 7.52452C18.0599 8.6819 17.7336 10.0327 17.7336 11.5759C17.7336 13.1191 18.0701 14.4698 18.744 15.6272C19.4169 16.7846 20.3431 17.6848 21.5207 18.3278C22.6983 18.9708 24.04 19.2928 25.545 19.2928C26.8117 19.2928 27.9457 19.07 28.946 18.6245C29.9452 18.1789 30.7721 17.5613 31.4258 16.7694C32.0784 15.9766 32.4838 15.0571 32.6429 14.0081ZM23.4502 7.58325C23.9944 7.31592 24.5934 7.18226 25.247 7.18226C25.8804 7.18226 26.4651 7.3058 26.9992 7.55287C27.5343 7.80095 27.969 8.18169 28.3065 8.69507C28.5386 9.04947 28.6885 9.47577 28.7605 9.97092H21.7954C21.8764 9.57197 21.992 9.22566 22.144 8.93201C22.4703 8.30016 22.905 7.85057 23.4502 7.58325ZM38.7872 18.9941H34.7183V4.15565H37.5994L38.3625 5.6806C38.7659 5.22899 39.2523 4.84826 39.8269 4.54144C40.6782 4.08679 41.6581 3.85896 42.7678 3.85896C43.9758 3.85896 45.05 4.10704 45.9905 4.60118C46.9309 5.09634 47.6788 5.80819 48.2331 6.73774C48.7875 7.6683 49.0651 8.77607 49.0651 10.0621V18.9951H44.9963V10.6858C44.9963 10.0135 44.8676 9.43425 44.6102 8.95024C44.3528 8.46521 43.991 8.0946 43.5258 7.83741C43.0607 7.58021 42.5205 7.45161 41.9074 7.45161C40.9569 7.45161 40.1998 7.73311 39.6354 8.29712C39.0709 8.86113 38.7892 9.65804 38.7892 10.6858V18.9941H38.7872ZM66.2697 4.15565H63.3886L62.6245 5.68364C62.3023 5.3586 61.9486 5.07204 61.5625 4.82395C60.5622 4.18096 59.3988 3.85896 58.0723 3.85896C56.765 3.85896 55.557 4.18096 54.4483 4.82395C53.3397 5.46695 52.4438 6.36713 51.7608 7.52452C51.0778 8.6819 50.7362 10.0327 50.7362 11.5759C50.7362 13.1191 51.0778 14.4698 51.7608 15.6272C52.4438 16.7846 53.3397 17.6848 54.4483 18.3278C55.557 18.9708 56.765 19.2928 58.0723 19.2928C59.3988 19.2928 60.5622 18.9718 61.5625 18.3278C61.9486 18.0797 62.3023 17.7931 62.6245 17.4681L63.3886 18.9961H66.2697V4.15565ZM60.6261 15.1655C60.0515 15.5017 59.3978 15.6698 58.6661 15.6698C57.9335 15.6698 57.2798 15.5017 56.7062 15.1655C56.1316 14.8293 55.6766 14.3544 55.3401 13.7408C55.0037 13.1282 54.8355 12.4052 54.8355 11.5749C54.8355 10.7243 55.0037 9.99219 55.3401 9.37856C55.6766 8.76595 56.1316 8.29104 56.7062 7.95385C57.2798 7.61768 57.9335 7.44959 58.6661 7.44959C59.3988 7.44959 60.0515 7.61768 60.6261 7.95385C61.1997 8.29003 61.6557 8.76493 61.9921 9.37856C62.3286 9.99219 62.4968 10.7243 62.4968 11.5749C62.4968 12.4062 62.3286 13.1282 61.9921 13.7408C61.6557 14.3544 61.2007 14.8293 60.6261 15.1655ZM78.6384 4.15565H82.7072V12.9996C82.7072 14.2663 82.4103 15.3741 81.8164 16.3239C81.2226 17.2737 80.4007 18.0058 79.3508 18.5202C78.3009 19.0346 77.0828 19.2918 75.6975 19.2918C73.5987 19.2918 71.9053 18.7328 70.6183 17.6149C69.3312 16.497 68.6877 14.9589 68.6877 13.0006V4.15666H72.7566V12.555C72.7566 13.5838 73.0241 14.3605 73.5582 14.885C74.0932 15.4095 74.8057 15.6718 75.6965 15.6718C76.6065 15.6718 77.325 15.4095 77.85 14.885C78.3749 14.3615 78.6374 13.5838 78.6374 12.555V4.15565H78.6384ZM85.0259 0H89.0947V18.9931H85.0259V0ZM19.6763 29.7143C19.6865 30.0009 19.6915 30.2834 19.6915 30.5598C19.6915 32.4787 19.2659 34.1312 18.4146 35.5154C17.5634 36.9006 16.4101 37.9638 14.9549 38.7061C13.4996 39.4483 11.8508 39.8189 10.0094 39.8189C8.58356 39.8189 7.26208 39.5759 6.04396 39.0919C4.82585 38.6068 3.76683 37.9193 2.86592 37.0292C1.965 36.1392 1.26169 35.1002 0.757015 33.9135C0.252339 32.7267 0 31.4306 0 30.0262C0 28.6217 0.247272 27.3256 0.742828 26.1389C1.23737 24.9521 1.93054 23.9183 2.82234 23.0373C3.71312 22.1574 4.76301 21.4698 5.971 20.9747C7.17898 20.4805 8.49539 20.2325 9.92126 20.2325C11.7038 20.2325 13.2523 20.5494 14.5698 21.1823C15.8862 21.8151 16.9462 22.6465 17.7478 23.6752C18.5494 24.704 19.05 25.8118 19.2476 26.9986H14.9113C14.7724 26.5237 14.4907 26.0589 14.0651 25.6032C13.6394 25.1486 13.0851 24.7719 12.4021 24.4752C11.719 24.1785 10.9022 24.0297 9.95166 24.0297C8.84299 24.0297 7.85796 24.2777 6.99657 24.7719C6.13517 25.267 5.46227 25.9586 4.97684 26.8497C4.49142 27.7398 4.24922 28.7989 4.24922 30.0252C4.24922 31.2524 4.49649 32.3207 4.99205 33.23C5.48659 34.1403 6.17469 34.843 7.05636 35.3372C7.93701 35.8323 8.94231 36.0794 10.0712 36.0794C11.1201 36.0794 12.0362 35.9164 12.8186 35.5893C13.6009 35.2633 14.2151 34.7732 14.66 34.1201C14.9913 33.634 15.2102 33.0599 15.3166 32.3987H8.91292V28.8972H19.6054C19.6419 29.1564 19.6662 29.4277 19.6763 29.7143ZM43.4255 25.3521C42.2175 24.7091 40.8515 24.3871 39.3263 24.3871C37.8011 24.3871 36.4401 24.7091 35.2423 25.3521C34.0444 25.9951 33.0989 26.8953 32.4057 28.0527C31.7126 29.21 31.366 30.5608 31.366 32.104C31.366 33.6472 31.7126 34.998 32.4057 36.1554C33.0989 37.3127 34.0444 38.2129 35.2423 38.8559C36.4401 39.4989 37.8011 39.8209 39.3263 39.8209C40.8504 39.8209 42.2175 39.4999 43.4255 38.8559C44.6335 38.2129 45.5831 37.3127 46.2772 36.1554C46.9704 34.998 47.317 33.6472 47.317 32.104C47.317 30.5608 46.9704 29.21 46.2772 28.0527C45.5841 26.8953 44.6335 25.9951 43.4255 25.3521ZM42.7131 34.2699C42.3766 34.8836 41.9155 35.3585 41.3318 35.6946C40.7471 36.0308 40.0792 36.1989 39.3273 36.1989C38.5946 36.1989 37.9359 36.0308 37.3522 35.6946C36.7674 35.3585 36.3073 34.8836 35.9709 34.2699C35.6344 33.6573 35.4662 32.9343 35.4662 32.104C35.4662 31.2534 35.6344 30.5213 35.9709 29.9077C36.3073 29.2951 36.7674 28.8202 37.3522 28.483C37.9359 28.1468 38.5946 27.9787 39.3273 27.9787C40.0792 27.9787 40.7481 28.1468 41.3318 28.483C41.9155 28.8192 42.3756 29.2941 42.7131 29.9077C43.0495 30.5213 43.2178 31.2534 43.2178 32.104C43.2178 32.9343 43.0495 33.6573 42.7131 34.2699ZM58.879 24.6838H62.9478V33.5277C62.9478 34.7944 62.6509 35.9022 62.057 36.852C61.4632 37.8018 60.6413 38.5339 59.5914 39.0483C58.5415 39.5627 57.3244 39.8199 55.9381 39.8199C53.8393 39.8199 52.1459 39.261 50.8589 38.1431C49.5718 37.0252 48.9283 35.4871 48.9283 33.5287V24.6848H52.9971V33.0832C52.9971 34.112 53.2647 34.8886 53.7988 35.4131C54.3338 35.9376 55.0463 36.1999 55.937 36.1999C56.8471 36.1999 57.5656 35.9376 58.0905 35.4131C58.6155 34.8886 58.878 34.112 58.878 33.0832V24.6838H58.879ZM77.2906 25.3521C76.1809 24.7091 74.9638 24.3871 73.6372 24.3871C72.3299 24.3871 71.1716 24.7091 70.1622 25.3521C69.7792 25.5961 69.4275 25.8776 69.1063 26.1956L68.3503 24.6838H65.4692V45.1613H69.538V38.2889C69.7771 38.5086 70.0346 38.7081 70.3102 38.8853C71.28 39.508 72.3897 39.8199 73.6372 39.8199C74.9638 39.8199 76.1809 39.4989 77.2906 38.8549C78.3992 38.2119 79.2951 37.3117 79.9781 36.1543C80.6611 34.997 81.0027 33.6462 81.0027 32.103C81.0027 30.5598 80.6611 29.209 79.9781 28.0516C79.2951 26.8953 78.3992 25.9951 77.2906 25.3521ZM76.3988 34.2699C76.0623 34.8836 75.6063 35.3585 75.0327 35.6946C74.4581 36.0308 73.8044 36.1989 73.0727 36.1989C72.3401 36.1989 71.6864 36.0308 71.1128 35.6946C70.5382 35.3585 70.0832 34.8836 69.7467 34.2699C69.4103 33.6573 69.2421 32.9343 69.2421 32.104C69.2421 31.2534 69.4103 30.5213 69.7467 29.9077C70.0832 29.2951 70.5382 28.8202 71.1128 28.483C71.6874 28.1468 72.3401 27.9787 73.0727 27.9787C73.8054 27.9787 74.4581 28.1468 75.0327 28.483C75.6073 28.8192 76.0623 29.2941 76.3988 29.9077C76.7352 30.5213 76.9034 31.2534 76.9034 32.104C76.9044 32.9343 76.7352 33.6573 76.3988 34.2699ZM25.4061 26.8072C26.7884 25.6073 28.5538 24.6696 30.7022 24.6696V28.5903C28.0917 28.5903 26.7844 29.7315 26.1297 30.8079C25.6818 31.5451 25.473 32.4027 25.473 33.2644V39.5222H21.4042V24.6838H24.7687L25.4061 26.8072ZM99.999 15.2546V18.9941H97.4148C95.9889 18.9941 94.8306 18.8017 93.9398 18.4159C93.049 18.0301 92.3954 17.4266 91.9799 16.6054C91.5644 15.7842 91.3566 14.7412 91.3566 13.4745V7.53869V5.19456V0.00101203H95.4255V4.15565H100V7.53869H95.4255V13.1474C95.4255 13.8795 95.5937 14.4141 95.9302 14.7503C96.2666 15.0865 96.8017 15.2546 97.5344 15.2546H99.999Z" fill="black"/>
</svg>
