<?xml version="1.0" encoding="UTF-8" standalone="no"?>
<svg
   xmlns:dc="http://purl.org/dc/elements/1.1/"
   xmlns:cc="http://creativecommons.org/ns#"
   xmlns:rdf="http://www.w3.org/1999/02/22-rdf-syntax-ns#"
   xmlns:svg="http://www.w3.org/2000/svg"
   xmlns="http://www.w3.org/2000/svg"
   xmlns:sodipodi="http://sodipodi.sourceforge.net/DTD/sodipodi-0.dtd"
   xmlns:inkscape="http://www.inkscape.org/namespaces/inkscape"
   width="156.8pt"
   height="78.800003pt"
   viewBox="0 0 156.8 78.800003"
   version="1.1"
   id="svg72"
   sodipodi:docname="Groupe Renault Logo.svg"
   inkscape:version="1.0.2 (e86c870879, 2021-01-15, custom)">
  <metadata
     id="metadata78">
    <rdf:RDF>
      <cc:Work
         rdf:about="">
        <dc:format>image/svg+xml</dc:format>
        <dc:type
           rdf:resource="http://purl.org/dc/dcmitype/StillImage" />
        <dc:title></dc:title>
      </cc:Work>
    </rdf:RDF>
  </metadata>
  <defs
     id="defs76" />
  <sodipodi:namedview
     pagecolor="#ffffff"
     bordercolor="#666666"
     borderopacity="1"
     objecttolerance="10"
     gridtolerance="10"
     guidetolerance="10"
     inkscape:pageopacity="0"
     inkscape:pageshadow="2"
     inkscape:window-width="1366"
     inkscape:window-height="705"
     id="namedview74"
     showgrid="false"
     inkscape:zoom="3.3586957"
     inkscape:cx="105.36156"
     inkscape:cy="69.986239"
     inkscape:window-x="-8"
     inkscape:window-y="-8"
     inkscape:window-maximized="1"
     inkscape:current-layer="svg72" />
  <g
     id="surface1"
     transform="translate(-21.213593,-18.980583)">
    <path
       style="fill:#ffcc00;fill-opacity:1;fill-rule:nonzero;stroke:none"
       d="m 37.261719,30.273438 c 0,-2.59375 -1.125,-5.863282 -4.054688,-5.863282 -3.488281,0 -4.839843,3.496094 -4.839843,12.289063 0,8.457031 0.789062,13.753906 4.839843,13.753906 1.691407,0 4.390625,-1.804687 4.390625,-5.636719 v -3.609375 h -4.613281 v -5.183593 h 11.480469 v 18.941406 h -5.175782 v -3.269532 h -0.113281 c -1.691406,2.703126 -4.054687,3.945313 -7.316406,3.945313 -8.667969,0 -10.472656,-6.539063 -10.472656,-18.605469 0,-11.835937 2.703125,-17.8125 11.820312,-17.8125 7.769531,0 10.921875,3.945313 10.921875,11.164063 h -6.867187 z m 0,0"
       id="path45" />
    <path
       style="fill:#ffcc00;fill-opacity:1;fill-rule:nonzero;stroke:none"
       d="M 56.511719,35.234375 H 59.4375 c 3.378906,0 5.292969,-1.46875 5.292969,-5.300781 0,-3.269532 -1.691407,-4.847656 -4.953125,-4.847656 H 56.398438 V 35.234375 Z M 49.53125,19.898438 h 13.058594 c 5.742187,0 9.34375,3.046874 9.34375,9.019531 0,4.625 -1.914063,7.78125 -5.855469,8.683593 v 0.113282 c 4.84375,0.675781 5.515625,3.269531 5.628906,10.710937 0,3.71875 0.226563,5.636719 1.578125,6.3125 v 0.335938 h -7.65625 C 64.953125,54.0625 64.839844,52.707031 64.730469,51.355469 L 64.503906,44.589844 C 64.390625,41.886719 63.152344,40.195312 60.339844,40.195312 H 56.511719 V 55.074219 H 49.53125 Z m 0,0"
       id="path47" />
    <path
       style="fill:#ffcc00;fill-opacity:1;fill-rule:nonzero;stroke:none"
       d="m 88.367188,50.453125 c 4.167968,0 4.84375,-3.609375 4.84375,-13.078125 0,-9.359375 -0.675782,-13.078125 -4.84375,-13.078125 -4.164063,0 -4.839844,3.609375 -4.839844,13.078125 0,9.46875 0.675781,13.078125 4.839844,13.078125 m 0,-31.230469 c 10.582031,0 11.933592,7.554688 11.933592,18.265625 0,10.710938 -1.351561,18.265625 -11.933592,18.265625 -10.582032,0 -11.929688,-7.554687 -11.929688,-18.265625 0,-10.710937 1.347656,-18.265625 11.929688,-18.265625"
       id="path49" />
    <path
       style="fill:#ffcc00;fill-opacity:1;fill-rule:nonzero;stroke:none"
       d="m 111.67188,19.898438 v 24.464843 c 0,3.496094 0.78515,6.089844 4.16406,6.089844 3.26562,0 4.16406,-2.59375 4.16406,-6.089844 V 19.898438 h 7.09375 v 24.464843 c 0,8.910157 -5.40234,11.277344 -11.14453,11.277344 -5.74219,0 -11.14453,-1.917969 -11.14453,-11.277344 V 19.898438 Z m 0,0"
       id="path51" />
    <path
       style="fill:#ffcc00;fill-opacity:1;fill-rule:nonzero;stroke:none"
       d="m 139.69922,35.796875 h 3.15234 c 2.81641,0 4.73047,-1.691406 4.73047,-5.300781 0,-3.492188 -1.35156,-5.410156 -4.95312,-5.410156 h -2.92969 z m -7.08985,-15.898437 h 12.38282 c 7.20312,0 9.67968,5.300781 9.67968,10.488281 0,7.328125 -4.5,10.597656 -11.14453,10.597656 h -3.82812 v 13.980469 h -7.08985 z m 0,0"
       id="path53" />
    <path
       style="fill:#ffcc00;fill-opacity:1;fill-rule:nonzero;stroke:none"
       d="m 177.30078,19.898438 v 5.75 h -12.49609 v 8.230468 H 176.625 v 5.75 h -11.82031 v 9.472656 h 13.05859 v 5.75 H 157.82422 V 19.785156 h 19.47656 z m 0,0"
       id="path55" />
    <path
       style="fill:#211e1e;fill-opacity:1;fill-rule:nonzero;stroke:none"
       d="m 29.605469,79.429688 h 2.589843 c 3.039063,0 4.726563,-1.355469 4.726563,-4.625 0,-2.816407 -1.460937,-4.28125 -4.390625,-4.28125 h -2.925781 z m -6.191407,-13.53125 h 11.484376 c 5.0625,0 8.214843,2.707031 8.214843,8.007812 0,4.167969 -1.6875,6.875 -5.175781,7.664062 v 0.113282 c 4.277344,0.5625 4.953125,2.929687 4.953125,9.472656 0,3.269531 0.222656,4.957031 1.351563,5.523438 v 0.226562 h -6.757813 c -0.5625,-0.902344 -0.785156,-2.03125 -0.785156,-3.269531 l -0.226563,-5.976563 c -0.113281,-2.480468 -1.125,-3.945312 -3.714844,-3.945312 h -3.375 V 96.792969 H 23.191406 V 65.898438 Z m 0,0"
       id="path57" />
    <path
       style="fill:#211e1e;fill-opacity:1;fill-rule:nonzero;stroke:none"
       d="m 65.402344,65.898438 v 5.074218 h -11.03125 v 7.328125 H 64.730469 V 83.375 H 54.371094 v 8.34375 h 11.484375 v 5.074219 H 48.066406 V 65.785156 h 17.335938 z m 0,0"
       id="path59" />
    <path
       style="fill:#211e1e;fill-opacity:1;fill-rule:nonzero;stroke:none"
       d="m 76.773438,65.898438 7.542968,21.195312 h 0.113282 V 65.898438 h 5.738281 V 96.90625 H 83.078125 L 75.421875,75.144531 H 75.308594 V 96.792969 H 69.570312 V 65.785156 h 7.203126 z m 0,0"
       id="path61" />
    <path
       style="fill:#211e1e;fill-opacity:1;fill-rule:nonzero;stroke:none"
       d="m 101.76563,85.179688 h 6.07812 l -3.03906,-13.980469 h -0.11328 z m -0.90235,-19.28125 h 7.76953 l 8.21485,31.007812 h -6.52735 l -1.46484,-6.542969 h -8.21484 l -1.464849,6.542969 h -6.53125 z m 0,0"
       id="path63" />
    <path
       style="fill:#211e1e;fill-opacity:1;fill-rule:nonzero;stroke:none"
       d="m 124.73047,65.898438 v 21.648437 c 0,3.042969 0.78516,5.410156 3.60156,5.410156 2.92578,0 3.60156,-2.253906 3.60156,-5.410156 V 65.898438 h 6.19141 v 21.648437 c 0,7.890625 -4.83984,10.035156 -9.90625,10.035156 -5.06641,0 -9.90625,-1.691406 -9.90625,-10.035156 V 65.898438 Z m 0,0"
       id="path65" />
    <path
       style="fill:#211e1e;fill-opacity:1;fill-rule:nonzero;stroke:none"
       d="M 143.41406,96.90625 V 65.898438 h 6.19531 V 91.71875 h 11.03125 v 5.074219 h -17.22656 z m 0,0"
       id="path67" />
    <path
       style="fill:#211e1e;fill-opacity:1;fill-rule:nonzero;stroke:none"
       d="m 177.75,65.898438 v 5.074218 h -6.75391 v 25.820313 h -6.1914 V 70.972656 h -6.75391 v -5.074218 z m 0,0"
       id="path69" />
  </g>
</svg>
