<?xml version="1.0" encoding="UTF-8" standalone="no"?>
<!-- Created with Inkscape (http://www.inkscape.org/) -->
<svg
   xmlns:dc="http://purl.org/dc/elements/1.1/"
   xmlns:cc="http://creativecommons.org/ns#"
   xmlns:rdf="http://www.w3.org/1999/02/22-rdf-syntax-ns#"
   xmlns:svg="http://www.w3.org/2000/svg"
   xmlns="http://www.w3.org/2000/svg"
   xmlns:sodipodi="http://sodipodi.sourceforge.net/DTD/sodipodi-0.dtd"
   xmlns:inkscape="http://www.inkscape.org/namespaces/inkscape"
   width="500"
   height="172.85001"
   id="svg2"
   sodipodi:version="0.32"
   inkscape:version="0.46"
   version="1.0"
   sodipodi:docname="Logo Saab.svg"
   inkscape:output_extension="org.inkscape.output.svg.inkscape">
  <defs
     id="defs4">
    <inkscape:perspective
       sodipodi:type="inkscape:persp3d"
       inkscape:vp_x="0 : 526.18109 : 1"
       inkscape:vp_y="0 : 1000 : 0"
       inkscape:vp_z="744.09448 : 526.18109 : 1"
       inkscape:persp3d-origin="372.04724 : 350.78739 : 1"
       id="perspective10" />
    <clipPath
       id="clipPath2736"
       clipPathUnits="userSpaceOnUse">
      <path
         id="path2738"
         d="M 0.059998,841.889 L 595.271,841.889 L 595.271,0.06 L 0.059998,0.06 L 0.059998,841.889 z" />
    </clipPath>
    <clipPath
       id="clipPath2724"
       clipPathUnits="userSpaceOnUse">
      <path
         id="path2726"
         d="M 91.501,485.049 L 113.239,485.049 L 113.239,164.019 L 91.501,164.019 L 91.501,485.049 z" />
    </clipPath>
    <clipPath
       id="clipPath2712"
       clipPathUnits="userSpaceOnUse">
      <path
         id="path2714"
         d="M 239.847,485.049 L 261.585,485.049 L 261.585,164.019 L 239.847,164.019 L 239.847,485.049 z" />
    </clipPath>
    <clipPath
       id="clipPath2700"
       clipPathUnits="userSpaceOnUse">
      <path
         id="path2702"
         d="M 113.233,199.669 L 239.853,199.669 L 239.853,164.019 L 113.233,164.019 L 113.233,199.669 z" />
    </clipPath>
    <clipPath
       id="clipPath2688"
       clipPathUnits="userSpaceOnUse">
      <path
         id="path2690"
         d="M 147.992,342.545 L 239.853,342.545 L 239.853,199.4 L 147.992,199.4 L 147.992,342.545 z" />
    </clipPath>
    <clipPath
       id="clipPath2676"
       clipPathUnits="userSpaceOnUse">
      <path
         id="path2678"
         d="M 113.233,485.05 L 148.24,485.05 L 148.24,199.4 L 113.233,199.4 L 113.233,485.05 z" />
    </clipPath>
    <clipPath
       id="clipPath2664"
       clipPathUnits="userSpaceOnUse">
      <path
         id="path2666"
         d="M 147.992,485.049 L 239.853,485.049 L 239.853,342.276 L 147.992,342.276 L 147.992,485.049 z" />
    </clipPath>
    <clipPath
       id="clipPath2652"
       clipPathUnits="userSpaceOnUse">
      <path
         id="path2654"
         d="M 43.791,235.392 L 91.505,235.392 L 91.505,164.018 L 43.791,164.018 L 43.791,235.392 z" />
    </clipPath>
    <clipPath
       id="clipPath2640"
       clipPathUnits="userSpaceOnUse">
      <path
         id="path2642"
         d="M 0.059998,235.392 L 44.034998,235.392 L 44.034998,164.019 L 0.059998,164.019 L 0.059998,235.392 z" />
    </clipPath>
    <clipPath
       id="clipPath2628"
       clipPathUnits="userSpaceOnUse">
      <path
         id="path2630"
         d="M 0.059998,342.534 L 91.506998,342.534 L 91.506998,235.148 L 0.059998,235.148 L 0.059998,342.534 z" />
    </clipPath>
    <clipPath
       id="clipPath2616"
       clipPathUnits="userSpaceOnUse">
      <path
         id="path2618"
         d="M 0.059998,449.554 L 91.506998,449.554 L 91.506998,342.29 L 0.059998,342.29 L 0.059998,449.554 z" />
    </clipPath>
    <clipPath
       id="clipPath2604"
       clipPathUnits="userSpaceOnUse">
      <path
         id="path2606"
         d="M 0.059998,485.049 L 91.506998,485.049 L 91.506998,449.31 L 0.059998,449.31 L 0.059998,485.049 z" />
    </clipPath>
    <clipPath
       id="clipPath2592"
       clipPathUnits="userSpaceOnUse">
      <path
         id="path2594"
         d="M 261.581,164.044 L 239.85,164.044 L 239.85,163.998 L 261.583,163.998 L 261.583,164.018 L 570.451,164.018 L 570.451,199.859 L 261.581,199.859" />
    </clipPath>
    <clipPath
       id="clipPath2586"
       clipPathUnits="userSpaceOnUse">
      <path
         id="path2588"
         d="M 239.563,163.787 L 570.441,163.787 L 570.441,199.858 L 239.563,199.858 L 239.563,163.787 z" />
    </clipPath>
    <clipPath
       id="clipPath2574"
       clipPathUnits="userSpaceOnUse">
      <path
         id="path2576"
         d="M 404.851,199.553 L 570.441,199.553 L 570.441,342.62 L 404.851,342.62 L 404.851,199.553 z" />
    </clipPath>
    <clipPath
       id="clipPath2562"
       clipPathUnits="userSpaceOnUse">
      <path
         id="path2564"
         d="M 261.579,342.62 L 405.151,342.62 L 405.151,199.553 L 261.579,199.553 L 261.579,342.62 z" />
    </clipPath>
    <clipPath
       id="clipPath2550"
       clipPathUnits="userSpaceOnUse">
      <path
         id="path2552"
         d="M 570.141,485.049 L 595.271,485.049 L 595.271,164.019 L 570.141,164.019 L 570.141,485.049 z" />
    </clipPath>
    <clipPath
       id="clipPath2538"
       clipPathUnits="userSpaceOnUse">
      <path
         id="path2540"
         d="M 404.851,485.049 L 570.441,485.049 L 570.441,342.316 L 404.851,342.316 L 404.851,485.049 z" />
    </clipPath>
    <clipPath
       id="clipPath2526"
       clipPathUnits="userSpaceOnUse">
      <path
         id="path2528"
         d="M 261.579,485.049 L 405.151,485.049 L 405.151,342.316 L 261.579,342.316 L 261.579,485.049 z" />
    </clipPath>
    <clipPath
       id="clipPath2510"
       clipPathUnits="userSpaceOnUse">
      <path
         id="path2512"
         d="M 160.041,790.22 C 161.501,790.22 162.538,791.019 162.538,792.436 C 162.538,793.859 161.492,794.571 160.041,794.571 L 152.724,794.571 L 152.724,790.22 L 160.041,790.22 z M 153.008,790.503 L 153.008,794.287 L 160.041,794.287 C 161.396,794.287 162.255,793.649 162.255,792.436 C 162.255,791.217 161.387,790.503 160.041,790.503 L 153.008,790.503 z M 152.724,801.884 L 152.724,798.205 L 159.511,798.205 C 161.01,798.205 161.696,799.049 161.696,800.059 C 161.696,801.042 161.007,801.884 159.511,801.884 L 152.724,801.884 z M 153.008,798.488 L 153.008,801.601 L 159.511,801.601 C 160.871,801.601 161.413,800.867 161.413,800.059 C 161.413,799.22 160.868,798.488 159.511,798.488 L 153.008,798.488 z M 131.776,793.301 L 137.383,793.301 L 137.517,793.491 L 134.707,801.156 L 134.452,801.156 L 131.643,793.491 L 131.776,793.301 z M 134.58,800.679 L 137.179,793.584 L 131.981,793.584 L 134.58,800.679 z M 110.823,793.301 L 116.427,793.301 L 116.56,793.491 L 113.754,801.156 L 113.499,801.156 L 110.69,793.491 L 110.823,793.301 z M 113.626,800.679 L 116.223,793.584 L 111.027,793.584 L 113.626,800.679 z M 146.057,789.301 L 138.792,806.196 L 130.453,806.196 L 124.114,791.6 L 117.838,806.196 L 109.496,806.196 L 103.22,791.739 L 103.251,792.269 C 103.251,795.9 100.918,797.448 97.165,798.097 L 88.392,799.469 C 87.406,799.633 87.029,799.999 87.029,800.563 C 87.029,801.74 88.112,802.383 90.359,802.383 C 93.392,802.383 94.382,801.445 94.566,800.178 L 94.583,800.056 L 102.268,800.056 L 102.41,800.209 C 101.979,805.079 97.469,806.814 90.221,806.814 C 85.818,806.814 83.179,805.878 81.64,804.588 C 80.098,803.293 79.681,801.657 79.681,800.311 C 79.681,797.258 81.342,795.138 85.521,794.511 L 92.188,793.505 C 93.353,793.321 94.121,793.139 94.597,792.884 C 95.054,792.638 95.235,792.326 95.235,791.849 C 95.235,790.293 93.582,789.888 91.873,789.888 C 88.426,789.888 87.686,790.823 87.53,792.229 L 87.516,792.354 L 79.489,792.354 L 79.347,792.204 C 79.749,786.486 84.801,785.29 91.564,785.29 C 93.461,785.29 98.413,785.313 101.219,787.694 L 101.641,788.099 L 100.774,786.104 L 100.904,785.905 L 108.15,785.905 L 109.354,789.157 L 117.898,789.157 L 119.103,785.905 L 129.103,785.905 L 130.308,789.157 L 138.852,789.157 L 140.056,785.905 L 162.201,785.905 C 168.434,785.905 169.599,789.576 169.599,792.017 C 169.599,794.54 168.522,796.218 166.793,796.926 L 166.294,797.082 L 166.569,797.215 C 167.776,797.938 168.59,799.441 168.59,801.124 C 168.59,803.109 167.708,806.196 162.759,806.196 L 146.057,806.196 L 146.057,789.301 z M 146.341,805.912 L 162.759,805.912 C 167.504,805.912 168.307,803.007 168.307,801.124 C 168.307,799.29 167.295,797.729 165.934,797.221 L 165.84,797.187 L 165.84,796.918 L 165.951,796.892 C 167.978,796.436 169.316,794.792 169.316,792.017 C 169.316,789.695 168.241,786.189 162.201,786.189 L 140.255,786.189 L 139.05,789.44 L 130.11,789.44 L 128.905,786.189 L 119.301,786.189 L 118.096,789.44 L 109.156,789.44 L 107.951,786.189 L 101.12,786.189 L 102.296,788.896 L 102.055,789.04 C 99.753,785.625 93.789,785.574 91.564,785.574 C 85.192,785.574 80.614,786.639 79.752,791.251 L 79.65,792.071 L 87.27,792.071 L 87.355,791.62 C 87.706,790.347 88.809,789.604 91.873,789.604 C 93.526,789.604 95.518,789.987 95.518,791.849 C 95.518,793.051 94.518,793.426 92.233,793.783 L 85.56,794.789 C 81.501,795.398 79.965,797.422 79.965,800.311 C 79.965,801.598 80.362,803.143 81.824,804.37 C 83.29,805.6 85.85,806.53 90.221,806.53 C 97.032,806.53 101.176,804.999 102.004,801.017 L 102.103,800.339 L 94.815,800.339 L 94.716,800.747 C 94.302,801.927 93.052,802.667 90.359,802.667 C 88.123,802.667 86.745,802.023 86.745,800.563 C 86.745,799.784 87.315,799.361 88.347,799.191 L 97.114,797.819 C 100.816,797.176 102.968,795.696 102.968,792.269 C 102.968,791.713 102.906,791.215 102.792,790.741 L 103.061,790.659 L 109.683,805.912 L 117.651,805.912 L 123.984,791.186 L 124.245,791.186 L 130.64,805.912 L 138.605,805.912 L 146.069,788.556 L 146.341,788.612" />
    </clipPath>
    <inkscape:perspective
       id="perspective2450"
       inkscape:persp3d-origin="372.04724 : 350.78739 : 1"
       inkscape:vp_z="744.09448 : 526.18109 : 1"
       inkscape:vp_y="0 : 1000 : 0"
       inkscape:vp_x="0 : 526.18109 : 1"
       sodipodi:type="inkscape:persp3d" />
  </defs>
  <sodipodi:namedview
     id="base"
     pagecolor="#ffffff"
     bordercolor="#666666"
     borderopacity="1.0"
     inkscape:pageopacity="0.0"
     inkscape:pageshadow="2"
     inkscape:zoom="0.98994949"
     inkscape:cx="191.62727"
     inkscape:cy="118.13975"
     inkscape:document-units="px"
     inkscape:current-layer="g3146"
     showgrid="false"
     inkscape:window-width="1280"
     inkscape:window-height="750"
     inkscape:window-x="-8"
     inkscape:window-y="-8" />
  <metadata
     id="metadata7">
    <rdf:RDF>
      <cc:Work
         rdf:about="">
        <dc:format>image/svg+xml</dc:format>
        <dc:type
           rdf:resource="http://purl.org/dc/dcmitype/StillImage" />
      </cc:Work>
    </rdf:RDF>
  </metadata>
  <g
     inkscape:label="Ebene 1"
     inkscape:groupmode="layer"
     id="layer1"
     transform="translate(-131.4175,-316.29102)">
    <g
       id="g3146"
       transform="matrix(2.7093388,0,0,2.7093388,-214.63704,-791.92253)">
      <g
         transform="matrix(1.25,0,0,-1.25,159.6225,469.14174)"
         id="g2454">
        <path
           id="path2456"
           style="fill:#d6dde1;fill-opacity:1;fill-rule:nonzero;stroke:none"
           d="M 0,0 C 12.464,0 22.566,10.102 22.566,22.566 C 22.566,35.03 12.464,45.133 0,45.133 C -12.461,45.133 -22.564,35.03 -22.564,22.566 C -22.564,10.102 -12.461,0 0,0" />
      </g>
      <g
         id="g3953">
        <g
           id="g2458"
           transform="matrix(1.25,0,0,-1.25,159.6225,413.89174)">
          <path
             d="M 0,0 C -11.948,0 -21.634,-9.686 -21.634,-21.634 C -21.634,-33.582 -11.948,-43.268 0,-43.268 C 11.951,-43.268 21.637,-33.582 21.637,-21.634 C 21.637,-9.686 11.951,0 0,0"
             style="fill:#002559;fill-opacity:1;fill-rule:nonzero;stroke:none"
             id="path2460" />
        </g>
        <g
           id="g2462"
           transform="matrix(1.25,0,0,-1.25,159.6225,413.89174)">
          <path
             d="M 0,0 C -11.948,0 -21.634,-9.686 -21.634,-21.634 C -21.634,-33.582 -11.948,-43.268 0,-43.268 C 11.951,-43.268 21.637,-33.582 21.637,-21.634 C 21.637,-9.686 11.951,0 0,0 z M 0,-0.142 C 11.871,-0.142 21.495,-9.765 21.495,-21.634 C 21.495,-33.502 11.871,-43.126 0,-43.126 C -11.869,-43.126 -21.492,-33.502 -21.492,-21.634 C -21.492,-9.765 -11.869,-0.142 0,-0.142"
             style="fill:#2d2f32;fill-opacity:1;fill-rule:nonzero;stroke:none"
             id="path2464" />
        </g>
        <g
           id="g2466"
           transform="matrix(1.25,0,0,-1.25,180.195,442.64174)">
          <path
             d="M 0,0 L 0,5.258 C 0,9.663 -1.715,13.805 -4.822,16.92 C -7.932,20.035 -12.062,21.75 -16.458,21.75 C -20.852,21.75 -24.985,20.035 -28.092,16.92 C -31.198,13.805 -32.913,9.663 -32.913,5.258 L -32.913,0.156 C -32.148,3.28 -30.495,6.117 -28.097,8.351 C -24.945,11.285 -20.804,12.9 -16.435,12.9 C -12.169,12.9 -8.07,11.259 -4.901,8.283 C -2.472,6.001 -0.788,3.129 0,0 z M -32.077,1.346 C -29.758,-5.298 -23.497,-9.76 -16.469,-9.76 C -9.397,-9.76 -3.124,-5.292 -0.839,1.358 C -1.712,3.849 -3.189,6.126 -5.179,7.996 C -8.263,10.893 -12.249,12.489 -16.401,12.489 C -20.656,12.489 -24.687,10.916 -27.754,8.062 C -29.761,6.194 -31.232,3.889 -32.077,1.346 z M -4.825,-14.182 C -1.775,-11.123 -0.071,-7.078 -0.006,-2.764 C -0.097,-1.602 -0.312,-0.459 -0.644,0.646 C -3.144,-5.882 -9.437,-10.222 -16.503,-10.222 C -23.522,-10.222 -29.798,-5.893 -32.329,0.621 C -32.644,-0.505 -32.84,-1.67 -32.905,-2.86 C -32.82,-7.138 -31.119,-11.146 -28.092,-14.182 C -24.985,-17.294 -20.852,-19.012 -16.458,-19.012 C -12.062,-19.012 -7.932,-17.294 -4.825,-14.182 z M -4.502,17.257 C -1.31,14.057 0.453,9.799 0.453,5.272 L 0.453,-2.846 C 0.371,-7.257 -1.381,-11.395 -4.502,-14.525 C -7.696,-17.725 -11.94,-19.488 -16.458,-19.488 C -20.974,-19.488 -25.22,-17.725 -28.412,-14.525 C -31.527,-11.404 -33.276,-7.279 -33.367,-2.869 L -33.367,5.272 C -33.367,9.799 -31.606,14.057 -28.412,17.257 C -25.22,20.458 -20.974,22.221 -16.458,22.221 C -11.94,22.221 -7.696,20.458 -4.502,17.257 z M -4.402,17.356 C -7.623,20.585 -11.903,22.362 -16.458,22.362 C -21.011,22.362 -25.294,20.585 -28.511,17.356 C -31.734,14.131 -33.509,9.836 -33.509,5.272 L -33.509,-2.872 C -33.418,-7.319 -31.655,-11.478 -28.511,-14.624 C -25.294,-17.853 -21.011,-19.63 -16.458,-19.63 C -11.903,-19.63 -7.623,-17.853 -4.402,-14.624 C -1.253,-11.469 0.513,-7.296 0.595,-2.849 L 0.595,5.272 C 0.595,9.836 -1.182,14.131 -4.402,17.356 z M -32.772,1.173 L -32.772,5.258 C -32.772,9.626 -31.071,13.731 -27.992,16.821 C -24.911,19.908 -20.815,21.608 -16.458,21.608 C -12.098,21.608 -8.005,19.908 -4.921,16.821 C -1.843,13.731 -0.142,9.626 -0.142,5.258 L -0.142,0.995 L -0.204,1.207 C -1.094,3.903 -2.662,6.372 -4.805,8.385 C -8,11.387 -12.132,13.042 -16.435,13.042 C -20.838,13.042 -25.016,11.412 -28.194,8.456 C -30.308,6.483 -31.85,4.045 -32.718,1.361 L -32.772,1.173 z M -0.989,1.358 L -1.443,0.193 C -4.017,-5.723 -9.896,-9.618 -16.469,-9.618 C -23,-9.618 -28.865,-5.732 -31.468,0.181 L -31.927,1.349 L -31.601,2.234 C -30.733,4.385 -29.398,6.338 -27.658,7.957 C -24.616,10.789 -20.622,12.348 -16.401,12.348 C -12.286,12.348 -8.334,10.766 -5.275,7.894 C -3.549,6.27 -2.211,4.34 -1.324,2.225 L -0.989,1.358 z M -32.295,0.181 L -31.941,-0.635 C -29.115,-6.525 -23.139,-10.364 -16.503,-10.364 C -9.822,-10.364 -3.83,-6.517 -1.026,-0.612 L -0.678,0.207 L -0.459,-0.641 L -0.238,-1.913 L -0.148,-2.761 C -0.213,-7.039 -1.902,-11.05 -4.924,-14.083 C -8.005,-17.167 -12.098,-18.87 -16.458,-18.87 C -20.815,-18.87 -24.911,-17.167 -27.992,-14.083 C -30.804,-11.259 -32.463,-7.591 -32.729,-3.648 L -32.763,-2.869 C -32.715,-1.982 -32.593,-1.111 -32.406,-0.261"
             style="fill:#2d2f32;fill-opacity:1;fill-rule:nonzero;stroke:none"
             id="path2468" />
        </g>
        <g
           id="g2470"
           transform="matrix(1.25,0,0,-1.25,180.195,442.64174)">
          <path
             d="M 0,0 C -0.788,3.129 -2.472,6.001 -4.901,8.283 C -8.07,11.259 -12.169,12.9 -16.435,12.9 C -20.804,12.9 -24.945,11.285 -28.097,8.351 C -30.495,6.117 -32.148,3.28 -32.913,0.156 L -32.913,5.258 C -32.913,9.663 -31.198,13.805 -28.092,16.92 C -24.985,20.035 -20.852,21.75 -16.458,21.75 C -12.062,21.75 -7.932,20.035 -4.822,16.92 C -1.715,13.805 0,9.663 0,5.258 L 0,0 z M -32.077,1.346 C -31.232,3.889 -29.761,6.194 -27.754,8.062 C -24.687,10.916 -20.656,12.489 -16.401,12.489 C -12.249,12.489 -8.263,10.893 -5.179,7.996 C -3.189,6.126 -1.712,3.849 -0.839,1.358 C -3.124,-5.292 -9.397,-9.76 -16.469,-9.76 C -23.497,-9.76 -29.758,-5.298 -32.077,1.346 z M -4.825,-14.182 C -7.932,-17.294 -12.062,-19.012 -16.458,-19.012 C -20.852,-19.012 -24.985,-17.294 -28.092,-14.182 C -31.119,-11.146 -32.82,-7.138 -32.905,-2.86 C -32.84,-1.67 -32.644,-0.505 -32.329,0.621 C -29.798,-5.893 -23.522,-10.222 -16.503,-10.222 C -9.437,-10.222 -3.144,-5.882 -0.644,0.646 C -0.312,-0.459 -0.097,-1.602 -0.006,-2.764 C -0.071,-7.078 -1.775,-11.123 -4.825,-14.182 z M -4.502,17.257 C -7.696,20.458 -11.94,22.221 -16.458,22.221 C -20.974,22.221 -25.22,20.458 -28.412,17.257 C -31.606,14.057 -33.367,9.799 -33.367,5.272 L -33.367,-2.869 C -33.276,-7.279 -31.527,-11.404 -28.412,-14.525 C -25.22,-17.725 -20.974,-19.488 -16.458,-19.488 C -11.94,-19.488 -7.696,-17.725 -4.502,-14.525 C -1.381,-11.395 0.371,-7.257 0.453,-2.846 L 0.453,5.272 C 0.453,9.799 -1.31,14.057 -4.502,17.257"
             style="fill:#d6dde1;fill-opacity:1;fill-rule:nonzero;stroke:none"
             id="path2472" />
        </g>
        <g
           id="g2474"
           transform="matrix(1.25,0,0,-1.25,161.8225,422.73174)">
          <path
             d="M 0,0 C 0.55,-0.051 0.89,-0.088 1.548,-0.218 L 0.859,1.873 L 0,0 z M 5.264,0.028 L 6.418,-0.476 L 6.645,-0.595 L 6.903,-0.658 C 7.067,-0.638 7.126,-0.542 7.143,-0.459 C 7.169,-0.233 7.053,-0.068 6.908,0.051 L 6.681,0.198 L 6.503,0.292 L 5.335,0.825 L 5.264,0.028 z M 5.097,-1.846 C 5.57,-2.024 6.372,-2.418 6.758,-2.639 C 6.758,-2.639 7.161,-2.94 7.359,-2.679 C 7.512,-2.376 7.401,-2.075 6.73,-1.718 C 6.296,-1.466 5.48,-1.114 5.173,-0.992 L 5.097,-1.846 z M -5.071,-0.218 C -4.719,-0.145 -4.09,-0.051 -3.523,0 L -4.382,1.873 L -5.071,-0.218 z M -5.573,2.758 C -4.685,2.982 -3.427,3.087 -3.427,3.087 L -1.76,-0.329 L -0.093,3.087 C -0.093,3.087 1.046,2.985 2.05,2.758 L 3.572,-1.707 L 3.915,2.248 C 5.04,1.933 6.058,1.496 7.294,0.836 C 8.402,0.241 8.589,-0.431 8.504,-1.126 C 8.504,-1.126 8.408,-1.829 7.58,-1.531 C 7.58,-1.531 7.929,-1.724 8.249,-2.092 C 8.572,-2.461 8.856,-3.008 8.697,-3.719 C 8.575,-4.23 8.068,-4.49 7.294,-4.057 C 6.608,-3.663 5.84,-3.252 4.93,-2.894 C 3.337,-2.274 2.169,-2.072 2.169,-2.072 L 1.848,-1.126 C 0.8,-0.91 -0.38,-0.836 -0.38,-0.836 L -0.759,-1.675 C -1.318,-1.65 -2.182,-1.656 -2.761,-1.675 L -3.141,-0.836 C -4.167,-0.89 -5.369,-1.126 -5.369,-1.126 L -5.689,-2.072 C -6.219,-2.18 -6.746,-2.308 -7.373,-2.498 L -7.279,-2.206 C -8.308,-3.022 -9.19,-3.399 -9.19,-3.399 L -9.876,-3.722 C -10.148,-3.841 -10.454,-3.96 -10.752,-4.04 C -11.347,-4.198 -11.914,-4.207 -12.135,-3.756 C -12.274,-3.546 -12.26,-3.121 -12.26,-3.121 L -11.33,-2.571 L -10.383,-2.053 C -10.383,-2.053 -10.454,-2.336 -10.38,-2.543 C -10.307,-2.747 -10.091,-2.877 -9.519,-2.574 C -9.113,-2.376 -8.691,-2.089 -8.498,-1.658 C -8.368,-1.29 -8.504,-1.143 -8.714,-1.097 C -8.92,-1.052 -9.198,-1.109 -9.348,-1.154 L -9.947,-1.327 C -10.199,-1.389 -10.485,-1.443 -10.757,-1.454 C -11.299,-1.474 -11.778,-1.313 -11.781,-0.666 C -11.783,0.252 -10.545,1.19 -9.218,1.737 C -7.231,2.557 -6.545,1.808 -6.599,1.19 L -7.478,0.93 L -8.257,0.674 C -8.243,0.907 -8.413,1.25 -9.255,0.907 C -10.077,0.502 -10.287,0.181 -10.168,-0.165 C -10.094,-0.397 -9.737,-0.391 -9.357,-0.318 L -8.804,-0.179 L -8.413,-0.065 C -7.514,0.127 -7.126,-0.08 -6.962,-0.34 C -6.879,-0.471 -6.854,-0.613 -6.848,-0.726 L -6.854,-0.927 L -5.573,2.758 z M 0.802,-9.42 L -4.32,-9.42 C -4.496,-9.42 -4.632,-9.53 -4.632,-9.53 L -6.661,-5.137 C -5.567,-5.137 -5.216,-5.502 -5.145,-5.876 C -5.108,-6.064 -5.142,-6.253 -5.187,-6.401 L -5.292,-6.673 L -5.252,-6.73 L -5.182,-6.718 C -5.045,-6.591 -4.864,-6.511 -4.663,-6.511 C -4.246,-6.511 -3.909,-6.849 -3.909,-7.265 C -3.909,-7.682 -4.246,-8.019 -4.663,-8.019 L -4.856,-7.994 C -4.856,-7.994 -3.379,-9.397 -2.197,-7.58 L -2.268,-7.614 C -2.353,-7.671 -2.491,-7.744 -2.662,-7.742 C -3.078,-7.742 -3.416,-7.404 -3.416,-6.988 C -3.416,-6.571 -3.078,-6.234 -2.662,-6.234 C -2.5,-6.234 -2.353,-6.285 -2.231,-6.37 L -2.231,-6.358 C -2.406,-6.219 -2.52,-6.004 -2.52,-5.763 C -2.52,-5.346 -2.182,-5.006 -1.766,-5.006 L -1.754,-5.006 C -1.338,-5.006 -0.998,-5.349 -0.998,-5.766 C -0.998,-6.007 -1.114,-6.222 -1.287,-6.358 L -1.287,-6.373 C -1.168,-6.285 -1.017,-6.236 -0.856,-6.236 C -0.439,-6.236 -0.102,-6.574 -0.102,-6.99 C -0.102,-7.407 -0.439,-7.744 -0.856,-7.744 C -1.029,-7.747 -1.168,-7.674 -1.253,-7.617 L -1.324,-7.586 C -0.139,-9.4 1.335,-8 1.335,-8 L 1.143,-8.022 C 0.726,-8.022 0.38,-7.682 0.38,-7.265 C 0.38,-6.849 0.726,-6.514 1.143,-6.514 C 1.347,-6.514 1.528,-6.594 1.664,-6.721 L 1.729,-6.733 L 1.775,-6.676 L 1.664,-6.404 C 1.619,-6.256 1.588,-6.066 1.624,-5.879 C 1.698,-5.505 2.05,-5.139 3.144,-5.139 L 1.114,-9.533 C 1.114,-9.533 0.975,-9.42 0.802,-9.42 z M -1.76,-0.006 L -3.342,3.237 L -3.438,3.228 C -3.438,3.228 -4.708,3.124 -5.607,2.894 L -5.68,2.877 L -6.803,-0.355 L -6.843,-0.264 C -7.052,0.071 -7.52,0.272 -8.447,0.073 L -8.841,-0.043 L -9.385,-0.179 C -9.57,-0.216 -9.737,-0.23 -9.859,-0.216 C -9.983,-0.199 -10.02,-0.159 -10.034,-0.119 C -10.077,0.005 -10.066,0.122 -9.955,0.261 C -9.833,0.408 -9.598,0.578 -9.201,0.776 C -9,0.859 -8.844,0.896 -8.728,0.907 C -8.614,0.918 -8.541,0.901 -8.498,0.879 C -8.422,0.842 -8.393,0.765 -8.399,0.683 L -8.212,0.538 L -7.435,0.793 L -6.466,1.083 L -6.457,1.179 C -6.426,1.547 -6.619,1.95 -7.092,2.134 C -7.554,2.316 -8.266,2.285 -9.272,1.868 C -10.587,1.326 -11.925,0.357 -11.922,-0.666 C -11.919,-1.443 -11.313,-1.616 -10.752,-1.596 C -10.465,-1.585 -10.171,-1.528 -9.913,-1.466 L -9.309,-1.29 C -9.161,-1.245 -8.915,-1.199 -8.745,-1.236 C -8.631,-1.259 -8.526,-1.31 -8.628,-1.602 C -8.799,-1.984 -9.184,-2.251 -9.584,-2.447 C -9.862,-2.597 -10.026,-2.622 -10.117,-2.608 L -10.247,-2.495 C -10.273,-2.421 -10.275,-2.322 -10.267,-2.234 L -10.244,-2.087 L -10.451,-1.928 L -11.401,-2.449 L -12.399,-3.039 L -12.401,-3.115 L -12.39,-3.373 C -12.376,-3.51 -12.342,-3.699 -12.254,-3.835 L -12.141,-4.003 C -11.817,-4.368 -11.222,-4.312 -10.715,-4.176 C -10.409,-4.093 -10.094,-3.972 -9.819,-3.853 L -9.133,-3.529 L -8.552,-3.232 L -7.934,-2.855 L -7.455,-2.509 L -7.33,-2.634 C -6.709,-2.444 -6.188,-2.319 -5.661,-2.211 L -5.581,-2.194 L -5.264,-1.25 L -4.617,-1.143 L -3.906,-1.046 L -3.228,-0.987 L -2.851,-1.82 L -2.755,-1.817 C -2.18,-1.797 -1.318,-1.792 -0.765,-1.817 L -0.669,-1.82 L -0.292,-0.987 L 0.326,-1.041 L 1.038,-1.128 L 1.743,-1.25 L 2.061,-2.197 L 2.146,-2.211 L 2.917,-2.387 C 3.402,-2.515 4.088,-2.719 4.879,-3.028 C 5.777,-3.379 6.54,-3.787 7.223,-4.178 C 8.051,-4.643 8.683,-4.385 8.836,-3.75 C 9.006,-2.979 8.697,-2.39 8.357,-1.999 L 8.104,-1.744 L 8.102,-1.732 C 8.252,-1.704 8.371,-1.63 8.456,-1.537 L 8.609,-1.279 L 8.646,-1.143 C 8.737,-0.389 8.518,0.34 7.362,0.961 C 6.117,1.624 5.091,2.066 3.952,2.384 L 3.773,2.259 L 3.49,-1.026 L 2.157,2.88 L 2.081,2.897 C 1.573,3.01 1.032,3.092 0.621,3.149 L -0.082,3.228 L -0.178,3.237 L -1.76,-0.006 z M -5.062,-6.477 L -5.051,-6.443 C -5.003,-6.285 -4.963,-6.069 -5.006,-5.851 C -5.097,-5.375 -5.542,-4.995 -6.661,-4.995 L -6.789,-5.196 L -4.759,-9.59 L -4.541,-9.641 L -4.479,-9.601 L -4.32,-9.561 L 0.802,-9.561 L 0.958,-9.604 L 1.023,-9.644 L 1.242,-9.593 L 3.271,-5.199 L 3.144,-4.998 C 2.024,-4.998 1.579,-5.378 1.486,-5.851 C 1.443,-6.069 1.48,-6.285 1.531,-6.452 L 1.542,-6.477 L 1.483,-6.438 C 1.378,-6.395 1.264,-6.373 1.143,-6.373 C 0.649,-6.373 0.238,-6.767 0.238,-7.265 C 0.238,-7.637 0.471,-7.957 0.797,-8.093 L 0.907,-8.127 L 0.746,-8.218 L 0.417,-8.334 C 0.074,-8.416 -0.351,-8.394 -0.779,-8.014 L -0.913,-7.875 L -0.856,-7.886 C -0.36,-7.886 0.04,-7.487 0.04,-6.99 C 0.04,-6.494 -0.36,-6.095 -0.856,-6.095 L -0.93,-6.106 L -0.881,-5.973 L -0.856,-5.766 C -0.856,-5.273 -1.258,-4.864 -1.754,-4.864 L -1.766,-4.864 C -2.262,-4.864 -2.662,-5.27 -2.662,-5.763 L -2.636,-5.97 L -2.588,-6.103 L -2.662,-6.092 C -3.158,-6.092 -3.557,-6.492 -3.557,-6.988 C -3.557,-7.484 -3.158,-7.883 -2.662,-7.883 L -2.608,-7.875 L -2.741,-8.011 C -3.166,-8.388 -3.591,-8.411 -3.937,-8.331 L -4.266,-8.215 L -4.425,-8.124 L -4.314,-8.09 C -3.991,-7.954 -3.767,-7.637 -3.767,-7.265 C -3.767,-6.769 -4.167,-6.37 -4.663,-6.37 C -4.782,-6.37 -4.898,-6.392 -5,-6.435 L -5.062,-6.477 z M 1.341,-0.04 L 0.754,0.062 L 0.21,0.119 L 0.836,1.488 L 1.341,-0.04 z M 6.897,-0.508 L 6.679,-0.457 L 6.48,-0.349 L 5.414,0.116 L 5.46,0.612 L 6.441,0.164 L 6.611,0.076 L 6.818,-0.06 L 7.005,-0.431 L 6.897,-0.508 z M 5.298,-1.199 L 5.845,-1.435 L 6.662,-1.843 C 6.993,-2.018 7.161,-2.166 7.231,-2.291 C 7.297,-2.398 7.291,-2.498 7.231,-2.614 L 6.843,-2.526 L 6.829,-2.517 L 6.024,-2.098 L 5.247,-1.758 L 5.298,-1.199 z M -3.733,0.119 L -4.396,0.039 L -4.864,-0.04 L -4.359,1.488"
             style="fill:#2d2000;fill-opacity:1;fill-rule:nonzero;stroke:none"
             id="path2476" />
        </g>
        <g
           id="g2478"
           transform="matrix(1.25,0,0,-1.25,161.8225,422.73174)">
          <path
             d="M 0,0 L 0.859,1.873 L 1.548,-0.218 C 0.89,-0.088 0.55,-0.051 0,0 z M 5.264,0.028 L 5.335,0.825 L 6.503,0.292 L 6.681,0.198 L 6.908,0.051 C 7.053,-0.068 7.169,-0.233 7.143,-0.459 C 7.126,-0.542 7.067,-0.638 6.903,-0.658 L 6.645,-0.595 L 6.418,-0.476 L 5.264,0.028 z M 5.097,-1.846 L 5.173,-0.992 C 5.48,-1.114 6.296,-1.466 6.73,-1.718 C 7.401,-2.075 7.512,-2.376 7.359,-2.679 C 7.161,-2.94 6.758,-2.639 6.758,-2.639 C 6.372,-2.418 5.57,-2.024 5.097,-1.846 z M -5.071,-0.218 L -4.382,1.873 L -3.523,0 C -4.09,-0.051 -4.719,-0.145 -5.071,-0.218 z M -5.573,2.758 L -6.854,-0.927 L -6.848,-0.726 C -6.854,-0.613 -6.879,-0.471 -6.962,-0.34 C -7.126,-0.08 -7.514,0.127 -8.413,-0.065 L -8.804,-0.179 L -9.357,-0.318 C -9.737,-0.391 -10.094,-0.397 -10.168,-0.165 C -10.287,0.181 -10.077,0.502 -9.255,0.907 C -8.413,1.25 -8.243,0.907 -8.257,0.674 L -7.478,0.93 L -6.599,1.19 C -6.545,1.808 -7.231,2.557 -9.218,1.737 C -10.545,1.19 -11.783,0.252 -11.781,-0.666 C -11.778,-1.313 -11.299,-1.474 -10.757,-1.454 C -10.485,-1.443 -10.199,-1.389 -9.947,-1.327 L -9.348,-1.154 C -9.198,-1.109 -8.92,-1.052 -8.714,-1.097 C -8.504,-1.143 -8.368,-1.29 -8.498,-1.658 C -8.691,-2.089 -9.113,-2.376 -9.519,-2.574 C -10.091,-2.877 -10.307,-2.747 -10.38,-2.543 C -10.454,-2.336 -10.383,-2.053 -10.383,-2.053 L -11.33,-2.571 L -12.26,-3.121 C -12.26,-3.121 -12.274,-3.546 -12.135,-3.756 C -11.914,-4.207 -11.347,-4.198 -10.752,-4.04 C -10.454,-3.96 -10.148,-3.841 -9.876,-3.722 L -9.19,-3.399 C -9.19,-3.399 -8.308,-3.022 -7.279,-2.206 L -7.373,-2.498 C -6.746,-2.308 -6.219,-2.18 -5.689,-2.072 L -5.369,-1.126 C -5.369,-1.126 -4.167,-0.89 -3.141,-0.836 L -2.761,-1.675 C -2.182,-1.656 -1.318,-1.65 -0.759,-1.675 L -0.38,-0.836 C -0.38,-0.836 0.8,-0.91 1.848,-1.126 L 2.169,-2.072 C 2.169,-2.072 3.337,-2.274 4.93,-2.894 C 5.84,-3.252 6.608,-3.663 7.294,-4.057 C 8.068,-4.49 8.575,-4.23 8.697,-3.719 C 8.856,-3.008 8.572,-2.461 8.249,-2.092 C 7.929,-1.724 7.58,-1.531 7.58,-1.531 C 8.408,-1.829 8.504,-1.126 8.504,-1.126 C 8.589,-0.431 8.402,0.241 7.294,0.836 C 6.058,1.496 5.04,1.933 3.915,2.248 L 3.572,-1.707 L 2.05,2.758 C 1.046,2.985 -0.093,3.087 -0.093,3.087 L -1.76,-0.329 L -3.427,3.087 C -3.427,3.087 -4.685,2.982 -5.573,2.758 z M 0.802,-9.42 C 0.975,-9.42 1.114,-9.533 1.114,-9.533 L 3.144,-5.139 C 2.05,-5.139 1.698,-5.505 1.624,-5.879 C 1.588,-6.066 1.619,-6.256 1.664,-6.404 L 1.775,-6.676 L 1.729,-6.733 L 1.664,-6.721 C 1.528,-6.594 1.347,-6.514 1.143,-6.514 C 0.726,-6.514 0.38,-6.849 0.38,-7.265 C 0.38,-7.682 0.726,-8.022 1.143,-8.022 L 1.335,-8 C 1.335,-8 -0.139,-9.4 -1.324,-7.586 L -1.253,-7.617 C -1.168,-7.674 -1.029,-7.747 -0.856,-7.744 C -0.439,-7.744 -0.102,-7.407 -0.102,-6.99 C -0.102,-6.574 -0.439,-6.236 -0.856,-6.236 C -1.017,-6.236 -1.168,-6.285 -1.287,-6.373 L -1.287,-6.358 C -1.114,-6.222 -0.998,-6.007 -0.998,-5.766 C -0.998,-5.349 -1.338,-5.006 -1.754,-5.006 L -1.766,-5.006 C -2.182,-5.006 -2.52,-5.346 -2.52,-5.763 C -2.52,-6.004 -2.406,-6.219 -2.231,-6.358 L -2.231,-6.37 C -2.353,-6.285 -2.5,-6.234 -2.662,-6.234 C -3.078,-6.234 -3.416,-6.571 -3.416,-6.988 C -3.416,-7.404 -3.078,-7.742 -2.662,-7.742 C -2.491,-7.744 -2.353,-7.671 -2.268,-7.614 L -2.197,-7.58 C -3.379,-9.397 -4.856,-7.994 -4.856,-7.994 L -4.663,-8.019 C -4.246,-8.019 -3.909,-7.682 -3.909,-7.265 C -3.909,-6.849 -4.246,-6.511 -4.663,-6.511 C -4.864,-6.511 -5.045,-6.591 -5.182,-6.718 L -5.252,-6.73 L -5.292,-6.673 L -5.187,-6.401 C -5.142,-6.253 -5.108,-6.064 -5.145,-5.876 C -5.216,-5.502 -5.567,-5.137 -6.661,-5.137 L -4.632,-9.53 C -4.632,-9.53 -4.496,-9.42 -4.32,-9.42"
             style="fill:#dbaf52;fill-opacity:1;fill-rule:nonzero;stroke:none"
             id="path2480" />
        </g>
        <g
           id="g2482"
           transform="matrix(1.25,0,0,-1.25,149.29,440.49424)">
          <path
             d="M 0,0 C 0.544,-0.25 0.987,-0.425 1.468,-0.357 L 2.163,-0.21 L 2.707,-0.046 C 3.05,0.045 3.382,0.082 3.884,-0.063 C 4.337,-0.199 4.697,-0.573 4.697,-0.573 C 4.697,-0.573 4.436,-0.479 4.156,-0.462 C 3.889,-0.448 3.634,-0.488 3.387,-0.553 L 2.662,-0.785 C 2.186,-0.95 1.712,-1.086 1.191,-0.953 C 0.249,-0.712 0,0 0,0 z M 5.939,-0.145 L 4.215,0.277 C 3.43,1.678 1.817,0.47 1.817,0.47 C 1.817,0.47 1.621,1.576 1.868,2.208 C 2.302,3.554 3.773,3.537 4.402,3.296 C 4.626,3.211 4.793,3.078 4.808,3.067 C 5.012,3.991 5.338,4.47 5.695,4.47 L 10.862,4.473 C 11.183,4.439 11.313,4.198 11.336,4.144 C 11.92,4.447 12.719,4.586 13.394,4.663 C 13.295,4.005 13.059,3.359 12.728,2.809 C 13.621,1.712 13.864,0.98 13.887,0.365 C 13.898,0.059 13.853,-0.219 13.805,-0.499 L 13.74,-0.927 L 13.714,-1.381 C 13.402,-0.922 12.844,-0.522 12.402,-0.377 L 12.39,-0.389 C 13.272,-1.205 13.51,-2.155 13.504,-3.076 C 13.501,-3.538 13.436,-3.991 13.36,-4.42 L 13.153,-5.602 L 12.943,-5.239 L 12.708,-4.743 C 12.529,-4.388 12.3,-4.011 11.959,-3.734 C 12.58,-5.213 12.484,-6.132 12.147,-6.82 C 11.979,-7.163 11.75,-7.45 11.52,-7.722 L 11.183,-8.122 L 10.894,-8.524 C 10.772,-7.872 10.349,-6.761 9.907,-6.205 C 10.276,-7.745 10.04,-8.524 9.533,-9.063 C 9.278,-9.332 8.955,-9.542 8.603,-9.757 L 8.062,-10.094 L 7.515,-10.483 C 7.597,-9.502 7.356,-7.019 7.129,-6.517 C 6.996,-6.942 6.942,-7.288 6.891,-7.708 L 6.809,-8.416 L 6.673,-9.349 L 6.027,-8.49 L 5.448,-7.736 C 5.105,-7.257 4.876,-6.818 4.898,-6.347 C 4.901,-5.755 5.516,-4.635 5.516,-4.635 C 5.516,-4.635 4.91,-4.933 4.572,-5.621 L 4.484,-4.76 L 4.399,-4.037 C 4.368,-3.6 4.419,-3.252 4.72,-2.974 C 4.224,-3.028 3.529,-2.849 3.266,-2.43 C 2.959,-1.987 2.838,-1.358 2.891,-1.16 C 3.858,-1.622 4.533,-1.443 5.009,-1.111 C 5.247,-0.947 5.437,-0.743 5.587,-0.562 L 5.939,-0.145 z M 5.414,1.686 C 6.032,1.278 6.474,1.924 6.537,2.236 L 6.384,2.225 C 6.367,2.072 6.106,1.649 5.661,1.905 C 5.899,2.16 5.859,2.367 5.732,2.489 C 5.604,2.613 5.389,2.653 5.278,2.568 C 4.969,2.324 5.153,1.839 5.414,1.686 z M 4.425,-3.113 L 4.414,-3.127 C 4.255,-3.396 4.235,-3.708 4.258,-4.048 L 4.343,-4.774 L 4.431,-5.636 L 4.7,-5.684 L 4.969,-5.267 L 5.131,-5.108 L 5.08,-5.213 C 4.924,-5.565 4.759,-6.018 4.757,-6.344 C 4.731,-6.863 4.986,-7.336 5.332,-7.818 L 5.913,-8.575 L 6.559,-9.434 L 6.812,-9.369 L 6.951,-8.433 L 7.033,-7.725 L 7.118,-7.141 L 7.129,-7.095 L 7.158,-7.246 C 7.313,-8.178 7.435,-9.743 7.373,-10.471 L 7.597,-10.599 L 8.141,-10.214 L 8.677,-9.879 C 9.028,-9.664 9.366,-9.445 9.635,-9.159 C 10.049,-8.72 10.284,-8.139 10.216,-7.214 L 10.185,-6.945 L 10.389,-7.382 C 10.562,-7.798 10.695,-8.229 10.755,-8.55 L 11.01,-8.606 L 11.293,-8.209 L 11.628,-7.813 C 11.857,-7.54 12.098,-7.243 12.274,-6.883 C 12.543,-6.333 12.662,-5.653 12.436,-4.711 L 12.351,-4.417 L 12.58,-4.808 L 12.818,-5.304 L 13.031,-5.672 L 13.292,-5.627 L 13.499,-4.445 C 13.575,-4.014 13.643,-3.552 13.646,-3.076 C 13.652,-2.364 13.513,-1.627 13.056,-0.944 L 12.983,-0.848 L 13.022,-0.873 C 13.244,-1.041 13.45,-1.242 13.598,-1.46 L 13.856,-1.389 L 13.881,-0.941 L 13.944,-0.522 C 13.992,-0.244 14.04,0.048 14.029,0.371 C 14.009,0.861 13.859,1.411 13.402,2.126 L 12.895,2.82 L 13.085,3.177 C 13.3,3.634 13.456,4.135 13.533,4.643 L 13.377,4.804 C 12.872,4.748 12.283,4.654 11.761,4.476 L 11.381,4.317 L 11.307,4.419 C 11.214,4.507 11.072,4.592 10.877,4.615 L 5.695,4.612 C 5.332,4.612 5.049,4.266 4.844,3.713 L 4.725,3.291 L 4.453,3.43 C 3.798,3.679 2.205,3.719 1.735,2.256 C 1.602,1.913 1.59,1.454 1.607,1.094 L 1.678,0.445 L 1.902,0.357 L 2.152,0.513 C 2.307,0.601 2.523,0.703 2.755,0.762 C 3.22,0.878 3.742,0.833 4.09,0.209 L 4.122,0.156 L 5.684,-0.23 L 5.477,-0.471 C 5.332,-0.649 5.151,-0.842 4.929,-0.995 C 4.493,-1.299 3.872,-1.471 2.954,-1.032 L 2.755,-1.123 C 2.684,-1.378 2.829,-2.05 3.147,-2.509 C 3.376,-2.869 3.864,-3.062 4.309,-3.113 L 4.425,-3.113 z M 0.06,0.127 L -0.133,-0.048 L -0.071,-0.182 L 0.136,-0.479 C 0.332,-0.706 0.652,-0.961 1.157,-1.089 C 1.721,-1.233 2.231,-1.083 2.707,-0.919 L 3.424,-0.689 C 3.66,-0.627 3.901,-0.59 4.147,-0.604 L 4.496,-0.661 L 4.649,-0.706 L 4.799,-0.474 L 4.547,-0.255 C 4.391,-0.139 4.173,0 3.923,0.073 C 3.393,0.226 3.033,0.187 2.67,0.09 L 2.129,-0.074 L 1.449,-0.216 C 1.012,-0.278 0.607,-0.122 0.06,0.127 z M 5.76,1.712 L 5.661,1.723 L 5.488,1.805 C 5.261,1.939 5.176,2.307 5.366,2.457 L 5.474,2.469 L 5.632,2.386 L 5.692,2.253 C 5.689,2.197 5.661,2.114 5.556,2.001 L 5.59,1.783"
             style="fill:#2d2f32;fill-opacity:1;fill-rule:nonzero;stroke:none"
             id="path2484" />
        </g>
        <g
           id="g2486"
           transform="matrix(1.25,0,0,-1.25,149.29,440.49424)">
          <path
             d="M 0,0 C 0,0 0.249,-0.712 1.191,-0.953 C 1.712,-1.086 2.186,-0.95 2.662,-0.785 L 3.387,-0.553 C 3.634,-0.488 3.889,-0.448 4.156,-0.462 C 4.436,-0.479 4.697,-0.573 4.697,-0.573 C 4.697,-0.573 4.337,-0.199 3.884,-0.063 C 3.382,0.082 3.05,0.045 2.707,-0.046 L 2.163,-0.21 L 1.468,-0.357 C 0.987,-0.425 0.544,-0.25 0,0 z M 5.939,-0.145 L 5.587,-0.562 C 5.437,-0.743 5.247,-0.947 5.009,-1.111 C 4.533,-1.443 3.858,-1.622 2.891,-1.16 C 2.838,-1.358 2.959,-1.987 3.266,-2.43 C 3.529,-2.849 4.224,-3.028 4.72,-2.974 C 4.419,-3.252 4.368,-3.6 4.399,-4.037 L 4.484,-4.76 L 4.572,-5.621 C 4.91,-4.933 5.516,-4.635 5.516,-4.635 C 5.516,-4.635 4.901,-5.755 4.898,-6.347 C 4.876,-6.818 5.105,-7.257 5.448,-7.736 L 6.027,-8.49 L 6.673,-9.349 L 6.809,-8.416 L 6.891,-7.708 C 6.942,-7.288 6.996,-6.942 7.129,-6.517 C 7.356,-7.019 7.597,-9.502 7.515,-10.483 L 8.062,-10.094 L 8.603,-9.757 C 8.955,-9.542 9.278,-9.332 9.533,-9.063 C 10.04,-8.524 10.276,-7.745 9.907,-6.205 C 10.349,-6.761 10.772,-7.872 10.894,-8.524 L 11.183,-8.122 L 11.52,-7.722 C 11.75,-7.45 11.979,-7.163 12.147,-6.82 C 12.484,-6.132 12.58,-5.213 11.959,-3.734 C 12.3,-4.011 12.529,-4.388 12.708,-4.743 L 12.943,-5.239 L 13.153,-5.602 L 13.36,-4.42 C 13.436,-3.991 13.501,-3.538 13.504,-3.076 C 13.51,-2.155 13.272,-1.205 12.39,-0.389 L 12.402,-0.377 C 12.844,-0.522 13.402,-0.922 13.714,-1.381 L 13.74,-0.927 L 13.805,-0.499 C 13.853,-0.219 13.898,0.059 13.887,0.365 C 13.864,0.98 13.621,1.712 12.728,2.809 C 13.059,3.359 13.295,4.005 13.394,4.663 C 12.719,4.586 11.92,4.447 11.336,4.144 C 11.313,4.198 11.183,4.439 10.862,4.473 L 5.695,4.47 C 5.338,4.47 5.012,3.991 4.808,3.067 C 4.793,3.078 4.626,3.211 4.402,3.296 C 3.773,3.537 2.302,3.554 1.868,2.208 C 1.621,1.576 1.817,0.47 1.817,0.47 C 1.817,0.47 3.43,1.678 4.215,0.277 L 5.939,-0.145 z M 5.414,1.686 C 5.153,1.839 4.969,2.324 5.278,2.568 C 5.389,2.653 5.604,2.613 5.732,2.489 C 5.859,2.367 5.899,2.16 5.661,1.905 C 6.106,1.649 6.367,2.072 6.384,2.225 L 6.537,2.236 C 6.474,1.924 6.032,1.278 5.414,1.686"
             style="fill:#d6dde1;fill-opacity:1;fill-rule:nonzero;stroke:none"
             id="path2488" />
        </g>
        <g
           id="g2490"
           transform="matrix(1.25,0,0,-1.25,165.855,440.69299)">
          <path
             d="M 0,0 C 0.113,0.476 0.06,1.145 -0.969,2.251 C -1.295,1.894 -1.658,1.57 -2.024,1.27 C -1.896,-0.077 -1.843,-2.14 -2.974,-3.217 C -2.974,-3.217 -2.957,-2.341 -3.453,-1.389 C -3.501,-2.585 -4.039,-3.813 -5.128,-4.555 C -5.128,-4.555 -4.944,-3.725 -5.065,-2.256 C -5.241,-2.801 -5.672,-3.356 -6.33,-3.572 L -6.608,-2.058 L -6.066,-1.655 L -5.89,-2.517 C -5.749,-2.381 -5.669,-2.225 -5.624,-2.066 L -5.55,-1.585 L -5.53,-1.364 L -5.482,-1.168 C -5.437,-1.049 -5.363,-0.958 -5.224,-0.907 C -4.935,-0.814 -4.779,-1.032 -4.688,-1.213 C -4.561,-1.477 -4.496,-1.721 -4.462,-1.97 L -4.431,-2.353 L -4.419,-2.755 C -4.079,-1.959 -4.065,-1.171 -4.19,-0.269 C -4.226,0.04 -4.082,0.201 -3.898,0.252 C -3.702,0.295 -3.549,0.184 -3.419,0.031 C -3.078,-0.397 -2.852,-0.955 -2.718,-1.454 C -2.494,-0.697 -2.469,0.383 -2.735,1.134 L -2.815,1.44 C -2.03,2.106 -1.31,2.886 -0.896,3.869 C -1.996,3.546 -3.436,2.676 -3.436,2.676 L -3.733,2.993 L -2.594,3.881 L -2.545,3.971 C -2.554,4 -2.597,4.022 -2.699,4.028 L -6.905,4.028 C -7.302,4.022 -7.699,3.895 -7.702,3.223 L -7.177,2.778 C -7.177,2.778 -6.531,3.019 -5.913,2.594 L -5.995,2.234 C -5.995,2.234 -6.265,2.421 -6.406,2.316 C -6.752,1.423 -7.33,1.295 -7.807,1.471 C -8.067,1.579 -8.218,1.786 -8.314,2.007 L -8.425,2.339 L -8.49,2.631 C -9.394,3.152 -10.803,3.24 -10.911,1.647 C -9.947,2.083 -8.96,1.551 -8.697,1.009 L -6.188,0.286 C -6.403,0.125 -6.636,-0.122 -6.888,-0.391 L -7.277,-0.808 L -7.69,-1.205 C -8.26,-1.709 -8.901,-2.049 -9.604,-1.721 C -9.116,-2.251 -8.597,-2.186 -8.158,-2.055 L -7.571,-1.882 C -7.404,-1.851 -7.271,-1.871 -7.183,-2.01 C -7.095,-2.16 -7.132,-2.282 -7.231,-2.404 L -7.662,-2.795 C -7.994,-3.093 -8.337,-3.506 -8.203,-4.258 L -7.982,-4.042 L -7.702,-3.821 C -7.506,-3.696 -7.299,-3.643 -7.129,-3.798 C -6.936,-3.98 -7.027,-4.235 -7.092,-4.309 C -7.804,-5.817 -8.113,-6.511 -6.951,-7.707 C -6.704,-5.865 -6.599,-5.366 -6.111,-5.349 C -5.403,-5.346 -5.173,-8.442 -5.136,-9.21 C -3.725,-8.294 -3.509,-8.13 -3.96,-5.873 C -4.054,-5.471 -3.991,-5.236 -3.716,-5.128 C -3.419,-5.017 -3.166,-5.219 -3.044,-5.411 C -2.713,-5.927 -2.37,-6.528 -2.177,-7.141 L -1.843,-6.695 C -1.718,-6.534 -1.596,-6.347 -1.519,-6.1 C -1.366,-5.61 -1.386,-4.881 -1.902,-3.634 C -2.072,-3.325 -2.041,-3.061 -1.811,-2.917 C -1.295,-2.571 -0.601,-3.43 -0.357,-3.841 L -0.343,-3.141 C -0.332,-2.891 -0.326,-2.628 -0.36,-2.347 C -0.431,-1.786 -0.666,-1.162 -1.355,-0.462 C -1.579,-0.193 -1.579,0.008 -1.395,0.193 C -1.097,0.502 -0.385,0.23 0,0"
             style="fill:#da2031;fill-opacity:1;fill-rule:nonzero;stroke:none"
             id="path2492" />
        </g>
        <g
           id="g2494"
           transform="matrix(1.25,0,0,-1.25,164.785,457.02049)">
          <path
             d="M 0,0 C -0.422,0 -0.638,-0.882 -0.638,-1.913 C -0.638,-2.945 -0.422,-3.782 0,-3.782 C 0.414,-3.779 0.635,-2.945 0.635,-1.913 C 0.635,-0.882 0.414,0.003 0,0 z M 1.151,-1.891 C 1.151,-3.277 0.907,-4.405 0,-4.399 C -0.816,-4.394 -1.151,-3.277 -1.151,-1.891 C -1.151,-0.502 -0.816,0.621 0,0.621 C 0.859,0.621 1.151,-0.502 1.151,-1.891 z M -4.864,-0.57 C -5.284,-0.57 -5.499,-1.46 -5.499,-2.503 C -5.499,-3.543 -5.284,-4.391 -4.864,-4.388 C -4.448,-4.385 -4.224,-3.543 -4.224,-2.503 C -4.224,-1.46 -4.448,-0.567 -4.864,-0.57 z M -3.711,-2.48 C -3.711,-3.878 -3.957,-5.02 -4.864,-5.015 C -5.678,-5.009 -6.015,-3.878 -6.015,-2.48 C -6.015,-1.077 -5.678,0.057 -4.864,0.057 C -4.003,0.057 -3.711,-1.077 -3.711,-2.48 z M -3.019,0.003 L -2.461,0.065 L -2.461,-4.193 L -1.862,-4.139 L -1.281,-4.045 L -1.281,-4.686 C -1.854,-4.779 -2.452,-4.85 -3.019,-4.89 L -3.019,0.003 z M -8.561,0.496 L -8.099,0.383 L -7.155,-2.846 L -7.143,-2.846 L -7.138,0.207 L -6.613,0.11 L -6.613,-4.762 L -7.019,-4.703 L -8.016,-1.556 L -8.031,-1.556 L -8.016,-4.51 L -8.561,-4.397 L -8.561,0.496 z M -11.126,1.344 L -10.59,1.125 L -10.59,-1.018 L -9.819,-1.242 L -9.822,0.864 L -9.303,0.706 L -9.303,-4.195 L -9.816,-4.045 L -9.808,-1.837 L -10.59,-1.585 L -10.59,-3.764 L -11.126,-3.538 L -11.126,1.344 z M -11.54,-3.127 C -12.212,-3.49 -12.736,-2.92 -13.014,-1.973 C -13.289,-1.023 -13.314,0.303 -12.986,1.451 C -12.864,1.885 -12.47,2.443 -11.608,1.448 L -11.602,0.83 C -11.945,1.321 -12.203,1.494 -12.376,1.346 C -12.549,1.202 -12.64,0.74 -12.654,-0.04 C -12.679,-1.426 -12.532,-2.109 -12.314,-2.401 C -12.093,-2.693 -11.804,-2.597 -11.54,-2.421 L -11.54,-3.127 z M -14.803,3.404 C -14.244,2.985 -13.961,2.818 -13.547,2.577 L -13.541,1.905 L -13.935,2.126 L -14.352,2.404 L -14.343,1.111 L -13.604,0.652 L -13.601,0.082 L -14.338,0.544 L -14.341,-1.117 L -13.467,-1.65 L -13.467,-2.364 L -14.803,-1.485 L -14.803,3.404 z M -16.098,3.761 L -16.319,3.951 L -16.549,4.19 L -16.549,4.893 C -16.107,4.439 -15.639,4.031 -15.143,3.671 L -15.143,2.988 L -15.653,3.393 L -15.653,-0.811 L -16.098,-0.445 L -16.098,3.761 z M 3.779,-2.849 C 3.257,-3.501 2.699,-3.674 2.282,-3.385 C 1.868,-3.096 1.596,-2.344 1.641,-1.145 C 1.698,0.434 2.441,1.862 3.747,1.545 L 3.75,0.893 C 2.863,1.293 2.449,0.638 2.282,-0.207 C 2.117,-1.052 2.202,-2.086 2.313,-2.444 C 2.514,-3.11 2.931,-2.996 3.248,-2.784 L 3.237,-1.33 L 2.863,-1.505 L 2.869,-0.919 L 3.328,-0.723 L 3.779,-0.496 L 3.779,-2.849 z M 4.371,2.132 L 4.861,2.401 L 4.878,-2.514 L 4.371,-2.787 L 4.371,2.132 z M 5.542,2.792 L 6.185,3.22 L 6.795,3.676 L 6.775,2.996 L 5.995,2.443 L 5.998,1.08 L 6.729,1.582 L 6.721,1.009 L 5.998,0.502 L 5.992,-1.125 L 6.843,-0.527 L 6.843,-1.165 C 6.423,-1.505 5.967,-1.854 5.511,-2.137 L 5.542,2.792 z M 7.211,-0.122 C 7.359,-0.227 7.56,-0.139 7.705,0.059 C 7.849,0.258 7.937,0.57 7.86,0.913 L 7.671,1.46 L 7.432,2.01 C 7.276,2.381 7.152,2.772 7.191,3.229 C 7.191,3.24 7.322,4.516 8.181,4.816 L 8.184,4.241 C 7.614,4.136 7.591,3.487 7.591,3.458 C 7.585,3.22 7.639,3.053 7.656,3.007 L 8.133,1.936 C 8.751,0.47 7.94,-0.763 7.214,-0.754 L 7.211,-0.122 z M -11.398,-3.212 L -11.398,-2.421 L -11.619,-2.302 C -11.877,-2.475 -12.059,-2.506 -12.2,-2.316 C -12.288,-2.197 -12.376,-1.982 -12.436,-1.607 C -12.495,-1.239 -12.524,-0.731 -12.512,-0.043 C -12.507,0.343 -12.478,0.643 -12.436,0.864 C -12.39,1.091 -12.331,1.199 -12.285,1.239 L -12.24,1.256 L -12.132,1.21 C -12.025,1.139 -11.889,0.992 -11.718,0.748 L -11.461,0.83 L -11.466,1.502 L -11.5,1.542 C -11.937,2.044 -12.305,2.219 -12.617,2.12 C -12.912,2.027 -13.059,1.712 -13.122,1.491 C -13.459,0.317 -13.433,-1.038 -13.15,-2.013 C -13.008,-2.497 -12.798,-2.906 -12.518,-3.149 C -12.223,-3.402 -11.863,-3.461 -11.472,-3.251 L -11.398,-3.212 z M -14.207,2.137 L -14.009,2.004 L -13.609,1.78 L -13.399,1.905 L -13.405,2.659 L -13.476,2.698 C -13.887,2.939 -14.165,3.104 -14.718,3.518 L -14.944,3.404 L -14.944,-1.562 L -13.544,-2.483 L -13.326,-2.364 L -13.326,-1.57 L -14.199,-1.038 L -14.196,0.289 L -13.677,-0.037 L -13.459,0.082 L -13.462,0.731 L -14.202,1.188 L -14.207,2.137 z M 1.293,-1.891 C 1.293,-1.191 1.219,-0.542 1.029,-0.062 C 0.839,0.419 0.51,0.762 0,0.762 C -0.49,0.762 -0.816,0.419 -1.012,-0.06 C -1.208,-0.539 -1.293,-1.188 -1.293,-1.891 C -1.293,-2.591 -1.208,-3.24 -1.012,-3.716 C -0.816,-4.195 -0.49,-4.538 0,-4.541 C 0.533,-4.544 0.862,-4.204 1.049,-3.719 C 1.233,-3.237 1.293,-2.588 1.293,-1.891 z M -2.319,-4.037 L -2.319,0.065 L -2.478,0.207 L -3.161,0.13 L -3.161,-4.89 L -3.01,-5.032 C -2.438,-4.992 -1.834,-4.921 -1.259,-4.825 L -1.14,-4.805 L -1.14,-4.045 L -1.304,-3.906 L -1.879,-3.997 L -2.319,-4.037 z M -3.569,-2.48 C -3.569,-1.772 -3.643,-1.117 -3.832,-0.635 C -4.025,-0.147 -4.351,0.198 -4.864,0.198 C -5.355,0.198 -5.681,-0.15 -5.876,-0.632 C -6.072,-1.117 -6.157,-1.772 -6.157,-2.48 C -6.157,-3.186 -6.072,-3.841 -5.876,-4.323 C -5.681,-4.805 -5.355,-5.153 -4.864,-5.156 C -4.331,-5.159 -4.003,-4.816 -3.815,-4.323 C -3.631,-3.838 -3.569,-3.183 -3.569,-2.48 z M -7.282,-1.899 L -7.985,0.502 L -8.527,0.635 L -8.702,0.496 L -8.702,-4.513 L -8.045,-4.649 L -7.875,-4.51 L -7.886,-2.444 L -7.126,-4.83 L -6.633,-4.901 L -6.472,-4.762 L -6.472,0.23 L -7.112,0.346 L -7.279,0.207 L -7.282,-1.899 z M -10.449,-0.91 L -10.449,1.222 L -11.072,1.474 L -11.268,1.344 L -11.268,-3.631 L -10.644,-3.895 L -10.449,-3.764 L -10.449,-1.78 L -9.95,-1.942 L -9.958,-4.15 L -9.343,-4.331 L -9.162,-4.195 L -9.162,0.811 L -9.78,1.001 L -9.964,0.864 L -9.961,-1.052 L -10.449,-0.91 z M -15.511,3.101 L -15.231,2.877 L -15.001,2.988 L -15.001,3.742 L -15.061,3.784 C -15.548,4.141 -16.01,4.544 -16.447,4.992 L -16.69,4.893 L -16.69,4.133 L -16.415,3.849 L -16.24,3.696 L -16.24,-0.513 L -15.744,-0.921 L -15.511,-0.811 L -15.511,3.101 z M 3.107,-2.699 L 2.959,-2.778 C 2.752,-2.855 2.568,-2.795 2.449,-2.401 C 2.347,-2.069 2.259,-1.06 2.421,-0.235 C 2.588,0.609 2.954,1.097 3.691,0.762 L 3.892,0.893 L 3.889,1.655 L 3.781,1.684 C 3.059,1.859 2.492,1.542 2.109,0.992 C 1.732,0.448 1.528,-0.335 1.499,-1.14 C 1.454,-2.347 1.723,-3.166 2.2,-3.501 C 2.716,-3.858 3.353,-3.606 3.889,-2.937 L 3.92,-2.9 L 3.92,-0.496 L 3.716,-0.369 L 3.268,-0.595 L 2.727,-0.825 L 2.721,-1.505 L 2.922,-1.633 L 3.098,-1.551 L 3.107,-2.699 z M 4.229,2.217 L 4.229,-2.787 L 4.439,-2.911 L 5.02,-2.599 L 5.003,2.401 L 4.793,2.526 L 4.229,2.217 z M 6.137,2.37 L 6.914,2.922 L 6.936,3.674 L 6.71,3.79 L 6.103,3.336 L 5.4,2.869 L 5.369,-2.137 L 5.584,-2.256 C 6.049,-1.97 6.511,-1.616 6.931,-1.276 L 6.985,-1.233 L 6.985,-0.527 L 6.761,-0.411 L 6.134,-0.85 L 6.14,0.428 L 6.863,0.935 L 6.871,1.579 L 6.65,1.698 L 6.14,1.346 L 6.137,2.37 z M 7.07,-0.122 L 7.072,-0.893 L 7.211,-0.896 C 7.656,-0.902 8.079,-0.536 8.308,-0.02 C 8.538,0.507 8.586,1.224 8.263,1.99 L 7.79,3.058 L 7.756,3.186 L 7.733,3.455 L 7.744,3.555 L 7.804,3.764 C 7.869,3.915 7.985,4.059 8.209,4.102 L 8.325,4.121 L 8.322,4.816 L 8.133,4.949 C 7.645,4.779 7.379,4.337 7.231,3.966 L 7.087,3.467 L 7.05,3.229 L 7.05,2.886 C 7.078,2.543 7.183,2.239 7.302,1.956 L 7.537,1.409 L 7.722,0.881 C 7.79,0.578 7.71,0.309 7.591,0.142 L 7.407,-0.014 L 7.293,-0.006 L 7.07,-0.122 z M 0,-0.142 C 0.048,-0.142 0.102,-0.164 0.164,-0.241 L 0.337,-0.61 C 0.439,-0.941 0.493,-1.406 0.493,-1.913 C 0.493,-2.421 0.439,-2.872 0.337,-3.192 L 0.164,-3.543 C 0.105,-3.617 0.048,-3.64 0,-3.64 C -0.054,-3.64 -0.108,-3.617 -0.17,-3.543 L -0.343,-3.192 C -0.442,-2.872 -0.496,-2.421 -0.496,-1.913 C -0.496,-1.406 -0.442,-0.941 -0.343,-0.612 C -0.292,-0.445 -0.232,-0.323 -0.167,-0.244 C -0.105,-0.164 -0.051,-0.142 0,-0.142 z M -4.864,-0.712 C -4.816,-0.712 -4.762,-0.734 -4.7,-0.814 C -4.635,-0.893 -4.575,-1.018 -4.524,-1.185 C -4.422,-1.519 -4.365,-1.99 -4.365,-2.503 C -4.365,-3.016 -4.422,-3.47 -4.524,-3.793 C -4.575,-3.954 -4.635,-4.071 -4.697,-4.147 C -4.759,-4.221 -4.816,-4.246 -4.864,-4.246 C -4.915,-4.246 -4.972,-4.224 -5.032,-4.15 C -5.094,-4.076 -5.153,-3.957 -5.204,-3.796 C -5.304,-3.473 -5.358,-3.016 -5.358,-2.503 C -5.358,-1.99 -5.304,-1.519 -5.204,-1.185 C -5.153,-1.018 -5.094,-0.893 -5.029,-0.814 C -4.966,-0.734 -4.912,-0.712 -4.864,-0.712"
             style="fill:#2d2f32;fill-opacity:1;fill-rule:nonzero;stroke:none"
             id="path2496" />
        </g>
        <g
           id="g2498"
           transform="matrix(1.25,0,0,-1.25,164.785,457.02049)">
          <path
             d="M 0,0 C 0.414,0.003 0.635,-0.882 0.635,-1.913 C 0.635,-2.945 0.414,-3.779 0,-3.782 C -0.422,-3.782 -0.638,-2.945 -0.638,-1.913 C -0.638,-0.882 -0.422,0 0,0 z M 1.151,-1.891 C 1.151,-0.502 0.859,0.621 0,0.621 C -0.816,0.621 -1.151,-0.502 -1.151,-1.891 C -1.151,-3.277 -0.816,-4.394 0,-4.399 C 0.907,-4.405 1.151,-3.277 1.151,-1.891 z M -4.864,-0.57 C -4.448,-0.567 -4.224,-1.46 -4.224,-2.503 C -4.224,-3.543 -4.448,-4.385 -4.864,-4.388 C -5.284,-4.391 -5.499,-3.543 -5.499,-2.503 C -5.499,-1.46 -5.284,-0.57 -4.864,-0.57 z M -3.711,-2.48 C -3.711,-1.077 -4.003,0.057 -4.864,0.057 C -5.678,0.057 -6.015,-1.077 -6.015,-2.48 C -6.015,-3.878 -5.678,-5.009 -4.864,-5.015 C -3.957,-5.02 -3.711,-3.878 -3.711,-2.48 z M -3.019,0.003 L -3.019,-4.89 C -2.452,-4.85 -1.854,-4.779 -1.281,-4.686 L -1.281,-4.045 L -1.862,-4.139 L -2.461,-4.193 L -2.461,0.065 L -3.019,0.003 z M -8.561,0.496 L -8.561,-4.397 L -8.016,-4.51 L -8.031,-1.556 L -8.016,-1.556 L -7.019,-4.703 L -6.613,-4.762 L -6.613,0.11 L -7.138,0.207 L -7.143,-2.846 L -7.155,-2.846 L -8.099,0.383 L -8.561,0.496 z M -11.126,1.344 L -11.126,-3.538 L -10.59,-3.764 L -10.59,-1.585 L -9.808,-1.837 L -9.816,-4.045 L -9.303,-4.195 L -9.303,0.706 L -9.822,0.864 L -9.819,-1.242 L -10.59,-1.018 L -10.59,1.125 L -11.126,1.344 z M -11.54,-3.127 L -11.54,-2.421 C -11.804,-2.597 -12.093,-2.693 -12.314,-2.401 C -12.532,-2.109 -12.679,-1.426 -12.654,-0.04 C -12.64,0.74 -12.549,1.202 -12.376,1.346 C -12.203,1.494 -11.945,1.321 -11.602,0.83 L -11.608,1.448 C -12.47,2.443 -12.864,1.885 -12.986,1.451 C -13.314,0.303 -13.289,-1.023 -13.014,-1.973 C -12.736,-2.92 -12.212,-3.49 -11.54,-3.127 z M -14.803,3.404 L -14.803,-1.485 L -13.467,-2.364 L -13.467,-1.65 L -14.341,-1.117 L -14.338,0.544 L -13.601,0.082 L -13.604,0.652 L -14.343,1.111 L -14.352,2.404 L -13.935,2.126 L -13.541,1.905 L -13.547,2.577 C -13.961,2.818 -14.244,2.985 -14.803,3.404 z M -5.496,13.915 C -5.392,13.887 -5.292,13.813 -5.19,13.722 L -4.873,13.428 C -4.649,13.238 -4.391,13.096 -4.037,13.229 C -4.249,13.269 -4.402,13.34 -4.521,13.422 L -4.81,13.688 C -4.975,13.858 -5.128,13.989 -5.496,13.915 z M -0.961,16.157 C -1.502,16.104 -1.956,15.59 -2.191,15.202 C -1.667,15.324 -1.242,15.71 -0.961,16.157 z M -16.098,3.761 L -16.098,-0.445 L -15.653,-0.811 L -15.653,3.393 L -15.143,2.988 L -15.143,3.671 C -15.639,4.031 -16.107,4.439 -16.549,4.893 L -16.549,4.19 L -16.319,3.951 L -16.098,3.761 z M 3.779,-2.849 L 3.779,-0.496 L 3.328,-0.723 L 2.869,-0.919 L 2.863,-1.505 L 3.237,-1.33 L 3.248,-2.784 C 2.931,-2.996 2.514,-3.11 2.313,-2.444 C 2.202,-2.086 2.117,-1.052 2.282,-0.207 C 2.449,0.638 2.863,1.293 3.75,0.893 L 3.747,1.545 C 2.441,1.862 1.698,0.434 1.641,-1.145 C 1.596,-2.344 1.868,-3.096 2.282,-3.385 C 2.699,-3.674 3.257,-3.501 3.779,-2.849 z M 4.371,2.132 L 4.371,-2.787 L 4.878,-2.514 L 4.861,2.401 L 4.371,2.132 z M 5.542,2.792 L 5.511,-2.137 C 5.967,-1.854 6.423,-1.505 6.843,-1.165 L 6.843,-0.527 L 5.992,-1.125 L 5.998,0.502 L 6.721,1.009 L 6.729,1.582 L 5.998,1.08 L 5.995,2.443 L 6.775,2.996 L 6.795,3.676 L 6.185,3.22 L 5.542,2.792 z M 7.211,-0.122 L 7.214,-0.754 C 7.94,-0.763 8.751,0.47 8.133,1.936 L 7.656,3.007 C 7.639,3.053 7.585,3.22 7.591,3.458 C 7.591,3.487 7.614,4.136 8.184,4.241 L 8.181,4.816 C 7.322,4.516 7.191,3.24 7.191,3.229 C 7.152,2.772 7.276,2.381 7.432,2.01 L 7.671,1.46 L 7.86,0.913 C 7.937,0.57 7.849,0.258 7.705,0.059 C 7.56,-0.139 7.359,-0.227 7.211,-0.122"
             style="fill:#d6dde1;fill-opacity:1;fill-rule:nonzero;stroke:none"
             id="path2500" />
        </g>
        <g
           id="g2502"
           transform="matrix(1.25,0,0,-1.25,296.8125,448.30799)">
          <path
             d="M 0,0 L -7.175,0 L -7.175,4.068 L 0,4.068 C 1.403,4.068 2.355,3.393 2.355,2.075 C 2.355,0.757 1.403,0 0,0 z M -7.175,11.381 L -0.53,11.381 C 0.898,11.381 1.513,10.593 1.513,9.698 C 1.513,8.774 0.898,7.986 -0.53,7.986 L -7.175,7.986 L -7.175,11.381 z M -28.265,3.082 L -25.489,10.653 L -25.433,10.653 L -22.658,3.082 L -28.265,3.082 z M -49.218,3.082 L -46.443,10.653 L -46.386,10.653 L -43.614,3.082 L -49.218,3.082 z M 5.941,6.67 L 5.941,6.727 C 7.37,7.26 8.407,8.884 8.407,10.763 C 8.407,12.697 7.565,15.693 2.718,15.693 L -13.842,15.693 L -13.842,-1.749 L -21.342,15.693 L -29.495,15.693 L -35.927,0.882 L -42.296,15.693 L -50.451,15.693 L -57.11,0.355 C -56.997,0.831 -56.931,1.341 -56.931,1.908 C -56.931,5.437 -59.174,6.951 -62.901,7.597 L -71.671,8.969 C -72.681,9.136 -73.154,9.53 -73.154,10.202 C -73.154,11.52 -71.924,12.164 -69.682,12.164 C -66.626,12.164 -65.534,11.211 -65.336,9.837 L -57.773,9.837 C -58.193,14.573 -62.564,16.311 -69.82,16.311 C -78.594,16.311 -80.218,12.583 -80.218,9.95 C -80.218,6.979 -78.619,4.907 -74.5,4.289 L -67.831,3.283 C -65.506,2.917 -64.664,2.551 -64.664,1.488 C -64.664,-0.221 -66.487,-0.615 -68.168,-0.615 C -71.643,-0.615 -72.482,0.338 -72.652,1.851 L -80.552,1.851 C -80.161,-3.724 -75.257,-4.929 -68.477,-4.929 C -66.28,-4.929 -60.22,-4.889 -57.875,-1.409 L -59.137,-4.314 L -51.991,-4.314 L -50.786,-1.063 L -42.044,-1.063 L -40.839,-4.314 L -31.037,-4.314 L -29.832,-1.063 L -21.09,-1.063 L -19.885,-4.314 L 2.16,-4.314 C 8.297,-4.314 9.416,-0.725 9.416,1.656 C 9.416,4.485 8.044,6.197 5.941,6.67"
             style="fill:#002559;fill-opacity:1;fill-rule:nonzero;stroke:none"
             id="path2504" />
        </g>
        <g
           id="g2506"
           transform="matrix(1.25,0,0,-1.25,96.76125,1436.2592)">
          <g
             id="g2508"
             clip-path="url(#clipPath2510)">
            <g
               id="g2514"
               transform="translate(160.041,790.361)">
              <path
                 d="M 0,0 L -7.175,0 L -7.175,4.068 L 0,4.068 C 1.403,4.068 2.355,3.393 2.355,2.075 C 2.355,0.757 1.403,0 0,0 z M -7.175,11.381 L -0.53,11.381 C 0.898,11.381 1.513,10.593 1.513,9.698 C 1.513,8.774 0.898,7.986 -0.53,7.986 L -7.175,7.986 L -7.175,11.381 z M -28.265,3.082 L -25.489,10.653 L -25.433,10.653 L -22.658,3.082 L -28.265,3.082 z M -49.218,3.082 L -46.443,10.653 L -46.386,10.653 L -43.614,3.082 L -49.218,3.082 z M 5.941,6.67 L 5.941,6.727 C 7.37,7.26 8.407,8.884 8.407,10.763 C 8.407,12.697 7.565,15.693 2.718,15.693 L -13.842,15.693 L -13.842,-1.749 L -21.342,15.693 L -29.495,15.693 L -35.927,0.882 L -42.296,15.693 L -50.451,15.693 L -57.11,0.355 C -56.997,0.831 -56.931,1.341 -56.931,1.908 C -56.931,5.437 -59.174,6.951 -62.901,7.597 L -71.671,8.969 C -72.681,9.136 -73.154,9.53 -73.154,10.202 C -73.154,11.52 -71.924,12.164 -69.682,12.164 C -66.626,12.164 -65.534,11.211 -65.336,9.837 L -57.773,9.837 C -58.193,14.573 -62.564,16.311 -69.82,16.311 C -78.594,16.311 -80.218,12.583 -80.218,9.95 C -80.218,6.979 -78.619,4.907 -74.5,4.289 L -67.831,3.283 C -65.506,2.917 -64.664,2.551 -64.664,1.488 C -64.664,-0.221 -66.487,-0.615 -68.168,-0.615 C -71.643,-0.615 -72.482,0.338 -72.652,1.851 L -80.552,1.851 C -80.161,-3.724 -75.257,-4.929 -68.477,-4.929 C -66.28,-4.929 -60.22,-4.889 -57.875,-1.409 L -59.137,-4.314 L -51.991,-4.314 L -50.786,-1.063 L -42.044,-1.063 L -40.839,-4.314 L -31.037,-4.314 L -29.832,-1.063 L -21.09,-1.063 L -19.885,-4.314 L 2.16,-4.314 C 8.297,-4.314 9.416,-0.725 9.416,1.656 C 9.416,4.485 8.044,6.197 5.941,6.67"
                 style="fill:#3a393b;fill-opacity:1;fill-rule:nonzero;stroke:none"
                 id="path2516" />
            </g>
          </g>
        </g>
      </g>
    </g>
  </g>
</svg>
