<svg viewBox="0 0 60 60" xmlns="http://www.w3.org/2000/svg" xmlns:xlink="http://www.w3.org/1999/xlink">
  <defs>
    <path d="M18.175 31.464c1.971-1.887 4.61-2.315 5.872-1.052.625.624.793 1.578.575 2.603H22.84l-.196.708h1.747a5.69 5.69 0 0 1-.309.674h-1.606l-.21.708h1.374c-.252.365-.54.716-.884 1.046-1.964 1.88-4.595 2.322-5.844 1.073-.638-.638-.8-1.649-.547-2.736h1.494l.246-.709h-1.516c.085-.224.204-.449.323-.673h1.277l.253-.709h-1.074c.239-.322.498-.638.807-.933zm25.306 1.165l-.007.673h1.031v.583h-1.031v1.676c0 .386.28.499.463.499.231 0 .47-.085.736-.246v.603a1.897 1.897 0 0 1-.785.218c-.702 0-1.053-.435-1.053-1.025v-1.725h-.568v-.07l1.214-1.186zm-8.566.61c.817 0 1.357.53 1.412 1.61l.005.186h-2.294c.098.646.47.982 1.094.982.337 0 .653-.103.98-.291l.164-.101v.624c-.393.26-.751.386-1.305.386-1.018 0-1.579-.835-1.579-1.74 0-.99.624-1.656 1.523-1.656zm19.44-.007c.379 0 .631.091.947.225v.701c-.372-.252-.617-.33-.905-.33-.59 0-.996.45-.996 1.116 0 .674.435 1.08 1.101 1.08.274 0 .54-.07.87-.217v.631c-.224.106-.638.19-.975.19-.975 0-1.656-.674-1.656-1.628 0-1.08.618-1.768 1.614-1.768zm-14.761 0c.379 0 .631.091.947.225v.701c-.372-.252-.617-.33-.898-.33-.59 0-.996.45-.996 1.116 0 .674.435 1.08 1.108 1.08.274 0 .54-.07.863-.217v.631c-.217.106-.631.19-.975.19-.975 0-1.656-.674-1.656-1.628 0-1.08.618-1.768 1.607-1.768zm8.335.007c.26 0 .505.126.778.379l-.343.568c-.197-.196-.45-.33-.604-.33-.442 0-.792.45-.792 1.01v1.706h-.646v-3.27h.646v.758h.014c.33-.582.638-.82.947-.82zm-16.186-1.627v4.96h-.645v-4.96h.645zm-2.364 0v.638h-2.105v1.494h2.028v.646h-2.028v1.536h2.168v.646h-2.87v-4.96h2.807zm21.679 1.69v3.27h-.646v-3.27h.646zm-27.53-1.95h-1.754c-1.228 0-2.042.849-2.175 1.62l-.456 1.916c0 .049-.035.098-.063.133a.35.35 0 0 1-.274.126h-1.101l-.295 1.123h1.712c1.228 0 2.175-.772 2.308-1.536l.576-2.19c.007-.041.014-.063.035-.084.049-.049.098-.07.21-.07h1.052l.225-1.038zm11.4 2.441c-.45 0-.74.248-.856.684l-.027.123h1.641c-.02-.49-.301-.807-.757-.807zm16.15-1.67c.064.162-.048.38-.238.499-.196.112-.4.077-.463-.084-.056-.162.05-.38.246-.499.19-.105.393-.07.456.085zM6.249 22c.954 0 1.817.203 2.89.66v1.655c-1.227-.547-1.964-.758-2.693-.758-.765 0-1.256.274-1.256.702 0 1.284 4.343.92 4.343 3.887 0 1.634-1.368 2.582-3.277 2.582-1.494 0-2.23-.386-3.08-.821v-1.831c1.221.806 1.972 1.094 2.912 1.094.82 0 1.256-.288 1.256-.786C7.343 26.988 3 27.5 3 24.448 3 22.975 4.27 22 6.248 22zm25.888 2.743c1.62 0 2.963 1.112 2.972 3.083l-.004.215h-4.132c.063 1.01.757 1.6 1.9 1.6.663 0 1.19-.178 1.927-.672l.207-.143v1.123c-1.032.765-2.119.765-2.568.765-2.028 0-3.34-1.18-3.34-2.954 0-1.761 1.263-3.017 3.038-3.017zm12.32-2.645v8.503h-1.81v-.463c-.52.414-.996.576-1.607.576-1.543 0-2.687-1.27-2.687-2.996 0-1.761 1.144-2.982 2.792-2.982.451 0 .872.093 1.292.27l.21.095v-3.003h1.81zm3.795 2.645c1.62 0 2.964 1.112 2.979 3.083l-.004.215h-4.132c.063 1.01.765 1.6 1.901 1.6.662 0 1.19-.178 1.926-.672l.207-.143v1.123c-1.038.765-2.126.765-2.575.765-2.027 0-3.34-1.18-3.34-2.954 0-1.761 1.263-3.017 3.038-3.017zm-35.05-.007c.59 0 1.333.147 1.936.372v1.347c-.477-.253-1.024-.393-1.473-.393-1.088 0-1.782.653-1.782 1.663 0 1.024.687 1.698 1.719 1.698.435 0 .828-.099 1.627-.4v1.305c-.722.26-1.34.386-1.95.386-2.028 0-3.332-1.18-3.332-2.975 0-1.761 1.36-3.003 3.255-3.003zm24.415.112v5.767h-1.81v-5.767h1.81zm18.184-.112c.358 0 .674.14 1.2.526l-.498 1.6c-.477-.302-.786-.421-1.074-.421-.666 0-1.087.624-1.487 1.684v2.483h-1.817v-5.76h1.81v1.65h.028c.533-1.2 1.137-1.762 1.838-1.762zm-29.515.007c.862 0 2.002.466 2.098 2.005l.007.198v3.648h-1.81v-3.5c0-.814-.393-1.151-.905-1.151-.415 0-.733.203-1.155.797l-.108.157v2.694c-.35-.434-1.044-.71-1.636-.805l-.174-.023v-3.915h1.81v.828c.575-.66 1.137-.933 1.873-.933zm-8.51-2.645v3.606h.028c.526-.66 1.116-.96 1.824-.96 1.053 0 2.112.638 2.112 2.202h-.007v1.831c-.505.06-1.03.213-1.55.45l-.26.125v-2.027c0-.863-.379-1.263-.94-1.263-.383 0-.72.22-1.093.72l-.114.157v3.655h-1.81v-8.496h1.81zm23.86 3.845c-.911 0-1.452.666-1.452 1.817 0 1.052.54 1.754 1.39 1.754.337 0 .616-.108.938-.36l.142-.117V26.28c-.267-.19-.688-.337-1.017-.337zm-9.38-.12c-.66 0-1.108.404-1.228 1.108l-.02.155h2.497c-.077-.785-.547-1.262-1.248-1.262zm16.123 0c-.662 0-1.11.404-1.229 1.108l-.02.155h2.504c-.077-.785-.554-1.262-1.255-1.262zM37.7 22.422c.168.449-.134 1.073-.68 1.396-.548.323-1.123.218-1.292-.231-.168-.45.134-1.074.68-1.397.541-.315 1.116-.217 1.292.232z" id="a"/>
  </defs>
  <use fill="#00D244" xlink:href="#a"/>
</svg>
