<?xml version="1.0" encoding="UTF-8" standalone="no"?>
<svg
   id="svg2"
   version="1.1"
   inkscape:version="1.3 (0e150ed6c4, 2023-07-21)"
   width="509"
   height="96"
   xml:space="preserve"
   sodipodi:docname="smartUQ_tagline_color_fixed_textconverted.svg"
   inkscape:export-filename="C:\Users\bleyde\Google Drive\α Content Creation\images\Logos\smartUQ_tagline_color_fixed.png"
   inkscape:export-xdpi="220"
   inkscape:export-ydpi="220"
   xmlns:inkscape="http://www.inkscape.org/namespaces/inkscape"
   xmlns:sodipodi="http://sodipodi.sourceforge.net/DTD/sodipodi-0.dtd"
   xmlns="http://www.w3.org/2000/svg"
   xmlns:svg="http://www.w3.org/2000/svg"
   xmlns:rdf="http://www.w3.org/1999/02/22-rdf-syntax-ns#"
   xmlns:cc="http://creativecommons.org/ns#"
   xmlns:dc="http://purl.org/dc/elements/1.1/"><metadata
     id="metadata8"><rdf:RDF><cc:Work
         rdf:about=""><dc:format>image/svg+xml</dc:format><dc:type
           rdf:resource="http://purl.org/dc/dcmitype/StillImage" /></cc:Work></rdf:RDF></metadata><defs
     id="defs6"><clipPath
       clipPathUnits="userSpaceOnUse"
       id="clipPath16"><path
         d="M 0,360 H 576 V 0 H 0 Z"
         id="path18" /></clipPath><clipPath
       clipPathUnits="userSpaceOnUse"
       id="clipPath52"><path
         d="M 82.8262,210.942 H 132.954 V 153.06 H 82.8262 Z"
         id="path54" /></clipPath><clipPath
       clipPathUnits="userSpaceOnUse"
       id="clipPath68"><path
         d="m 98.8232,213.802 h 55.0808 v -63.6 H 98.8232 Z"
         id="path70" /></clipPath><clipPath
       clipPathUnits="userSpaceOnUse"
       id="clipPath84"><path
         d="M 114.821,219.583 H 179.91 V 144.421 H 114.821 Z"
         id="path86" /></clipPath></defs><sodipodi:namedview
     pagecolor="#ffffff"
     bordercolor="#666666"
     borderopacity="1"
     objecttolerance="10"
     gridtolerance="10"
     guidetolerance="10"
     inkscape:pageopacity="0"
     inkscape:pageshadow="2"
     inkscape:window-width="1920"
     inkscape:window-height="1057"
     id="namedview4"
     showgrid="false"
     inkscape:zoom="1.3277894"
     inkscape:cx="343.42796"
     inkscape:cy="154.01539"
     inkscape:window-x="1912"
     inkscape:window-y="-8"
     inkscape:window-maximized="1"
     inkscape:current-layer="flowRoot3825"
     inkscape:showpageshadow="2"
     inkscape:pagecheckerboard="0"
     inkscape:deskcolor="#d1d1d1"
     inkscape:document-rotation="0" /><g
     id="g10"
     inkscape:groupmode="layer"
     inkscape:label="smartUQ_color"
     transform="matrix(1.25,0,0,-1.25,0,450)"><g
       id="g12"><g
   transform="translate(117.3463,316.66692)"
   id="g20"><path
     inkscape:connector-curvature="0"
     id="path22"
     style="fill:#7b7979;fill-opacity:1;fill-rule:nonzero;stroke:none"
     d="M 0,0 C 0.067,-1.153 0.331,-2.216 0.789,-3.192 1.246,-4.167 1.86,-5.005 2.633,-5.71 3.403,-6.413 4.311,-6.964 5.354,-7.362 6.396,-7.761 7.545,-7.96 8.8,-7.96 c 1.119,0 2.19,0.119 3.217,0.356 1.025,0.238 1.928,0.615 2.709,1.132 0.779,0.516 1.402,1.186 1.869,2.008 0.466,0.822 0.699,1.828 0.699,3.014 0,1.069 -0.28,1.971 -0.84,2.709 C 15.895,1.997 15.161,2.628 14.255,3.154 13.348,3.679 12.313,4.141 11.152,4.54 9.99,4.938 8.8,5.341 7.579,5.748 6.358,6.155 5.167,6.595 4.006,7.07 2.844,7.545 1.81,8.129 0.903,8.825 c -0.907,0.695 -1.64,1.534 -2.2,2.518 -0.559,0.983 -0.839,2.178 -0.839,3.586 0,1.339 0.258,2.521 0.776,3.548 0.516,1.025 1.242,1.89 2.174,2.593 0.932,0.704 2.042,1.234 3.332,1.59 1.288,0.356 2.704,0.534 4.247,0.534 2.051,0 3.763,-0.305 5.137,-0.916 1.373,-0.61 2.475,-1.385 3.306,-2.327 0.83,-0.941 1.433,-1.979 1.806,-3.115 0.373,-1.136 0.593,-2.23 0.661,-3.281 h -3.052 c -0.085,1.085 -0.348,2.039 -0.788,2.862 -0.442,0.822 -1.014,1.513 -1.717,2.072 -0.704,0.559 -1.514,0.979 -2.429,1.259 -0.916,0.28 -1.89,0.419 -2.924,0.419 C 7.46,20.167 6.54,20.074 5.634,19.888 4.727,19.701 3.917,19.4 3.205,18.985 2.492,18.569 1.916,18.031 1.476,17.37 1.034,16.709 0.814,15.895 0.814,14.929 c 0,-1.069 0.28,-1.976 0.839,-2.721 0.56,-0.747 1.293,-1.391 2.201,-1.934 C 4.76,9.732 5.794,9.257 6.956,8.851 8.117,8.443 9.304,8.037 10.517,7.63 11.729,7.223 12.915,6.778 14.076,6.294 15.237,5.812 16.272,5.222 17.18,4.527 c 0.906,-0.695 1.639,-1.522 2.199,-2.48 0.559,-0.958 0.84,-2.123 0.84,-3.497 0,-1.576 -0.284,-2.967 -0.853,-4.17 -0.568,-1.203 -1.36,-2.209 -2.378,-3.014 -1.016,-0.804 -2.224,-1.412 -3.624,-1.818 -1.398,-0.406 -2.92,-0.611 -4.564,-0.611 -1.492,0 -2.938,0.259 -4.336,0.777 -1.4,0.515 -2.65,1.25 -3.752,2.199 -1.102,0.949 -1.996,2.106 -2.683,3.471 -0.686,1.365 -1.055,2.904 -1.106,4.616 z" /></g><g
   transform="translate(157.3404,338.97062)"
   id="g24"><path
     inkscape:connector-curvature="0"
     id="path26"
     style="fill:#7b7979;fill-opacity:1;fill-rule:nonzero;stroke:none"
     d="M 0,0 10.834,-27.746 21.413,0 H 25.33 V -32.426 H 22.38 V -5.417 L 12.156,-32.426 H 9.485 L -0.967,-5.417 v -27.009 h -2.95 V 0 Z" /></g><g
   transform="translate(209.7193,336.12252)"
   id="g28"><path
     inkscape:connector-curvature="0"
     id="path30"
     style="fill:#7b7979;fill-opacity:1;fill-rule:nonzero;stroke:none"
     d="M 0,0 -6.13,-16.607 H 5.95 Z M 2.11,2.848 13.937,-29.578 H 10.731 L 7.12,-19.633 H -7.273 l -3.586,-9.945 h -3.256 L -2.162,2.848 Z" /></g><g
   transform="translate(240.5328,323.50822)"
   id="g32"><path
     inkscape:connector-curvature="0"
     id="path34"
     style="fill:#7b7979;fill-opacity:1;fill-rule:nonzero;stroke:none"
     d="m 0,0 h 10.071 c 0.881,0 1.725,0.161 2.531,0.483 0.804,0.322 1.503,0.767 2.097,1.335 0.594,0.568 1.069,1.234 1.425,1.997 0.355,0.763 0.534,1.585 0.534,2.467 0,0.864 -0.166,1.665 -0.496,2.403 -0.331,0.737 -0.789,1.377 -1.374,1.92 -0.585,0.542 -1.28,0.966 -2.085,1.271 -0.806,0.306 -1.682,0.458 -2.632,0.458 L 0,12.334 Z m 19.633,6.256 c 0,-0.814 -0.093,-1.61 -0.279,-2.39 C 19.167,3.085 18.887,2.348 18.515,1.653 18.142,0.958 17.688,0.322 17.153,-0.254 c -0.534,-0.577 -1.157,-1.068 -1.869,-1.475 0.797,-0.204 1.45,-0.526 1.959,-0.967 0.508,-0.441 0.906,-0.95 1.195,-1.526 0.288,-0.576 0.487,-1.208 0.597,-1.894 0.111,-0.687 0.166,-1.379 0.166,-2.072 v -4.936 c 0,-0.71 0.097,-1.394 0.292,-2.046 0.195,-0.653 0.445,-1.25 0.75,-1.793 h -3.305 c -0.136,0.22 -0.247,0.488 -0.332,0.8 -0.085,0.315 -0.152,0.641 -0.203,0.981 -0.05,0.338 -0.085,0.674 -0.101,1.004 -0.018,0.33 -0.026,0.623 -0.026,0.877 v 5.138 c 0,0.625 -0.11,1.246 -0.331,1.856 -0.219,0.61 -0.576,1.157 -1.067,1.64 -0.492,0.483 -1.132,0.874 -1.921,1.17 -0.788,0.297 -1.75,0.445 -2.886,0.445 H 0 v -13.911 h -2.95 v 32.425 h 13.021 c 1.542,0 2.908,-0.275 4.094,-0.826 1.187,-0.551 2.188,-1.263 3.001,-2.136 0.814,-0.874 1.429,-1.861 1.844,-2.963 0.416,-1.102 0.623,-2.196 0.623,-3.281" /></g><g
   transform="translate(300.8463,338.97062)"
   id="g36"><path
     inkscape:connector-curvature="0"
     id="path38"
     style="fill:#7b7979;fill-opacity:1;fill-rule:nonzero;stroke:none"
     d="m 0,0 v -3.128 h -10.758 v -29.298 h -2.925 V -3.128 H -24.44 V 0 Z" /></g><g
   transform="translate(320.648,339.04682)"
   id="g40"><path
     inkscape:connector-curvature="0"
     id="path42"
     style="fill:#7b7979;fill-opacity:1;fill-rule:nonzero;stroke:none"
     d="m 0,0 v -21.667 c 0,-1.187 0.212,-2.247 0.636,-3.179 0.424,-0.933 0.978,-1.726 1.666,-2.379 0.686,-0.652 1.462,-1.152 2.326,-1.5 0.865,-0.347 1.729,-0.521 2.595,-0.521 0.949,0 1.889,0.16 2.822,0.482 0.933,0.323 1.771,0.797 2.518,1.426 0.746,0.627 1.348,1.406 1.805,2.338 0.458,0.934 0.688,2.01 0.688,3.23 V 0 h 4.806 v -21.541 c 0,-1.288 -0.174,-2.471 -0.521,-3.547 -0.348,-1.076 -0.823,-2.057 -1.425,-2.937 -0.602,-0.883 -1.306,-1.659 -2.11,-2.327 -0.806,-0.669 -1.675,-1.234 -2.607,-1.691 -0.932,-0.459 -1.904,-0.803 -2.912,-1.031 -1.009,-0.229 -2.014,-0.344 -3.014,-0.344 -1.441,0 -2.882,0.256 -4.323,0.764 -1.441,0.509 -2.738,1.263 -3.891,2.263 -1.154,1 -2.09,2.25 -2.81,3.752 -0.722,1.5 -1.081,3.233 -1.081,5.201 V 0 Z" /></g><g
   transform="translate(380.0201,322.74552)"
   id="g44"><path
     inkscape:connector-curvature="0"
     id="path46"
     style="fill:#7b7979;fill-opacity:1;fill-rule:nonzero;stroke:none"
     d="m 0,0 c 0,2.017 -0.255,3.823 -0.763,5.417 -0.508,1.593 -1.213,2.941 -2.111,4.043 -0.898,1.103 -1.954,1.946 -3.166,2.531 -1.213,0.585 -2.523,0.877 -3.93,0.877 -1.407,0 -2.713,-0.292 -3.916,-0.877 -1.204,-0.585 -2.251,-1.428 -3.14,-2.531 -0.891,-1.102 -1.59,-2.45 -2.099,-4.043 -0.509,-1.594 -0.763,-3.4 -0.763,-5.417 0,-2.018 0.254,-3.819 0.763,-5.404 0.509,-1.586 1.208,-2.933 2.099,-4.045 0.889,-1.109 1.936,-1.957 3.14,-2.543 1.203,-0.584 2.509,-0.877 3.916,-0.877 0.848,0 1.692,0.102 2.532,0.305 0.838,0.203 1.614,0.5 2.326,0.891 l -3.281,3.256 3.001,3 3.255,-2.95 c 0.594,1.069 1.098,2.327 1.514,3.776 C -0.208,-3.141 0,-1.611 0,0 M 4.832,0 C 4.832,-1.119 4.734,-2.226 4.539,-3.319 4.345,-4.413 4.082,-5.472 3.751,-6.498 3.42,-7.525 3.03,-8.494 2.581,-9.41 2.132,-10.326 1.653,-11.156 1.145,-11.902 l 4.577,-4.553 -3.077,-2.974 -4.552,4.652 c -1.17,-0.797 -2.429,-1.369 -3.778,-1.715 -1.347,-0.347 -2.776,-0.521 -4.285,-0.521 -2.374,0 -4.475,0.418 -6.306,1.258 -1.831,0.839 -3.37,2.009 -4.617,3.509 -1.246,1.5 -2.195,3.293 -2.847,5.379 -0.654,2.086 -0.98,4.374 -0.98,6.867 0,2.509 0.326,4.806 0.98,6.892 0.652,2.085 1.601,3.878 2.847,5.379 1.247,1.5 2.786,2.67 4.617,3.509 1.831,0.84 3.932,1.259 6.306,1.259 2.357,0 4.455,-0.419 6.295,-1.259 1.839,-0.839 3.391,-2.009 4.654,-3.509 C 2.242,10.77 3.2,8.977 3.853,6.892 4.505,4.806 4.832,2.509 4.832,0" /></g><g
   id="g48"
   transform="translate(-81.6,139.58672)"><g
     id="g50" /><g
     id="g56"><g
       style="opacity:0.729996"
       id="g58"
       clip-path="url(#clipPath52)"><g
         id="g60"
         transform="translate(82.8262,182)"><path
           inkscape:connector-curvature="0"
           id="path62"
           style="fill:#dc7d18;fill-opacity:1;fill-rule:nonzero;stroke:none"
           d="M 0,0 V 28.942 L 25.063,14.471 50.127,0 25.063,-14.47 0,-28.94 Z" /></g></g></g></g><g
   id="g64"
   transform="translate(-81.6,139.58672)"><g
     id="g66" /><g
     id="g72"><g
       style="opacity:0.729996"
       id="g74"
       clip-path="url(#clipPath68)"><g
         id="g76"
         transform="translate(98.8232,182)"><path
           inkscape:connector-curvature="0"
           id="path78"
           style="fill:#2f6ca7;fill-opacity:1;fill-rule:nonzero;stroke:none"
           d="M 0,0 V 31.802 L 27.542,15.901 55.081,0 27.542,-15.899 0,-31.798 Z" /></g></g></g></g><g
   id="g80"
   transform="translate(-81.6,139.58672)"><g
     id="g82" /><g
     id="g88"><g
       style="opacity:0.729996"
       id="g90"
       clip-path="url(#clipPath84)"><g
         id="g92"
         transform="translate(114.8208,182.0024)"><path
           inkscape:connector-curvature="0"
           id="path94"
           style="fill:#8fd123;fill-opacity:1;fill-rule:nonzero;stroke:none"
           d="M 0,0 V 37.581 L 32.542,18.789 65.089,0 32.542,-18.79 0,-37.582 Z" /></g></g></g></g>&#10;&#10;&#10;&#10;&#10;&#10;<text
   xml:space="preserve"
   style="font-style:normal;font-weight:normal;line-height:0%;font-family:sans-serif;letter-spacing:0px;word-spacing:0px;fill:#7b7979;fill-opacity:1;stroke:none"
   x="391.18378"
   y="-328.04895"
   id="text3035"
   transform="scale(1,-1)"><tspan
     sodipodi:role="line"
     id="tspan3037"
     x="391.18378"
     y="-328.04895"
     style="font-style:normal;font-variant:normal;font-weight:normal;font-stretch:normal;font-size:16px;line-height:125%;font-family:'Roboto Medium';-inkscape-font-specification:'Roboto Medium,';text-align:start;writing-mode:lr-tb;text-anchor:start;fill:#7b7979;fill-opacity:1">®</tspan></text>&#10;&#10;&#10;<g
   aria-label="AI for an Uncertain World Uncertainty."
   transform="matrix(0.8,0,0,-0.8,25.031738,366.62756)"
   id="flowRoot3825"
   style="font-style:normal;font-weight:normal;line-height:0.01%;font-family:sans-serif;letter-spacing:0px;word-spacing:0px;fill:#2f6ca7;fill-opacity:0.729412;stroke:none"><path
     d="m 125.71875,100.1723 9.73828,-17.179679 h 2.70703 L 141,100.1723 h -2.22656 l -0.83203,-4.945309 h -6.94922 l -2.75391,4.945309 z m 6.25781,-6.714839 h 5.6836 l -0.66797,-4.3125 q -0.38672,-2.56641 -0.48047,-4.27734 -0.58594,1.47656 -1.71094,3.5039 z"
     style="font-style:italic"
     id="path1449" /><path
     d="m 143.57812,100.1723 3.59766,-17.179679 h 2.28516 L 145.875,100.1723 Z"
     style="font-style:italic"
     id="path1451" /><path
     d="m 156.63281,100.1723 2.26172,-10.804679 h -1.89844 l 0.33985,-1.64063 h 1.89843 l 0.36329,-1.76953 q 0.28125,-1.32422 0.57421,-1.91016 0.30469,-0.58593 0.97266,-0.96093 0.67969,-0.38672 1.83984,-0.38672 0.8086,0 2.34375,0.33984 l -0.38671,1.85156 q -1.07813,-0.28125 -1.80469,-0.28125 -0.6211,0 -0.94922,0.31641 -0.31641,0.30469 -0.55078,1.46484 l -0.28125,1.33594 h 2.36719 l -0.33985,1.64063 h -2.36719 l -2.26171,10.804679 z"
     style="font-style:italic"
     id="path1453" /><path
     d="m 163.38281,95.449651 q 0,-3.64453 2.14453,-6.03516 1.76953,-1.96875 4.64063,-1.96875 2.25,0 3.62109,1.40625 1.38281,1.40625 1.38281,3.79688 0,2.14453 -0.86718,3.99609 -0.86719,1.83984 -2.47266,2.82422 -1.59375,0.984369 -3.36328,0.984369 -1.45313,0 -2.64844,-0.621089 -1.18359,-0.62109 -1.8164,-1.75781 -0.6211,-1.13672 -0.6211,-2.625 z m 2.1211,-0.21094 q 0,1.75781 0.84375,2.67187 0.84375,0.90235 2.14453,0.90235 0.67968,0 1.34765,-0.26953 0.66797,-0.28125 1.24219,-0.84375 0.57422,-0.5625 0.97266,-1.27735 0.41015,-0.72656 0.65625,-1.55859 0.36328,-1.16016 0.36328,-2.22656 0,-1.6875 -0.85547,-2.61328 -0.84375,-0.9375 -2.13281,-0.9375 -0.9961,0 -1.81641,0.48046 -0.82031,0.46875 -1.48828,1.38282 -0.65625,0.91406 -0.97266,2.13281 -0.30468,1.20703 -0.30468,2.15625 z"
     style="font-style:italic"
     id="path1455" /><path
     d="m 176.35547,100.1723 2.60156,-12.445309 h 1.875 l -0.52734,2.54297 q 0.96093,-1.44141 1.875,-2.13281 0.92578,-0.69141 1.88672,-0.69141 0.63281,0 1.55859,0.45703 l -0.86719,1.96875 q -0.55078,-0.39844 -1.20703,-0.39844 -1.11328,0 -2.28516,1.24219 -1.17187,1.24219 -1.83984,4.46485 l -1.05469,4.992179 z"
     style="font-style:italic"
     id="path1457" /><path
     d="m 199.40625,98.625431 q -1.10156,0.94922 -2.12109,1.394529 -1.01954,0.43359 -2.17969,0.43359 -1.72266,0 -2.77735,-1.007809 -1.05468,-1.01953 -1.05468,-2.60156 0,-1.04297 0.46875,-1.83985 0.48047,-0.80859 1.26562,-1.28906 0.78516,-0.49219 1.92188,-0.70312 0.71484,-0.14063 2.70703,-0.22266 2.0039,-0.082 2.87109,-0.42187 0.2461,-0.86719 0.2461,-1.44141 0,-0.73828 -0.53907,-1.16016 -0.73828,-0.58593 -2.15625,-0.58593 -1.33593,0 -2.1914,0.59765 -0.84375,0.58594 -1.23047,1.67578 l -2.14453,-0.1875 q 0.65625,-1.85156 2.07422,-2.83593 1.42968,-0.98438 3.59765,-0.98438 2.3086,0 3.65625,1.10156 1.03125,0.82032 1.03125,2.13282 0,0.99609 -0.29297,2.30859 l -0.6914,3.09375 q -0.32813,1.47656 -0.32813,2.40234 0,0.58594 0.25781,1.687499 h -2.14453 q -0.17578,-0.609369 -0.24609,-1.546869 z m 0.78516,-4.75781 q -0.44532,0.17578 -0.96094,0.26953 -0.50391,0.0937 -1.69922,0.19922 -1.85156,0.16406 -2.61328,0.42187 -0.76172,0.24609 -1.14844,0.79688 -0.38672,0.55078 -0.38672,1.21875 0,0.89062 0.60938,1.46484 0.62109,0.57422 1.75781,0.57422 1.05469,0 2.02734,-0.55078 0.97266,-0.5625 1.53516,-1.5586 0.5625,-0.99609 0.87891,-2.83593 z"
     style="font-style:italic"
     id="path1459" /><path
     d="m 204.36328,100.1723 2.60156,-12.445309 h 1.92188 l -0.45703,2.16797 q 1.2539,-1.27734 2.34375,-1.86328 1.08984,-0.58594 2.22656,-0.58594 1.51172,0 2.36719,0.82031 0.86718,0.82032 0.86718,2.19141 0,0.69141 -0.30468,2.17969 l -1.58203,7.535149 h -2.1211 l 1.65235,-7.886719 q 0.24609,-1.14843 0.24609,-1.69921 0,-0.6211 -0.43359,-1.00782 -0.42188,-0.38672 -1.23047,-0.38672 -1.62891,0 -2.90625,1.17188 -1.26563,1.17187 -1.86328,4.01953 l -1.20704,5.789059 z"
     style="font-style:italic"
     id="path1461" /><path
     d="m 228.33984,82.992621 h 2.29688 l -2.20313,10.55859 q -0.26953,1.3125 -0.26953,1.94531 0,1.38281 1.08985,2.22656 1.08984,0.84375 2.74218,0.84375 1.3125,0 2.4375,-0.59765 1.13672,-0.60938 1.79297,-1.78125 0.65625,-1.17188 1.1836,-3.73828 l 1.98046,-9.45703 h 2.29688 l -2.09766,10.07812 q -0.53906,2.57813 -1.41797,4.08984 -0.8789,1.5 -2.4375,2.41407 -1.55859,0.902339 -3.62109,0.902339 -1.94531,0 -3.375,-0.644529 -1.41797,-0.64453 -2.13281,-1.78125 -0.70313,-1.13672 -0.70313,-2.57813 0,-0.90234 0.48047,-3.10546 z"
     style="font-style:italic"
     id="path1463" /><path
     d="m 241.71094,100.1723 2.60156,-12.445309 h 1.92187 l -0.45703,2.16797 q 1.25391,-1.27734 2.34375,-1.86328 1.08985,-0.58594 2.22657,-0.58594 1.51171,0 2.36718,0.82031 0.86719,0.82032 0.86719,2.19141 0,0.69141 -0.30469,2.17969 l -1.58203,7.535149 h -2.12109 l 1.65234,-7.886719 q 0.2461,-1.14843 0.2461,-1.69921 0,-0.6211 -0.4336,-1.00782 -0.42187,-0.38672 -1.23047,-0.38672 -1.6289,0 -2.90625,1.17188 -1.26562,1.17187 -1.86328,4.01953 l -1.20703,5.789059 z"
     style="font-style:italic"
     id="path1465" /><path
     d="m 263.64844,95.637151 2.12109,0.22265 q -0.79687,2.33203 -2.27344,3.46875 -1.46484,1.124999 -3.33984,1.124999 -2.02734,0 -3.29297,-1.312499 -1.25391,-1.3125 -1.25391,-3.66797 0,-2.03906 0.8086,-4.00781 0.80859,-1.96875 2.30859,-2.98828 1.51172,-1.03125 3.44531,-1.03125 2.00391,0 3.17579,1.13672 1.17187,1.125 1.17187,2.98828 l -2.08594,0.14063 q -0.0117,-1.1836 -0.6914,-1.85157 -0.66797,-0.66797 -1.76953,-0.66797 -1.27735,0 -2.21485,0.8086 -0.9375,0.80859 -1.47656,2.46094 -0.52734,1.64062 -0.52734,3.16406 0,1.59375 0.70312,2.39062 0.70313,0.79688 1.73438,0.79688 1.03125,0 1.96875,-0.78516 0.94921,-0.78515 1.48828,-2.39062 z"
     style="font-style:italic"
     id="path1467" /><path
     d="m 276.19922,95.941831 2.0625,0.21094 q -0.44531,1.53516 -2.05078,2.91797 -1.59375,1.382809 -3.8086,1.382809 -1.38281,0 -2.54297,-0.632809 -1.14843,-0.64453 -1.75781,-1.86328 -0.59765,-1.21875 -0.59765,-2.77734 0,-2.03907 0.9375,-3.94922 0.94921,-1.92188 2.44921,-2.84766 1.5,-0.9375 3.2461,-0.9375 2.22656,0 3.55078,1.38281 1.33594,1.38282 1.33594,3.77344 0,0.91406 -0.16407,1.875 h -9.16406 q -0.0469,0.36328 -0.0469,0.65625 0,1.74609 0.79687,2.67188 0.8086,0.91406 1.96875,0.91406 1.08985,0 2.14453,-0.71485 1.05469,-0.71484 1.64063,-2.0625 z m -6.16406,-3.08203 h 6.98437 q 0.0117,-0.32812 0.0117,-0.46875 0,-1.59375 -0.79688,-2.4375 -0.79687,-0.85547 -2.05078,-0.85547 -1.35937,0 -2.48437,0.9375 -1.11328,0.9375 -1.66406,2.82422 z"
     style="font-style:italic"
     id="path1469" /><path
     d="m 280.40625,100.1723 2.60156,-12.445309 h 1.875 l -0.52734,2.54297 q 0.96094,-1.44141 1.875,-2.13281 0.92578,-0.69141 1.88672,-0.69141 0.63281,0 1.55859,0.45703 l -0.86719,1.96875 q -0.55078,-0.39844 -1.20703,-0.39844 -1.11328,0 -2.28515,1.24219 -1.17188,1.24219 -1.83985,4.46485 l -1.05469,4.992179 z"
     style="font-style:italic"
     id="path1471" /><path
     d="m 293.35547,98.449651 -0.35156,1.734369 q -0.76172,0.19922 -1.47657,0.19922 -1.26562,0 -2.01562,-0.621089 -0.5625,-0.46875 -0.5625,-1.27735 0,-0.41015 0.30469,-1.88672 l 1.51171,-7.23046 h -1.67578 l 0.33985,-1.64063 h 1.67578 l 0.64453,-3.05859 2.42578,-1.46485 -0.94922,4.52344 h 2.08594 l -0.35156,1.64063 h -2.07422 l -1.44141,6.8789 q -0.26953,1.3125 -0.26953,1.57031 0,0.375 0.21094,0.57422 0.22265,0.19922 0.71484,0.19922 0.70313,0 1.25391,-0.14062 z"
     style="font-style:italic"
     id="path1473" /><path
     d="m 303.45703,98.625431 q -1.10156,0.94922 -2.12109,1.394529 -1.01953,0.43359 -2.17969,0.43359 -1.72266,0 -2.77734,-1.007809 -1.05469,-1.01953 -1.05469,-2.60156 0,-1.04297 0.46875,-1.83985 0.48047,-0.80859 1.26562,-1.28906 0.78516,-0.49219 1.92188,-0.70312 0.71484,-0.14063 2.70703,-0.22266 2.00391,-0.082 2.87109,-0.42187 0.2461,-0.86719 0.2461,-1.44141 0,-0.73828 -0.53907,-1.16016 -0.73828,-0.58593 -2.15625,-0.58593 -1.33593,0 -2.1914,0.59765 -0.84375,0.58594 -1.23047,1.67578 l -2.14453,-0.1875 q 0.65625,-1.85156 2.07422,-2.83593 1.42968,-0.98438 3.59765,-0.98438 2.3086,0 3.65625,1.10156 1.03125,0.82032 1.03125,2.13282 0,0.99609 -0.29297,2.30859 l -0.6914,3.09375 q -0.32813,1.47656 -0.32813,2.40234 0,0.58594 0.25782,1.687499 h -2.14454 q -0.17578,-0.609369 -0.24609,-1.546869 z m 0.78516,-4.75781 q -0.44532,0.17578 -0.96094,0.26953 -0.50391,0.0937 -1.69922,0.19922 -1.85156,0.16406 -2.61328,0.42187 -0.76172,0.24609 -1.14844,0.79688 -0.38672,0.55078 -0.38672,1.21875 0,0.89062 0.60938,1.46484 0.62109,0.57422 1.75781,0.57422 1.05469,0 2.02734,-0.55078 0.97266,-0.5625 1.53516,-1.5586 0.5625,-0.99609 0.87891,-2.83593 z"
     style="font-style:italic"
     id="path1475" /><path
     d="m 311.42578,85.394961 0.50391,-2.40234 h 2.10937 l -0.5039,2.40234 z m -3.09375,14.777339 2.60156,-12.445309 h 2.1211 l -2.60157,12.445309 z"
     style="font-style:italic"
     id="path1477" /><path
     d="m 313.74609,100.1723 2.60157,-12.445309 h 1.92187 l -0.45703,2.16797 q 1.25391,-1.27734 2.34375,-1.86328 1.08984,-0.58594 2.22656,-0.58594 1.51172,0 2.36719,0.82031 0.86719,0.82032 0.86719,2.19141 0,0.69141 -0.30469,2.17969 l -1.58203,7.535149 h -2.1211 l 1.65235,-7.886719 q 0.24609,-1.14843 0.24609,-1.69921 0,-0.6211 -0.43359,-1.00782 -0.42188,-0.38672 -1.23047,-0.38672 -1.62891,0 -2.90625,1.17188 -1.26563,1.17187 -1.86328,4.01953 l -1.20703,5.789059 z"
     style="font-style:italic"
     id="path1479" /><path
     d="m 337.01953,100.1723 -1.05469,-17.179679 h 2.33203 l 0.39844,8.49609 q 0.0352,0.60937 0.11719,3.30469 0.0234,0.75 0.0234,1.05468 0,0.19922 -0.0117,1.16016 1.42969,-2.92969 2.0625,-4.125 l 5.22656,-9.89062 h 2.36719 l 0.57422,10.04296 q 0.0937,1.72266 0.1289,4.14844 0.21094,-0.59765 0.75,-1.78125 0.85547,-1.91015 1.26563,-2.73047 l 4.89844,-9.67968 h 2.34375 L 349.6992,100.1723 h -2.46094 l -0.57422,-10.406249 q -0.082,-1.33593 -0.1289,-3.28125 -0.71485,1.62891 -1.19532,2.53125 L 339.3867,100.1723 Z"
     style="font-style:italic"
     id="path1481" /><path
     d="m 356.78906,95.449651 q 0,-3.64453 2.14453,-6.03516 1.76953,-1.96875 4.64063,-1.96875 2.25,0 3.62109,1.40625 1.38281,1.40625 1.38281,3.79688 0,2.14453 -0.86718,3.99609 -0.86719,1.83984 -2.47266,2.82422 -1.59375,0.984369 -3.36328,0.984369 -1.45313,0 -2.64844,-0.621089 -1.18359,-0.62109 -1.8164,-1.75781 -0.6211,-1.13672 -0.6211,-2.625 z m 2.1211,-0.21094 q 0,1.75781 0.84375,2.67187 0.84375,0.90235 2.14453,0.90235 0.67968,0 1.34765,-0.26953 0.66797,-0.28125 1.24219,-0.84375 0.57422,-0.5625 0.97266,-1.27735 0.41015,-0.72656 0.65625,-1.55859 0.36328,-1.16016 0.36328,-2.22656 0,-1.6875 -0.85547,-2.61328 -0.84375,-0.9375 -2.13281,-0.9375 -0.9961,0 -1.81641,0.48046 -0.82031,0.46875 -1.48828,1.38282 -0.65625,0.91406 -0.97266,2.13281 -0.30468,1.20703 -0.30468,2.15625 z"
     style="font-style:italic"
     id="path1483" /><path
     d="m 369.76172,100.1723 2.60156,-12.445309 h 1.875 l -0.52734,2.54297 q 0.96093,-1.44141 1.875,-2.13281 0.92578,-0.69141 1.88672,-0.69141 0.63281,0 1.55859,0.45703 l -0.86719,1.96875 q -0.55078,-0.39844 -1.20703,-0.39844 -1.11328,0 -2.28516,1.24219 -1.17187,1.24219 -1.83984,4.46485 l -1.05469,4.992179 z"
     style="font-style:italic"
     id="path1485" /><path
     d="m 377.58984,100.1723 3.58594,-17.179679 h 2.12109 l -3.58593,17.179679 z"
     style="font-style:italic"
     id="path1487" /><path
     d="m 391.47656,98.367621 q -1.8164,2.085929 -3.79687,2.085929 -1.76953,0 -2.95313,-1.300779 -1.17187,-1.3125 -1.17187,-3.79687 0,-2.27344 0.92578,-4.14844 0.9375,-1.88672 2.33203,-2.82422 1.40625,-0.9375 2.8125,-0.9375 2.32031,0 3.50391,2.23828 l 1.40625,-6.6914 h 2.10937 l -3.58594,17.179679 h -1.95703 z m -5.8125,-3.41016 q 0,1.30078 0.25781,2.05078 0.25782,0.75 0.87891,1.25391 0.62109,0.49218 1.48828,0.49218 1.44141,0 2.61328,-1.5 1.57032,-1.99218 1.57032,-4.92187 0,-1.47656 -0.77344,-2.30859 -0.77344,-0.83204 -1.94531,-0.83204 -0.76172,0 -1.39454,0.33985 -0.62109,0.33984 -1.24218,1.16015 -0.60938,0.8086 -1.03125,2.0625 -0.42188,1.25391 -0.42188,2.20313 z"
     style="font-style:italic"
     id="path1489" /></g></g></g></svg>
