<svg width="3735" height="1626" viewBox="0 0 3735 1626" fill="none" xmlns="http://www.w3.org/2000/svg">
<rect width="3735" height="1626" fill="white"/>
<path fill-rule="evenodd" clip-rule="evenodd" d="M542.027 772.798C567.074 795.884 598.904 816.577 637.418 834.845L639.323 835.741L643.197 837.533L647.156 839.325C650.491 840.82 653.914 842.315 657.426 843.812L661.683 845.609L666.025 847.406L670.452 849.205C672.687 850.104 674.954 851.004 677.253 851.905L681.893 853.706L686.619 855.509L691.43 857.313L696.326 859.118L701.308 860.924C702.145 861.225 702.986 861.526 703.83 861.827L708.94 863.635L714.135 865.444L719.416 867.255L724.782 869.067L730.233 870.88L735.77 872.694L741.392 874.509L747.1 876.326L752.893 878.144L758.772 879.964C759.759 880.267 760.75 880.571 761.744 880.874L770.787 883.607L776.923 885.431L783.144 887.256L789.451 889.083L800.437 892.225L804.963 893.535L809.419 894.841L815.975 896.795C816.695 897.011 817.412 897.228 818.126 897.444L822.377 898.74L828.624 900.678L834.717 902.607L838.692 903.888L842.599 905.166L848.33 907.076L852.064 908.345L855.729 909.609L859.325 910.87L864.59 912.754L868.014 914.005L871.368 915.251L874.653 916.494L877.869 917.733L881.015 918.968L884.092 920.199L887.1 921.425C887.595 921.629 888.088 921.833 888.578 922.037L891.481 923.257L894.315 924.473L897.08 925.684L899.775 926.892L902.4 928.094L904.956 929.293L907.442 930.487L909.859 931.677L912.205 932.862L914.482 934.042C914.856 934.239 915.227 934.435 915.594 934.631L917.767 935.805L919.869 936.974C920.213 937.168 920.555 937.363 920.894 937.557L922.891 938.719C923.218 938.912 923.542 939.105 923.863 939.298L925.756 940.453L927.578 941.604C928.174 941.986 928.758 942.368 929.33 942.749C951.252 957.342 961.92 977.71 961.92 1005.19C961.92 1029.89 951.417 1048.56 929.54 1062.48C906.548 1077.12 873.779 1083.7 831.149 1083.8L542.032 1083.8L542.027 772.798ZM1082.43 541.578L1082.43 823.947C1043.16 794.839 989.909 769.306 922.657 747.216L916.777 745.305C915.791 744.988 914.802 744.671 913.81 744.356L907.823 742.47C906.82 742.157 905.813 741.845 904.803 741.534L898.711 739.674L892.548 737.832L886.314 736.007L880.01 734.199C877.897 733.6 875.772 733.003 873.635 732.409L867.19 730.635L860.674 728.879L854.694 727.289L849.364 725.847L844.118 724.399L838.955 722.946L833.876 721.487C833.036 721.243 832.2 720.999 831.368 720.755L826.414 719.287C824.776 718.797 823.153 718.305 821.543 717.813L816.757 716.334C815.966 716.087 815.179 715.84 814.395 715.592L809.733 714.104C808.963 713.856 808.197 713.607 807.434 713.358L802.898 711.862L798.446 710.36L794.078 708.853L789.794 707.34L785.593 705.822L781.477 704.298L777.444 702.769L773.495 701.235L769.63 699.695L765.849 698.15C760.241 695.829 754.917 693.49 749.876 691.134L746.558 689.561C741.098 686.935 735.988 684.287 731.231 681.62L728.418 680.017C727.957 679.75 727.499 679.482 727.044 679.214C700.28 663.441 687.73 645.106 687.73 623.527C687.73 599.542 698.492 580.571 720.978 565.523C744.505 549.78 778.339 541.578 822.607 541.578H1082.43Z" fill="black"/>
<path d="M1811.98 812.728C1811.98 969.945 1684.96 1097.39 1528.27 1097.39C1371.58 1097.39 1244.56 969.945 1244.56 812.728C1244.56 655.512 1371.58 528.062 1528.27 528.062C1684.96 528.062 1811.98 655.512 1811.98 812.728Z" fill="black"/>
<path d="M2244.29 1083.8C2393.52 1083.8 2514.49 962.418 2514.49 812.688C2514.49 662.958 2393.52 541.578 2244.29 541.578H1974.09V1083.8H2244.29Z" fill="black"/>
<path d="M2911.17 540.305L3222.39 1085.24H2599.95L2911.17 540.305Z" fill="black"/>
</svg>
