<?xml version="1.0" encoding="UTF-8"?>
<svg width="88.41mm" height="20.02mm" version="1.1" viewBox="0 0 88.41 20.02" xmlns="http://www.w3.org/2000/svg" xmlns:cc="http://creativecommons.org/ns#" xmlns:dc="http://purl.org/dc/elements/1.1/" xmlns:rdf="http://www.w3.org/1999/02/22-rdf-syntax-ns#">
<title>Synopsys logo</title>
<desc>A software company based in Mountain View, California, United States that specialised in EDA</desc>
 <metadata>
  <rdf:RDF>
   <cc:Work rdf:about="">
    <dc:format>image/svg+xml</dc:format>
    <dc:type rdf:resource="http://purl.org/dc/dcmitype/StillImage"/>
    <dc:title/>
   </cc:Work>
  </rdf:RDF>
 </metadata>
 <g transform="translate(171.5 37.81)">
  <g transform="translate(-266.9 -290)">
   <path d="m102 254.9c0-0.5843-0.2921-1.023-1.583-1.023-1.294 0-1.585 0.4382-1.585 1.023v1.583c0 0.4796 0.1667 0.9591 0.6256 1.355l4.375 3.752c0.627 0.5209 1.002 1.167 1.002 1.834v2.376c0 1.419-1.669 2.21-4.419 2.21-3.043 0-4.503-0.6876-4.502-2.21v-2.062h2.752l-0.0014 1.979c0 0.7097 0.5429 1.126 1.751 1.126 1.126 0 1.667-0.4162 1.667-1.126v-2.106c0-0.5209-0.2081-0.9178-0.791-1.437l-4.045-3.522c-0.7497-0.6477-1.167-1.148-1.167-1.918v-1.813c0-1.48 1.543-2.21 4.337-2.21 3.085 0 4.334 0.7304 4.334 2.106v1.918h-2.751z" style="fill:#573885"/>
   <path d="m131.3 265.4c0 0.8337 0.3321 1.418 2.084 1.418 1.751 0 2.085-0.5843 2.085-1.418v-10.13c0-0.8323-0.3335-1.417-2.084-1.417-1.751 0-2.085 0.5843-2.085 1.417zm-2.751-10.17c0-1.48 1.124-2.542 4.836-2.542 3.71 0 4.836 1.062 4.836 2.542l-1e-3 10.21c0 1.48-1.124 2.544-4.836 2.544-3.71 0-4.836-1.064-4.836-2.544z" style="fill:#573885"/>
   <path d="m143.9 259.9c1.251 0 2.126-0.1667 2.126-0.9384v-4.064c0-0.7717-0.875-0.9384-2.126-0.9384h-1.333v5.941zm-4.085-7.108h4.378c3.544 0 4.586 0.5829 4.586 2.293l-3e-3 3.689c0 1.709-1.042 2.293-4.583 2.293h-1.626v6.774h-2.752z" style="fill:#573885"/>
   <path d="m155.6 254.9c0-0.5843-0.2922-1.022-1.583-1.022-1.294 0-1.586 0.4382-1.586 1.022v1.583c0 0.4796 0.1667 0.9591 0.6256 1.355l4.378 3.752c0.6242 0.5209 0.9991 1.167 0.9991 1.834v2.377c0 1.418-1.666 2.209-4.418 2.209-3.043 0-4.503-0.6876-4.503-2.21v-2.063h2.752v1.98c0 0.7097 0.543 1.126 1.751 1.126 1.126 0 1.667-0.4162 1.667-1.126v-2.106c0-0.5209-0.2067-0.9164-0.7924-1.437l-4.043-3.524c-0.7524-0.6463-1.167-1.147-1.167-1.917v-1.815c0-1.48 1.542-2.209 4.337-2.209 3.084 0 4.334 0.729 4.334 2.107v1.917h-2.751z" style="fill:#573885"/>
   <path d="m175.9 254.9c0-0.5843-0.2921-1.022-1.583-1.022-1.293 0-1.585 0.4382-1.585 1.022v1.585c0 0.4782 0.1667 0.9577 0.6256 1.353l4.377 3.754c0.6256 0.5209 0.9991 1.166 0.9991 1.833v2.377c0 1.418-1.666 2.209-4.417 2.209-3.044 0-4.505-0.6876-4.505-2.209v-2.064h2.753l-1e-3 1.98c0 0.7097 0.543 1.126 1.753 1.126 1.123 0 1.666-0.4162 1.666-1.126v-2.106c0-0.5209-0.2081-0.9164-0.7924-1.437l-4.043-3.524c-0.751-0.6449-1.167-1.145-1.167-1.917v-1.815c3e-5 -1.477 1.542-2.209 4.337-2.209 3.084 0 4.335 0.7317 4.335 2.107v1.917h-2.752z" style="fill:#573885"/>
   <path d="m113.4 252.8h2.756l-6.03 18.89h-2.755z" style="fill:#573885"/>
   <path d="m109 264.6-3.728-11.7h2.755l2.35 7.377z" style="fill:#573885"/>
   <path d="m166.9 252.8h2.755l-6.03 18.9h-2.755z" style="fill:#573885"/>
   <path d="m162.6 264.5-3.728-11.7h2.755l2.351 7.378z" style="fill:#573885"/>
   <path d="m126.9 267.9h0.0138v-12.75c0-1.71-1.043-2.294-4.585-2.294h-5.307l-1e-3 15.05h2.751l1e-3 -6e-3v-13.88h2.264c1.25 0 2.125 0.1681 2.125 0.9384v12.94z" style="fill:#573885"/>
   <path d="m181.6 254.6c0.2591 0 0.4906-0.0179 0.4906-0.328 0-0.2522-0.226-0.2963-0.4396-0.2963h-0.4176v0.6242zm-0.3666 1.136h-0.3073v-2.02h0.7703c0.4782 0 0.7152 0.175 0.7152 0.5733 0 0.3638-0.2288 0.5209-0.525 0.5581l0.5746 0.8888h-0.3418l-0.5347-0.875h-0.3514zm0.3721 0.4506c0.7924 0 1.417-0.6215 1.417-1.466 0-0.8296-0.6243-1.455-1.417-1.455-0.8048 0-1.429 0.6256-1.429 1.455 0 0.8447 0.6242 1.466 1.429 1.466m-1.782-1.466c0-1.005 0.8158-1.747 1.782-1.747 0.9536 0 1.768 0.7428 1.768 1.747 0 1.016-0.8144 1.758-1.768 1.758-0.966 0-1.782-0.7428-1.782-1.758" style="fill:#573885"/>
  </g>
 </g>
</svg>
