<?xml version="1.0" encoding="UTF-8" standalone="no"?>
<!DOCTYPE svg PUBLIC "-//W3C//DTD SVG 1.1//EN" "http://www.w3.org/Graphics/SVG/1.1/DTD/svg11.dtd">
<svg width="100%" height="100%" viewBox="0 0 144 144" version="1.1" xmlns="http://www.w3.org/2000/svg" xmlns:xlink="http://www.w3.org/1999/xlink" xml:space="preserve" xmlns:serif="http://www.serif.com/" style="fill-rule:evenodd;clip-rule:evenodd;stroke-linejoin:round;stroke-miterlimit:2;">
    <g transform="matrix(5.97263,0,0,5.97263,0,0)">
        <rect x="0" y="0" width="24.11" height="24.11" style="fill:rgb(221,17,0);"/>
    </g>
    <g transform="matrix(5.97263,0,0,5.97263,0,0)">
        <path d="M2,15.2C2.084,15.64 2.243,16.063 2.47,16.45C2.445,16.358 2.428,16.265 2.42,16.17C2.402,16.132 2.402,16.088 2.42,16.05C2.732,15.743 3.089,15.487 3.48,15.29C3.642,15.228 3.809,15.182 3.98,15.15L4.04,15.15L4.04,14.61C4.04,14.49 4.09,14.25 4.1,14.15L3.5,13.89L3.5,14C3.495,14.02 3.495,14.04 3.5,14.06C3.5,14.2 3.38,14.23 3.31,14.24C2.845,14.369 2.421,14.618 2.08,14.96C2,15.05 1.94,15.07 2,15.2Z" style="fill:white;fill-opacity:0.45;fill-rule:nonzero;"/>
    </g>
    <g transform="matrix(5.97263,0,0,5.97263,0,0)">
        <path d="M10.4,9.54C10.364,9.526 10.343,9.488 10.35,9.45C10.362,9.223 10.362,8.997 10.35,8.77C10.343,8.682 10.326,8.595 10.3,8.51C10.3,8.39 10.23,8.3 10.2,8.21C10.151,8.094 10.076,7.992 9.98,7.91L9.1,8C8.964,8.17 8.859,8.363 8.79,8.57C8.682,8.913 8.625,9.27 8.62,9.63C8.624,9.686 8.592,9.739 8.54,9.76L7.54,10.15C7.505,10.166 7.465,10.166 7.43,10.15C7.274,9.936 7.092,9.741 6.89,9.57C6.62,9.385 6.318,9.249 6,9.17L5.31,9.67C5.296,9.913 5.296,10.157 5.31,10.4C5.413,10.732 5.579,11.041 5.8,11.31C5.831,11.359 5.831,11.421 5.8,11.47L5.16,12.29C5.132,12.327 5.086,12.346 5.04,12.34L5,12.34C5,12.34 4.69,12.27 4.26,12.22L4.1,12.22C3.83,12.216 3.562,12.264 3.31,12.36C3.16,12.632 3.052,12.926 2.99,13.23C3.059,13.347 3.143,13.455 3.24,13.55C3.596,13.754 3.963,13.937 4.34,14.1C4.392,14.127 4.423,14.182 4.42,14.24C4.417,14.298 4.36,14.54 4.35,14.65C4.34,14.76 4.35,15.17 4.35,15.17C4.347,15.228 4.306,15.277 4.25,15.29C3.975,15.341 3.713,15.446 3.48,15.6L3.22,15.81C3.03,15.97 2.81,16.14 2.73,16.23C2.776,16.512 2.846,16.79 2.94,17.06C3.151,17.104 3.365,17.128 3.58,17.13L3.77,17.13C4.029,17.1 4.286,17.057 4.54,17C4.595,16.999 4.646,17.03 4.67,17.08C4.694,17.13 4.8,17.33 4.87,17.44L5.11,17.78C5.15,17.833 5.15,17.907 5.11,17.96C4.935,18.146 4.771,18.343 4.62,18.55C4.448,18.805 4.335,19.096 4.29,19.4C4.453,19.598 4.641,19.772 4.85,19.92C5.379,19.703 5.863,19.391 6.28,19C6.31,18.98 6.35,18.98 6.38,19L7.18,19.32C7.241,19.347 7.275,19.415 7.26,19.48C7.182,19.725 7.148,19.983 7.16,20.24C7.186,20.512 7.264,20.777 7.39,21.02L8.05,21.02C8.407,20.692 8.67,20.274 8.81,19.81C8.838,19.689 8.946,19.601 9.07,19.6C9.238,19.583 9.405,19.556 9.57,19.52L9.68,19.52C9.775,19.526 9.861,19.578 9.91,19.66L10,19.78C10.143,20.017 10.329,20.224 10.55,20.39L10.69,20.48C10.77,20.54 10.8,20.57 10.83,20.57C10.887,20.56 10.941,20.54 10.99,20.51L11.11,20.46L11.28,20.46C11.463,20.41 11.596,20.249 11.61,20.06L11.61,19.99C11.651,19.748 11.651,19.502 11.61,19.26C11.585,19.112 11.552,18.965 11.51,18.82L12.41,18.14L12.57,18.22C12.876,18.39 13.22,18.483 13.57,18.49L14,18.49C14.037,18.484 14.07,18.462 14.09,18.43C14.21,18.29 14.35,18.12 14.47,17.95C14.491,17.895 14.491,17.835 14.47,17.78C14.387,17.382 14.163,17.027 13.84,16.78C13.71,16.68 13.77,16.56 13.84,16.46C13.941,16.295 14.018,16.117 14.07,15.93C14.12,15.78 14.19,15.67 14.39,15.67C14.792,15.652 15.184,15.536 15.53,15.33C15.66,15.26 15.71,15.23 15.72,15.1C15.72,15.03 15.72,14.86 15.79,14.72C15.703,14.548 15.558,14.413 15.38,14.34L15.3,14.34C15.061,14.235 14.801,14.187 14.54,14.2C14.491,14.206 14.442,14.187 14.41,14.15C14.378,14.113 14.32,14.04 14.32,13.68L14.32,13.21C14.328,13.124 14.377,13.046 14.45,13C14.69,12.842 14.912,12.658 15.11,12.45C15.246,12.267 15.348,12.06 15.41,11.84C15.363,11.644 15.282,11.458 15.17,11.29L14.49,11.29C14.206,11.349 13.939,11.472 13.71,11.65L13.64,11.65C13.598,11.651 13.557,11.632 13.53,11.6C13.503,11.568 13.37,11.4 13.29,11.28C13.21,11.16 13.07,11.06 12.99,10.98C12.957,10.932 12.957,10.868 12.99,10.82C12.99,10.74 13.22,10.32 13.31,10.09C13.393,9.804 13.434,9.508 13.43,9.21C13.235,9.071 13.027,8.951 12.81,8.85C12.71,8.91 12.48,9.03 12.24,9.2C11.971,9.427 11.75,9.706 11.59,10.02C11.559,10.066 11.506,10.093 11.45,10.09L10.97,9.97C10.851,9.945 10.731,9.928 10.61,9.92C10.578,9.935 10.542,9.935 10.51,9.92L10.4,9.54ZM12.82,11.83C13.16,12.277 13.389,12.798 13.49,13.35C13.595,13.929 13.567,14.523 13.41,15.09C13.116,16.162 12.467,17.104 11.57,17.76C10.802,18.332 9.877,18.657 8.92,18.69C7.886,18.711 6.887,18.306 6.16,17.57C5.528,16.868 5.2,15.943 5.25,15C5.292,13.832 5.779,12.722 6.61,11.9C7.436,11.049 8.555,10.541 9.74,10.48L9.87,10.48C11.013,10.425 12.115,10.929 12.82,11.83Z" style="fill:white;fill-rule:nonzero;"/>
    </g>
    <g transform="matrix(5.97263,0,0,5.97263,0,0)">
        <path d="M3.71,18.5C3.82,18.75 3.95,19.02 4.07,19.25C4.133,18.929 4.258,18.623 4.44,18.35C4.576,18.161 4.723,17.981 4.88,17.81C4.824,17.741 4.774,17.667 4.73,17.59L4.73,17.54C4.73,17.46 4.57,17.25 4.51,17.13L3.92,17.25C3.768,17.496 3.659,17.767 3.6,18.05C3.59,18.093 3.59,18.137 3.6,18.18L3.71,18.5Z" style="fill:white;fill-opacity:0.45;fill-rule:nonzero;"/>
    </g>
    <g transform="matrix(5.97263,0,0,5.97263,0,0)">
        <path d="M6.42,19.15C6.467,19.391 6.559,19.622 6.69,19.83C6.817,20.03 6.937,20.23 7.05,20.43C7.04,20.297 7.04,20.163 7.05,20.03C7.053,19.817 7.083,19.605 7.14,19.4L6.42,19.15Z" style="fill:white;fill-opacity:0.45;fill-rule:nonzero;"/>
    </g>
    <g transform="matrix(5.97263,0,0,5.97263,0,0)">
        <path d="M9.77,12.66C8.487,12.693 7.453,13.766 7.47,15.05C7.512,15.941 8.248,16.655 9.14,16.67L9.57,16.67C10.464,16.498 11.189,15.836 11.44,14.96C11.613,14.441 11.531,13.87 11.22,13.42C10.899,12.972 10.381,12.707 9.83,12.71L9.77,12.66ZM10.31,12.9C10.44,12.9 10.46,13 10.48,13.09C10.688,13.778 10.472,14.528 9.93,15C9.558,15.385 9.046,15.605 8.51,15.61C8.297,15.608 8.085,15.578 7.88,15.52C7.68,15.46 7.64,15.33 7.65,15.14L7.65,15C7.717,13.819 8.688,12.874 9.87,12.84C10.019,12.84 10.167,12.86 10.31,12.9Z" style="fill:white;fill-opacity:0.45;fill-rule:nonzero;"/>
    </g>
    <g transform="matrix(5.97263,0,0,5.97263,0,0)">
        <path d="M9.58,10.89C8.566,10.992 7.62,11.449 6.91,12.18C6.164,12.88 5.725,13.848 5.69,14.87C5.642,15.793 5.966,16.698 6.59,17.38C7.239,17.99 8.111,18.308 9,18.26C9.876,18.227 10.719,17.919 11.41,17.38C12.183,16.818 12.744,16.011 13,15.09C13.272,14.132 13.123,13.102 12.59,12.26C11.995,11.334 10.937,10.807 9.84,10.89L9.58,10.89ZM11.5,13C12.079,13.819 12.107,14.913 11.57,15.76C11.122,16.47 10.396,16.96 9.57,17.11L9.19,17.11C8.777,17.126 8.366,17.033 8,16.84C7.617,16.626 7.315,16.292 7.14,15.89C6.875,15.29 6.868,14.606 7.12,14C7.333,13.444 7.718,12.971 8.22,12.65C8.682,12.351 9.22,12.192 9.77,12.19C10.442,12.17 11.085,12.471 11.5,13Z" style="fill:white;fill-rule:nonzero;"/>
    </g>
    <g transform="matrix(5.97263,0,0,5.97263,0,0)">
        <path d="M11.7,7.69L11.62,7.69C11.213,7.864 10.866,8.152 10.62,8.52C10.577,8.589 10.53,8.656 10.48,8.72L10.48,9.31L10.88,9.31L11.33,9.41L11.38,9.41L11.43,9.34C11.596,9.025 11.824,8.746 12.1,8.52C12.274,8.404 12.454,8.297 12.64,8.2L11.7,7.69Z" style="fill:white;fill-opacity:0.45;fill-rule:nonzero;"/>
    </g>
    <g transform="matrix(5.97263,0,0,5.97263,0,0)">
        <path d="M15.6,11.69L15.67,11.74L16,12L16.12,12.08C16.019,11.947 15.947,11.793 15.91,11.63C15.842,11.366 15.822,11.091 15.85,10.82L15.27,10.54L14.99,10.72L15.26,10.72C15.304,10.73 15.343,10.754 15.37,10.79C15.518,11.018 15.62,11.273 15.67,11.54C15.649,11.591 15.625,11.641 15.6,11.69Z" style="fill:white;fill-opacity:0.45;fill-rule:nonzero;"/>
    </g>
    <g transform="matrix(5.97263,0,0,5.97263,0,0)">
        <path d="M7.43,8.91L6.82,9.15L6.66,9.15C6.753,9.201 6.84,9.261 6.92,9.33C7.094,9.473 7.248,9.638 7.38,9.82L8.38,9.41C8.359,9.072 8.399,8.733 8.5,8.41C8.601,8.143 8.725,7.885 8.87,7.64C8.913,7.617 8.966,7.625 9,7.66L9.7,7.66L9.44,7.49L9.28,7.39C8.96,7.16 8.86,7.1 8.67,7.1C8.522,7.107 8.375,7.123 8.23,7.15C8.144,7.128 8.053,7.16 8,7.23C7.731,7.657 7.595,8.155 7.61,8.66C7.615,8.774 7.54,8.878 7.43,8.91Z" style="fill:white;fill-opacity:0.45;fill-rule:nonzero;"/>
    </g>
    <g transform="matrix(5.97263,0,0,5.97263,0,0)">
        <path d="M15.88,3.27L15.49,3.27C15.434,3.288 15.385,3.323 15.35,3.37C15.073,3.801 14.917,4.298 14.9,4.81C14.892,4.902 14.844,4.986 14.77,5.04C14.661,5.127 14.548,5.207 14.43,5.28L14.22,5.42C14.13,5.483 14.01,5.483 13.92,5.42C13.635,5.279 13.318,5.214 13,5.23C12.877,5.22 12.753,5.22 12.63,5.23C12.57,5.239 12.516,5.271 12.48,5.32C12.4,5.44 12.34,5.57 12.27,5.7C12.241,5.762 12.207,5.822 12.17,5.88C12.14,5.936 12.14,6.004 12.17,6.06C12.34,6.484 12.651,6.837 13.05,7.06C13.17,7.122 13.229,7.261 13.19,7.39C13.174,7.56 13.174,7.73 13.19,7.9C13.203,8.068 13.117,8.228 12.97,8.31C13.167,8.412 13.351,8.536 13.52,8.68C13.62,8.79 13.6,9.12 13.52,9.4L13.58,9.32C13.771,9.122 13.978,8.942 14.2,8.78L14.2,7.9C13.931,7.754 13.694,7.557 13.5,7.32C13.342,7.101 13.202,6.871 13.08,6.63L13.54,5.77L13.59,5.77C13.786,5.757 13.984,5.757 14.18,5.77C14.322,5.747 14.468,5.747 14.61,5.77C14.833,5.824 15.05,5.898 15.26,5.99L16.02,5.49C16.011,5.101 16.076,4.715 16.21,4.35C16.307,4.135 16.42,3.927 16.55,3.73L17.04,3.73C16.81,3.66 16.57,3.59 16.35,3.5C16.209,3.395 16.05,3.317 15.88,3.27Z" style="fill:white;fill-opacity:0.45;fill-rule:nonzero;"/>
    </g>
    <g transform="matrix(5.97263,0,0,5.97263,0,0)">
        <path d="M4.12,11.3C3.878,11.22 3.625,11.179 3.37,11.18C3.113,11.184 2.858,11.221 2.61,11.29C2.545,11.3 2.489,11.341 2.46,11.4C2.443,11.459 2.419,11.516 2.39,11.57L2.23,12C2.216,12.052 2.216,12.108 2.23,12.16L2.59,12.75L2.68,12.9C2.747,12.631 2.87,12.379 3.04,12.16C3.344,12.037 3.672,11.983 4,12L4.3,12C4.501,12.023 4.698,12.067 4.89,12.13L5.56,11.25C5.363,10.962 5.205,10.649 5.09,10.32C5.049,10.062 5.026,9.801 5.02,9.54C5.019,9.498 5.043,9.459 5.08,9.44L5.78,8.91C5.819,8.895 5.861,8.895 5.9,8.91C6.064,8.965 6.225,9.032 6.38,9.11C6.075,8.747 5.683,8.468 5.24,8.3L5.1,8.3C4.91,8.43 4.71,8.58 4.51,8.74C4.498,8.779 4.498,8.821 4.51,8.86C4.496,9.361 4.655,9.852 4.96,10.25C5.037,10.331 5.037,10.459 4.96,10.54L4.44,11.21C4.399,11.276 4.328,11.318 4.25,11.32L4.12,11.3Z" style="fill:white;fill-opacity:0.45;fill-rule:nonzero;"/>
    </g>
    <g transform="matrix(5.97263,0,0,5.97263,0,0)">
        <path d="M15.82,14.17L15.88,14.25L15.82,14.17Z" style="fill:white;fill-rule:nonzero;"/>
    </g>
    <g transform="matrix(5.97263,0,0,5.97263,0,0)">
        <path d="M17.23,6.23C17.068,6.231 16.907,6.252 16.75,6.29C16.274,6.418 15.859,6.713 15.58,7.12C15.286,7.512 15.16,8.005 15.23,8.49C15.283,8.867 15.455,9.217 15.72,9.49C15.991,9.74 16.351,9.873 16.72,9.86L17.06,9.86C17.956,9.673 18.626,8.912 18.7,8C18.746,7.526 18.59,7.053 18.27,6.7C18.008,6.4 17.628,6.228 17.23,6.23ZM18.17,8.47C18.065,8.766 17.869,9.022 17.61,9.2C17.365,9.384 17.067,9.486 16.76,9.49C16.631,9.49 16.503,9.47 16.38,9.43C16.111,9.336 15.891,9.138 15.77,8.88C15.679,8.678 15.632,8.458 15.632,8.236C15.632,7.417 16.273,6.728 17.09,6.67C17.209,6.669 17.328,6.689 17.44,6.73C17.741,6.825 17.988,7.043 18.12,7.33C18.292,7.687 18.31,8.099 18.17,8.47Z" style="fill:white;fill-rule:nonzero;"/>
    </g>
    <g transform="matrix(5.97263,0,0,5.97263,0,0)">
        <path d="M18.61,5.71C18.832,5.547 19.074,5.412 19.33,5.31C19.477,5.268 19.628,5.237 19.78,5.22L18.78,4.86L18,4.86C18.009,5.013 18.009,5.167 18,5.32L18.61,5.71Z" style="fill:white;fill-opacity:0.45;fill-rule:nonzero;"/>
    </g>
    <g transform="matrix(5.97263,0,0,5.97263,0,0)">
        <path d="M14.43,13.09C14.43,13.27 14.43,13.54 14.48,13.69C14.775,13.694 15.068,13.741 15.35,13.83L15.56,13.96C15.23,13.69 14.67,13.29 14.43,13.1L14.43,13.09Z" style="fill:white;fill-opacity:0.45;fill-rule:nonzero;"/>
    </g>
    <g transform="matrix(5.97263,0,0,5.97263,0,0)">
        <path d="M18.26,10C18.308,9.96 18.368,9.936 18.43,9.93C18.473,9.921 18.517,9.921 18.56,9.93C18.793,10.058 19.054,10.124 19.32,10.12C19.463,10.139 19.607,10.139 19.75,10.12C19.802,10.112 19.849,10.083 19.88,10.04L20.08,9.7C20.113,9.628 20.149,9.558 20.19,9.49C20.22,9.434 20.22,9.366 20.19,9.31C20.057,8.92 19.782,8.595 19.42,8.4C19.315,8.336 19.268,8.206 19.31,8.09C19.339,7.921 19.339,7.749 19.31,7.58C19.288,7.444 19.341,7.305 19.45,7.22C19.858,6.929 20.182,6.536 20.39,6.08L20.39,5.88C20.359,5.822 20.332,5.762 20.31,5.7L20.18,5.42L20.03,5.42C19.785,5.425 19.543,5.465 19.31,5.54C19.08,5.622 18.862,5.733 18.66,5.87L18.6,5.92L17.82,5.45L17.82,5.4C17.82,5.105 17.797,4.811 17.75,4.52C17.694,4.291 17.603,4.072 17.48,3.87L16.72,3.87C16.72,3.93 16.59,4.08 16.43,4.39C16.282,4.753 16.198,5.139 16.18,5.53L16.18,5.59L15.37,6.16L15.31,6.16C15.082,6.045 14.845,5.951 14.6,5.88C14.497,5.869 14.393,5.869 14.29,5.88C14.127,5.865 13.963,5.865 13.8,5.88L13.4,6.66C13.477,6.858 13.578,7.046 13.7,7.22C13.882,7.433 14.112,7.601 14.37,7.71L14.45,7.81L14.45,8.81L14.39,8.81C14.155,8.982 13.94,9.18 13.75,9.4C13.59,9.626 13.446,9.863 13.32,10.11L13.65,10.7C13.862,10.7 14.073,10.677 14.28,10.63C14.584,10.543 14.868,10.401 15.12,10.21L15.95,10.63C15.917,10.905 15.937,11.183 16.01,11.45C16.088,11.73 16.266,11.972 16.51,12.13L16.86,12.07L16.92,12.07C16.957,12.048 16.991,12.021 17.02,11.99C17.297,11.58 17.459,11.104 17.49,10.61C17.506,10.516 17.555,10.43 17.63,10.37L17.95,10.14L18.26,10ZM17.07,10.06L16.75,10.06C16.359,10.058 15.98,9.928 15.67,9.69C15.314,9.423 15.074,9.029 15,8.59C14.929,8.026 15.072,7.455 15.4,6.99C15.725,6.509 16.223,6.172 16.79,6.05C16.936,6.036 17.084,6.036 17.23,6.05C17.659,6.041 18.075,6.199 18.39,6.49C18.59,6.679 18.744,6.912 18.84,7.17C18.954,7.431 19.009,7.715 19,8C18.949,8.557 18.713,9.082 18.33,9.49C17.984,9.819 17.543,10.033 17.07,10.1L17.07,10.06Z" style="fill:white;fill-rule:nonzero;"/>
    </g>
    <g transform="matrix(5.97263,0,0,5.97263,0,0)">
        <path d="M21.64,7.22L21.64,6.07C21.613,5.003 21.291,3.965 20.71,3.07C19.799,1.566 18.148,0.66 16.39,0.7C15.054,0.717 13.76,1.174 12.71,2C11.658,2.772 10.827,3.807 10.3,5C9.947,5.722 9.723,6.501 9.64,7.3C9.808,7.416 9.959,7.554 10.09,7.71C10.273,7.937 10.4,8.204 10.46,8.49L10.57,8.33C10.789,7.985 11.096,7.705 11.46,7.52C11.533,6.951 11.64,6.386 11.78,5.83C12.138,4.876 12.734,4.03 13.51,3.37C14.361,2.612 15.451,2.177 16.59,2.14C17.93,2.083 19.213,2.704 20,3.79C20.588,4.551 20.936,5.47 21,6.43L21,7.26L20.33,7.26C20.648,7.705 20.875,8.208 21,8.74C21.519,8.293 21.967,7.771 22.33,7.19L21.64,7.22Z" style="fill:white;fill-rule:nonzero;"/>
    </g>
    <g transform="matrix(5.97263,0,0,5.97263,0,0)">
        <path d="M17,12.55L15.92,14.11L16.59,14.05C16.597,14.083 16.597,14.117 16.59,14.15C16.385,15.572 15.84,16.924 15,18.09C13.98,19.563 12.566,20.721 10.92,21.43C9.521,22.052 7.978,22.277 6.46,22.08C5.605,21.935 4.789,21.619 4.06,21.15C3.74,20.96 3.44,20.74 3.13,20.53C3.07,20.53 3.03,20.46 2.96,20.53C2.566,20.821 2.207,21.156 1.89,21.53C1.8,21.63 1.89,21.67 1.89,21.74C2.647,22.358 3.516,22.823 4.45,23.11C5.715,23.451 7.037,23.519 8.33,23.31C11.741,22.73 14.683,20.565 16.25,17.48C16.761,16.516 17.099,15.47 17.25,14.39C17.3,14 17.3,14 17.68,13.98L18,13.98C17.74,13.456 17.402,12.974 17,12.55Z" style="fill:white;fill-rule:nonzero;"/>
    </g>
    <g transform="matrix(5.97263,0,0,5.97263,0,0)">
        <path d="M16,8.75C16.089,8.947 16.256,9.099 16.46,9.17C16.556,9.185 16.654,9.185 16.75,9.17C17.268,9.154 17.728,8.825 17.91,8.34C18.031,8.042 18.031,7.708 17.91,7.41C17.786,7.208 17.589,7.062 17.36,7C17.271,6.986 17.179,6.986 17.09,7C16.601,7.028 16.173,7.342 16,7.8C15.869,8.103 15.869,8.447 16,8.75ZM16.63,7.18L16.7,7.18L16.7,7.25C16.767,7.732 16.522,8.206 16.09,8.43L16.03,8.43L16.03,8.37C15.964,7.886 16.209,7.409 16.64,7.18L16.63,7.18Z" style="fill:white;fill-opacity:0.45;fill-rule:nonzero;"/>
    </g>
</svg>
