<?xml version="1.0" encoding="UTF-8" standalone="no"?>
<!DOCTYPE svg PUBLIC "-//W3C//DTD SVG 1.1//EN" "http://www.w3.org/Graphics/SVG/1.1/DTD/svg11.dtd">
<svg width="100%" height="100%" viewBox="0 0 284 66" version="1.1" xmlns="http://www.w3.org/2000/svg" xmlns:xlink="http://www.w3.org/1999/xlink" xml:space="preserve" xmlns:serif="http://www.serif.com/" style="fill-rule:evenodd;clip-rule:evenodd;stroke-linejoin:round;stroke-miterlimit:2;">
    <g id="Bildmarke_183_x2F_0_x2F_50" transform="matrix(1,0,0,1,-65.857,-65.857)">
        <path d="M292.288,115.25L292.288,131.715L349.322,98.786L292.288,65.857L292.288,82.321L320.805,98.786L292.288,115.25Z" style="fill:rgb(183,0,50);fill-rule:nonzero;"/>
    </g>
    <g transform="matrix(1,0,0,1,-65.857,-65.857)">
        <path d="M90.554,84.529L98.787,84.529L82.322,113.047L65.857,84.529L74.089,84.529L82.322,98.788L90.554,84.529Z" style="fill-rule:nonzero;"/>
    </g>
    <g transform="matrix(1,0,0,1,-65.857,-65.857)">
        <path d="M217.754,83.819C209.485,83.819 202.782,90.522 202.782,98.791C202.782,107.06 209.485,113.762 217.754,113.762C226.023,113.762 232.726,107.059 232.726,98.791C232.726,90.522 226.023,83.819 217.754,83.819ZM217.755,106.668C213.404,106.668 209.877,103.141 209.877,98.79C209.877,94.439 213.404,90.913 217.755,90.913C222.106,90.913 225.633,94.44 225.633,98.79C225.633,103.142 222.105,106.668 217.755,106.668Z" style="fill-rule:nonzero;"/>
    </g>
    <g transform="matrix(1,0,0,1,-65.857,-65.857)">
        <path d="M155.121,106.668C150.77,106.668 147.243,103.141 147.243,98.79C147.243,94.439 150.77,90.913 155.121,90.913C157.295,90.913 159.264,91.794 160.689,93.218L165.705,88.202C162.996,85.494 159.254,83.819 155.121,83.819C146.852,83.819 140.149,90.522 140.149,98.791C140.149,107.06 146.852,113.762 155.121,113.762C159.257,113.762 163,112.086 165.71,109.375L160.694,104.359C159.268,105.786 157.297,106.668 155.121,106.668Z" style="fill-rule:nonzero;"/>
    </g>
    <g transform="matrix(1,0,0,1,-65.857,-65.857)">
        <path d="M171.446,90.946L181.071,90.946L181.071,113.047L188.201,113.047L188.201,90.946L197.825,90.946L197.825,84.529L171.446,84.529L171.446,90.946Z" style="fill-rule:nonzero;"/>
    </g>
    <g transform="matrix(1,0,0,1,-65.857,-65.857)">
        <path d="M108.069,113.047L130.17,113.047L130.17,106.63L115.198,106.63L115.198,101.64L126.891,101.64L126.891,95.366L115.198,95.366L115.198,90.946L130.17,90.946L130.17,84.529L108.069,84.529L108.069,113.047Z" style="fill-rule:nonzero;"/>
    </g>
    <g transform="matrix(1,0,0,1,-65.857,-65.857)">
        <path d="M270.187,94.047C270.187,88.797 265.932,84.529 260.682,84.529L243.095,84.529L243.095,113.047L250.224,113.047L250.224,103.565L256.468,103.565L261.955,113.047L270.186,113.047L264.287,102.816C267.748,101.395 270.187,98.02 270.187,94.047ZM260.023,97.22L250.225,97.22L250.225,90.874L260.021,90.874C261.71,90.948 263.058,92.34 263.058,94.047C263.058,95.753 261.711,97.145 260.023,97.22Z" style="fill-rule:nonzero;"/>
    </g>
</svg>
