<svg width="128" height="128" viewBox="0 0 128 128" fill="none" xmlns="http://www.w3.org/2000/svg">
<g clip-path="url(#clip0_2009_16474)">
<path d="M64 64H0V128H64V64Z" fill="#895FD1"/>
<path d="M64 0C28.64 0 0 28.64 0 64C0 99.36 28.64 128 64 128C99.36 128 128 99.36 128 64V0H64Z" fill="#713F79"/>
<path d="M69.36 80C78.16 80 85.36 87.2 85.36 96C85.36 104.8 78.16 112 69.36 112C60.56 112 53.36 104.8 53.36 96C53.36 87.2 60.48 80 69.36 80Z" fill="white"/>
<path d="M90.64 16.08C96.48 16.08 101.2 20.8 101.2 26.72C101.2 32.64 96.48 37.28 90.64 37.28C84.8 37.28 80.08 32.56 80.08 26.72C80.08 20.88 84.8 16.08 90.64 16.08ZM90.64 10.64C81.76 10.64 74.64 17.84 74.64 26.64C74.64 35.44 81.76 42.64 90.64 42.64C99.52 42.64 106.64 35.44 106.64 26.64C106.64 17.84 99.44 10.64 90.64 10.64Z" fill="white"/>
<path d="M52.88 64H37.84C34.64 64 32 61.36 32 58.16V43.12C32 39.92 34.64 37.28 37.84 37.28H52.88C56.08 37.28 58.72 39.92 58.72 43.12V58.16C58.72 61.36 56.08 64 52.88 64Z" fill="white"/>
</g>
<defs>
<clipPath id="clip0_2009_16474">
<rect width="128" height="128" fill="white"/>
</clipPath>
</defs>
</svg>
