<svg width="128" height="128" viewBox="0 0 128 128" fill="none" xmlns="http://www.w3.org/2000/svg">
<g clip-path="url(#clip0_2025_261)">
<path d="M64 64H0V128H64V64Z" fill="#713F79"/>
<path d="M64 0C28.65 0 0 28.65 0 64C0 99.35 28.65 128 64 128C99.35 128 128 99.35 128 64V0H64Z" fill="#895FD1"/>
<path d="M65.9998 24L99.9998 42.9811V81.0189L65.9998 100L31.9998 81.0189V42.9811L65.9998 24ZM65.9998 13.3425C64.2095 13.3425 62.4191 13.7932 60.8047 14.6944L26.8047 33.6755C23.4322 35.5583 21.3423 39.1186 21.3423 42.9811V81.0189C21.3423 84.8815 23.4322 88.4417 26.8047 90.3245L60.8047 109.306C62.4191 110.207 64.2094 110.658 65.9998 110.658C67.7901 110.658 69.5804 110.207 71.1948 109.306L105.195 90.3245C108.567 88.4417 110.657 84.8815 110.657 81.0189V42.9811C110.657 39.1186 108.567 35.5583 105.195 33.6755L71.1948 14.6944C69.5804 13.7932 67.7901 13.3425 65.9998 13.3425Z" fill="white"/>
<path d="M56.16 40.6321C52.56 38.7921 48 41.1921 48 44.9521V74.9521C48 78.7921 52.48 81.1921 56.16 79.2721L85.28 64.3121C88.96 62.3921 88.96 57.5121 85.28 55.5921L56.16 40.6321Z" fill="white"/>
</g>
<defs>
<clipPath id="clip0_2025_261">
<rect width="128" height="128" fill="white"/>
</clipPath>
</defs>
</svg>
