<svg xmlns="http://www.w3.org/2000/svg" id="a" viewBox="5.52 309.79 788.96 180.42"><defs><style>.c{fill:#d10;}.d{fill:#231f20;}.e{fill:#808285;}</style></defs><g id="b"><polygon class="d" points="199.99575 359.59119 220.47148 359.59119 230.11174 412.78809 244.31363 359.59119 262.31823 359.59119 279.17648 413.7186 289.03827 359.59119 308.49484 359.59119 291.84909 439.19 269.38397 439.19 254.4481 389.52768 239.16574 439.19 215.59852 439.19 199.99575 359.59119"/><polygon class="d" points="794.48086 439.19 774.00399 439.19 764.38302 385.80109 750.16525 439.19 732.15487 439.19 715.36599 385.07507 705.44174 439.19 685.98056 439.19 702.62753 359.59119 725.09036 359.59119 740.02389 409.2933 755.31875 359.59119 778.87808 359.59119 794.48086 439.19"/><path class="d" d="m351.4613,358.68173c25.93216,0,39.45938,15.64572,39.45938,41.21057,0,25.33743-13.75128,41.1958-39.45938,41.1958-25.69681,0-39.44803-15.85834-39.44803-41.1958,0-25.56488,13.52496-41.21057,39.44803-41.21057m0,66.65833c12.74265,0,17.81079-12.32758,17.81079-25.44775,0-13.82175-5.06818-25.45685-17.81079-25.45685-12.74036,0-17.80969,11.63507-17.80969,25.45685,0,13.12015,5.06931,25.44775,17.80969,25.44775"/><polygon class="d" points="402.82104 360.7283 423.28933 360.7283 423.28933 424.40735 456.26596 424.40735 456.26596 439.19 402.82104 439.19 402.82104 360.7283"/><polygon class="d" points="465.36297 360.7283 517.67074 360.7283 517.67074 375.51096 485.83123 375.51096 485.83123 392.56784 516.53366 392.56784 516.53366 407.35049 485.83123 407.35049 485.83123 439.19 465.36297 439.19 465.36297 360.7283"/><path class="d" d="m527.90487,359.59119h37.48224c14.00342,0,25.4057,6.47339,25.4057,20.36636,0,10.76056-4.96881,17.92773-15.12866,20.35599v.33231c6.61194,1.8475,7.06268,7.96478,10.92346,17.77243l7.49335,21.90884h-21.39832l-4.40723-14.52927c-4.20026-13.84409-6.84119-17.31027-14.45477-17.31027h-4.31036v31.83951h-21.60541v-80.73593.00003Zm21.60541,34.11377h5.58032c6.81543,0,15.4577-.23395,15.4577-9.33038,0-7.47717-7.39111-8.86365-15.4577-8.86365h-5.58032v18.19403Z"/><path class="d" d="m626.6279,359.59119h25.69019l30.29761,79.59882h-22.88696l-5.88342-17.05688h-29.63757l-6.22699,17.05688h-21.19946l29.84656-79.59882h.00006Zm12.83997,17.05688h-.21637l-9.99835,30.70239h19.43414l-9.21942-30.70239Z"/><path class="c" d="m152.26979,400.00681l24.84506-27.87439-36.48241-7.95532,3.71271-37.15558-34.18769,15.01007-18.84218-32.24319-18.8308,32.23981-34.18427-15.01801,3.70931,37.15671-36.48583,7.9451,24.83824,27.88232-24.84279,27.8721,36.48014,7.95532-3.71385,37.15445,34.18882-15.00552,18.84104,32.24094,18.8308-32.23752,34.18541,15.01575-3.70702-37.15558,36.48582-7.94623-24.84052-27.8812v-.00003Zm6.5305,17.9859l-16.59067-5.67426-11.31781-14.70758,14.56885,5.41159,13.33963,14.97025Zm-53.84028,34.4697l-10.30008,17.63342v-18.26566l10.6958-15.60364-.39572,16.23587Zm-23.95276-91.14517l-17.60612-6.25989-10.18751-13.7558,18.49308,8.12363s9.30055,11.89206,9.30054,11.89206Zm29.92005-11.88525l18.49081-8.11795-10.18979,13.74329-17.60043,6.25876,9.29942-11.88409h-.00002Zm22.42981,16.25519l-8.93554,12.67215.52421-19.11053,10.46838-14.11627-2.05705,20.55469v-.00003Zm-42.04182,78.77896l-13.72738-20.0282,13.72738-18.62613,13.72738,18.62613-13.72738,20.0282Zm-25.69983-57.04504l-.66863-24.31631,22.89034,8.13953v23.6636l-22.22171-7.48685v.00003Zm29.04447-16.17676l22.89034-8.13953-.66864,24.31631-22.22171,7.48685v-23.66364Zm-45.37508-5.56281l-2.05365-20.54901,10.45246,14.11288.52535,19.10599-8.92416-12.66986Zm36.29819,35.96841l-13.71942,18.61475-23.32132-6.87619,14.79969-19.23221s22.24104,7.49365,22.24105,7.49365Zm-8.44509,34.57089l10.69922,15.60931v18.26907l-10.31032-17.64249-.3889-16.23587v-.00003Zm19.91073-34.57089l22.23991-7.49365,14.7997,19.23221-23.32017,6.87619s-13.71943-18.61475-13.71944-18.61475Zm66.70153-25.17825l-17.26273,19.36981-20.3841-7.57098,12.22979-17.34116,25.41704,5.54236v-.00003Zm-59.33296-30.21457l-13.09856,16.73621-13.094-16.74191,13.09059-22.41391,13.10197,22.41959v.00003Zm-85.53006,30.19751l25.42158-5.53439,12.22069,17.34799-20.38185,7.56189-17.26043-19.37549h.00002Zm18.2827,26.55417l14.57682-5.40817-11.32464,14.71667-16.60204,5.66858s13.34986-14.97708,13.34986-14.97708Zm-11.79541,21.93515l17.28546-5.9017,18.45668,5.44113-15.44672,4.88623-20.29542-4.42569v.00003Zm23.75911,10.76404l20.67863-6.54074.52876,21.99884-23.7989,10.44565,2.59151-25.90372v-.00003Zm63.14687,15.46265l.53672-22.00339,20.67181,6.54758,2.58583,25.90714s-23.79435-10.45132-23.79436-10.45132Zm24.66995-21.79074l-15.44672-4.89304,18.46805-5.44455,17.29115,5.91418-20.31248,4.42343v-.00003Z"/><path class="e" d="m145.58895,441.3891c0-1.8649,1.32249-3.10663,2.89967-3.10663,1.59311,0,2.89853,1.24173,2.89853,3.10663,0,1.84668-1.3054,3.07364-2.89853,3.07364-1.57719,0-2.89967-1.22696-2.89967-3.07364m5.3047,0c0-1.52945-1.06776-2.66086-2.40503-2.66086-1.33839,0-2.40503,1.13144-2.40503,2.66086,0,1.51239,1.06664,2.61197,2.40503,2.61197,1.33725,0,2.40503-1.09961,2.40503-2.61197m-2.7888-2.1991h.3997c.62086.49454,1.22581.71741,1.22581,1.5134,0,.39798-.27063.78122-.6368.89151l.78008,1.00647h-.48326l-.58298-1.13712h-.70258v1.13712h0v-3.41138h.00002Zm.43929,2.27426c.45442,0,.77251-.16663.77251-.56152,0-.34729-.18176-.57559-.72707-.57559h-.48471v1.13712h.43929-.00002Z"/><path class="e" d="m783.42343,362.85678c0-1.90811,1.35431-3.17941,2.96899-3.17941,1.63068,0,2.96906,1.2713,2.96906,3.17941,0,1.89218-1.33838,3.14755-2.96906,3.14755-1.61469,0-2.96899-1.2554-2.96899-3.14755m5.43091,0c0-1.56467-1.09167-2.72342-2.46191-2.72342s-2.46185,1.15875-2.46185,2.72342c0,1.54877,1.09167,2.67453,2.46185,2.67453s2.46191-1.12576,2.46191-2.67453m-2.8219-2.12848h.37592c.63562.383,1.25647.6127,1.25647,1.42688,0,.40823-.27747.80054-.65271.91312l.79822,1.07141h-.4906l-.58423-1.13712h-.70312v1.13712h0v-3.41138l.00006-.00003Zm.43964,2.27426c.45441,0,.77356-.16696.77356-.56116,0-.34769-.18176-.57596-.72711-.57596h-.48608v1.13712h.43964Z"/></g></svg>