<?xml version="1.0" encoding="utf-8"?>
<!-- Generator: Adobe Illustrator 26.5.0, SVG Export Plug-In . SVG Version: 6.00 Build 0)  -->
<svg version="1.1" id="Layer_1" xmlns="http://www.w3.org/2000/svg" xmlns:xlink="http://www.w3.org/1999/xlink" x="0px" y="0px"
	 viewBox="0 0 520 129" style="enable-background:new 0 0 520 129;" xml:space="preserve">
<style type="text/css">
	.st0{fill:#0337C3;}
</style>
<path class="st0" d="M148.99,81.43c-4.37,0.17-8.04,0.26-11.01,0.26c-4.11,0-7.34-0.57-9.7-1.7c-2.27-1.14-3.89-3.14-4.85-6.03
	c-0.46-1.42-0.81-3.13-1.05-5.11h23.06c7.51,0,12.8-1.44,15.86-4.32c3.06-2.97,4.54-7.43,4.45-13.37c0-7.34-2.4-12.84-7.21-16.51
	c-4.72-3.76-12.54-5.63-23.46-5.63c-7.95,0-14.37,1.09-19.26,3.28c-4.89,2.18-8.47,5.77-10.74,10.75
	c-2.27,4.98-3.41,11.71-3.41,20.18c0,7.77,1.09,14.15,3.28,19.13c2.27,4.98,5.9,8.69,10.88,11.14c5.07,2.36,11.71,3.54,19.92,3.54
	c3.14,0,6.42-0.17,9.83-0.52c3.41-0.26,6.73-0.74,9.96-1.44c3.23-0.7,6.12-1.66,8.65-2.88l-1.84-11.92
	C157.9,80.78,153.45,81.17,148.99,81.43z M127.37,44.09c2.01-0.96,4.8-1.44,8.39-1.44c4.02,0,6.86,0.61,8.52,1.83
	c1.75,1.14,2.66,3.23,2.75,6.29c0,2.27-0.44,4.06-1.31,5.37c-0.79,1.22-2.67,1.83-5.64,1.83h-18.02c0.14-3.51,0.51-6.31,1.11-8.39
	C123.97,46.88,125.36,45.05,127.37,44.09z M245.76,46.97v48.48h-19.39V53c0-2.88-0.52-4.85-1.57-5.9c-1.05-1.14-2.84-1.7-5.37-1.7
	c-2.79,0-5.68,0.57-8.65,1.7c-2.51,0.89-5.53,2.22-9.04,3.98v44.38h-19.39V30.72h15.59l1.71,9.83c4.38-3.61,8.83-6.41,13.36-8.39
	c4.89-2.1,9.7-3.14,14.41-3.14C239.64,29.02,245.76,35,245.76,46.97z M290.26,44.21v30.54c0,2.36,0.52,4.06,1.57,5.11
	c1.14,0.96,2.97,1.44,5.5,1.44h8.39l2.1,13.1c-1.57,0.52-3.49,0.96-5.77,1.31c-2.27,0.44-4.54,0.74-6.81,0.92
	c-2.27,0.26-4.19,0.39-5.77,0.39c-5.85,0-10.44-1.57-13.76-4.72c-3.23-3.15-4.85-7.56-4.85-13.23l-0.07-34.86h-11.33V31.38
	l11.3-0.59l-0.04-18.02h19.52v17.95h18.08v13.49H290.26z M380.43,38.58c-1.92-3.49-4.76-5.94-8.52-7.34
	c-3.76-1.49-8.34-2.23-13.76-2.23c-3.23,0-6.9,0.17-11.01,0.52c-4.11,0.26-8.21,0.61-12.32,1.05c-4.11,0.44-7.73,0.96-10.88,1.57
	l1.84,12.84c5.24-0.35,10.35-0.61,15.33-0.79c4.98-0.26,9.13-0.39,12.45-0.39c4.02,0,6.73,0.7,8.12,2.1
	c1.48,1.4,2.23,3.63,2.23,6.68v3.01h-23.46c-6.11,0-10.92,1.44-14.41,4.32c-3.49,2.88-5.24,6.9-5.24,12.06v6.68
	c0,4.02,0.92,7.38,2.75,10.09c1.84,2.71,4.32,4.76,7.47,6.16c3.15,1.4,6.68,2.1,10.61,2.1c4.02,0,7.6-0.66,10.74-1.97
	c3.15-1.31,5.9-2.88,8.26-4.72c2.13-1.74,3.89-3.48,5.31-5.22l2.03,10.33h15.46V52.74C383.45,46.71,382.44,41.99,380.43,38.58z
	 M363,77.37c-2.62,1.75-5.29,3.1-7.99,4.06c-2.62,0.96-5.07,1.44-7.34,1.44c-2.71,0-4.67-0.57-5.9-1.7
	c-1.22-1.22-1.83-2.93-1.83-5.11v-3.14c0-1.92,0.48-3.45,1.44-4.59c1.05-1.14,2.75-1.7,5.11-1.7l17.43-0.08v10.17
	C363.62,76.93,363.32,77.16,363,77.37z M449.4,29.02l-1.84,17.95h-5.37c-3.06,0-6.25,0.44-9.57,1.31
	c-2.88,0.76-6.42,1.85-10.61,3.26v43.91h-19.39V30.72h15.2l1.81,9.85c4.25-3.64,8.54-6.45,12.87-8.41c4.63-2.1,9.13-3.14,13.5-3.14
	H449.4z M516.98,38.58c-1.92-3.49-4.76-5.94-8.52-7.34c-3.76-1.49-8.34-2.23-13.76-2.23c-3.23,0-6.9,0.17-11.01,0.52
	c-4.11,0.26-8.21,0.61-12.32,1.05c-4.11,0.44-7.73,0.96-10.88,1.57l1.83,12.84c5.24-0.35,10.35-0.61,15.33-0.79
	c4.98-0.26,9.13-0.39,12.45-0.39c4.02,0,6.73,0.7,8.12,2.1c1.49,1.4,2.23,3.63,2.23,6.68v3.01h-23.46c-6.11,0-10.92,1.44-14.41,4.32
	c-3.49,2.88-5.24,6.9-5.24,12.06v6.68c0,4.02,0.92,7.38,2.75,10.09c1.83,2.71,4.32,4.76,7.47,6.16c3.14,1.4,6.68,2.1,10.61,2.1
	c4.02,0,7.6-0.66,10.74-1.97c3.14-1.31,5.9-2.88,8.26-4.72c2.13-1.74,3.89-3.48,5.31-5.22l2.03,10.33H520V52.74
	C520,46.71,518.99,41.99,516.98,38.58z M499.56,77.37c-2.62,1.75-5.29,3.1-7.99,4.06c-2.62,0.96-5.07,1.44-7.34,1.44
	c-2.71,0-4.67-0.57-5.9-1.7c-1.22-1.22-1.83-2.93-1.83-5.11v-3.14c0-1.92,0.48-3.45,1.44-4.59c1.05-1.14,2.75-1.7,5.11-1.7
	l17.43-0.08v10.17C500.17,76.93,499.87,77.16,499.56,77.37z M36.97,64.58L9.36,12.17h19.66l23.4,26.68L87.98,4.21L105.3,0
	L68.33,64.58l28.08,51.48H76.75L52.42,88.92l-35.57,34.63L0,128.23L36.97,64.58z"/>
</svg>
