<?xml version="1.0" encoding="UTF-8" standalone="no"?><!DOCTYPE svg PUBLIC "-//W3C//DTD SVG 1.1//EN" "http://www.w3.org/Graphics/SVG/1.1/DTD/svg11.dtd"><svg width="100%" height="100%" viewBox="0 0 27 19" version="1.1" xmlns="http://www.w3.org/2000/svg" xmlns:xlink="http://www.w3.org/1999/xlink" xml:space="preserve" xmlns:serif="http://www.serif.com/" style="fill-rule:evenodd;clip-rule:evenodd;stroke-linejoin:round;stroke-miterlimit:1.41421;"><path d="M27,18.75l-23.827,0l0,-1.743l1.029,0.895l1.077,-0.895l9.116,0l1.002,0.894l1.081,-0.894l8.438,0l1.015,0.893l1.069,-0.893l0,1.743Z" style="fill:#fff;fill-rule:nonzero;"/><path d="M7.503,0l0.132,0l0,2.068l-0.132,0c-1.061,0 -1.732,0.37 -2.014,1.109c-0.148,0.391 -0.222,0.75 -0.222,1.074l0,0.951l3.051,0l-0.753,2.067l-2.298,0l0,9.231l-1.066,0.861l-0.992,-0.861l0,-9.231l-3.209,0l0.751,-2.067l2.458,0l0,-0.951c0,-1.325 0.482,-2.446 1.449,-3.364c0.371,-0.283 0.762,-0.502 1.174,-0.657c0.496,-0.154 1.052,-0.23 1.671,-0.23" style="fill:#fff;fill-rule:nonzero;"/><path d="M12.361,5.202c1.196,0 2.229,0.469 3.101,1.41c0.849,-0.941 1.921,-1.435 3.17,-1.435c3.497,0 4.066,2.951 4.066,4.045l0,6.185l-2.059,0l0,-5.999c0,-0.958 -0.48,-1.641 -1.439,-2.05c-0.265,-0.059 -0.478,-0.089 -0.636,-0.089c-0.843,0 -1.485,0.432 -1.926,1.296c-0.108,0.278 -0.16,0.627 -0.16,1.047l0,6.889l-1.078,0.859l-0.981,-0.859l0,-7.208c0,-0.758 -0.324,-2.024 -1.983,-2.024c-1.788,0 -2.152,1.535 -2.152,2.042l0,6.096l-2.058,0l0.01,-5.956c0,-2.288 1.129,-4.249 4.125,-4.249" style="fill:#fff;fill-rule:nonzero;"/><path d="M24.917,8.718l0,7.783l1.014,0.859l1.067,-0.859l0,-7.783l-2.081,0Z" style="fill:#fff;fill-rule:nonzero;"/><rect x="24.92" y="5.202" width="2.08" height="2.569" style="fill:#fff;"/></svg>