<?xml version="1.0" encoding="UTF-8" standalone="no"?>
<!DOCTYPE svg PUBLIC "-//W3C//DTD SVG 1.1//EN" "http://www.w3.org/Graphics/SVG/1.1/DTD/svg11.dtd">
<svg width="100%" height="100%" viewBox="0 0 673 532" version="1.1" xmlns="http://www.w3.org/2000/svg" xmlns:xlink="http://www.w3.org/1999/xlink" xml:space="preserve" xmlns:serif="http://www.serif.com/" style="fill-rule:evenodd;clip-rule:evenodd;stroke-linejoin:round;stroke-miterlimit:2;">
    <g transform="matrix(8.33333,0,0,8.33333,0,496.248)">
        <path d="M0,4.184L0,0L9.048,0.002L12.347,2.859L15.799,0.002L80.708,0.002L80.708,4.184L0,4.184Z" style="fill:white;fill-rule:nonzero;"/>
    </g>
    <g transform="matrix(8.33333,0,0,8.33333,521.25,129.752)">
        <path d="M0,29.71L0,12.196C0,9.097 -1.572,6.858 -4.673,5.544C-5.617,5.323 -6.284,5.231 -6.802,5.231C-9.55,5.231 -11.666,6.639 -13.093,9.418C-13.46,10.358 -13.634,11.482 -13.634,12.81L-13.595,29.71L-18.754,29.71L-18.794,11.848C-18.794,8.649 -20.507,5.231 -25.318,5.231C-31.056,5.231 -32.346,10.174 -32.346,11.904L-32.346,29.71L-37.505,29.71L-37.478,12.326C-37.478,4.54 -33.128,0.074 -25.542,0.074C-22.099,0.074 -19.078,1.445 -16.56,4.148L-16.167,4.569L-15.781,4.142C-13.289,1.394 -10.198,0 -6.594,0C5.026,0 5.16,11.163 5.16,11.638L5.16,29.71L0,29.71Z" style="fill:white;fill-rule:nonzero;"/>
    </g>
    <g transform="matrix(8.33333,0,0,8.33333,-1545.92,-1391.12)">
        <rect x="260.985" y="194.803" width="5.227" height="17.411" style="fill:white;"/>
    </g>
    <g transform="matrix(8.33333,0,0,8.33333,-1545.92,-1669.18)">
        <rect x="260.994" y="216.859" width="5.227" height="6.667" style="fill:white;"/>
    </g>
    <g transform="matrix(8.33333,0,0,8.33333,82.3583,17.8583)">
        <path d="M0,55.378L0,18.659L-9.683,18.659L-9.583,13.502L0,13.502L0,10.115C0,6.297 1.418,3.023 4.213,0.381C5.24,-0.397 6.388,-1.036 7.583,-1.483C8.957,-1.907 10.558,-2.131 12.314,-2.143L12.314,3.019C8.958,3.05 6.79,4.286 5.864,6.694C5.396,7.924 5.161,9.074 5.161,10.115L5.161,13.502L15.189,13.502C13.243,15.303 12.164,17.742 11.808,18.659L5.161,18.659L5.161,55.367L2.479,57.521L0,55.378Z" style="fill:white;fill-rule:nonzero;"/>
    </g>
</svg>
