<?xml version="1.0" encoding="UTF-8" standalone="no"?>
<!DOCTYPE svg PUBLIC "-//W3C//DTD SVG 1.1//EN" "http://www.w3.org/Graphics/SVG/1.1/DTD/svg11.dtd">
<svg width="100%" height="100%" viewBox="0 0 250 250" version="1.1" xmlns="http://www.w3.org/2000/svg" xmlns:xlink="http://www.w3.org/1999/xlink" xml:space="preserve" xmlns:serif="http://www.serif.com/" style="fill-rule:evenodd;clip-rule:evenodd;stroke-linejoin:round;stroke-miterlimit:2;">
    <path d="M250,48.586L250,201.414C250,228.229 228.229,250 201.414,250L48.586,250C21.771,250 0,228.229 0,201.414L0,48.586C0,21.771 21.771,0 48.586,0L201.414,0C228.229,0 250,21.771 250,48.586Z" style="fill:white;"/>
    <g id="Layer1" transform="matrix(1,0,0,1,-4,-1)">
        <g transform="matrix(1.2406,0,0,-1.2406,15.5217,367.378)">
            <path d="M3.75,128.543L3.75,137.309L22.711,137.305L29.625,131.317L36.859,137.305L172.883,137.305L172.883,128.543L3.75,128.543Z" style="fill:rgb(204,25,58);fill-rule:nonzero;"/>
        </g>
        <g transform="matrix(1.2406,0,0,-1.2406,14.8292,204.936)">
            <path d="M134.832,36.375L134.832,73.074C134.832,79.571 131.535,84.262 125.035,87.016C123.059,87.477 121.664,87.672 120.574,87.672C114.816,87.672 110.383,84.719 107.391,78.899C106.625,76.926 106.262,74.571 106.262,71.789L106.34,36.375L95.527,36.375L95.445,73.805C95.445,80.508 91.855,87.672 81.773,87.672C69.75,87.672 67.047,77.313 67.047,73.688L67.047,36.375L56.234,36.375L56.289,72.805C56.289,89.121 65.406,98.477 81.305,98.477C88.52,98.477 94.852,95.606 100.129,89.942L100.949,89.059L101.762,89.953C106.984,95.711 113.461,98.637 121.012,98.637C145.363,98.637 145.645,75.239 145.645,74.246L145.645,36.375L134.832,36.375Z" style="fill:rgb(42,55,65);fill-rule:nonzero;"/>
        </g>
        <g transform="matrix(1.2406,0,0,-1.2406,14.8292,236.918)">
            <rect x="161.914" y="62.152" width="10.953" height="36.488" style="fill:rgb(42,55,65);"/>
        </g>
        <g transform="matrix(1.2406,0,0,-1.2406,14.8292,150.164)">
            <rect x="161.934" y="38.445" width="10.953" height="13.973" style="fill:rgb(42,55,65);"/>
        </g>
        <g transform="matrix(1.2406,0,0,-1.2406,14.8292,201.858)">
            <path d="M24.461,8.242L24.461,85.187L4.168,85.187L4.379,95.996L24.461,95.996L24.461,103.093C24.461,111.093 27.434,117.957 33.289,123.492C35.441,125.125 37.848,126.461 40.352,127.398C43.23,128.289 46.586,128.758 50.266,128.781L50.266,117.965C43.234,117.898 38.688,115.308 36.75,110.261C35.77,107.683 35.273,105.273 35.273,103.093L35.273,95.996L56.289,95.996C52.211,92.222 49.953,87.109 49.207,85.187L35.273,85.187L35.273,8.261L29.656,3.75L24.461,8.242Z" style="fill:rgb(42,55,65);fill-rule:nonzero;"/>
        </g>
    </g>
</svg>
