<?xml version="1.0" encoding="UTF-8" standalone="no"?><!DOCTYPE svg PUBLIC "-//W3C//DTD SVG 1.1//EN" "http://www.w3.org/Graphics/SVG/1.1/DTD/svg11.dtd"><svg width="100%" height="100%" viewBox="0 0 226 179" version="1.1" xmlns="http://www.w3.org/2000/svg" xmlns:xlink="http://www.w3.org/1999/xlink" xml:space="preserve" xmlns:serif="http://www.serif.com/" style="fill-rule:evenodd;clip-rule:evenodd;stroke-linejoin:round;stroke-miterlimit:2;"><g id="FMI-bare"><path id="path106" d="M0.242,178.303l0,-11.69l25.281,0.005l9.218,7.983l9.646,-7.983l181.366,0l-0,11.685l-225.511,0" style="fill:#cc173a;fill-rule:nonzero;"/><path id="path108" d="M175.017,126.741l-0,-48.935c-0,-8.661 -4.392,-14.915 -13.059,-18.588c-2.637,-0.617 -4.5,-0.873 -5.948,-0.873c-7.677,0 -13.589,3.933 -17.579,11.698c-1.025,2.627 -1.509,5.769 -1.509,9.477l0.107,47.221l-14.416,0l-0.112,-49.909c-0,-8.937 -4.785,-18.487 -18.227,-18.487c-16.032,0 -19.639,13.81 -19.639,18.646l0,49.75l-14.416,0l0.077,-48.573c-0,-21.755 12.155,-34.233 33.351,-34.233c9.621,0 18.063,3.831 25.098,11.381l1.096,1.178l1.082,-1.193c6.963,-7.678 15.599,-11.575 25.668,-11.575c32.47,0 32.842,31.193 32.842,32.52l-0,50.495l-14.416,0" style="fill:#fff;fill-rule:nonzero;"/><path id="path110" d="M211.127,126.741l0,-48.649l14.606,0l-0,48.649l-14.606,0" style="fill:#fff;fill-rule:nonzero;"/><path id="path112" d="M211.153,65.115l-0,-18.629l14.605,-0l-0,18.629l-14.605,0" style="fill:#fff;fill-rule:nonzero;"/><path id="path114" d="M27.855,160.945l-0,-102.6l-27.057,0l0.28,-14.41l26.777,0l-0,-9.462c-0,-10.667 3.963,-19.818 11.773,-27.2c2.867,-2.174 6.075,-3.959 9.417,-5.208c3.836,-1.184 8.31,-1.811 13.216,-1.842l0,14.422c-9.375,0.086 -15.435,3.54 -18.022,10.268c-1.306,3.438 -1.964,6.652 -1.964,9.56l-0,9.462l28.021,0c-5.438,5.035 -8.452,11.85 -9.447,14.41l-18.574,0l-0,102.569l-7.493,6.02l-6.927,-5.989" style="fill:#fff;fill-rule:nonzero;"/></g></svg>