<?xml version="1.0" encoding="UTF-8" standalone="no"?><!DOCTYPE svg PUBLIC "-//W3C//DTD SVG 1.1//EN" "http://www.w3.org/Graphics/SVG/1.1/DTD/svg11.dtd"><svg width="100%" height="100%" viewBox="0 0 231 136" version="1.1" xmlns="http://www.w3.org/2000/svg" xmlns:xlink="http://www.w3.org/1999/xlink" xml:space="preserve" xmlns:serif="http://www.serif.com/" style="fill-rule:evenodd;clip-rule:evenodd;stroke-linejoin:round;stroke-miterlimit:2;"><g id="SSP-bare"><path id="path194" d="M0.148,135.303l-0,-11.789l151.853,-0.073l9.379,8.409l9.384,-8.409l59.43,0.073l-0.005,11.789l-230.041,0" style="fill:#cc173a;fill-rule:nonzero;"/><path id="path196" d="M2.538,83.438l0,-14.669l41.21,-0c5.306,-0 9.623,-4.312 9.623,-9.617c-0,-5.307 -4.317,-9.623 -9.623,-9.623l-19.136,-0c-13.394,-0 -24.287,-10.895 -24.287,-24.287c-0,-13.393 10.893,-24.292 24.287,-24.292l48.036,-0.099c-5.962,5.879 -8.743,12.263 -9.67,14.768l-38.366,-0c-5.307,-0 -9.618,4.317 -9.618,9.623c-0,5.306 4.311,9.623 9.618,9.623l19.136,-0.005c13.393,-0 24.292,10.898 24.292,24.292c-0,13.393 -10.899,24.286 -24.292,24.286l-41.21,0" style="fill:#fff;fill-rule:nonzero;"/><path id="path198" d="M71.695,83.438c2.651,-3.311 6.962,-9.301 8.212,-14.669l41.466,-0c5.306,-0 9.617,-4.312 9.617,-9.617c0,-5.307 -4.311,-9.623 -9.617,-9.623l-19.137,-0c-13.393,-0 -24.291,-10.895 -24.291,-24.287c-0,-13.393 10.898,-24.292 24.291,-24.292l54.26,-0.099c-2.88,2.921 -7.191,8.066 -9.743,14.768l-44.517,-0c-5.306,-0 -9.623,4.317 -9.623,9.623c-0,5.306 4.317,9.623 9.623,9.623l19.137,-0.005c13.392,-0 24.287,10.898 24.287,24.292c-0,13.393 -10.895,24.286 -24.287,24.286l-49.678,0" style="fill:#fff;fill-rule:nonzero;"/><path id="path200" d="M190.369,15.187c-11.929,-0 -21.636,9.706 -21.636,21.641l-0,10.737c-0,11.936 9.707,21.641 21.636,21.641l3.665,0c11.931,0 21.636,-9.705 21.636,-21.641l0,-10.737c0,-11.935 -9.705,-21.641 -21.636,-21.641l-3.665,-0Zm-35.983,101.974l0,-80.333c0,-19.845 16.143,-35.987 35.983,-35.987l3.665,-0c19.84,-0 35.983,16.142 35.983,35.987l-0,10.737c-0,19.84 -16.143,35.983 -35.983,35.983l-3.665,-0c-6.832,-0 -13.508,-1.964 -19.315,-5.676l-2.321,-1.485l-0,40.774l-7.176,6.748l-7.171,-6.748" style="fill:#fff;fill-rule:nonzero;"/></g></svg>