<?xml version="1.0" encoding="UTF-8" standalone="no"?>
<!DOCTYPE svg PUBLIC "-//W3C//DTD SVG 1.1//EN" "http://www.w3.org/Graphics/SVG/1.1/DTD/svg11.dtd">
<svg width="100%" height="100%" viewBox="0 0 250 250" version="1.1" xmlns="http://www.w3.org/2000/svg" xmlns:xlink="http://www.w3.org/1999/xlink" xml:space="preserve" xmlns:serif="http://www.serif.com/" style="fill-rule:evenodd;clip-rule:evenodd;stroke-linejoin:round;stroke-miterlimit:2;">
    <path d="M250,48.586L250,201.414C250,228.229 228.229,250 201.414,250L48.586,250C21.771,250 0,228.229 0,201.414L0,48.586C0,21.771 21.771,0 48.586,0L201.414,0C228.229,0 250,21.771 250,48.586Z" style="fill:white;"/>
    <g id="g192" transform="matrix(0.121687,0,0,-0.121687,20.0467,191.582)">
        <g id="g190">
            <g id="g1921" serif:id="g192">
                <path id="path194" d="M0,5.41L0,93.832L1138.9,94.379L1209.24,31.312L1279.62,94.379L1725.35,93.832L1725.31,5.41L0,5.41" style="fill:rgb(204,25,58);fill-rule:nonzero;"/>
                <path id="path196" d="M17.93,394.398L17.93,504.418L327,504.418C366.801,504.418 399.172,536.754 399.172,576.547C399.172,616.348 366.801,648.719 327,648.719L183.48,648.719C83.031,648.719 1.328,730.426 1.328,830.867C1.328,931.316 83.031,1013.06 183.48,1013.06L543.754,1013.8C499.035,969.711 478.184,921.832 471.23,903.043L183.48,903.043C143.68,903.043 111.348,870.668 111.348,830.867C111.348,791.074 143.68,758.699 183.48,758.699L327,758.738C427.449,758.738 509.191,676.996 509.191,576.547C509.191,476.098 427.449,394.398 327,394.398L17.93,394.398" style="fill:rgb(42,55,65);fill-rule:nonzero;"/>
                <path id="path198" d="M536.609,394.398C556.488,419.234 588.82,464.156 598.195,504.418L909.188,504.418C948.984,504.418 981.32,536.754 981.32,576.547C981.32,616.348 948.984,648.719 909.188,648.719L765.66,648.719C665.215,648.719 583.477,730.426 583.477,830.867C583.477,931.316 665.215,1013.06 765.66,1013.06L1172.61,1013.8C1151.01,991.895 1118.68,953.305 1099.54,903.043L765.66,903.043C725.867,903.043 693.488,870.668 693.488,830.867C693.488,791.074 725.867,758.699 765.66,758.699L909.188,758.738C1009.63,758.738 1091.34,676.996 1091.34,576.547C1091.34,476.098 1009.63,394.398 909.188,394.398L536.609,394.398" style="fill:rgb(42,55,65);fill-rule:nonzero;"/>
                <path id="path200" d="M1426.66,906.285C1337.19,906.285 1264.39,833.484 1264.39,743.973L1264.39,663.445C1264.39,573.93 1337.19,501.137 1426.66,501.137L1454.15,501.137C1543.63,501.137 1616.42,573.93 1616.42,663.445L1616.42,743.973C1616.42,833.484 1543.63,906.285 1454.15,906.285L1426.66,906.285ZM1156.79,141.48L1156.79,743.973C1156.79,892.813 1277.86,1013.88 1426.66,1013.88L1454.15,1013.88C1602.95,1013.88 1724.02,892.813 1724.02,743.973L1724.02,663.445C1724.02,514.645 1602.95,393.578 1454.15,393.578L1426.66,393.578C1375.42,393.578 1325.35,408.305 1281.8,436.148L1264.39,447.281L1264.39,141.48L1210.57,90.863L1156.79,141.48" style="fill:rgb(42,55,65);fill-rule:nonzero;"/>
            </g>
        </g>
    </g>
</svg>
