<?xml version="1.0" encoding="UTF-8" standalone="no"?>
<!-- Created with Inkscape (http://www.inkscape.org/) -->

<svg
   xmlns:dc="http://purl.org/dc/elements/1.1/"
   xmlns:cc="http://creativecommons.org/ns#"
   xmlns:rdf="http://www.w3.org/1999/02/22-rdf-syntax-ns#"
   xmlns:svg="http://www.w3.org/2000/svg"
   xmlns="http://www.w3.org/2000/svg"
   xmlns:sodipodi="http://sodipodi.sourceforge.net/DTD/sodipodi-0.dtd"
   xmlns:inkscape="http://www.inkscape.org/namespaces/inkscape"
   version="1.1"
   id="svg182"
   xml:space="preserve"
   width="728.61462"
   height="139.18399"
   viewBox="0 0 728.61462 139.18399"
   sodipodi:docname="SSP.svg"
   inkscape:version="0.92.4 (5da689c313, 2019-01-14)"><metadata
     id="metadata188"><rdf:RDF><cc:Work
         rdf:about=""><dc:format>image/svg+xml</dc:format><dc:type
           rdf:resource="http://purl.org/dc/dcmitype/StillImage" /><dc:title></dc:title></cc:Work></rdf:RDF></metadata><defs
     id="defs186" /><sodipodi:namedview
     pagecolor="#ffffff"
     bordercolor="#666666"
     borderopacity="1"
     objecttolerance="10"
     gridtolerance="10"
     guidetolerance="10"
     inkscape:pageopacity="0"
     inkscape:pageshadow="2"
     inkscape:window-width="2436"
     inkscape:window-height="1571"
     id="namedview184"
     showgrid="false"
     fit-margin-top="2"
     fit-margin-right="2"
     fit-margin-left="2"
     fit-margin-bottom="2"
     inkscape:zoom="2.4344018"
     inkscape:cx="326.05388"
     inkscape:cy="71.165746"
     inkscape:window-x="2551"
     inkscape:window-y="-9"
     inkscape:window-maximized="1"
     inkscape:current-layer="g190" /><g
     id="g190"
     inkscape:groupmode="layer"
     inkscape:label="ink_ext_XXXXXX"
     transform="matrix(1.3333333,0,0,-1.3333333,2,137.184)"><g
       id="g192"
       transform="scale(0.1)"><path
         d="M 0,5.41016 V 93.832 l 1138.9,0.5469 70.34,-63.0664 70.38,63.0664 445.73,-0.5469 -0.04,-88.42184 H 0"
         style="fill:#cc193a;fill-opacity:1;fill-rule:nonzero;stroke:none"
         id="path194"
         inkscape:connector-curvature="0" /><path
         d="m 17.9297,394.398 v 110.02 H 327 c 39.801,0 72.172,32.336 72.172,72.129 0,39.801 -32.371,72.172 -72.172,72.172 H 183.48 c -100.4487,0 -182.15187,81.707 -182.15187,182.148 0,100.449 81.70317,182.193 182.15187,182.193 l 360.274,0.74 C 499.035,969.711 478.184,921.832 471.23,903.043 H 183.48 c -39.8,0 -72.132,-32.375 -72.132,-72.176 0,-39.793 32.332,-72.168 72.132,-72.168 L 327,758.738 c 100.449,0 182.191,-81.742 182.191,-182.191 C 509.191,476.098 427.449,394.398 327,394.398 H 17.9297"
         style="fill:#2a3741;fill-opacity:1;fill-rule:nonzero;stroke:none"
         id="path196"
         inkscape:connector-curvature="0" /><path
         d="m 536.609,394.398 c 19.879,24.836 52.211,69.758 61.586,110.02 h 310.993 c 39.796,0 72.132,32.336 72.132,72.129 0,39.801 -32.336,72.172 -72.132,72.172 H 765.66 c -100.445,0 -182.183,81.707 -182.183,182.148 0,100.449 81.738,182.193 182.183,182.193 l 406.95,0.74 c -21.6,-21.905 -53.93,-60.495 -73.07,-110.757 H 765.66 c -39.793,0 -72.172,-32.375 -72.172,-72.176 0,-39.793 32.379,-72.168 72.172,-72.168 l 143.528,0.039 c 100.442,0 182.152,-81.742 182.152,-182.191 0,-100.449 -81.71,-182.149 -182.152,-182.149 H 536.609"
         style="fill:#2a3741;fill-opacity:1;fill-rule:nonzero;stroke:none"
         id="path198"
         inkscape:connector-curvature="0" /><path
         d="m 1426.66,906.285 c -89.47,0 -162.27,-72.801 -162.27,-162.312 v -80.528 c 0,-89.515 72.8,-162.308 162.27,-162.308 h 27.49 c 89.48,0 162.27,72.793 162.27,162.308 v 80.528 c 0,89.511 -72.79,162.312 -162.27,162.312 z M 1156.79,141.48 v 602.493 c 0,148.84 121.07,269.907 269.87,269.907 h 27.49 c 148.8,0 269.87,-121.067 269.87,-269.907 v -80.528 c 0,-148.8 -121.07,-269.867 -269.87,-269.867 h -27.49 c -51.24,0 -101.31,14.727 -144.86,42.57 l -17.41,11.133 V 141.48 l -53.82,-50.6167 -53.78,50.6167"
         style="fill:#2a3741;fill-opacity:1;fill-rule:nonzero;stroke:none"
         id="path200"
         inkscape:connector-curvature="0" /><path
         d="m 2193.25,502.523 c -38.25,17.618 -71.99,35.247 -71.99,79.856 0,30.742 25.49,68.984 75.74,68.984 49.48,0 74.6,-38.242 74.6,-38.242 L 2247.98,594 c 0,0 -18.37,27.371 -50.98,27.371 -28.87,0 -44.24,-20.242 -44.24,-38.992 0,-26.613 22.49,-37.109 58.47,-53.613 40.12,-18.371 65.24,-35.235 65.24,-77.598 0,-42.746 -35.24,-71.242 -81.35,-71.242 -62.24,0 -83.6,54.738 -83.6,54.738 l 26.24,15.75 c 0,0 15.74,-40.488 57.36,-40.488 25.12,0 49.11,14.238 49.11,41.242 0,27.363 -21.75,37.859 -50.98,51.355"
         style="fill:#2a3741;fill-opacity:1;fill-rule:nonzero;stroke:none"
         id="path202"
         inkscape:connector-curvature="0" /><path
         d="m 2334.6,331.938 c 0,0 10.87,-8.993 20.62,-8.993 13.88,0 20.24,9.746 26.99,26.621 l 13.5,34.11 -80.98,173.957 h 35.62 l 60.73,-136.836 51.74,136.836 h 34.12 c 0,0 -86.99,-218.945 -91.11,-229.063 -10.12,-25.117 -29.62,-34.875 -47.98,-34.875 -21.37,0 -36.74,12.375 -36.74,12.375 l 13.49,25.868"
         style="fill:#2a3741;fill-opacity:1;fill-rule:nonzero;stroke:none"
         id="path204"
         inkscape:connector-curvature="0" /><path
         d="m 2547.94,436.539 c 0,0 18.37,-28.117 52.49,-28.117 17.62,0 37.49,7.5 37.49,21.367 0,15 -12.75,22.5 -39.36,27.746 -37.12,7.5 -63.36,22.117 -63.36,54.735 0,25.117 25.12,49.863 63.73,49.863 40.87,0 64.11,-26.238 64.11,-26.238 l -20.62,-21.368 c 0,0 -17.25,19.11 -43.49,19.11 -22.12,0 -32.99,-10.867 -32.99,-22.117 0,-13.118 13.5,-20.247 41.98,-26.243 33,-7.117 61.12,-19.492 61.12,-54.734 0,-33.371 -35.25,-50.617 -68.61,-50.617 -48.74,0 -74.24,36.367 -74.24,36.367 l 21.75,20.246"
         style="fill:#2a3741;fill-opacity:1;fill-rule:nonzero;stroke:none"
         id="path206"
         inkscape:connector-curvature="0" /><path
         d="m 2708.04,557.633 h 33.75 v 52.871 h 31.48 v -52.871 h 54 v -28.488 h -54 v -93.348 c 0,-16.875 8.26,-26.621 25.13,-26.621 9.75,0 19.87,7.117 19.87,7.117 l 11.62,-25.867 c -14.99,-8.242 -25.87,-10.5 -35.99,-10.5 -24.75,0 -52.11,16.125 -52.11,54.367 v 94.852 h -33.75 v 28.488"
         style="fill:#2a3741;fill-opacity:1;fill-rule:nonzero;stroke:none"
         id="path208"
         inkscape:connector-curvature="0" /><path
         d="m 3007.24,486.031 c -1.13,19.492 -18.75,46.864 -53.61,46.864 -37.49,0 -52.86,-28.868 -55.12,-46.864 z m 30.74,-16.125 c 0,-3.367 0,-5.996 -0.38,-10.117 h -139.83 c 1.86,-26.25 26.99,-50.613 59.61,-50.613 34.11,0 52.11,25.488 52.11,25.488 l 19.87,-20.617 c 0,0 -26.25,-34.121 -71.98,-34.121 -52.49,0 -90.36,39.746 -90.36,91.105 0,50.614 34.49,91.102 86.61,91.102 48.36,0 84.35,-36.367 84.35,-92.227"
         style="fill:#2a3741;fill-opacity:1;fill-rule:nonzero;stroke:none"
         id="path210"
         inkscape:connector-curvature="0" /><path
         d="M 3331.93,495.777 V 384.43 h -31.5 v 106.472 c 0,28.118 -14.62,41.993 -37.11,41.993 -25.87,0 -37.12,-27.743 -37.12,-27.743 V 384.43 h -31.49 v 106.472 c 0,28.118 -14.62,41.993 -37.12,41.993 -25.49,0 -37.11,-27.743 -37.11,-27.743 V 384.43 h -31.49 v 173.203 h 29.24 v -25.488 c 0,0 12.75,29.988 47.98,29.988 43.12,0 54,-32.235 54,-32.235 0,0 13.87,32.235 51.74,32.235 35.98,0 59.98,-23.613 59.98,-66.356"
         style="fill:#2a3741;fill-opacity:1;fill-rule:nonzero;stroke:none"
         id="path212"
         inkscape:connector-curvature="0" /><path
         d="m 3591.4,502.523 c -38.24,17.618 -71.98,35.247 -71.98,79.856 0,30.742 25.49,68.984 75.73,68.984 49.48,0 74.6,-38.242 74.6,-38.242 L 3646.14,594 c 0,0 -18.37,27.371 -50.99,27.371 -28.87,0 -44.25,-20.242 -44.25,-38.992 0,-26.613 22.5,-37.109 58.49,-53.613 40.12,-18.371 65.23,-35.235 65.23,-77.598 0,-42.746 -35.23,-71.242 -81.35,-71.242 -62.23,0 -83.6,54.738 -83.6,54.738 l 26.24,15.75 c 0,0 15.74,-40.488 57.36,-40.488 25.12,0 49.12,14.238 49.12,41.242 0,27.363 -21.75,37.859 -50.99,51.355"
         style="fill:#2a3741;fill-opacity:1;fill-rule:nonzero;stroke:none"
         id="path214"
         inkscape:connector-curvature="0" /><path
         d="m 3718.14,557.633 h 33.75 v 52.871 h 31.48 v -52.871 h 54 v -28.488 h -54 v -93.348 c 0,-16.875 8.25,-26.621 25.13,-26.621 9.75,0 19.86,7.117 19.86,7.117 l 11.62,-25.867 c -14.99,-8.242 -25.87,-10.5 -35.98,-10.5 -24.75,0 -52.11,16.125 -52.11,54.367 v 94.852 h -33.75 v 28.488"
         style="fill:#2a3741;fill-opacity:1;fill-rule:nonzero;stroke:none"
         id="path216"
         inkscape:connector-curvature="0" /><path
         d="m 3991.84,557.633 -11.62,-28.488 c 0,0 -6.75,3.75 -19.87,3.75 -27.37,0 -39.74,-29.247 -39.74,-29.247 V 384.43 h -31.5 v 173.203 h 29.24 V 531.02 c 0,0 15.37,31.113 48.37,31.113 14.25,0 25.12,-4.5 25.12,-4.5"
         style="fill:#2a3741;fill-opacity:1;fill-rule:nonzero;stroke:none"
         id="path218"
         inkscape:connector-curvature="0" /><path
         d="m 4031.6,446.285 v 111.348 h 31.49 V 451.539 c 0,-29.621 18.37,-42.363 41.61,-42.363 29.25,0 43.12,28.484 43.12,28.484 v 119.973 h 31.49 V 384.43 h -29.25 v 26.621 c 0,0 -15.74,-31.125 -53.23,-31.125 -34.49,0 -65.23,23.625 -65.23,66.359"
         style="fill:#2a3741;fill-opacity:1;fill-rule:nonzero;stroke:none"
         id="path220"
         inkscape:connector-curvature="0" /><path
         d="m 4390.39,413.297 c 0,0 -25.11,-33.371 -70.86,-33.371 -50.98,0 -89.21,40.117 -89.21,91.105 0,50.614 38.23,91.102 89.21,91.102 44.25,0 68.99,-31.113 68.99,-31.113 l -21.37,-19.122 c 0,0 -16.87,20.997 -47.62,20.997 -34.86,0 -57.73,-27.743 -57.73,-61.864 0,-34.113 22.87,-61.855 57.73,-61.855 33.75,0 50.62,24.746 50.62,24.746 l 20.24,-20.625"
         style="fill:#2a3741;fill-opacity:1;fill-rule:nonzero;stroke:none"
         id="path222"
         inkscape:connector-curvature="0" /><path
         d="m 4421.15,557.633 h 33.75 v 52.871 h 31.48 v -52.871 h 53.99 v -28.488 h -53.99 v -93.348 c 0,-16.875 8.25,-26.621 25.13,-26.621 9.74,0 19.86,7.117 19.86,7.117 l 11.62,-25.867 c -14.99,-8.242 -25.87,-10.5 -35.98,-10.5 -24.75,0 -52.11,16.125 -52.11,54.367 v 94.852 h -33.75 v 28.488"
         style="fill:#2a3741;fill-opacity:1;fill-rule:nonzero;stroke:none"
         id="path224"
         inkscape:connector-curvature="0" /><path
         d="m 4592.12,446.285 v 111.348 h 31.5 V 451.539 c 0,-29.621 18.37,-42.363 41.61,-42.363 29.25,0 43.11,28.484 43.11,28.484 v 119.973 h 31.5 V 384.43 h -29.25 v 26.621 c 0,0 -15.74,-31.125 -53.23,-31.125 -34.5,0 -65.24,23.625 -65.24,66.359"
         style="fill:#2a3741;fill-opacity:1;fill-rule:nonzero;stroke:none"
         id="path226"
         inkscape:connector-curvature="0" /><path
         d="m 4905.57,557.633 -11.62,-28.488 c 0,0 -6.75,3.75 -19.87,3.75 -27.37,0 -39.74,-29.247 -39.74,-29.247 V 384.43 h -31.49 v 173.203 h 29.23 V 531.02 c 0,0 15.37,31.113 48.37,31.113 14.25,0 25.12,-4.5 25.12,-4.5"
         style="fill:#2a3741;fill-opacity:1;fill-rule:nonzero;stroke:none"
         id="path228"
         inkscape:connector-curvature="0" /><path
         d="m 5067.55,486.031 c -1.13,19.492 -18.75,46.864 -53.61,46.864 -37.49,0 -52.86,-28.868 -55.12,-46.864 z m 30.74,-16.125 c 0,-3.367 0,-5.996 -0.38,-10.117 h -139.83 c 1.86,-26.25 26.99,-50.613 59.61,-50.613 34.11,0 52.11,25.488 52.11,25.488 l 19.87,-20.617 c 0,0 -26.25,-34.121 -71.98,-34.121 -52.49,0 -90.36,39.746 -90.36,91.105 0,50.614 34.49,91.102 86.61,91.102 48.36,0 84.35,-36.367 84.35,-92.227"
         style="fill:#2a3741;fill-opacity:1;fill-rule:nonzero;stroke:none"
         id="path230"
         inkscape:connector-curvature="0" /><path
         d="m 2200.75,161.969 c 32.98,28.867 36.35,32.246 36.35,49.492 0,16.113 -14.24,32.234 -34.49,32.234 -21.74,0 -34.48,-16.863 -34.48,-32.234 0,-23.996 15.37,-32.246 32.62,-49.492 z m 69.72,-103.0979 -72.35,64.4839 -1.12,-1.125 c -31.5,-25.8667 -45.75,-38.6206 -45.75,-56.6089 0,-26.25 27.37,-36.3672 52.11,-36.3672 26.25,0 52.49,11.6211 67.11,29.6172 z m 55.86,89.6019 c 0,-58.4886 -16.49,-84.7269 -16.49,-84.7269 L 2355.58,22.5039 2336.46,0 2291.47,39.75 C 2273.1,16.8789 2239.36,0 2203.36,0 c -51.74,0 -83.6,30.375 -83.6,61.8711 0,28.8672 10.5,45.7309 56.24,81.3559 -30,26.992 -39.37,44.98 -39.37,68.234 0,28.484 23.62,59.98 65.98,59.98 42.37,0 65.99,-31.867 65.99,-59.98 0,-22.121 -7.5,-35.996 -46.87,-68.613 l 65.62,-59.2386 c 0,0 9.74,12.3711 9.74,64.8636 h 29.24"
         style="fill:#2a3741;fill-opacity:1;fill-rule:nonzero;stroke:none"
         id="path232"
         inkscape:connector-curvature="0" /><path
         d="m 2587.31,138.727 c 35.61,0 59.98,15.742 59.98,49.109 0,33.371 -24.37,49.113 -59.98,49.113 h -34.49 v -98.222 z m -65.99,128.211 h 67.86 c 54.74,0 89.6,-28.868 89.6,-79.102 0,-50.234 -34.86,-79.102 -89.6,-79.102 h -36.36 V 4.51172 h -31.5 V 266.938"
         style="fill:#2a3741;fill-opacity:1;fill-rule:nonzero;stroke:none"
         id="path234"
         inkscape:connector-curvature="0" /><path
         d="m 2840.01,54 v 24.3633 c 0,0 -17.24,12.375 -45.36,12.375 -26.99,0 -43.87,-13.4961 -43.87,-31.4961 0,-22.4883 20.25,-31.4922 39.75,-31.4922 30.74,0 49.48,26.25 49.48,26.25 z m 31.5,64.48 V 4.51172 h -28.87 V 29.625 c 0,0 -19.49,-29.625 -58.86,-29.625 -31.12,0 -64.49,21.7539 -64.49,59.2422 0,33.7422 29.62,57.7348 68.61,57.7348 31.87,0 52.11,-14.247 52.11,-14.247 v 9.375 c 0,35.997 -29.99,40.868 -43.86,40.868 -26.24,0 -51.73,-14.629 -51.73,-14.629 l -13.13,26.25 c 0,0 26.99,17.617 64.86,17.617 50.99,0 75.36,-31.492 75.36,-63.731"
         style="fill:#2a3741;fill-opacity:1;fill-rule:nonzero;stroke:none"
         id="path236"
         inkscape:connector-curvature="0" /><path
         d="m 3037.24,177.711 -11.62,-28.488 c 0,0 -6.75,3.75 -19.87,3.75 -27.37,0 -39.74,-29.246 -39.74,-29.246 V 4.51172 h -31.49 V 177.711 h 29.23 v -26.613 c 0,0 15.37,31.113 48.37,31.113 14.25,0 25.12,-4.5 25.12,-4.5"
         style="fill:#2a3741;fill-opacity:1;fill-rule:nonzero;stroke:none"
         id="path238"
         inkscape:connector-curvature="0" /><path
         d="m 3184.96,54 v 24.3633 c 0,0 -17.24,12.375 -45.36,12.375 -26.99,0 -43.86,-13.4961 -43.86,-31.4961 0,-22.4883 20.24,-31.4922 39.74,-31.4922 30.74,0 49.48,26.25 49.48,26.25 z m 31.5,64.48 V 4.51172 h -28.87 V 29.625 c 0,0 -19.49,-29.625 -58.86,-29.625 -31.12,0 -64.49,21.7539 -64.49,59.2422 0,33.7422 29.62,57.7348 68.61,57.7348 31.87,0 52.11,-14.247 52.11,-14.247 v 9.375 c 0,35.997 -29.99,40.868 -43.86,40.868 -26.24,0 -51.73,-14.629 -51.73,-14.629 l -13.13,26.25 c 0,0 27,17.617 64.86,17.617 50.99,0 75.36,-31.492 75.36,-63.731"
         style="fill:#2a3741;fill-opacity:1;fill-rule:nonzero;stroke:none"
         id="path240"
         inkscape:connector-curvature="0" /><path
         d="M 3522.41,115.855 V 4.51172 h -31.5 V 110.98 c 0,28.118 -14.62,41.993 -37.11,41.993 -25.87,0 -37.12,-27.743 -37.12,-27.743 V 4.51172 h -31.49 V 110.98 c 0,28.118 -14.62,41.993 -37.12,41.993 -25.49,0 -37.11,-27.743 -37.11,-27.743 V 4.51172 h -31.49 V 177.711 h 29.23 v -25.488 c 0,0 12.76,29.988 47.99,29.988 43.12,0 54,-32.234 54,-32.234 0,0 13.86,32.234 51.74,32.234 35.98,0 59.98,-23.613 59.98,-66.356"
         style="fill:#2a3741;fill-opacity:1;fill-rule:nonzero;stroke:none"
         id="path242"
         inkscape:connector-curvature="0" /><path
         d="m 3713.64,106.109 c -1.14,19.493 -18.75,46.864 -53.62,46.864 -37.49,0 -52.86,-28.868 -55.11,-46.864 z m 30.74,-16.1246 c 0,-3.3672 0,-5.9961 -0.38,-10.1172 h -139.84 c 1.87,-26.25 27,-50.6133 59.61,-50.6133 34.11,0 52.11,25.4883 52.11,25.4883 l 19.88,-20.6172 c 0,0 -26.25,-34.125 -71.99,-34.125 -52.49,0 -90.35,39.75 -90.35,91.1094 0,50.6136 34.48,91.1016 86.6,91.1016 48.36,0 84.36,-36.367 84.36,-92.2266"
         style="fill:#2a3741;fill-opacity:1;fill-rule:nonzero;stroke:none"
         id="path244"
         inkscape:connector-curvature="0" /><path
         d="m 3780.38,177.711 h 33.75 v 52.871 h 31.49 v -52.871 h 53.99 v -28.488 h -53.99 V 55.875 c 0,-16.875 8.25,-26.6211 25.13,-26.6211 9.74,0 19.86,7.1172 19.86,7.1172 L 3902.23,10.5 C 3887.24,2.26172 3876.36,0 3866.24,0 c -24.74,0 -52.11,16.1289 -52.11,54.3711 v 94.8519 h -33.75 v 28.488"
         style="fill:#2a3741;fill-opacity:1;fill-rule:nonzero;stroke:none"
         id="path246"
         inkscape:connector-curvature="0" /><path
         d="m 4079.58,106.109 c -1.13,19.493 -18.75,46.864 -53.61,46.864 -37.49,0 -52.86,-28.868 -55.12,-46.864 z m 30.75,-16.1246 c 0,-3.3672 0,-5.9961 -0.39,-10.1172 h -139.83 c 1.87,-26.25 26.99,-50.6133 59.61,-50.6133 34.11,0 52.11,25.4883 52.11,25.4883 L 4101.7,34.125 c 0,0 -26.25,-34.125 -71.98,-34.125 -52.49,0 -90.36,39.75 -90.36,91.1094 0,50.6136 34.49,91.1016 86.61,91.1016 48.36,0 84.36,-36.367 84.36,-92.2266"
         style="fill:#2a3741;fill-opacity:1;fill-rule:nonzero;stroke:none"
         id="path248"
         inkscape:connector-curvature="0" /><path
         d="m 4264.05,177.711 -11.62,-28.488 c 0,0 -6.75,3.75 -19.88,3.75 -27.36,0 -39.73,-29.246 -39.73,-29.246 V 4.51172 h -31.5 V 177.711 h 29.24 v -26.613 c 0,0 15.37,31.113 48.37,31.113 14.25,0 25.12,-4.5 25.12,-4.5"
         style="fill:#2a3741;fill-opacity:1;fill-rule:nonzero;stroke:none"
         id="path250"
         inkscape:connector-curvature="0" /><path
         d="m 4309.43,177.711 h 31.49 V 4.51172 h -31.49 z m 15.74,76.863 c 11.62,0 21.38,-9.754 21.38,-21.375 0,-11.621 -9.76,-21.367 -21.38,-21.367 -11.62,0 -21.37,9.746 -21.37,21.367 0,11.621 9.75,21.375 21.37,21.375"
         style="fill:#2a3741;fill-opacity:1;fill-rule:nonzero;stroke:none"
         id="path252"
         inkscape:connector-curvature="0" /><path
         d="M 4553.13,177.711 4453.77,33.7461 H 4549 V 4.51172 h -150.72 l 99.36,143.96128 h -94.1 v 29.238 h 149.59"
         style="fill:#2a3741;fill-opacity:1;fill-rule:nonzero;stroke:none"
         id="path254"
         inkscape:connector-curvature="0" /><path
         d="m 4713.23,54 v 24.3633 c 0,0 -17.25,12.375 -45.37,12.375 -26.99,0 -43.86,-13.4961 -43.86,-31.4961 0,-22.4883 20.24,-31.4922 39.74,-31.4922 30.75,0 49.49,26.25 49.49,26.25 z m 31.49,64.48 V 4.51172 h -28.87 V 29.625 c 0,0 -19.49,-29.625 -58.85,-29.625 -31.13,0 -64.5,21.7539 -64.5,59.2422 0,33.7422 29.62,57.7348 68.62,57.7348 31.86,0 52.11,-14.247 52.11,-14.247 v 9.375 c 0,35.997 -29.99,40.868 -43.87,40.868 -26.24,0 -51.73,-14.629 -51.73,-14.629 l -13.12,26.25 c 0,0 26.99,17.617 64.85,17.617 50.99,0 75.36,-31.492 75.36,-63.731"
         style="fill:#2a3741;fill-opacity:1;fill-rule:nonzero;stroke:none"
         id="path256"
         inkscape:connector-curvature="0" /><path
         d="m 4792.72,177.711 h 33.75 v 52.871 h 31.48 v -52.871 h 54 v -28.488 h -54 V 55.875 c 0,-16.875 8.25,-26.6211 25.13,-26.6211 9.75,0 19.86,7.1172 19.86,7.1172 L 4914.56,10.5 C 4899.57,2.26172 4888.69,0 4878.58,0 c -24.75,0 -52.11,16.1289 -52.11,54.3711 v 94.8519 h -33.75 v 28.488"
         style="fill:#2a3741;fill-opacity:1;fill-rule:nonzero;stroke:none"
         id="path258"
         inkscape:connector-curvature="0" /><path
         d="m 4969.32,177.711 h 31.49 V 4.51172 h -31.49 z m 15.74,76.863 c 11.62,0 21.38,-9.754 21.38,-21.375 0,-11.621 -9.76,-21.367 -21.38,-21.367 -11.62,0 -21.37,9.746 -21.37,21.367 0,11.621 9.75,21.375 21.37,21.375"
         style="fill:#2a3741;fill-opacity:1;fill-rule:nonzero;stroke:none"
         id="path260"
         inkscape:connector-curvature="0" /><path
         d="m 5204.4,91.1094 c 0,34.1206 -22.87,61.8636 -57.75,61.8636 -34.86,0 -57.73,-27.743 -57.73,-61.8636 0,-34.1133 22.87,-61.8555 57.73,-61.8555 34.88,0 57.75,27.7422 57.75,61.8555 z m 31.48,0 C 5235.88,40.1211 5197.65,0 5146.65,0 c -50.98,0 -89.22,40.1211 -89.22,91.1094 0,50.9846 38.24,91.1016 89.22,91.1016 51,0 89.23,-40.117 89.23,-91.1016"
         style="fill:#2a3741;fill-opacity:1;fill-rule:nonzero;stroke:none"
         id="path262"
         inkscape:connector-curvature="0" /><path
         d="M 5434.61,115.855 V 4.51172 h -31.49 V 110.609 c 0,29.61 -18.37,42.364 -41.61,42.364 -28.13,0 -43.12,-29.246 -43.12,-29.246 V 4.51172 H 5286.9 V 177.711 h 29.24 v -24.367 c 0,0 15.75,28.867 53.24,28.867 34.49,0 65.23,-23.613 65.23,-66.356"
         style="fill:#2a3741;fill-opacity:1;fill-rule:nonzero;stroke:none"
         id="path264"
         inkscape:connector-curvature="0" /></g></g></svg>