<?xml version="1.0" encoding="UTF-8"?>
<!DOCTYPE svg PUBLIC "-//W3C//DTD SVG 1.1//EN" "http://www.w3.org/Graphics/SVG/1.1/DTD/svg11.dtd">
<svg xmlns="http://www.w3.org/2000/svg" xmlns:xlink="http://www.w3.org/1999/xlink" version="1.1" width="281px" height="191px" viewBox="-0.5 -0.5 281 191"><defs/><g><rect x="0" y="0" width="100" height="40" fill="rgb(255, 255, 255)" stroke="rgb(0, 0, 0)" pointer-events="all"/><path d="M 50 40 L 50 190" fill="none" stroke="rgb(0, 0, 0)" stroke-miterlimit="10" stroke-dasharray="3 3" pointer-events="all"/><g fill="rgb(0, 0, 0)" font-family="Helvetica" text-anchor="middle" font-size="12px"><text x="49.5" y="24.5">:FMU 1</text></g><rect x="45" y="70" width="10" height="100" fill="rgb(255, 255, 255)" stroke="rgb(0, 0, 0)" pointer-events="all"/><rect x="49" y="108" width="10" height="40" fill="rgb(255, 255, 255)" stroke="rgb(0, 0, 0)" pointer-events="all"/><path d="M 61 108 L 71 108 Q 81 108 81 118 L 81 138 Q 81 148 75.06 148 L 69.12 148" fill="none" stroke="rgb(0, 0, 0)" stroke-miterlimit="10" stroke-dasharray="1 1" pointer-events="stroke"/><path d="M 62.12 148 L 69.12 144.5 L 69.12 151.5 Z" fill="rgb(0, 0, 0)" stroke="rgb(0, 0, 0)" stroke-miterlimit="10" pointer-events="all"/><g fill="rgb(0, 0, 0)" font-family="Helvetica" font-size="11px"><rect fill="rgb(255, 255, 255)" stroke="none" x="84" y="124" width="41" height="14" stroke-width="0"/><text x="83.5" y="133.5">Confirm</text></g><rect x="180" y="0" width="100" height="40" fill="rgb(255, 255, 255)" stroke="rgb(0, 0, 0)" pointer-events="all"/><path d="M 230 40 L 230 190" fill="none" stroke="rgb(0, 0, 0)" stroke-miterlimit="10" stroke-dasharray="3 3" pointer-events="all"/><g fill="rgb(0, 0, 0)" font-family="Helvetica" text-anchor="middle" font-size="12px"><text x="229.5" y="24.5">:FMU 2</text></g><rect x="225" y="70" width="10" height="100" fill="rgb(255, 255, 255)" stroke="rgb(0, 0, 0)" pointer-events="all"/><path d="M 55 89 L 216.88 89" fill="none" stroke="rgb(0, 0, 0)" stroke-miterlimit="10" pointer-events="stroke"/><path d="M 223.88 89 L 216.88 92.5 L 216.88 85.5 Z" fill="rgb(0, 0, 0)" stroke="rgb(0, 0, 0)" stroke-miterlimit="10" pointer-events="all"/><g fill="rgb(0, 0, 0)" font-family="Helvetica" text-anchor="middle" font-size="11px"><rect fill="rgb(255, 255, 255)" stroke="none" x="119" y="74" width="44" height="14" stroke-width="0"/><text x="139.7" y="83.5">Transmit</text></g></g></svg>