<?xml version="1.0" encoding="UTF-8"?>
<!DOCTYPE svg PUBLIC "-//W3C//DTD SVG 1.1//EN" "http://www.w3.org/Graphics/SVG/1.1/DTD/svg11.dtd">
<svg xmlns="http://www.w3.org/2000/svg" xmlns:xlink="http://www.w3.org/1999/xlink" version="1.1" width="593px" height="402px" viewBox="-0.5 -0.5 593 402"><defs/><g><rect x="254" y="0" width="130" height="40" fill="rgb(255, 255, 255)" stroke="rgb(0, 0, 0)" pointer-events="all"/><path d="M 319 40 L 319 400" fill="none" stroke="rgb(0, 0, 0)" stroke-miterlimit="10" stroke-dasharray="3 3" pointer-events="all"/><g fill="rgb(0, 0, 0)" font-family="Helvetica" text-anchor="middle" font-size="12px"><text x="318.5" y="24.5">:Bus Simulation</text></g><rect x="314" y="80" width="10" height="300" fill="rgb(255, 255, 255)" stroke="rgb(0, 0, 0)" pointer-events="all"/><rect x="320" y="190" width="10" height="40" fill="rgb(255, 255, 255)" stroke="rgb(0, 0, 0)" pointer-events="all"/><rect x="91" y="0" width="100" height="40" fill="rgb(255, 255, 255)" stroke="rgb(0, 0, 0)" pointer-events="all"/><path d="M 141 40 L 141 400" fill="none" stroke="rgb(0, 0, 0)" stroke-miterlimit="10" stroke-dasharray="3 3" pointer-events="all"/><g fill="rgb(0, 0, 0)" font-family="Helvetica" text-anchor="middle" font-size="12px"><text x="140.5" y="24.5">:FMU</text></g><rect x="136" y="80" width="10" height="300" fill="rgb(255, 255, 255)" stroke="rgb(0, 0, 0)" pointer-events="all"/><rect x="492" y="0" width="100" height="40" fill="rgb(255, 255, 255)" stroke="rgb(0, 0, 0)" pointer-events="all"/><path d="M 542 40 L 542 400" fill="none" stroke="rgb(0, 0, 0)" stroke-miterlimit="10" stroke-dasharray="3 3" pointer-events="all"/><g fill="rgb(0, 0, 0)" font-family="Helvetica" text-anchor="middle" font-size="12px"><text x="541.5" y="24.5">:FMU</text></g><rect x="537" y="80" width="10" height="300" fill="rgb(255, 255, 255)" stroke="rgb(0, 0, 0)" pointer-events="all"/><path d="M 334 190 L 344 190 Q 354 190 354 200 L 354 220 Q 354 230 348.06 230 L 342.12 230" fill="none" stroke="rgb(0, 0, 0)" stroke-miterlimit="10" pointer-events="stroke"/><path d="M 335.12 230 L 342.12 226.5 L 342.12 233.5 Z" fill="rgb(0, 0, 0)" stroke="rgb(0, 0, 0)" stroke-miterlimit="10" pointer-events="all"/><g fill="rgb(0, 0, 0)" font-family="Helvetica" text-anchor="middle" font-size="11px"><rect fill="rgb(255, 255, 255)" stroke="none" x="359" y="205" width="83" height="14" stroke-width="0"/><text x="399.5" y="215.09">Arbitration (A, B)</text></g><path d="M 147 99 L 306.88 99" fill="none" stroke="rgb(0, 0, 0)" stroke-miterlimit="10" pointer-events="stroke"/><path d="M 313.88 99 L 306.88 102.5 L 306.88 95.5 Z" fill="rgb(0, 0, 0)" stroke="rgb(0, 0, 0)" stroke-miterlimit="10" pointer-events="all"/><g fill="rgb(0, 0, 0)" font-family="Helvetica" text-anchor="middle" font-size="11px"><rect fill="rgb(255, 255, 255)" stroke="none" x="202" y="84" width="59" height="14" stroke-width="0"/><text x="230.03" y="93.5">Transmit(A)</text></g><path d="M 537.2 147.56 L 332.12 147.98" fill="none" stroke="rgb(0, 0, 0)" stroke-miterlimit="10" pointer-events="stroke"/><path d="M 325.12 148 L 332.11 144.48 L 332.13 151.48 Z" fill="rgb(0, 0, 0)" stroke="rgb(0, 0, 0)" stroke-miterlimit="10" pointer-events="all"/><g fill="rgb(0, 0, 0)" font-family="Helvetica" text-anchor="middle" font-size="11px"><rect fill="rgb(255, 255, 255)" stroke="none" x="401" y="132" width="59" height="14" stroke-width="0"/><text x="429.64" y="142.28">Transmit(B)</text></g><path d="M 324 321 L 525.88 321" fill="none" stroke="rgb(0, 0, 0)" stroke-miterlimit="10" pointer-events="stroke"/><path d="M 532.88 321 L 525.88 324.5 L 525.88 317.5 Z" fill="rgb(0, 0, 0)" stroke="rgb(0, 0, 0)" stroke-miterlimit="10" pointer-events="all"/><g fill="rgb(0, 0, 0)" font-family="Helvetica" text-anchor="middle" font-size="11px"><rect fill="rgb(255, 255, 255)" stroke="none" x="400" y="306" width="59" height="14" stroke-width="0"/><text x="428.21" y="315.5">Transmit(A)</text></g><path d="M 324 288 L 525.88 288.12" fill="none" stroke="rgb(0, 0, 0)" stroke-miterlimit="10" pointer-events="stroke"/><path d="M 532.88 288.12 L 525.88 291.62 L 525.88 284.62 Z" fill="rgb(0, 0, 0)" stroke="rgb(0, 0, 0)" stroke-miterlimit="10" pointer-events="all"/><g fill="rgb(0, 0, 0)" font-family="Helvetica" text-anchor="middle" font-size="11px"><rect fill="rgb(255, 255, 255)" stroke="none" x="383" y="273" width="91" height="14" stroke-width="0"/><text x="427.03" y="282.56">Arbitration Lost(B)</text></g><path d="M 314 353 L 157.12 353" fill="none" stroke="rgb(0, 0, 0)" stroke-miterlimit="10" pointer-events="stroke"/><path d="M 148.12 353 L 157.12 348.5 L 157.12 357.5 Z" fill="rgb(0, 0, 0)" stroke="rgb(0, 0, 0)" stroke-miterlimit="10" pointer-events="all"/><g fill="rgb(0, 0, 0)" font-family="Helvetica" text-anchor="middle" font-size="11px"><rect fill="rgb(255, 255, 255)" stroke="none" x="203" y="338" width="55" height="14" stroke-width="0"/><text x="229.97" y="347.5">Confirm(A)</text></g><rect x="68" y="70" width="17" height="180" fill="none" stroke="none" pointer-events="all"/><path d="M 85 70 L 76.5 70 L 76.5 250 L 85 250" fill="none" stroke="rgb(0, 0, 0)" stroke-width="2" stroke-miterlimit="10" pointer-events="all"/><path d="M 68 160 L 76.5 160" fill="none" stroke="rgb(0, 0, 0)" stroke-width="2" stroke-miterlimit="10" pointer-events="all"/><rect x="68" y="273" width="17" height="117" fill="none" stroke="none" pointer-events="all"/><path d="M 85 273 L 76.5 273 L 76.5 390 L 85 390" fill="none" stroke="rgb(0, 0, 0)" stroke-width="2" stroke-miterlimit="10" pointer-events="all"/><path d="M 68 331.5 L 76.5 331.5" fill="none" stroke="rgb(0, 0, 0)" stroke-width="2" stroke-miterlimit="10" pointer-events="all"/><rect x="0" y="317.5" width="80" height="26" fill="none" stroke="none" pointer-events="all"/><g fill="rgb(0, 0, 0)" font-family="Helvetica" font-size="11px"><text x="4.5" y="334.5">Event Mode</text></g><rect x="0" y="146" width="80" height="26" fill="none" stroke="none" pointer-events="all"/><g fill="rgb(0, 0, 0)" font-family="Helvetica" font-size="11px"><text x="4.5" y="163">Event Mode</text></g><rect x="68" y="254" width="17" height="15" fill="none" stroke="none" pointer-events="all"/><path d="M 85 254 L 76.5 254 L 76.5 269 L 85 269" fill="none" stroke="rgb(0, 0, 0)" stroke-width="2" stroke-miterlimit="10" pointer-events="all"/><path d="M 68 261.5 L 76.5 261.5" fill="none" stroke="rgb(0, 0, 0)" stroke-width="2" stroke-miterlimit="10" pointer-events="all"/><rect x="0" y="247" width="80" height="26" fill="none" stroke="none" pointer-events="all"/><g fill="rgb(0, 0, 0)" font-family="Helvetica" font-size="11px"><text x="4.5" y="264">Step Mode</text></g></g></svg>